<svg width="852" height="278" viewBox="0 0 852 278" fill="none" xmlns="http://www.w3.org/2000/svg">
<path d="M788.091 132H710.091L695.211 168H655.371L730.251 0H768.651L843.771 168H802.971L788.091 132ZM775.851 102.48L749.211 38.16L722.571 102.48H775.851Z" fill="white"/>
<path d="M601.114 168L600.874 67.2L551.434 150.24H533.914L484.714 69.36V168H448.234V0H480.394L543.274 104.4L605.194 0H637.114L637.594 168H601.114Z" fill="white"/>
<path d="M368.326 108.48V168H329.446V108L264.406 0H305.686L350.566 74.64L395.446 0H433.606L368.326 108.48Z" fill="white"/>
<path d="M268.56 0L213.6 168H171.84L134.88 54.24L96.72 168H55.2L0 0H40.32L78.24 118.08L117.84 0H153.84L192.24 119.04L231.36 0H268.56Z" fill="white"/>
<path d="M811.051 277.12C805.867 277.12 800.843 276.384 795.979 274.912C791.179 273.44 787.371 271.488 784.555 269.056L788.875 259.36C791.627 261.536 794.987 263.328 798.955 264.736C802.987 266.08 807.019 266.752 811.051 266.752C816.043 266.752 819.755 265.952 822.187 264.352C824.683 262.752 825.931 260.64 825.931 258.016C825.931 256.096 825.227 254.528 823.819 253.312C822.475 252.032 820.747 251.04 818.635 250.336C816.523 249.632 813.643 248.832 809.995 247.936C804.875 246.72 800.715 245.504 797.515 244.288C794.379 243.072 791.659 241.184 789.355 238.624C787.115 236 785.995 232.48 785.995 228.064C785.995 224.352 786.987 220.992 788.971 217.984C791.019 214.912 794.059 212.48 798.091 210.688C802.187 208.896 807.179 208 813.067 208C817.163 208 821.195 208.512 825.163 209.536C829.131 210.56 832.555 212.032 835.435 213.952L831.499 223.648C828.555 221.92 825.483 220.608 822.283 219.712C819.083 218.816 815.979 218.368 812.971 218.368C808.043 218.368 804.363 219.2 801.931 220.864C799.563 222.528 798.379 224.736 798.379 227.488C798.379 229.408 799.051 230.976 800.395 232.192C801.803 233.408 803.563 234.368 805.675 235.072C807.787 235.776 810.667 236.576 814.315 237.472C819.307 238.624 823.403 239.84 826.603 241.12C829.803 242.336 832.523 244.224 834.763 246.784C837.067 249.344 838.219 252.8 838.219 257.152C838.219 260.864 837.195 264.224 835.147 267.232C833.163 270.24 830.123 272.64 826.027 274.432C821.931 276.224 816.939 277.12 811.051 277.12Z" fill="white"/>
<path d="M763.968 276.153L750.24 256.473C749.664 256.537 748.8 256.569 747.648 256.569H732.48V276.153H720V208.953H747.648C753.472 208.953 758.528 209.913 762.816 211.833C767.168 213.753 770.496 216.505 772.8 220.089C775.104 223.673 776.256 227.929 776.256 232.857C776.256 237.913 775.008 242.265 772.512 245.913C770.08 249.561 766.56 252.281 761.952 254.073L777.408 276.153H763.968ZM763.68 232.857C763.68 228.569 762.272 225.273 759.456 222.969C756.64 220.665 752.512 219.513 747.072 219.513H732.48V246.297H747.072C752.512 246.297 756.64 245.145 759.456 242.841C762.272 240.473 763.68 237.145 763.68 232.857Z" fill="white"/>
<path d="M706.088 265.689V276.153H655.688V208.953H704.744V219.417H668.168V236.889H700.616V247.161H668.168V265.689H706.088Z" fill="white"/>
<path d="M625.031 208.953H637.511V276.153H625.031V208.953Z" fill="white"/>
<path d="M580.913 219.513H558.641V208.953H615.665V219.513H593.393V276.153H580.913V219.513Z" fill="white"/>
<path d="M549.275 208.953V276.153H539.003L501.947 230.649V276.153H489.562V208.953H499.835L536.891 254.457V208.953H549.275Z" fill="white"/>
<path d="M440.141 277.12C433.293 277.12 427.117 275.648 421.613 272.704C416.109 269.696 411.789 265.568 408.653 260.32C405.517 255.008 403.949 249.088 403.949 242.56C403.949 236.032 405.517 230.144 408.653 224.896C411.789 219.584 416.109 215.456 421.613 212.512C427.117 209.504 433.293 208 440.141 208C446.989 208 453.165 209.504 458.669 212.512C464.173 215.456 468.493 219.552 471.629 224.8C474.765 230.048 476.333 235.968 476.333 242.56C476.333 249.152 474.765 255.072 471.629 260.32C468.493 265.568 464.173 269.696 458.669 272.704C453.165 275.648 446.989 277.12 440.141 277.12ZM440.141 266.176C444.621 266.176 448.653 265.184 452.237 263.2C455.821 261.152 458.637 258.336 460.685 254.752C462.733 251.104 463.757 247.04 463.757 242.56C463.757 238.08 462.733 234.048 460.685 230.464C458.637 226.816 455.821 224 452.237 222.016C448.653 219.968 444.621 218.944 440.141 218.944C435.661 218.944 431.629 219.968 428.045 222.016C424.461 224 421.645 226.816 419.597 230.464C417.549 234.048 416.525 238.08 416.525 242.56C416.525 247.04 417.549 251.104 419.597 254.752C421.645 258.336 424.461 261.152 428.045 263.2C431.629 265.184 435.661 266.176 440.141 266.176Z" fill="white"/>
<path d="M382.499 276.153L368.771 256.473C368.195 256.537 367.331 256.569 366.179 256.569H351.011V276.153H338.531V208.953H366.179C372.003 208.953 377.059 209.913 381.347 211.833C385.699 213.753 389.027 216.505 391.331 220.089C393.635 223.673 394.787 227.929 394.787 232.857C394.787 237.913 393.539 242.265 391.043 245.913C388.611 249.561 385.091 252.281 380.483 254.073L395.939 276.153H382.499ZM382.211 232.857C382.211 228.569 380.803 225.273 377.987 222.969C375.171 220.665 371.043 219.513 365.603 219.513H351.011V246.297H365.603C371.043 246.297 375.171 245.145 377.987 242.841C380.803 240.473 382.211 237.145 382.211 232.857Z" fill="white"/>
<path d="M289.886 219.417V239.865H322.334V250.425H289.886V276.153H277.406V208.953H326.462V219.417H289.886Z" fill="white"/>
<path d="M239.304 208.953L217.032 276.153H203.784L187.176 226.425L170.28 276.153H156.936L134.664 208.953H147.624L164.328 260.025L181.704 208.953H193.224L210.216 260.313L227.4 208.953H239.304Z" fill="white"/>
<path d="M128.119 265.689V276.153H77.7188V208.953H126.775V219.417H90.1987V236.889H122.647V247.161H90.1987V265.689H128.119Z" fill="white"/>
<path d="M59.712 208.953V276.153H49.44L12.384 230.649V276.153H0V208.953H10.272L47.328 254.457V208.953H59.712Z" fill="white"/>
</svg>
