<svg width="1511" height="369" viewBox="0 0 1511 369" fill="none" xmlns="http://www.w3.org/2000/svg">
<path fill-rule="evenodd" clip-rule="evenodd" d="M264.884 68.2392C252.635 69.0816 245.57 70.0554 235.873 72.2379C225.389 74.5972 214.66 78.2664 205.596 82.5919C189.776 90.1414 176.391 99.9901 166.211 111.57C163.822 114.287 158.825 120.876 157.013 123.697C150.654 133.597 146.266 144.209 143.903 155.399C142.774 160.748 142.274 164.315 142.136 168.004C142 171.632 142.019 171.591 143.171 165.808C146.912 147.018 156.273 130.434 171.577 115.485C188.1 99.3446 210.597 87.099 235.375 80.7589C265.297 73.1028 295.757 73.1729 323.926 80.963C340.589 85.571 357.019 93.414 369.799 102.861C374.345 106.222 374.51 106.325 372.881 104.79C371.129 103.139 365.926 98.7341 363.751 97.0596C349.137 85.8093 327.64 76.2534 307.093 71.8737C295.2 69.3386 286.085 68.3461 273.631 68.2298C269.461 68.1908 265.525 68.195 264.884 68.2392ZM271.444 76.7274C258.964 77.4458 246.765 79.3382 235.599 82.2882C216.624 87.3012 198.995 95.7294 184.537 106.7C170.045 117.697 157.959 132.319 151.613 146.533C150.358 149.345 150.177 150.353 151.293 148.317C154.243 142.935 159.911 135.024 164.143 130.381C175.618 117.793 189.352 107.779 205.841 99.9802C238.112 84.7161 277.339 79.5704 313.284 85.8863C335.728 89.83 356.551 98.1077 372.85 109.565C378.083 113.244 382.119 116.49 387.578 121.408C388.013 121.8 388.006 121.766 387.54 121.214C378.978 111.098 363.504 99.4294 349.214 92.3155C332.154 83.8222 312.89 78.6482 292.145 76.9879C287.743 76.6355 275.677 76.4837 271.444 76.7274ZM273.485 84.9407C256.403 85.9201 241.334 88.6755 226.519 93.5284C209.771 99.0144 194.976 106.548 182.835 115.772C178.71 118.906 172.717 124.175 169.363 127.618C166.746 130.303 164.091 133.307 165.204 132.323C172.709 125.688 177.026 122.322 183.386 118.149C189.401 114.203 192.535 112.408 198.698 109.381C213.508 102.108 228.814 97.1681 245.786 94.1856C271.448 89.6762 297.427 90.13 322.029 95.5176C328.776 96.9952 333.304 98.2383 339.817 100.401C365.228 108.838 386.535 123 401.018 141.076C402.07 142.389 402.933 143.403 402.936 143.329C402.95 142.981 400.007 138.548 397.827 135.633C395.109 131.999 391.856 128.362 387.456 124.037C373.28 110.107 355.873 99.6976 335.672 93.071C323.257 88.9984 309.588 86.2948 295.936 85.2115C291.281 84.842 277.999 84.6818 273.485 84.9407ZM272.027 92.7785C247.601 93.9159 224.17 99.3758 204.095 108.608C195.927 112.365 190.125 115.62 182.953 120.47C181.287 121.597 181.037 121.818 182.078 121.243C195.863 113.633 206.278 109.271 219.982 105.365C261.478 93.5395 309.979 96.1662 349.57 112.383C376.692 123.493 398.452 140.889 409.675 160.434C410.209 161.364 410.691 162.039 410.745 161.933C410.799 161.827 410.386 160.679 409.827 159.382C407.002 152.822 402.388 145.585 397.184 139.548C385.753 126.289 372.31 116.266 355.124 108.189C340.818 101.466 323.509 96.5627 305.78 94.2121C295.255 92.8166 282.678 92.2825 272.027 92.7785ZM267.216 99.6485C245.918 100.367 224.833 104.471 206.424 111.481C202.732 112.886 198.552 114.66 198.552 114.821C198.552 114.869 199.372 114.601 200.374 114.225C203.745 112.962 210.907 110.764 215.754 109.507C226.144 106.811 237.533 104.94 249.307 103.994C253.974 103.619 256.055 103.562 265.175 103.562C276.618 103.562 279.78 103.724 289.521 104.805C313.274 107.441 337.27 114.26 357.019 123.985C369.981 130.367 379.874 136.821 389.102 144.913C394.944 150.037 398.803 154.191 403.365 160.269C407.631 165.954 410.656 171.428 412.837 177.414C414.648 182.383 414.581 182.245 414.415 180.704C413.437 171.648 409.111 161.949 401.753 152.318C388.965 135.578 369.646 121.931 345.211 112.375C337.824 109.486 325.09 105.705 317.22 104.064C305.029 101.522 293.153 100.074 280.92 99.6376C275.127 99.431 273.626 99.4321 267.216 99.6485ZM252.492 105.281C246.6 105.667 238.514 106.573 232.98 107.466C228.565 108.179 217.35 110.482 217.575 110.63C217.632 110.667 219.772 110.352 222.33 109.929C228.22 108.954 235.462 108.148 241.996 107.741C248.329 107.346 264.165 107.452 269.986 107.929C289.587 109.533 305.576 112.607 322.64 118.052C340.622 123.79 355.297 130.668 369.708 140.115C382.973 148.81 392.081 156.846 399.145 166.086C407.863 177.491 411.913 188.082 412.016 199.749L412.052 203.812L412.574 201.807C414.329 195.076 414.041 188.377 411.66 180.513C408.345 169.57 400.241 157.589 389.44 147.665C370.576 130.332 342.62 116.817 311.469 109.969C302.188 107.929 290.557 106.225 280.628 105.45C274.893 105.002 258.271 104.902 252.492 105.281ZM146.715 165.092C145.586 169.157 145.404 170.534 145.397 175.07C145.389 179.852 145.653 181.924 146.83 186.338C148.162 191.33 150.294 196.231 153.268 201.136C159.757 211.841 168.961 220.945 182.202 229.758C192.454 236.581 203.229 242.055 215.609 246.729C240.373 256.08 266.778 260.816 294.186 260.825C308.816 260.83 319.619 259.851 332.995 257.307C337.474 256.455 345.883 254.511 345.675 254.375C345.617 254.337 343.678 254.645 341.368 255.06C329.92 257.116 317.642 258.168 304.974 258.178C291.216 258.189 278.093 257.072 264.271 254.715C240.904 250.729 216.997 242.726 198.406 232.666C193.683 230.111 192.745 229.55 187.229 225.987C166.162 212.377 152.989 196.918 148.724 180.799C147.51 176.212 147.381 175.07 147.381 168.911C147.381 165.576 147.372 162.848 147.36 162.848C147.348 162.848 147.058 163.857 146.715 165.092ZM144.468 188.004C145.751 205.203 160.623 224.8 183.427 239.343C206.906 254.316 238.17 263.689 272.027 265.907C278.974 266.362 292.153 266.359 298.997 265.9C315.164 264.817 330.022 262.158 344.158 257.819C350.139 255.983 355.787 253.932 360.445 251.903C362.49 251.013 364.163 250.261 364.163 250.232C364.163 250.202 360.981 251.227 357.092 252.508C343.634 256.942 331.934 259.491 317.626 261.106C304.702 262.564 289.326 262.733 275.234 261.572C247.82 259.313 221.351 252.235 198.114 240.949C188.699 236.376 178.112 229.633 170.39 223.292C157.708 212.877 149.387 201.36 145.03 188.19L144.322 186.051L144.468 188.004ZM416.802 197.653C414.542 213.798 409.326 226.524 399.717 239.334C378.339 267.836 341.274 286.594 298.414 290.602C275.372 292.757 250.728 290.077 228.583 283.009C213.125 278.074 201.577 272.59 188.512 263.98C183.343 260.572 183.1 260.438 184.689 261.869C194.76 270.938 206.879 278.718 219.436 284.175C237.929 292.213 255.768 296.587 276.548 298.18C282.564 298.641 295.24 298.64 301.33 298.177C324.551 296.414 344.896 290.546 363.404 280.271C374.9 273.889 384.404 266.448 393.083 257.035C407.583 241.31 416.007 221.364 417.115 200.136C417.317 196.261 417.165 195.058 416.802 197.653ZM148.122 206.963C148.105 207.463 150.075 212.136 151.181 214.22C156.393 224.044 166.138 234.727 177.574 243.154C203.448 262.219 240.874 273.237 279.739 273.232C301.312 273.229 321.628 270.081 340.909 263.755C355.277 259.041 370.434 251.395 380.8 243.631C382.239 242.554 382.427 242.318 381.365 242.922C374.646 246.755 372.976 247.674 369.92 249.223C362.993 252.732 356.893 255.263 349.001 257.901C320.398 267.464 287.164 270.208 254.857 265.673C216.77 260.327 183.853 245.965 162.971 225.584C158.218 220.944 152.517 213.912 149.578 209.064C148.782 207.751 148.127 206.806 148.122 206.963ZM408.803 218.372C407.67 220.475 404.277 225.99 402.662 228.353C397.476 235.938 389.986 243.649 380.761 250.899C377.237 253.668 368.853 259.225 364.454 261.706C347.072 271.511 326.468 278.184 304.698 281.06C294.244 282.441 286.894 282.875 276.546 282.724C261.004 282.497 247.773 280.815 233.103 277.2C215.25 272.801 199.099 265.928 184.966 256.715C179.364 253.063 176.04 250.573 171.87 246.904C169.082 244.451 168.434 243.957 169.142 244.825C173.368 250.003 180.622 256.488 187.79 261.494C200.076 270.076 213.748 276.727 229.021 281.553C242.607 285.846 254.779 288.195 269.695 289.402C276.216 289.93 289.727 289.877 296.373 289.298C319.451 287.285 340.344 281.255 359.206 271.161C363.437 268.897 372.333 263.136 376.209 260.151C389.366 250.017 399.848 237.769 406.301 224.987C408.595 220.443 410.737 214.783 408.803 218.372ZM156.44 226.061C157.064 227.47 160.077 231.859 162.121 234.337C173.126 247.681 188.488 258.696 207.838 267.117C224.874 274.532 244.403 279.165 265.555 280.812C271.587 281.281 286.463 281.281 292.495 280.812C324.67 278.307 352.112 269.057 374.794 253.071C382.885 247.368 392.132 238.882 396.523 233.127C397.675 231.618 397.617 231.651 395.49 233.7C373.58 254.82 341.815 268.745 305.343 273.217C296.391 274.315 290.449 274.65 279.899 274.649C269.51 274.649 265.507 274.44 256.38 273.418C224.729 269.875 195.383 258.969 174.497 242.988C168.64 238.506 162.799 233.085 158.319 227.971C157.169 226.658 156.323 225.798 156.44 226.061Z" fill="#168C23"/>
<path fill-rule="evenodd" clip-rule="evenodd" d="M185.143 41.5989C161.064 43.1267 140.824 48.1053 123.041 56.875C109.433 63.5854 98.8527 71.8543 90.9244 81.9736C84.3128 90.4126 80.3139 98.6166 77.9913 108.507C71.9471 134.247 79.2864 162.36 99.7822 191.977C112.637 210.552 130.595 229.34 153.007 247.662C162.564 255.475 168.379 259.763 178.713 266.615C191.171 274.878 201.667 281.043 212.698 286.58L214.738 287.604L212.842 286.485C209.778 284.677 206.431 282.602 198.919 277.853C178.305 264.823 159.305 249.486 142.807 232.559C114.852 203.877 97.5127 174.819 92.142 147.653C90.7763 140.745 90.5611 138.263 90.5448 129.241C90.5284 120.059 90.6987 118.058 92.0248 111.862C98.2874 82.5934 120.664 60.5244 155.753 49.0111C166.771 45.3955 177.305 43.2795 192.141 41.7012L194.619 41.4375L191.121 41.4396C189.196 41.4407 186.506 41.5124 185.143 41.5989ZM197.405 42.8349C188.451 43.4155 181.3 44.3511 173.335 45.9841C171.731 46.313 170.091 46.6491 169.69 46.7312C169.289 46.8133 167.392 47.2885 165.474 47.7869C129.171 57.2212 104.607 77.6719 95.9642 105.655C90.7051 122.683 91.6242 142.698 98.5731 162.471C105.607 182.485 117.683 201.808 136.112 222.533C150.625 238.855 167.253 253.752 185.086 266.41C189.092 269.254 190.59 270.218 188.743 268.765C175.681 258.482 168.463 252.125 159.398 242.919C144.808 228.102 131.893 211.225 122.9 195.223C114.339 179.993 109.141 165.628 106.871 150.937C105.31 140.825 105.31 129.72 106.874 120.456C111.341 93.989 127.332 72.8249 153.119 59.2519C167.863 51.4909 185.788 46.2956 203.804 44.5613C210.397 43.9267 212.414 43.8259 220.861 43.7086L229.608 43.5871L225.817 43.2552C223.733 43.0728 220.668 42.8364 219.007 42.73C214.859 42.4646 202.168 42.5261 197.405 42.8349ZM155.841 43.4189C148.459 44.471 139.423 46.2299 133.451 47.777C100.727 56.2543 76.2617 73.3676 65.0036 95.6553C61.7386 102.119 59.591 108.991 58.2669 117.209C57.7526 120.402 57.7418 133.366 58.2503 136.975C59.5262 146.028 61.7039 153.99 65.1975 162.375C66.3011 165.024 69.2054 171.292 69.8434 172.402C70.0548 172.769 70.8368 174.187 71.5808 175.552C82.9882 196.479 102.543 218.709 127.637 239.275C143.281 252.097 162.678 265.221 181.936 276.013C191.228 281.221 203.932 287.721 211.269 291.022C224.777 297.099 240.118 303.044 252.933 307.166C258.898 309.085 260.983 309.653 258.327 308.635C248.123 304.724 240.269 301.538 234.71 299.054C213.258 289.47 197.54 280.953 179.314 269.036C165.235 259.831 154.816 251.953 141.934 240.771C106.365 209.898 83.2494 176.96 76.2614 147.192C74.284 138.768 73.7102 134.076 73.7049 126.28C73.6991 118.053 74.6193 111.524 76.827 104.127C82.4864 85.1658 96.9593 68.7729 117.874 57.6347C125.22 53.7231 130.996 51.2713 139.513 48.4504C145.15 46.5834 147.835 45.8489 155.258 44.1438C160.851 42.859 160.991 42.6848 155.841 43.4189ZM216.05 45.1322C206.306 45.5617 195.755 46.8469 187.913 48.5594C165.454 53.4647 147.29 62.3897 133.318 75.3849C127.011 81.2519 120.617 89.6546 116.957 96.8888C113.057 104.595 110.764 111.543 109.212 120.36C107.542 129.841 107.653 142.361 109.499 152.922C114.318 180.487 130.529 209.334 157.335 238.046C160.287 241.208 167.58 248.411 167.829 248.411C167.994 248.411 168.071 248.501 166.037 246.31C140.465 218.765 123.756 187.599 119.708 159.892C118.311 150.331 118.256 139.067 119.565 130.577C121.791 116.14 127.133 102.935 135.298 91.686C144.682 78.758 158.398 67.707 173.848 60.6275C188.847 53.7542 203.478 49.89 220.569 48.2871C232.43 47.1749 244.27 47.3609 257.015 48.8597C261.909 49.4351 262.34 49.4693 261.791 49.2378C260.205 48.5698 249.268 46.8802 241.858 46.1591C233.553 45.3505 221.749 44.8808 216.05 45.1322ZM225.817 49.3174C191.304 51.6976 162.796 63.9421 143.725 84.5786C140.924 87.609 135.948 94.1662 133.833 97.6128C129.273 105.046 125.845 113.164 123.766 121.456C121.666 129.829 121.003 135.432 121.003 144.805C121.002 154.955 121.919 162.073 124.495 171.924C127.751 184.377 133.462 197.468 141.302 210.45C144.909 216.421 150.906 225.256 151.215 225.054C151.27 225.018 150.713 223.963 149.977 222.71C146.478 216.75 145.631 215.25 144.002 212.133C133.68 192.374 128.587 173.41 128.587 154.736C128.587 129.157 138.153 106.041 156.208 87.9894C172.068 72.132 192.746 61.4508 217.915 56.1147C226.369 54.3224 233.781 53.4483 244.204 53.0144C258.124 52.435 273.162 53.9695 289.503 57.6368C291.336 58.048 292.878 58.3558 292.932 58.3209C293.08 58.2235 285.942 56.0414 282.819 55.2293C274.168 52.9802 263.577 51.0462 254.1 49.9849C245.908 49.0676 233.639 48.7781 225.817 49.3174ZM239.813 54.6703C211.96 56.5005 186.662 65.4904 167.817 80.2548C146.61 96.8703 134.399 118.381 131.338 144.519C130.53 151.412 130.854 162.979 132.066 170.587C133.456 179.304 135.945 188.401 139.226 196.751C141.137 201.614 143.421 206.669 143.643 206.523C143.708 206.481 143.434 205.553 143.035 204.463C139.309 194.284 136.926 184.351 135.869 174.598C135.439 170.634 135.514 159.538 135.999 155.214C137.743 139.674 142.4 126.281 150.442 113.676C158.36 101.264 168.646 90.966 181.638 82.4411C200.213 70.2522 220.802 63.0823 244.915 60.4058C250.675 59.7662 253.68 59.6323 262.118 59.639C271.01 59.6461 274.083 59.8101 281.835 60.6919C293.263 61.9917 308.997 65.7539 320.402 69.9142C321.749 70.4056 322.896 70.7783 322.951 70.7426C323.034 70.6878 316.644 67.8797 314.296 66.9397C304.243 62.9147 289.314 58.7555 277.862 56.7896C265.776 54.7148 251.358 53.9118 239.813 54.6703ZM256.14 61.0815C234.946 61.9502 214.55 66.9254 197.243 75.4485C179.976 83.9524 166.691 94.7949 156.257 108.9C145.199 123.847 139.214 140.393 137.881 159.702C137.298 168.139 138.261 179.391 140.218 187.011C140.895 189.648 140.929 189.126 140.384 184.433C137.862 162.733 143.017 141.384 155.323 122.556C168.21 102.843 188.33 87.2244 213.475 77.4167C235.693 68.7505 261.111 65.1516 285.735 67.1859C295.43 67.9868 306.922 69.9629 315.27 72.2647C323.562 74.5513 330.04 76.8623 338.351 80.5004C344.634 83.2503 344.875 83.2268 339.675 80.3706C324.192 71.8667 304.561 65.4739 285.407 62.6983C279.05 61.777 274.319 61.3372 267.803 61.0616C262.926 60.8552 261.603 60.8574 256.14 61.0815ZM315.766 65.316C315.766 65.3622 316.521 65.7272 317.443 66.1269C323.412 68.7152 333.282 73.7341 343.117 79.1823C362.173 89.7384 386.881 105.997 403.375 118.832C428.507 138.39 447.059 157.048 461.351 177.141C477.249 199.492 485.769 222.794 485.767 243.923C485.766 258.303 482.196 270.455 474.46 282.405C465.504 296.24 451.689 307.227 433.268 315.163C424.583 318.905 418.793 320.774 407.465 323.494C402.29 324.737 402.808 324.762 409.943 323.617C414.882 322.824 421.846 321.343 427 319.988C431.771 318.733 441.294 315.59 445.589 313.852C465.374 305.843 481.151 293.782 490.376 279.61C496.006 270.961 498.854 263.648 500.816 252.803C501.455 249.271 501.552 236.302 500.967 232.464C499.45 222.499 496.916 213.589 493.173 205.059C480.952 177.208 454.761 147.658 418.702 121.038C412.64 116.563 394.669 104.778 387.201 100.38C365.015 87.3155 339.692 74.6395 321.452 67.4687C319.367 66.649 317.235 65.8104 316.714 65.6051C316.193 65.3998 315.766 65.2698 315.766 65.316ZM365.616 95.4376C367.936 97.1707 371.486 99.7918 373.506 101.262C387.5 111.456 405.187 126.731 416.956 138.789C446.526 169.085 463.285 197.757 468.082 226.257C469.049 232.004 469.251 234.601 469.251 241.344C469.252 249.585 468.7 254.081 466.778 261.487C464.128 271.699 458.434 282.431 451.373 290.521C437.553 306.356 417.426 317.171 390.741 323.099C386.788 323.977 378.213 325.372 373.351 325.928C371.427 326.148 369.196 326.405 368.394 326.498L366.937 326.669L368.54 326.689C370.828 326.719 379.043 326.201 383.514 325.746C402.686 323.794 418.668 319.836 433.123 313.459C441.246 309.875 450.688 304.192 456.479 299.402C470.083 288.149 478.837 274.119 482.102 258.341C483.133 253.357 483.272 251.634 483.272 243.923C483.272 234.835 482.799 230.902 480.65 222.151C473.473 192.928 451.036 161.473 415.943 131.437C402.709 120.111 389.626 110.37 373.222 99.6314C362.025 92.3015 359.705 91.0221 365.616 95.4376ZM389.617 117.495C398.726 126.41 404.15 132.081 410.437 139.267C433.82 165.99 448.186 193.137 452.656 219.047C454.308 228.626 454.414 239.899 452.938 249.079C449.739 268.97 440.12 285.492 424.016 298.755C420.609 301.56 412.688 306.712 408.048 309.139C393.355 316.825 375.347 321.866 356.148 323.668C350.982 324.152 347.997 324.29 340.258 324.398L331.948 324.515L334.739 324.763C340.438 325.27 342.608 325.379 349.442 325.497C363.664 325.743 377.596 324.387 390.845 321.467C429.412 312.968 455.045 292.521 463.997 263.116C466.121 256.14 466.911 250.294 466.926 241.44C466.938 234.097 466.757 231.89 465.603 225.302C461.142 199.852 446.837 174.228 421.681 146.63C414.732 139.006 403.333 128.03 394.103 120.074C390.299 116.795 385.046 112.467 383.463 111.307C383.091 111.034 385.86 113.819 389.617 117.495ZM398.581 129.45C398.576 129.513 401.366 133.208 404.781 137.662C418.453 155.492 426.448 169.161 432.696 185.388C436.772 195.975 438.772 203.938 440.322 215.753C440.814 219.504 440.817 233.548 440.326 237.047C438.548 249.722 435.706 258.769 430.473 268.407C418.292 290.841 396.043 307.169 366.972 315.009C353.616 318.611 340.706 320.225 325.242 320.225C316.016 320.225 307.549 319.621 298.564 318.322C297.201 318.125 296.041 317.992 295.987 318.025C295.809 318.136 303.192 319.646 306.668 320.209C323.392 322.919 339.71 323.591 355.274 322.211C375.061 320.456 393.189 315.264 408.339 307.012C431.535 294.379 446.603 273.822 450.595 249.365C451.659 242.848 451.981 233.159 451.344 226.798C448.327 196.642 432.534 166.172 403.501 134.492C399.601 130.237 398.6 129.211 398.581 129.45ZM409.948 148.28C409.945 148.405 410.745 149.952 411.725 151.717C417.158 161.502 420.612 168.95 423.503 177.112C431.466 199.599 432.696 221.307 427.142 241.344C422.524 258.002 412.752 273.334 399.203 285.174C380.794 301.262 356.246 311.147 327.866 313.899C318.379 314.82 306.002 314.819 295.648 313.897C287.265 313.151 276.214 311.276 267.614 309.14C265.966 308.73 264.58 308.42 264.534 308.45C264.338 308.578 274.558 311.692 278.3 312.644C299.862 318.131 321.078 319.929 341.62 318.01C355.092 316.752 368.27 313.647 380.093 308.945C393.847 303.476 406.656 294.993 415.565 285.456C427.408 272.777 434.825 257.587 437.479 240.58C438.892 231.523 438.781 218.486 437.217 209.929C436.594 206.52 436.371 205.409 435.857 203.149C432.291 187.47 424.716 170.289 414.385 154.45C412.008 150.805 409.956 147.951 409.948 148.28ZM416.066 165.296C416.066 165.415 416.327 166.246 416.646 167.142C417.547 169.671 419.464 176.061 420.266 179.205C424.495 195.787 424.764 210.479 421.133 226.544C418.317 239.005 413.076 250.163 404.986 260.92C394.586 274.748 381.474 285.298 364.194 293.741C348.899 301.215 331.558 305.748 312.122 307.352C307.057 307.771 293.173 307.83 288.067 307.455C272.219 306.292 258.214 303.574 243.922 298.886C240.581 297.791 238.744 297.144 234.419 295.541L233.398 295.162L234.127 295.561C235.487 296.305 243.005 299.542 245.935 300.646C258.267 305.291 272.254 309.039 284.309 310.931C289.067 311.677 294.681 312.317 300.75 312.803C304.685 313.119 319.127 313.116 323.055 312.799C344.041 311.106 361.061 306.527 376.85 298.326C381.129 296.104 390.766 289.763 394.373 286.797C407.353 276.123 416.741 263.424 422.181 249.181C429.434 230.191 430.223 209.465 424.519 187.775C422.884 181.557 419.847 172.892 417.526 167.823C416.424 165.417 416.066 164.796 416.066 165.296ZM418.841 184.624C418.917 185.832 419.126 188.625 419.305 190.831C420.558 206.235 416.002 225.898 407.884 240.128C399.969 254.001 388.435 266.151 373.938 275.886C358.692 286.123 340.964 293.243 321.16 297.081C310.589 299.13 301.188 299.975 288.942 299.975C268.962 299.975 251.832 297.271 233.209 291.18C227.789 289.407 224.535 288.164 218.483 285.553L212.988 283.183L215.029 284.433C222.194 288.82 233.281 293.68 244.549 297.373C259.116 302.147 272.197 304.726 287.921 305.921C292.211 306.247 306.503 306.25 310.664 305.927C321.275 305.101 330.032 303.675 339.206 301.282C362.69 295.153 384.126 282.313 398.616 265.694C410.317 252.275 417.882 235.913 420.429 218.523C421.983 207.91 421.514 194.253 419.271 184.815L418.703 182.428L418.841 184.624Z" fill="#EF0E03"/>
<path fill-rule="evenodd" clip-rule="evenodd" d="M270.57 0.0652343C221.467 1.37629 177.542 9.84978 136.74 25.8814C105.854 38.0169 77.7752 54.6522 55.9178 73.764C51.0713 78.0016 43.1716 85.5092 43.5591 85.5092C43.6159 85.5092 44.5606 84.7143 45.6584 83.7426C52.2131 77.9405 58.9898 72.8617 69.3839 65.9607C84.6294 55.8391 97.3112 48.991 114.727 41.4762C151.91 25.4318 191.922 15.7252 235.873 12.0869C257.834 10.2692 281.156 10.1693 303.653 11.797C340.442 14.4586 377.827 22.127 410.669 33.7478C442.151 44.8871 469.426 59.1317 493.508 77.0107C522.976 98.8885 543.799 124.627 554.227 152.065C554.866 153.745 555.553 155.677 555.753 156.357C556.467 158.778 556.334 157.092 555.578 154.126C542.727 103.749 497.905 58.4539 432.974 30.2292C395.862 14.0969 353.135 4.02343 309.057 1.01382C298.36 0.283331 279.66 -0.177497 270.57 0.0652343ZM260.803 12.287C259.84 12.3248 256.757 12.4465 253.951 12.5573C223.702 13.7514 194.179 18.1285 165.767 25.6316C156.866 27.9819 152.973 29.136 144.467 31.9449C124.38 38.5781 104.849 47.0891 88.1496 56.4865C83.886 58.8855 74.9526 64.3431 72.0118 66.3449C69.6224 67.9717 69.8711 67.8615 74.1301 65.4063C105.234 47.4758 145.309 34.1104 189.077 27.0698C224.414 21.3854 262.867 20.2699 300.456 23.8387C357.326 29.238 412.664 45.477 457.149 69.8207C467.791 75.6448 481.56 84.2961 489.412 90.0926C508.256 104.004 521.228 116.315 532.273 130.771C546.648 149.584 555.004 168.264 557.916 188.095C558.153 189.706 558.347 191.513 558.348 192.111C558.348 192.726 558.495 193.257 558.685 193.334C559.091 193.499 558.842 181.767 558.358 177.942C554.84 150.102 539.723 122.161 515.136 98.0533C504.217 87.3479 493.942 79.1137 479.489 69.4892C441.614 44.2668 394.079 26.5101 341.13 17.805C325.624 15.2558 309.803 13.6034 291.709 12.6436C286.538 12.3693 265.023 12.1211 260.803 12.287ZM249.14 23.4672C218.515 23.9567 188.416 27.6812 159.774 34.5254C144.358 38.2094 131.009 42.2109 118.225 46.9802C113.829 48.6205 107 51.3158 107 51.4109C107 51.443 109.68 50.5755 112.955 49.4832C130.065 43.7758 150.501 38.8864 170.708 35.665C207.2 29.8472 242.4 28.848 281.504 32.5196C351.223 39.0657 418.65 60.9785 469.824 93.7212C490.592 107.01 509.307 122.922 522.428 138.447C538.95 157.999 548.919 178.362 552.139 199.141C552.789 203.334 552.885 217.487 552.289 221.294C551.874 223.952 551.139 227.768 550.873 228.647C550.778 228.962 550.774 229.174 550.865 229.118C551.125 228.958 553.281 222.411 553.945 219.766C555.911 211.939 556.424 207.123 556.22 198.423C555.988 188.554 554.731 181.142 551.623 171.311C544.972 150.28 530.281 128.312 510.618 109.996C491.284 91.9862 467.128 75.9435 439.355 62.6671C414.716 50.8889 385.304 40.8754 356.141 34.3358C320.982 26.4516 285.827 22.8807 249.14 23.4672ZM222.024 32.2327C197.505 33.1487 171.727 36.3647 150.152 41.1995C146.384 42.044 143.628 42.6907 144.029 42.6364C144.43 42.5822 147.842 42.0295 151.61 41.4082C162.448 39.6215 175.233 38.0255 184.557 37.2952C209.06 35.3762 235.972 35.7773 261.823 38.4468C297.251 42.1051 331.821 49.5775 366.934 61.1658C388.692 68.3468 405.812 75.2466 424.512 84.3719C445.791 94.7559 465.376 106.818 481.329 119.365C514.4 145.375 534.785 173.145 541.712 201.623C543.316 208.217 543.899 213.194 543.894 220.244C543.89 226.313 543.616 229.339 542.572 234.854C540.883 243.777 537.015 253.306 531.83 261.32C531.028 262.559 530.418 263.603 530.474 263.64C530.529 263.676 531.701 262.22 533.077 260.404C544.684 245.085 550.479 228.506 550.475 210.632C550.469 184.477 537.466 156.75 513.337 131.439C497.859 115.203 477.823 99.898 454.696 86.6443C423.15 68.5658 385.801 54.148 346.378 44.83C317.586 38.0247 289.996 34.1032 259.636 32.5005C252.869 32.1432 228.974 31.9732 222.024 32.2327ZM198.99 38.0644C193.567 38.3098 183.918 38.9084 183.737 39.0107C183.686 39.0392 187.688 39.0166 192.63 38.9607C205.993 38.8092 218.064 39.3207 232.106 40.6334C275.215 44.6636 325.111 56.5004 370.141 73.3796C407.721 87.4661 440.652 105.507 468.104 127.047C506.579 157.236 528.847 190.442 532.138 222.536C532.567 226.723 532.316 236.687 531.689 240.392C529.667 252.318 525.126 262.801 517.663 272.763C513.82 277.893 510.058 282.066 505.827 285.892C505.043 286.601 504.463 287.181 504.537 287.181C504.995 287.181 513.499 279.869 516.864 276.582C522.558 271.019 529.181 262.198 532.842 255.301C542.504 237.103 544.174 217.088 537.781 196.126C532.223 177.902 520.68 159.555 503.873 142.229C479.982 117.602 449.446 97.1954 409.794 79.3601C384.96 68.1896 352.561 57.3577 323.49 50.5066C293.095 43.3432 263.951 39.3023 233.687 38.0549C225.142 37.7027 206.875 37.7079 198.99 38.0644ZM246.953 43.9276C247.033 43.9805 249.119 44.3831 251.587 44.8223C270.643 48.2122 286.957 52.4456 311.098 60.2648C372.691 80.2139 416.284 102.004 451.757 130.574C478.338 151.982 498.198 175.179 508.581 196.945C513.732 207.742 516.574 217.071 518.152 228.36C518.629 231.767 518.635 242.263 518.163 245.548C516.301 258.511 511.439 269.907 503.375 280.211C497.249 288.038 490.727 293.948 480.941 300.538C476.844 303.298 476.713 303.408 478.896 302.258C492.358 295.163 504.158 285.968 512.403 276.147C522.649 263.942 528.262 251.027 529.808 236.095C530.223 232.093 529.985 223.558 529.338 219.193C525.791 195.272 512.161 171.31 488.816 147.958C460.773 119.906 420.539 94.7685 375.558 77.1948C354.919 69.1313 328.676 60.7821 307.454 55.5274C288.585 50.8555 270.004 47.1391 254.097 44.855C247.345 43.8856 246.778 43.8121 246.953 43.9276ZM111.967 52.8755C101.671 56.505 90.4521 61.979 82.0709 67.4618C60.8969 81.3134 47.8096 99.3776 44.1754 119.768C42.5295 129.004 42.9226 140.688 45.2143 150.633C49.6558 169.905 61.0229 189.853 78.7873 209.549C88.1487 219.928 99.8957 230.761 112.544 240.678C125.596 250.912 142.617 262.192 158.387 271.059C198.047 293.358 241.263 309.507 286.383 318.892C292.84 320.235 303.757 322.228 303.954 322.099C304.01 322.062 301.409 321.487 298.174 320.82C261.356 313.234 226.214 301.004 194.481 284.733C181.04 277.841 171.37 272.227 157.924 263.51C141.796 253.054 130.26 244.423 117.454 233.23C92.6234 211.527 74.2073 188.209 64.2867 165.911C59.8685 155.98 57.513 147.862 55.919 137.073C55.4087 133.619 55.4081 120.648 55.9181 117.307C58.8533 98.0768 67.7686 82.8697 83.8527 69.658C87.8731 66.3556 96.4076 60.7646 101.46 58.1232C104.624 56.4695 109.639 54.1663 114.474 52.1471C115.729 51.6225 114.541 51.9678 111.967 52.8755ZM84.9866 63.1041C72.2544 69.5052 62.3769 76.4429 53.4943 85.2227C41.0912 97.4825 33.276 111.48 30.3568 126.665C28.5867 135.871 28.7908 146.751 30.9202 156.698C35.0015 175.764 45.8948 194.954 63.6312 214.324C93.9072 247.387 142.741 277.793 199.573 298.966C236.171 312.601 273.581 321.532 311.367 325.657C319.899 326.588 331.064 327.45 331.436 327.207C331.529 327.146 331.262 327.096 330.842 327.096C329.437 327.096 316.554 325.607 311.098 324.814C258.796 317.213 205.914 299.427 160.069 274.017C130.655 257.713 106.584 240.161 86.3267 220.244C77.7359 211.797 72.2258 205.546 65.4553 196.563C51.0536 177.455 43.2019 159.285 41.1099 140.224C40.7355 136.813 40.737 128.279 41.1128 124.564C43.1751 104.172 54.3121 85.8739 73.5431 71.2813C76.7892 68.8183 82.5608 64.9321 85.843 62.9996C87.1159 62.2502 88.1 61.6371 88.0297 61.6375C87.9597 61.6379 86.5902 62.2979 84.9866 63.1041ZM320.574 65.2195C320.735 65.3305 324.174 66.8258 328.218 68.5423C348.279 77.058 369.91 88.0541 389.336 99.6119C395.258 103.135 409.184 112.114 415.004 116.162C439.61 133.273 461.089 153.348 476.816 173.932C486.599 186.736 492.898 197.59 497.377 209.358C502.082 221.721 504.058 232.663 503.741 244.583C503.576 250.752 503.271 253.145 501.94 258.72C496.302 282.333 477.609 302.017 449.417 314.031C445.2 315.828 444.73 316.088 447.407 315.141C452.078 313.488 460.412 309.946 464.968 307.677C476.513 301.927 486.499 295.017 494.036 287.563C497.598 284.041 498.908 282.548 501.999 278.492C517.92 257.602 520.489 232.41 509.518 204.775C505.128 193.717 499.473 183.957 491.091 172.977C474.955 151.835 451.934 131.1 425.26 113.678C400.251 97.345 372.909 84.0678 337.485 71.055C329.797 68.2308 320.081 64.8782 320.574 65.2195ZM54.5652 80.9734C42.8474 89.9225 34.8417 98.8747 28.0966 110.572C13.1167 136.549 14.1232 166.328 30.9709 195.608C41.1324 213.268 57.0815 230.816 77.5895 246.899C92.0788 258.262 107.911 268.329 126.787 278.183C165.426 298.352 211.201 313.993 256.721 322.582C279.99 326.973 299.938 329.309 323.198 330.369C336.535 330.976 360.24 330.449 371.599 329.292L374.223 329.025L371.307 329.113C363.018 329.361 346.306 329.417 340.692 329.216C320.972 328.508 305.117 326.91 285.586 323.663C247.902 317.397 209.598 306.01 174.207 290.551C123.825 268.544 82.4748 240.029 56.47 209.358C39.2027 188.993 29.4279 168.575 27.1216 148.054C26.7361 144.625 26.7341 135.659 27.1181 132.203C28.6328 118.566 33.9595 105.703 42.9179 94.0474C45.8458 90.2376 50.7611 84.891 54.1847 81.7916C55.6391 80.475 56.7838 79.3979 56.7287 79.3979C56.6733 79.3979 55.7 80.1068 54.5652 80.9734ZM26.6137 107.719C19.8446 116.56 15.8519 123.757 13.005 132.249C7.81624 147.726 7.20337 164.233 11.2337 179.948C19.6329 212.697 45.419 243.914 85.8491 270.28C101.505 280.489 117.855 289.225 136.594 297.391C175.448 314.323 222.015 326.899 266.018 332.343C303.964 337.037 341.292 337.073 376.358 332.448C387.627 330.962 396.658 329.374 409.143 326.683C417.032 324.983 419.639 324.292 414.425 325.284C404.048 327.258 389.359 329.225 375.389 330.512C351.65 332.699 329.03 332.794 304.848 330.808C247.987 326.138 186.976 309.548 136.449 285.017C120.478 277.263 109.274 270.941 95.4644 261.892C83.9043 254.317 76.3967 248.757 67.6925 241.327C41.163 218.679 23.9283 193.965 17.7888 169.766C15.9455 162.501 15.3113 157.256 15.3139 149.296C15.3174 138 16.9525 129.657 21.1354 119.589C23.0323 115.024 27.2344 107.232 29.0185 104.972C29.2754 104.647 29.4384 104.349 29.3807 104.311C29.3226 104.274 28.0776 105.807 26.6137 107.719ZM8.35652 138.546C8.26293 138.839 7.66026 140.668 7.01735 142.611C3.93809 151.918 2.61612 159.681 2.62107 168.429C2.63857 199.649 18.0862 230.349 47.8953 258.405C72.5553 281.615 108.263 302.429 148.84 317.247C179.684 328.51 214.527 336.738 249.23 340.954C285.503 345.36 321.712 345.413 356.565 341.111C389.495 337.046 424.438 328.125 451.343 316.915C455.361 315.241 455.208 315.245 450.177 316.95C436.57 321.559 423.543 325.164 409.357 328.247C387.137 333.076 366.047 335.85 342.296 337.067C335.811 337.399 309.431 337.397 302.934 337.063C286.898 336.24 272.794 334.953 259.546 333.102C203.526 325.275 148.514 307.761 105.105 283.934C93.9841 277.83 79.1765 268.412 70.577 261.972C41.421 240.141 21.7903 216.272 12.3825 191.215C6.047 174.341 4.63144 158.208 8.03521 141.678C8.4332 139.747 8.7064 138.132 8.64255 138.091C8.57899 138.049 8.45012 138.254 8.35652 138.546ZM0.165473 175.937C-0.338942 180.083 0.358202 190.655 1.60087 197.708C5.98489 222.592 20.6776 248.061 43.5757 270.471C54.6019 281.262 64.6975 289.313 78.5438 298.357C113.625 321.272 155.655 337.641 204.384 347.366C232.304 352.938 263.976 355.825 293.458 355.486C331.379 355.05 365.23 350.235 401.047 340.183C426.837 332.946 453.012 322.121 473.442 310.245C475.64 308.967 480.325 306.036 483.853 303.731C487.381 301.425 489.218 300.137 487.935 300.867C462.843 315.151 438.109 325.075 408.191 332.86C382.835 339.458 355.544 343.721 329.613 345.134C316.598 345.843 299.803 346.041 288.461 345.617C260.149 344.56 233.586 341.25 206.279 335.377C153.158 323.951 106.398 304.52 69.8411 278.68C40.9495 258.259 19.5224 233.684 8.90001 208.785C3.98621 197.268 1.62216 187.678 0.495544 174.696C0.452393 174.197 0.31388 174.718 0.165473 175.937ZM3.22228 214.111C3.11878 214.953 6.71061 225.618 9.16883 231.767C23.9269 268.687 57.7346 302.488 104.839 327.418C113.541 332.023 128.071 338.681 137.323 342.302C173.922 356.628 212.9 365.063 254.534 367.668C266.885 368.441 285.609 368.672 296.082 368.181C329.829 366.598 358.196 362.158 388.072 353.783C420.491 344.694 449.715 331.806 475.209 315.353C492.442 304.232 505.461 293.778 517.434 281.448C521.185 277.585 521.084 277.62 516.322 281.834C502.39 294.163 485.373 305.962 468.153 315.231C456.355 321.581 442.106 327.999 429.621 332.583C392.677 346.148 354.722 353.967 314.014 356.397C304.206 356.982 297.236 357.132 284.907 357.022C272.783 356.914 266.691 356.679 256.429 355.924C204.629 352.112 154.554 339.382 112.294 319.282C87.6897 307.58 67.6371 294.675 50.2031 279.323C28.8349 260.507 13.5811 239.854 4.80522 217.857C3.94625 215.703 3.23395 214.018 3.22228 214.111Z" fill="#FECC04"/>
<path d="M1446.98 177.656H1368.98L1354.1 213.656H1314.26L1389.14 45.6562H1427.54L1502.66 213.656H1461.86L1446.98 177.656ZM1434.74 148.136L1408.1 83.8163L1381.46 148.136H1434.74Z" fill="white"/>
<path d="M1260 213.656L1259.76 112.856L1210.32 195.896H1192.8L1143.6 115.016V213.656H1107.12V45.6562H1139.28L1202.16 150.056L1264.08 45.6562H1296L1296.48 213.656H1260Z" fill="white"/>
<path d="M1027.21 154.136V213.656H988.333V153.656L923.293 45.6562H964.573L1009.45 120.296L1054.33 45.6562H1092.49L1027.21 154.136Z" fill="white"/>
<path d="M927.447 45.6562L872.487 213.656H830.727L793.767 99.8963L755.607 213.656H714.087L658.887 45.6562H699.207L737.127 163.736L776.727 45.6562H812.727L851.127 164.696L890.247 45.6562H927.447Z" fill="white"/>
<path d="M1469.94 322.776C1464.75 322.776 1459.73 322.04 1454.87 320.568C1450.07 319.096 1446.26 317.144 1443.44 314.712L1447.76 305.016C1450.51 307.192 1453.87 308.984 1457.84 310.392C1461.87 311.736 1465.91 312.408 1469.94 312.408C1474.93 312.408 1478.64 311.608 1481.07 310.008C1483.57 308.408 1484.82 306.296 1484.82 303.672C1484.82 301.752 1484.11 300.184 1482.71 298.968C1481.36 297.688 1479.63 296.696 1477.52 295.992C1475.41 295.288 1472.53 294.488 1468.88 293.592C1463.76 292.376 1459.6 291.16 1456.4 289.944C1453.27 288.728 1450.55 286.84 1448.24 284.28C1446 281.656 1444.88 278.136 1444.88 273.72C1444.88 270.008 1445.87 266.648 1447.86 263.64C1449.91 260.568 1452.95 258.136 1456.98 256.344C1461.07 254.552 1466.07 253.656 1471.95 253.656C1476.05 253.656 1480.08 254.168 1484.05 255.192C1488.02 256.216 1491.44 257.688 1494.32 259.608L1490.39 269.304C1487.44 267.576 1484.37 266.264 1481.17 265.368C1477.97 264.472 1474.87 264.024 1471.86 264.024C1466.93 264.024 1463.25 264.856 1460.82 266.52C1458.45 268.184 1457.27 270.392 1457.27 273.144C1457.27 275.064 1457.94 276.632 1459.28 277.848C1460.69 279.064 1462.45 280.024 1464.56 280.728C1466.67 281.432 1469.55 282.232 1473.2 283.128C1478.19 284.28 1482.29 285.496 1485.49 286.776C1488.69 287.992 1491.41 289.88 1493.65 292.44C1495.95 295 1497.11 298.456 1497.11 302.808C1497.11 306.52 1496.08 309.88 1494.03 312.888C1492.05 315.896 1489.01 318.296 1484.91 320.088C1480.82 321.88 1475.83 322.776 1469.94 322.776Z" fill="white"/>
<path d="M1422.85 321.809L1409.13 302.129C1408.55 302.193 1407.69 302.225 1406.53 302.225H1391.37V321.809H1378.89V254.609H1406.53C1412.36 254.609 1417.41 255.569 1421.7 257.489C1426.05 259.409 1429.38 262.161 1431.69 265.745C1433.99 269.329 1435.14 273.585 1435.14 278.513C1435.14 283.569 1433.89 287.921 1431.4 291.569C1428.97 295.217 1425.45 297.937 1420.84 299.729L1436.29 321.809H1422.85ZM1422.57 278.513C1422.57 274.225 1421.16 270.929 1418.34 268.625C1415.53 266.321 1411.4 265.169 1405.96 265.169H1391.37V291.953H1405.96C1411.4 291.953 1415.53 290.801 1418.34 288.497C1421.16 286.129 1422.57 282.801 1422.57 278.513Z" fill="white"/>
<path d="M1364.97 311.345V321.809H1314.57V254.609H1363.63V265.073H1327.05V282.545H1359.5V292.817H1327.05V311.345H1364.97Z" fill="white"/>
<path d="M1283.92 254.609H1296.4V321.809H1283.92V254.609Z" fill="white"/>
<path d="M1239.8 265.169H1217.53V254.609H1274.55V265.169H1252.28V321.809H1239.8V265.169Z" fill="white"/>
<path d="M1208.16 254.609V321.809H1197.89L1160.83 276.305V321.809H1148.45V254.609H1158.72L1195.78 300.113V254.609H1208.16Z" fill="white"/>
<path d="M1099.03 322.776C1092.18 322.776 1086 321.304 1080.5 318.36C1075 315.352 1070.68 311.224 1067.54 305.976C1064.4 300.664 1062.84 294.744 1062.84 288.216C1062.84 281.688 1064.4 275.8 1067.54 270.552C1070.68 265.24 1075 261.112 1080.5 258.168C1086 255.16 1092.18 253.656 1099.03 253.656C1105.88 253.656 1112.05 255.16 1117.56 258.168C1123.06 261.112 1127.38 265.208 1130.52 270.456C1133.65 275.704 1135.22 281.624 1135.22 288.216C1135.22 294.808 1133.65 300.728 1130.52 305.976C1127.38 311.224 1123.06 315.352 1117.56 318.36C1112.05 321.304 1105.88 322.776 1099.03 322.776ZM1099.03 311.832C1103.51 311.832 1107.54 310.84 1111.12 308.856C1114.71 306.808 1117.52 303.992 1119.57 300.408C1121.62 296.76 1122.64 292.696 1122.64 288.216C1122.64 283.736 1121.62 279.704 1119.57 276.12C1117.52 272.472 1114.71 269.656 1111.12 267.672C1107.54 265.624 1103.51 264.6 1099.03 264.6C1094.55 264.6 1090.52 265.624 1086.93 267.672C1083.35 269.656 1080.53 272.472 1078.48 276.12C1076.44 279.704 1075.41 283.736 1075.41 288.216C1075.41 292.696 1076.44 296.76 1078.48 300.408C1080.53 303.992 1083.35 306.808 1086.93 308.856C1090.52 310.84 1094.55 311.832 1099.03 311.832Z" fill="white"/>
<path d="M1041.39 321.809L1027.66 302.129C1027.08 302.193 1026.22 302.225 1025.07 302.225H1009.9V321.809H997.418V254.609H1025.07C1030.89 254.609 1035.95 255.569 1040.23 257.489C1044.59 259.409 1047.91 262.161 1050.22 265.745C1052.52 269.329 1053.67 273.585 1053.67 278.513C1053.67 283.569 1052.43 287.921 1049.93 291.569C1047.5 295.217 1043.98 297.937 1039.37 299.729L1054.83 321.809H1041.39ZM1041.1 278.513C1041.1 274.225 1039.69 270.929 1036.87 268.625C1034.06 266.321 1029.93 265.169 1024.49 265.169H1009.9V291.953H1024.49C1029.93 291.953 1034.06 290.801 1036.87 288.497C1039.69 286.129 1041.1 282.801 1041.1 278.513Z" fill="white"/>
<path d="M948.773 265.073V285.521H981.221V296.081H948.773V321.809H936.293V254.609H985.349V265.073H948.773Z" fill="white"/>
<path d="M898.191 254.609L875.919 321.809H862.671L846.063 272.081L829.167 321.809H815.823L793.551 254.609H806.511L823.215 305.681L840.591 254.609H852.111L869.103 305.969L886.287 254.609H898.191Z" fill="white"/>
<path d="M787.005 311.345V321.809H736.605V254.609H785.661V265.073H749.085V282.545H781.533V292.817H749.085V311.345H787.005Z" fill="white"/>
<path d="M718.599 254.609V321.809H708.327L671.271 276.305V321.809H658.887V254.609H669.159L706.215 300.113V254.609H718.599Z" fill="white"/>
</svg>
