<svg width="699" height="461" viewBox="0 0 699 461" fill="none" xmlns="http://www.w3.org/2000/svg">
<path fill-rule="evenodd" clip-rule="evenodd" d="M331.105 85.3029C315.794 86.3559 306.963 87.5731 294.841 90.3012C281.737 93.2504 268.325 97.837 256.995 103.244C237.22 112.681 220.488 124.992 207.763 139.466C204.777 142.863 198.531 151.098 196.266 154.625C188.318 167.001 182.832 180.265 179.879 194.253C178.467 200.939 177.842 205.398 177.669 210.009C177.5 214.544 177.524 214.493 178.963 207.264C183.64 183.776 195.342 163.047 214.471 144.36C235.125 124.185 263.247 108.878 294.219 100.953C331.621 91.3824 369.697 91.47 404.908 101.208C425.736 106.968 446.273 116.771 462.248 128.58C467.932 132.781 468.138 132.91 466.102 130.992C463.911 128.928 457.408 123.422 454.689 121.328C436.422 107.266 409.55 95.3206 383.867 89.846C369 86.6772 357.606 85.4366 342.038 85.2912C336.827 85.2425 331.906 85.2477 331.105 85.3029ZM339.305 95.9131C323.705 96.8112 308.456 99.1767 294.498 102.864C270.78 109.13 248.743 119.666 230.671 133.379C212.556 147.125 197.449 165.402 189.517 183.171C187.948 186.685 187.721 187.945 189.116 185.4C192.804 178.673 199.888 168.783 205.178 162.981C219.523 147.245 236.691 134.728 257.301 124.979C297.64 105.899 346.674 99.467 391.605 107.362C419.66 112.291 445.689 122.639 466.062 136.96C472.603 141.558 477.649 145.616 484.473 151.764C485.017 152.254 485.008 152.211 484.425 151.522C473.723 138.876 454.38 124.291 436.518 115.398C415.193 104.782 391.113 98.3142 365.182 96.2387C359.678 95.7983 344.596 95.6085 339.305 95.9131ZM341.856 106.18C320.504 107.404 301.668 110.848 283.148 116.914C262.214 123.772 243.72 133.189 228.544 144.718C223.387 148.636 215.896 155.222 211.703 159.526C208.432 162.882 205.113 166.638 206.505 165.407C215.886 157.113 221.283 152.906 229.232 147.691C236.751 142.758 240.668 140.514 248.372 136.731C266.885 127.638 286.018 121.464 307.232 117.736C339.31 112.099 371.784 112.666 402.536 119.401C410.97 121.248 416.63 122.802 424.771 125.505C456.535 136.052 483.169 153.753 501.273 176.349C502.588 177.99 503.667 179.258 503.67 179.165C503.688 178.73 500.009 173.189 497.284 169.545C493.886 165.003 489.82 160.456 484.32 155.051C466.6 137.637 444.842 124.626 419.59 116.343C404.071 111.252 386.985 107.872 369.92 106.518C364.101 106.056 347.498 105.856 341.856 106.18ZM340.034 115.977C309.501 117.399 280.213 124.224 255.118 135.764C244.909 140.46 237.657 144.529 228.691 150.592C226.609 152 226.296 152.276 227.598 151.557C244.829 142.045 257.848 136.592 274.978 131.71C326.847 116.928 387.474 120.212 436.963 140.483C470.865 154.37 498.065 176.115 512.094 200.546C512.762 201.709 513.364 202.553 513.431 202.42C513.498 202.288 512.982 200.853 512.283 199.231C508.752 191.032 502.985 181.985 496.48 174.439C482.191 157.866 465.388 145.337 443.905 135.241C426.023 126.836 404.386 120.707 382.225 117.769C369.069 116.025 353.348 115.357 340.034 115.977ZM334.02 124.565C307.398 125.463 281.041 130.593 258.03 139.355C253.415 141.112 248.19 143.329 248.19 143.53C248.19 143.59 249.215 143.255 250.468 142.786C254.681 141.206 263.634 138.459 269.693 136.887C282.679 133.518 296.916 131.179 311.634 129.996C317.468 129.528 320.069 129.457 331.469 129.457C345.773 129.457 349.725 129.659 361.902 131.01C391.593 134.306 421.588 142.828 446.274 154.985C462.476 162.962 474.843 171.03 486.377 181.145C493.68 187.55 498.504 192.743 504.206 200.341C509.539 207.446 513.32 214.289 516.046 221.771C518.31 227.982 518.227 227.81 518.019 225.884C516.797 214.564 511.389 202.44 502.191 190.401C486.206 169.476 462.057 152.417 431.514 140.472C422.28 136.862 406.363 132.136 396.525 130.084C381.286 126.907 366.441 125.096 351.15 124.551C343.909 124.293 342.033 124.294 334.02 124.565ZM315.615 131.605C308.25 132.088 298.142 133.22 291.225 134.337C285.706 135.227 271.687 138.107 271.969 138.291C272.04 138.338 274.715 137.944 277.912 137.415C285.275 136.196 294.327 135.189 302.494 134.68C310.411 134.186 330.206 134.319 337.483 134.915C361.983 136.921 381.971 140.763 403.3 147.569C425.778 154.741 444.121 163.339 462.134 175.147C478.716 186.017 490.101 196.061 498.931 207.612C509.829 221.867 514.892 235.107 515.02 249.69L515.064 254.769L515.718 252.263C517.912 243.849 517.552 235.475 514.575 225.645C510.432 211.967 500.301 196.991 486.799 184.585C463.22 162.919 428.275 146.025 389.336 137.466C377.735 134.916 363.197 132.785 350.786 131.816C343.616 131.256 322.839 131.132 315.615 131.605ZM183.394 206.368C181.982 211.45 181.755 213.171 181.746 218.842C181.737 224.819 182.067 227.41 183.538 232.926C185.203 239.167 187.867 245.292 191.585 251.424C199.696 264.805 211.201 276.185 227.753 287.201C240.568 295.731 254.037 302.573 269.511 308.416C300.466 320.103 333.473 326.024 367.733 326.036C386.019 326.042 399.524 324.817 416.243 321.638C421.843 320.573 432.353 318.143 432.094 317.973C432.021 317.925 429.598 318.31 426.71 318.829C412.4 321.399 397.052 322.714 381.218 322.726C364.019 322.74 347.616 321.344 330.339 318.397C301.13 313.415 271.246 303.412 248.008 290.837C242.104 287.642 240.931 286.941 234.037 282.487C207.703 265.475 191.237 246.151 185.906 226.003C184.388 220.268 184.227 218.842 184.227 211.143C184.227 206.974 184.214 203.563 184.199 203.563C184.185 203.563 183.822 204.826 183.394 206.368ZM180.585 235.009C182.188 256.507 200.778 281.004 229.284 299.183C258.633 317.898 297.713 329.615 340.034 332.387C348.717 332.956 365.191 332.952 373.747 332.379C393.954 331.025 412.528 327.702 430.198 322.278C437.674 319.983 444.734 317.419 450.557 314.883C453.113 313.77 455.204 312.83 455.204 312.793C455.204 312.757 451.227 314.037 446.365 315.639C429.543 321.182 414.918 324.368 397.032 326.386C380.877 328.209 361.658 328.42 344.043 326.969C309.775 324.146 276.689 315.298 247.643 301.19C235.874 295.474 222.64 287.046 212.988 279.119C197.135 266.1 186.734 251.704 181.287 235.241L180.403 232.568L180.585 235.009ZM521.003 247.07C518.177 267.252 511.657 283.159 499.647 299.171C472.924 334.799 426.593 358.246 373.018 363.257C344.215 365.95 313.41 362.601 285.729 353.765C266.407 347.597 251.971 340.742 235.641 329.979C229.178 325.719 228.875 325.552 230.862 327.341C243.45 338.676 258.599 348.402 274.295 355.223C297.411 365.27 319.71 370.737 345.685 372.729C353.205 373.305 369.05 373.304 376.662 372.726C405.689 370.522 431.12 363.186 454.255 350.343C468.625 342.365 480.505 333.064 491.354 321.298C509.478 301.641 520.008 276.709 521.393 250.174C521.646 245.33 521.457 243.826 521.003 247.07ZM185.152 258.708C185.131 259.332 187.594 265.174 188.976 267.78C195.491 280.059 207.672 293.413 221.967 303.946C254.31 327.778 301.092 341.55 349.674 341.544C376.64 341.54 402.035 337.605 426.137 329.698C444.096 323.805 463.042 314.247 476 304.543C477.798 303.196 478.033 302.901 476.706 303.657C468.308 308.448 466.22 309.597 462.4 311.533C453.741 315.919 446.116 319.083 436.252 322.381C400.497 334.334 358.955 337.764 318.571 332.095C270.963 325.413 229.816 307.46 203.714 281.983C197.772 276.184 190.646 267.394 186.973 261.334C185.978 259.693 185.159 258.511 185.152 258.708ZM511.004 272.969C509.588 275.598 505.346 282.492 503.327 285.445C496.845 294.926 487.483 304.565 475.952 313.627C471.547 317.089 461.066 324.035 455.568 327.136C433.84 339.392 408.085 347.733 380.872 351.328C367.805 353.055 358.618 353.598 345.683 353.409C326.255 353.125 309.716 351.023 291.378 346.504C269.062 341.005 248.874 332.414 231.208 320.898C224.205 316.333 220.05 313.22 214.837 308.634C211.353 305.568 210.542 304.95 211.427 306.035C216.709 312.508 225.778 320.614 234.737 326.872C250.095 337.598 267.185 345.913 286.276 351.945C303.258 357.311 318.474 360.248 337.118 361.757C345.27 362.416 362.159 362.35 370.466 361.626C399.314 359.111 425.43 351.572 449.008 338.955C454.296 336.125 465.417 328.924 470.261 325.192C486.708 312.525 499.81 297.215 507.877 281.237C510.744 275.558 513.421 268.483 511.004 272.969ZM195.55 282.58C196.331 284.342 200.097 289.827 202.651 292.925C216.408 309.605 235.61 323.373 259.797 333.901C281.092 343.168 305.504 348.96 331.943 351.019C339.483 351.605 358.079 351.605 365.619 351.019C405.838 347.888 440.14 336.325 468.493 316.342C478.607 309.214 490.165 298.606 495.654 291.413C497.094 289.527 497.021 289.567 494.363 292.129C466.975 318.529 427.269 335.935 381.679 341.526C370.488 342.898 363.061 343.316 349.874 343.316C336.887 343.316 331.884 343.054 320.475 341.777C280.911 337.348 244.229 323.716 218.122 303.739C210.8 298.137 203.499 291.36 197.899 284.968C196.461 283.326 195.404 282.252 195.55 282.58Z" fill="#168C23"/>
<path fill-rule="evenodd" clip-rule="evenodd" d="M231.429 51.9986C201.33 53.9084 176.03 60.1316 153.801 71.0937C136.792 79.4817 123.566 89.8179 113.655 102.467C105.391 113.016 100.392 123.271 97.4891 135.634C89.9338 167.809 99.108 202.95 124.728 239.971C140.796 263.189 163.244 286.675 191.258 309.577C203.205 319.344 210.474 324.704 223.391 333.269C238.964 343.597 252.083 351.304 265.872 358.225L268.422 359.505L266.053 358.106C262.223 355.846 258.039 353.252 248.649 347.316C222.881 331.029 199.131 311.858 178.509 290.699C143.565 254.846 121.891 218.523 115.177 184.566C113.47 175.932 113.201 172.828 113.181 161.551C113.161 150.074 113.373 147.572 115.031 139.827C122.859 103.242 150.831 75.6555 194.691 61.2639C208.464 56.7444 221.632 54.0994 240.176 52.1266L243.274 51.7969L238.901 51.7995C236.495 51.8009 233.133 51.8905 231.429 51.9986ZM246.756 53.5436C235.564 54.2693 226.625 55.4388 216.669 57.4801C214.664 57.8912 212.614 58.3114 212.113 58.414C211.612 58.5167 209.24 59.1106 206.842 59.7337C161.464 71.5265 130.758 97.0898 119.955 132.069C113.381 153.354 114.53 178.372 123.216 203.088C132.008 228.106 147.104 252.26 170.14 278.166C188.282 298.569 209.066 317.19 231.357 333.013C236.365 336.567 238.237 337.772 235.929 335.956C219.601 323.102 210.578 315.156 199.247 303.649C181.01 285.128 164.866 264.031 153.624 244.029C142.924 224.991 136.426 207.035 133.589 188.671C131.637 176.032 131.638 162.15 133.593 150.57C139.177 117.486 159.165 91.0311 191.398 74.0649C209.829 64.3637 232.235 57.8695 254.755 55.7017C262.997 54.9084 265.517 54.7823 276.076 54.6358L287.01 54.4839L282.272 54.069C279.666 53.8411 275.835 53.5455 273.759 53.4125C268.574 53.0807 252.71 53.1576 246.756 53.5436ZM194.801 54.2736C185.574 55.5887 174.278 57.7874 166.813 59.7213C125.909 70.3179 95.3271 91.7095 81.2545 119.569C77.1733 127.648 74.4887 136.238 72.8337 146.511C72.1908 150.502 72.1773 166.707 72.8129 171.219C74.4078 182.535 77.1299 192.487 81.4969 202.969C82.8764 206.28 86.5068 214.115 87.3042 215.502C87.5685 215.961 88.546 217.734 89.4761 219.441C103.735 245.599 128.179 273.386 159.546 299.094C179.101 315.121 203.348 331.526 227.42 345.017C239.036 351.526 254.915 359.651 264.086 363.777C280.971 371.374 300.148 378.805 316.166 383.958C323.623 386.356 326.229 387.066 322.909 385.794C310.154 380.905 300.336 376.923 293.388 373.818C266.572 361.837 246.925 351.191 224.143 336.295C206.544 324.789 193.52 314.941 177.418 300.964C132.956 262.373 104.062 221.199 95.3268 183.991C92.855 173.46 92.1377 167.594 92.1312 157.851C92.1239 147.566 93.2741 139.405 96.0338 130.159C103.108 106.457 121.199 85.9661 147.343 72.0434C156.524 67.1539 163.744 64.0891 174.391 60.563C181.437 58.2292 184.794 57.3111 194.072 55.1798C201.064 53.5737 201.239 53.356 194.801 54.2736ZM270.062 56.4152C257.883 56.9521 244.693 58.5587 234.892 60.6993C206.818 66.8309 184.112 77.9871 166.648 94.2311C158.764 101.565 150.772 112.068 146.196 121.111C141.321 130.744 138.456 139.429 136.515 150.45C134.428 162.302 134.566 177.951 136.874 191.152C142.898 225.609 163.162 261.668 196.669 297.558C200.358 301.51 209.474 310.513 209.786 310.513C209.992 310.513 210.089 310.626 207.546 307.887C175.581 273.456 154.696 234.498 149.635 199.866C147.888 187.914 147.82 173.833 149.456 163.222C152.239 145.175 158.916 128.668 169.122 114.607C180.852 98.4474 197.998 84.6338 217.31 75.7844C236.059 67.1928 254.347 62.3625 275.711 60.3589C290.537 58.9686 305.338 59.2011 321.269 61.0746C327.386 61.7938 327.925 61.8366 327.238 61.5473C325.256 60.7122 311.584 58.6002 302.323 57.6988C291.942 56.6881 277.187 56.101 270.062 56.4152ZM282.272 61.6468C239.13 64.622 203.495 79.9276 179.656 105.723C176.155 109.511 169.934 117.708 167.291 122.016C161.591 131.308 157.306 141.455 154.707 151.82C152.082 162.286 151.254 169.29 151.253 181.007C151.253 193.693 152.399 202.591 155.618 214.905C159.689 230.471 166.828 246.836 176.628 263.062C181.136 270.527 188.632 281.571 189.019 281.317C189.087 281.272 188.391 279.954 187.472 278.388C183.097 270.937 182.038 269.062 180.003 265.166C167.1 240.467 160.734 216.763 160.734 193.42C160.734 161.446 172.692 132.551 195.26 109.987C215.085 90.165 240.933 76.8135 272.394 70.1434C282.962 67.903 292.226 66.8103 305.256 66.268C322.655 65.5437 341.452 67.4618 361.879 72.046C364.17 72.56 366.098 72.9448 366.165 72.9011C366.35 72.7794 357.428 70.0517 353.524 69.0367C342.709 66.2252 329.471 63.8077 317.625 62.4811C307.385 61.3345 292.048 60.9726 282.272 61.6468ZM299.766 68.3379C264.949 70.6256 233.328 81.863 209.771 100.319C183.262 121.088 167.999 147.976 164.172 180.648C163.163 189.265 163.567 203.724 165.083 213.234C166.82 224.13 169.932 235.501 174.032 245.939C176.421 252.018 179.276 258.336 179.554 258.154C179.635 258.101 179.293 256.942 178.794 255.579C174.137 242.855 171.157 230.439 169.836 218.247C169.299 213.293 169.393 199.422 169.999 194.017C172.179 174.593 178 157.851 188.053 142.095C197.95 126.581 210.807 113.708 227.047 103.051C250.267 87.8152 276.003 78.8529 306.144 75.5072C313.344 74.7077 317.1 74.5404 327.647 74.5487C338.763 74.5576 342.604 74.7626 352.294 75.8648C366.578 77.4896 386.246 82.1924 400.503 87.3927C402.187 88.0069 403.62 88.4729 403.688 88.4283C403.793 88.3598 395.804 84.8496 392.869 83.6746C380.304 78.6433 361.642 73.4444 347.328 70.987C332.221 68.3935 314.197 67.3897 299.766 68.3379ZM320.175 76.3518C293.682 77.4378 268.188 83.6567 246.554 94.3106C224.97 104.94 208.364 118.494 195.321 136.124C181.499 154.809 174.018 175.491 172.351 199.627C171.622 210.173 172.826 224.239 175.273 233.764C176.119 237.06 176.161 236.408 175.479 230.541C172.328 203.416 178.772 176.729 194.154 153.195C210.262 128.553 235.412 109.03 266.843 96.7709C294.617 85.9382 326.389 81.4395 357.168 83.9823C369.288 84.9835 383.653 87.4536 394.087 90.3309C404.453 93.1891 412.55 96.0779 422.939 100.626C430.793 104.063 431.094 104.034 424.594 100.463C405.24 89.8334 380.701 81.8424 356.758 78.3728C348.812 77.2213 342.898 76.6715 334.754 76.327C328.658 76.0689 327.004 76.0718 320.175 76.3518ZM394.708 81.645C394.708 81.7028 395.651 82.159 396.803 82.6586C404.265 85.894 416.603 92.1676 428.896 98.9779C452.716 112.173 483.602 132.496 504.219 148.54C535.633 172.987 558.823 196.311 576.688 221.426C596.561 249.365 607.211 278.492 607.209 304.903C607.208 322.879 602.745 338.068 593.076 353.006C581.88 370.299 564.611 384.033 541.586 393.953C530.729 398.631 523.491 400.968 509.331 404.368C502.862 405.921 503.51 405.953 512.429 404.521C518.603 403.53 527.307 401.678 533.75 399.985C539.714 398.417 551.617 394.488 556.987 392.314C581.717 382.304 601.438 367.227 612.97 349.512C620.008 338.701 623.568 329.56 626.02 316.004C626.819 311.589 626.939 295.378 626.209 290.58C624.313 278.123 621.146 266.986 616.467 256.323C601.19 221.51 568.451 184.572 523.377 151.298C515.8 145.704 493.336 130.972 484.001 125.475C456.269 109.144 424.615 93.2994 401.815 84.3359C399.209 83.3113 396.544 82.263 395.892 82.0064C395.241 81.7498 394.708 81.5872 394.708 81.645ZM457.02 119.297C459.92 121.463 464.358 124.74 466.882 126.578C484.375 139.32 506.484 158.414 521.195 173.487C558.158 211.356 579.106 247.196 585.103 282.821C586.312 290.005 586.564 293.252 586.564 301.68C586.564 311.982 585.874 317.601 583.472 326.858C580.16 339.624 573.043 353.039 564.217 363.151C546.942 382.945 521.782 396.463 488.426 403.873C483.485 404.971 472.767 406.715 466.689 407.41C464.283 407.685 461.495 408.006 460.493 408.123L458.671 408.336L460.675 408.362C463.535 408.398 473.804 407.751 479.392 407.182C503.358 404.742 523.334 399.794 541.403 391.823C551.557 387.344 563.36 380.24 570.599 374.252C587.603 360.186 598.546 342.649 602.627 322.927C603.916 316.697 604.091 314.542 604.091 304.903C604.091 293.544 603.498 288.628 600.812 277.689C591.841 241.16 563.795 201.841 519.928 164.296C503.387 150.138 487.032 137.962 466.528 124.539C452.532 115.377 449.631 113.778 457.02 119.297ZM487.021 146.869C498.407 158.012 505.188 165.102 513.047 174.084C542.275 207.487 560.233 241.421 565.82 273.809C567.885 285.783 568.017 299.874 566.172 311.349C562.174 336.212 550.15 356.865 530.02 373.443C525.762 376.95 515.86 383.389 510.06 386.424C491.694 396.031 469.184 402.333 445.186 404.585C438.728 405.191 434.996 405.362 425.322 405.498L414.935 405.644L418.423 405.954C425.547 406.588 428.26 406.723 436.803 406.871C454.58 407.178 471.995 405.483 488.556 401.834C536.764 391.21 568.806 365.651 579.997 328.895C582.652 320.175 583.639 312.868 583.657 301.8C583.673 292.621 583.446 289.862 582.003 281.628C576.428 249.815 558.546 217.785 527.102 183.288C518.415 173.757 504.166 160.037 492.628 150.092C487.874 145.994 481.308 140.584 479.328 139.134C478.863 138.793 482.325 142.274 487.021 146.869ZM498.226 161.813C498.22 161.891 501.708 166.51 505.977 172.078C523.066 194.364 533.06 211.451 540.869 231.735C545.965 244.969 548.465 254.923 550.403 269.692C551.018 274.38 551.021 291.934 550.407 296.309C548.186 312.152 544.632 323.462 538.091 335.508C522.865 363.551 495.054 383.961 458.716 393.761C442.02 398.264 425.882 400.281 406.553 400.281C395.02 400.281 384.436 399.526 373.205 397.903C371.501 397.656 370.052 397.49 369.984 397.532C369.762 397.671 378.99 399.557 383.335 400.261C404.24 403.649 424.637 404.489 444.092 402.763C468.826 400.57 491.486 394.08 510.424 383.766C539.419 367.974 558.254 342.278 563.244 311.707C564.574 303.559 564.976 291.449 564.18 283.497C560.409 245.803 540.668 207.715 504.376 168.116C499.501 162.796 498.25 161.514 498.226 161.813ZM512.435 185.35C512.432 185.506 513.431 187.44 514.656 189.647C521.447 201.878 525.765 211.187 529.378 221.39C539.333 249.499 540.87 276.634 533.927 301.68C528.156 322.503 515.94 341.667 499.004 356.467C475.992 376.577 445.308 388.933 409.833 392.374C397.974 393.524 382.502 393.523 369.56 392.372C359.081 391.439 345.267 389.095 334.518 386.425C332.457 385.913 330.724 385.525 330.667 385.563C330.423 385.723 343.198 389.614 347.875 390.804C374.827 397.663 401.347 399.911 427.025 397.513C443.866 395.94 460.337 392.058 475.117 386.182C492.309 379.345 508.32 368.742 519.456 356.82C534.259 340.971 543.531 321.984 546.848 300.726C548.615 289.403 548.476 273.107 546.521 262.411C545.743 258.15 545.464 256.761 544.821 253.936C540.363 234.338 530.894 212.862 517.982 193.062C515.01 188.506 512.445 184.939 512.435 185.35ZM520.082 206.62C520.082 206.768 520.409 207.807 520.808 208.928C521.933 212.089 524.33 220.076 525.332 224.006C530.618 244.734 530.955 263.099 526.417 283.18C522.897 298.756 516.345 312.703 506.232 326.149C493.233 343.434 476.842 356.622 455.242 367.176C436.124 376.519 414.447 382.185 390.152 384.19C383.821 384.713 366.466 384.787 360.084 384.319C340.274 382.865 322.768 379.467 304.902 373.608C300.727 372.238 298.43 371.43 293.023 369.426L291.748 368.953L292.659 369.451C294.359 370.381 303.757 374.428 307.419 375.807C322.834 381.613 340.317 386.299 355.386 388.663C361.333 389.596 368.352 390.396 375.938 391.004C380.856 391.398 398.908 391.395 403.819 390.999C430.051 388.882 451.326 383.158 471.062 372.908C476.411 370.13 488.457 362.204 492.966 358.496C509.191 345.153 520.926 329.28 527.726 311.476C536.792 287.739 537.779 261.831 530.649 234.719C528.605 226.946 524.808 216.114 521.908 209.779C520.53 206.771 520.082 205.995 520.082 206.62ZM523.552 230.78C523.646 232.29 523.907 235.781 524.131 238.539C525.697 257.794 520.002 282.373 509.854 300.16C499.961 317.501 485.543 332.689 467.422 344.857C448.364 357.654 426.205 366.554 401.45 371.352C388.236 373.913 376.485 374.968 361.177 374.968C336.202 374.968 314.79 371.589 291.511 363.975C284.736 361.759 280.669 360.204 273.104 356.942L266.235 353.979L268.786 355.541C277.742 361.025 291.601 367.1 305.686 371.717C323.895 377.684 340.247 380.907 359.902 382.401C365.263 382.808 383.128 382.813 388.33 382.408C401.593 381.376 412.54 379.594 424.008 376.602C453.362 368.942 480.157 352.891 498.27 332.118C512.896 315.343 522.353 294.891 525.536 273.153C527.479 259.887 526.892 242.816 524.088 231.019L523.379 228.035L523.552 230.78Z" fill="#EF0E03"/>
<path fill-rule="evenodd" clip-rule="evenodd" d="M338.213 0.0815429C276.834 1.72037 221.927 12.3122 170.925 32.3517C132.318 47.5211 97.2191 68.3152 69.8972 92.205C63.8392 97.502 53.9645 106.886 54.4488 106.886C54.5199 106.886 55.7008 105.893 57.073 104.678C65.2664 97.4257 73.7372 91.0771 86.7299 82.4509C105.787 69.7989 121.639 61.2388 143.408 51.8453C189.887 31.7898 239.903 19.6565 294.842 15.1086C322.293 12.8365 351.445 12.7116 379.567 14.7462C425.552 18.0733 472.283 27.6587 513.336 42.1847C552.689 56.1089 586.783 73.9146 616.885 96.2633C653.72 123.611 679.749 155.784 692.784 190.081C693.583 192.182 694.441 194.596 694.692 195.447C695.583 198.473 695.418 196.364 694.473 192.658C678.409 129.687 622.381 73.0674 541.217 37.7865C494.827 17.6212 441.419 5.02929 386.322 1.26727C372.949 0.354163 349.575 -0.221872 338.213 0.0815429ZM326.003 15.3588C324.801 15.4061 320.946 15.5581 317.438 15.6966C279.627 17.1893 242.724 22.6606 207.208 32.0395C196.083 34.9774 191.216 36.42 180.583 39.9312C155.475 48.2227 131.061 58.8613 110.187 70.6081C104.857 73.6069 93.6907 80.4289 90.0148 82.9312C87.028 84.9646 87.3389 84.8269 92.6626 81.7579C131.543 59.3447 181.636 42.638 236.346 33.8373C280.517 26.7317 328.584 25.3374 375.57 29.7984C446.658 36.5475 515.829 56.8463 571.436 87.2759C584.739 94.556 601.95 105.37 611.765 112.616C635.32 130.005 651.535 145.394 665.342 163.464C683.31 186.98 693.755 210.33 697.396 235.119C697.692 237.133 697.934 239.392 697.935 240.139C697.935 240.908 698.118 241.571 698.357 241.668C698.864 241.873 698.552 227.208 697.948 222.428C693.549 187.627 674.653 152.702 643.92 122.567C630.272 109.185 617.427 98.8921 599.361 86.8615C552.017 55.3335 492.598 33.1376 426.412 22.2562C407.03 19.0697 387.254 17.0043 364.636 15.8045C358.172 15.4617 331.279 15.1513 326.003 15.3588ZM311.425 29.334C273.143 29.9459 235.52 34.6014 199.718 43.1568C180.448 47.7617 163.761 52.7637 147.782 58.7253C142.286 60.7756 133.75 64.1447 133.75 64.2636C133.75 64.3037 137.099 63.2194 141.193 61.8539C162.582 54.7197 188.126 48.608 213.385 44.5812C259 37.309 303 36.06 351.88 40.6495C439.029 48.8321 523.313 76.2231 587.28 117.151C613.24 133.762 636.634 153.652 653.034 173.059C673.688 197.498 686.149 222.953 690.174 248.926C690.987 254.168 691.106 271.859 690.362 276.618C689.842 279.94 688.923 284.709 688.591 285.809C688.472 286.202 688.468 286.467 688.581 286.397C688.906 286.197 691.601 278.014 692.432 274.708C694.889 264.923 695.53 258.903 695.275 248.029C694.985 235.692 693.414 226.427 689.528 214.138C681.215 187.85 662.851 160.39 638.273 137.495C614.105 114.983 583.91 94.9293 549.194 78.3339C518.395 63.6112 481.63 51.0943 445.176 42.9197C401.227 33.0646 357.284 28.6009 311.425 29.334ZM277.53 40.2909C246.881 41.4358 214.659 45.4559 187.69 51.4994C182.98 52.555 179.536 53.3633 180.037 53.2955C180.538 53.2277 184.802 52.5369 189.513 51.7603C203.06 49.5268 219.042 47.5318 230.697 46.619C261.326 44.2203 294.965 44.7216 327.279 48.0584C371.563 52.6314 414.777 61.9719 458.667 76.4573C485.865 85.4335 507.265 94.0582 530.64 105.465C557.239 118.445 581.72 133.522 601.661 149.206C643 181.718 668.482 216.431 677.14 252.029C679.145 260.271 679.874 266.492 679.868 275.305C679.863 282.891 679.521 286.674 678.215 293.567C676.103 304.721 671.268 316.633 664.787 326.65C663.785 328.199 663.022 329.504 663.092 329.55C663.162 329.595 664.626 327.775 666.346 325.505C680.855 306.357 688.099 285.633 688.094 263.29C688.086 230.597 671.832 195.937 641.671 164.299C622.324 144.004 597.279 124.872 568.37 108.305C528.937 85.7073 482.251 67.685 432.973 56.0375C396.982 47.5309 362.495 42.629 324.545 40.6256C316.087 40.1789 286.218 39.9665 277.53 40.2909ZM248.738 47.5805C241.958 47.8873 229.898 48.6354 229.671 48.7634C229.608 48.799 234.61 48.7708 240.787 48.7008C257.491 48.5115 272.581 49.1508 290.132 50.7918C344.019 55.8296 406.388 70.6255 462.676 91.7245C509.652 109.333 550.815 131.883 585.13 158.808C633.224 196.545 661.058 238.052 665.172 278.169C665.709 283.404 665.396 295.859 664.611 300.49C662.084 315.398 656.407 328.501 647.079 340.953C642.275 347.367 637.573 352.583 632.284 357.365C631.304 358.252 630.578 358.977 630.671 358.977C631.244 358.977 641.874 349.837 646.08 345.728C653.197 338.774 661.477 327.747 666.053 319.126C678.129 296.379 680.217 271.361 672.226 245.158C665.279 222.378 650.85 199.444 629.841 177.787C599.977 147.002 561.807 121.494 512.243 99.2001C481.2 85.237 440.701 71.6972 404.362 63.1332C366.369 54.179 329.939 49.1279 292.108 47.5686C281.427 47.1284 258.594 47.1348 248.738 47.5805ZM308.691 54.9095C308.792 54.9756 311.399 55.4789 314.484 56.0279C338.304 60.2652 358.696 65.557 388.873 75.331C465.864 100.267 520.355 127.505 564.697 163.218C597.923 189.978 622.748 218.974 635.727 246.181C642.165 259.678 645.718 271.339 647.69 285.45C648.286 289.709 648.294 302.829 647.704 306.935C645.377 323.139 639.299 337.384 629.219 350.263C621.561 360.048 613.409 367.435 601.177 375.673C596.055 379.123 595.891 379.26 598.62 377.822C615.448 368.954 630.197 357.46 640.504 345.184C653.312 329.928 660.328 313.784 662.26 295.119C662.779 290.116 662.482 279.448 661.673 273.992C657.239 244.09 640.201 214.138 611.019 184.947C575.966 149.883 525.674 118.461 469.447 96.4934C443.648 86.4141 410.845 75.9777 384.317 69.4093C360.731 63.5694 337.505 58.9239 317.621 56.0688C309.181 54.857 308.472 54.7651 308.691 54.9095ZM139.958 66.0944C127.089 70.6313 113.065 77.4737 102.589 84.3272C76.1211 101.642 59.762 124.222 55.2193 149.711C53.1619 161.256 53.6532 175.86 56.5179 188.291C62.0697 212.381 76.2786 237.317 98.4841 261.936C110.186 274.91 124.87 288.451 140.68 300.848C156.995 313.64 178.272 327.741 197.983 338.823C247.559 366.697 301.579 386.884 357.979 398.615C366.05 400.293 379.697 402.785 379.942 402.624C380.012 402.578 376.762 401.858 372.718 401.025C326.695 391.543 282.768 376.255 243.102 355.916C226.3 347.301 214.213 340.284 197.405 329.387C177.244 316.318 162.825 305.529 146.817 291.538C115.779 264.409 92.7592 235.262 80.3584 207.388C74.8357 194.975 71.8912 184.827 69.8987 171.341C69.2609 167.023 69.2602 150.81 69.8976 146.634C73.5666 122.596 84.7108 103.587 104.816 87.0725C109.841 82.9445 120.51 75.9557 126.825 72.654C130.78 70.5869 137.048 67.7079 143.092 65.1839C144.662 64.5281 143.176 64.9597 139.958 66.0944ZM106.233 78.8801C90.318 86.8816 77.9711 95.5536 66.8679 106.528C51.3641 121.853 41.595 139.35 37.9461 158.331C35.7334 169.839 35.9885 183.438 38.6502 195.872C43.7519 219.705 57.3685 243.692 79.5391 267.904C117.384 309.234 178.427 347.241 249.466 373.707C295.213 390.751 341.976 401.915 389.208 407.071C399.873 408.235 413.83 409.313 414.295 409.008C414.411 408.932 414.077 408.87 413.553 408.87C411.796 408.87 395.693 407.009 388.873 406.017C323.495 396.516 257.393 374.283 200.087 342.521C163.318 322.141 133.23 300.201 107.908 275.305C97.1699 264.747 90.2823 256.932 81.8191 245.703C63.8169 221.818 54.0024 199.106 51.3874 175.28C50.9194 171.016 50.9212 160.349 51.391 155.705C53.9688 130.215 67.8902 107.342 91.9289 89.1017C95.9865 86.0229 103.201 81.1651 107.304 78.7495C108.895 77.8127 110.125 77.0464 110.037 77.0469C109.95 77.0474 108.238 77.8724 106.233 78.8801ZM400.718 81.5244C400.918 81.6631 405.218 83.5323 410.272 85.6779C435.349 96.3225 462.387 110.068 486.67 124.515C494.073 128.919 511.48 140.143 518.755 145.202C549.512 166.592 576.361 191.685 596.02 217.415C608.248 233.42 616.123 246.987 621.721 261.698C627.602 277.151 630.073 290.829 629.676 305.728C629.47 313.441 629.089 316.431 627.425 323.4C620.377 352.916 597.012 377.521 561.771 392.539C556.5 394.785 555.913 395.11 559.258 393.926C565.097 391.86 575.515 387.432 581.21 384.596C595.641 377.409 608.123 368.772 617.545 359.454C621.997 355.051 623.636 353.185 627.499 348.115C647.4 322.003 650.612 290.513 636.898 255.968C631.411 242.146 624.341 229.947 613.864 216.221C593.693 189.794 564.918 163.874 531.575 142.098C500.314 121.681 466.137 105.085 421.857 88.8188C412.246 85.2886 400.102 81.0978 400.718 81.5244ZM68.2065 101.217C53.5592 112.403 43.5522 123.593 35.1208 138.215C16.3958 170.687 17.654 207.91 38.7136 244.51C51.4154 266.585 71.3518 288.519 96.9869 308.624C115.098 322.828 134.888 335.412 158.484 347.728C206.782 372.94 264.001 392.492 320.901 403.228C349.988 408.716 374.923 411.636 403.998 412.961C420.669 413.72 450.301 413.061 464.498 411.615L467.779 411.282L464.134 411.391C453.773 411.701 432.883 411.771 425.866 411.52C401.216 410.635 381.397 408.638 356.982 404.579C309.877 396.746 261.998 382.512 217.758 363.189C154.781 335.68 103.093 300.036 70.5875 261.698C49.0034 236.241 36.7849 210.718 33.902 185.068C33.4202 180.782 33.4176 169.574 33.8976 165.254C35.791 148.208 42.4493 132.129 53.6474 117.559C57.3073 112.797 63.4514 106.114 67.7309 102.239C69.5488 100.594 70.9797 99.2474 70.9108 99.2474C70.8416 99.2474 69.625 100.133 68.2065 101.217ZM33.2671 134.649C24.8058 145.7 19.8148 154.696 16.2563 165.311C9.7703 184.657 9.00421 205.291 14.0421 224.934C24.5412 265.871 56.7737 304.893 107.311 337.85C126.881 350.612 147.319 361.531 170.743 371.739C219.309 392.904 277.519 408.624 332.522 415.429C379.955 421.297 426.615 421.342 470.448 415.561C484.534 413.703 495.823 411.718 511.429 408.354C521.289 406.228 524.549 405.365 518.032 406.605C505.06 409.072 486.699 411.532 469.236 413.14C439.562 415.874 411.287 415.992 381.06 413.51C309.983 407.673 233.72 386.935 170.561 356.271C150.597 346.578 136.593 338.676 119.331 327.365C104.88 317.896 95.4959 310.946 84.6156 301.658C51.4537 273.349 29.9104 242.457 22.236 212.208C19.9318 203.127 19.1391 196.57 19.1424 186.62C19.1468 172.5 21.1907 162.071 26.4192 149.486C28.7904 143.78 34.043 134.04 36.2732 131.215C36.5943 130.809 36.798 130.437 36.7258 130.389C36.6533 130.342 35.0971 132.259 33.2671 134.649ZM10.4457 173.183C10.3287 173.549 9.57532 175.835 8.77168 178.264C4.92261 189.898 3.27014 199.602 3.27634 210.536C3.29821 249.561 22.6077 287.936 59.8691 323.006C90.6941 352.019 135.329 378.037 186.05 396.559C224.605 410.638 268.158 420.923 311.538 426.193C356.879 431.701 402.14 431.767 445.706 426.389C486.868 421.308 530.548 410.157 564.179 396.144C569.202 394.051 569.011 394.057 562.721 396.187C545.712 401.948 529.429 406.455 511.696 410.309C483.922 416.345 457.558 419.812 427.87 421.333C419.764 421.749 386.789 421.746 378.668 421.329C358.622 420.3 340.992 418.691 324.432 416.377C254.408 406.593 185.642 384.701 131.381 354.918C117.48 347.288 98.9707 335.515 88.2213 327.466C51.7763 300.176 27.2378 270.34 15.4781 239.019C7.55875 217.927 5.7893 197.76 10.044 177.098C10.5415 174.683 10.883 172.665 10.8032 172.613C10.7237 172.561 10.5626 172.818 10.4457 173.183ZM0.206841 219.921C-0.423678 225.104 0.447752 238.319 2.00109 247.136C7.48112 278.24 25.847 310.077 54.4696 338.089C68.2524 351.577 80.8719 361.641 98.1798 372.947C142.031 401.591 194.568 422.051 255.48 434.207C290.38 441.172 329.97 444.781 366.823 444.358C414.224 443.812 456.537 437.794 501.309 425.229C533.546 416.182 566.265 402.651 591.803 387.806C594.55 386.209 600.406 382.545 604.816 379.663C609.226 376.782 611.522 375.171 609.918 376.084C578.554 393.939 547.636 406.344 510.238 416.075C478.543 424.323 444.429 429.651 412.016 431.418C395.747 432.304 374.753 432.551 360.576 432.021C325.186 430.7 291.982 426.563 257.849 419.221C191.448 404.939 132.997 380.65 87.3014 348.351C51.1869 322.824 24.4031 292.105 11.125 260.981C4.98276 246.585 2.02771 234.598 0.61943 218.37C0.565491 217.746 0.39235 218.397 0.206841 219.921ZM4.02786 267.638C3.89847 268.691 8.38827 282.022 11.461 289.709C29.9086 335.858 72.1682 378.109 131.049 409.272C141.926 415.029 160.089 423.351 171.654 427.878C217.402 445.784 266.125 456.329 318.167 459.585C333.607 460.551 357.012 460.84 370.103 460.226C412.286 458.248 447.745 452.698 485.091 442.228C525.614 430.868 562.144 414.757 594.012 394.191C615.553 380.29 631.826 367.223 646.793 351.81C651.482 346.981 651.355 347.025 645.403 352.293C627.988 367.704 606.717 382.452 585.192 394.039C570.444 401.977 552.632 409.998 537.026 415.729C490.847 432.686 443.402 442.459 392.517 445.496C380.258 446.228 371.546 446.415 356.134 446.277C340.979 446.142 333.363 445.849 320.536 444.905C255.786 440.14 193.193 424.228 140.368 399.103C109.612 384.475 84.5464 368.343 62.7538 349.154C36.0436 325.634 16.9764 299.818 6.00652 272.321C4.93282 269.629 4.04243 267.522 4.02786 267.638Z" fill="#FECC04"/>
</svg>
