<svg width="852" height="930" viewBox="0 0 852 930" fill="none" xmlns="http://www.w3.org/2000/svg">
<path fill-rule="evenodd" clip-rule="evenodd" d="M404.158 102.367C385.785 103.63 375.187 105.091 360.641 108.365C344.916 111.904 328.822 117.407 315.226 123.896C291.496 135.22 271.418 149.993 256.148 167.363C252.565 171.439 245.069 181.321 242.351 185.554C232.813 200.404 226.231 216.321 222.687 233.107C220.993 241.13 220.243 246.481 220.035 252.014C219.832 257.456 219.86 257.395 221.588 248.719C227.201 220.535 241.242 195.659 264.197 173.235C288.981 149.025 322.728 130.656 359.895 121.146C404.777 109.662 450.468 109.767 492.722 121.452C517.715 128.364 542.36 140.129 561.53 154.299C568.35 159.34 568.598 159.495 566.154 157.193C563.526 154.717 555.721 148.109 552.459 145.597C530.538 128.722 498.293 114.388 467.472 107.818C449.632 104.016 435.96 102.527 417.278 102.353C411.024 102.294 405.12 102.3 404.158 102.367ZM413.998 115.099C395.278 116.177 376.98 119.015 360.23 123.44C331.768 130.96 305.324 143.602 283.637 160.058C261.899 176.553 243.771 198.486 234.252 219.808C232.369 224.025 232.098 225.537 233.771 222.484C238.196 214.41 246.698 202.543 253.046 195.58C270.259 176.697 290.861 161.677 315.594 149.978C364 127.082 422.841 119.363 476.758 128.837C510.424 134.753 541.659 147.169 566.106 164.355C573.956 169.873 580.011 174.742 588.199 182.12C588.852 182.707 588.841 182.657 588.142 181.829C575.3 166.655 552.087 149.152 530.654 138.481C505.064 125.741 476.167 117.98 445.05 115.49C438.446 114.961 420.347 114.733 413.998 115.099ZM417.059 127.419C391.437 128.888 368.833 133.021 346.61 140.3C321.489 148.529 299.296 159.829 281.085 173.665C274.897 178.366 265.908 186.27 260.876 191.434C256.951 195.462 252.968 199.969 254.638 198.492C265.895 188.539 272.371 183.491 281.91 177.232C290.933 171.312 295.634 168.62 304.878 164.08C327.094 153.169 350.053 145.76 375.511 141.286C414.004 134.522 452.973 135.203 489.875 143.284C499.996 145.501 506.788 147.365 516.557 150.609C554.674 163.265 586.635 184.507 608.36 211.622C609.937 213.591 611.232 215.112 611.236 215.001C611.257 214.479 606.842 207.83 603.573 203.458C599.496 198.007 594.616 192.551 588.016 186.064C566.752 165.168 540.642 149.554 510.34 139.614C491.717 133.505 471.214 129.45 450.736 127.825C443.753 127.271 423.83 127.03 417.059 127.419ZM414.873 139.175C378.233 140.882 343.087 149.071 312.974 162.92C300.723 168.555 292.02 173.437 281.261 180.713C278.763 182.403 278.387 182.734 279.949 181.872C300.627 170.457 316.249 163.914 336.805 158.055C399.049 140.317 471.801 144.257 531.187 168.583C571.87 185.247 604.51 211.341 621.345 240.658C622.146 242.054 622.868 243.066 622.949 242.907C623.03 242.749 622.41 241.026 621.572 239.08C617.334 229.241 610.414 218.385 602.608 209.33C585.461 189.442 565.297 174.407 539.518 162.292C518.06 152.207 492.095 144.852 465.502 141.326C449.714 139.233 430.849 138.432 414.873 139.175ZM407.656 149.481C375.709 150.559 344.081 156.714 316.468 167.229C310.93 169.337 304.66 171.998 304.66 172.239C304.66 172.311 305.89 171.909 307.393 171.346C312.449 169.45 323.193 166.154 330.464 164.268C346.047 160.224 363.132 157.417 380.793 155.999C387.794 155.436 390.915 155.351 404.595 155.351C421.759 155.351 426.502 155.593 441.114 157.215C476.743 161.17 512.737 171.397 542.361 185.985C561.804 195.558 576.644 205.239 590.484 217.377C599.249 225.064 605.037 231.295 611.879 240.412C618.279 248.939 622.816 257.15 626.088 266.129C628.804 273.582 628.704 273.375 628.455 271.064C626.988 257.48 620.499 242.931 609.462 228.485C590.279 203.375 561.3 182.904 524.648 168.57C513.568 164.237 494.467 158.566 482.662 156.104C464.375 152.291 446.562 150.118 428.212 149.464C419.523 149.154 417.271 149.156 407.656 149.481ZM385.57 157.929C376.732 158.509 364.603 159.867 356.302 161.207C349.68 162.276 332.856 165.731 333.194 165.953C333.281 166.009 336.49 165.536 340.326 164.901C349.162 163.439 360.025 162.23 369.825 161.619C379.325 161.027 403.079 161.186 411.811 161.901C441.212 164.308 465.197 168.919 490.792 177.086C517.766 185.692 539.778 196.01 561.393 210.18C581.292 223.223 594.953 235.276 605.55 249.137C618.627 266.244 624.702 282.131 624.856 299.631L624.909 305.726L625.694 302.718C628.326 292.622 627.894 282.573 624.322 270.777C619.35 254.363 607.193 236.392 590.991 221.505C562.696 195.507 520.762 175.233 474.035 164.962C460.114 161.902 442.668 159.345 427.775 158.182C419.171 157.51 394.239 157.361 385.57 157.929ZM226.904 247.645C225.211 253.743 224.938 255.809 224.928 262.613C224.916 269.786 225.312 272.895 227.078 279.514C229.075 287.003 232.272 294.354 236.734 301.712C246.468 317.769 260.273 331.425 280.136 344.645C295.513 354.88 311.676 363.091 330.245 370.102C367.391 384.127 406.999 391.232 448.112 391.246C470.055 391.253 486.261 389.784 506.324 385.969C513.043 384.691 525.656 381.774 525.345 381.571C525.257 381.513 522.35 381.975 518.884 382.598C501.712 385.682 483.294 387.26 464.294 387.275C443.655 387.291 423.971 385.616 403.239 382.08C368.187 376.101 332.328 364.097 304.441 349.007C297.357 345.174 295.949 344.333 287.676 338.988C256.075 318.573 236.316 295.384 229.919 271.207C228.098 264.325 227.904 262.614 227.904 253.374C227.904 248.372 227.889 244.279 227.871 244.279C227.853 244.279 227.418 245.794 226.904 247.645ZM223.534 282.014C225.458 307.812 247.766 337.208 281.973 359.022C317.191 381.481 364.088 395.542 414.873 398.868C425.293 399.551 445.061 399.546 455.328 398.858C479.577 397.234 501.866 393.245 523.069 386.737C532.041 383.982 540.512 380.906 547.5 377.863C550.567 376.528 553.076 375.399 553.076 375.355C553.076 375.311 548.304 376.848 542.471 378.77C522.283 385.421 504.733 389.244 483.27 391.666C463.885 393.854 440.822 394.107 419.684 392.366C378.561 388.978 338.859 378.361 304.004 361.432C289.881 354.572 274 344.458 262.417 334.946C243.394 319.323 230.913 302.048 224.377 282.293L223.316 279.085L223.534 282.014ZM632.035 296.488C628.645 320.705 620.821 339.794 606.408 359.009C574.34 401.761 518.744 429.898 454.453 435.911C419.891 439.144 382.925 435.124 349.707 424.521C326.52 417.119 309.197 408.893 289.601 395.977C281.846 390.866 281.483 390.665 283.866 392.812C298.972 406.415 317.151 418.085 335.986 426.271C363.725 438.327 390.484 444.888 421.653 447.278C430.678 447.969 449.693 447.968 458.827 447.274C493.659 444.629 524.176 435.826 551.937 420.414C569.182 410.841 583.438 399.68 596.457 385.561C618.206 361.973 630.842 332.054 632.504 300.212C632.808 294.399 632.58 292.595 632.035 296.488ZM229.015 310.453C228.99 311.202 231.945 318.212 233.603 321.339C241.421 336.074 256.039 352.099 273.193 364.738C312.005 393.336 368.142 409.864 426.441 409.856C458.8 409.851 489.274 405.13 518.196 395.641C539.747 388.569 562.483 377.1 578.033 365.454C580.19 363.839 580.472 363.485 578.879 364.391C568.801 370.14 566.297 371.519 561.712 373.842C551.321 379.106 542.171 382.902 530.334 386.86C487.429 401.205 437.577 405.32 389.117 398.517C331.988 390.498 282.611 368.956 251.289 338.383C244.159 331.424 235.607 320.876 231.2 313.604C230.006 311.635 229.023 310.217 229.015 310.453ZM620.037 327.566C618.338 330.721 613.247 338.993 610.825 342.537C603.046 353.915 591.811 365.481 577.974 376.356C572.688 380.51 560.112 388.845 553.514 392.567C527.44 407.274 496.534 417.283 463.879 421.597C448.198 423.669 437.173 424.321 421.652 424.094C398.338 423.754 378.491 421.23 356.486 415.808C329.706 409.209 305.481 398.9 284.282 385.081C275.878 379.603 270.892 375.867 264.637 370.364C260.455 366.684 259.483 365.943 260.545 367.245C266.883 375.012 277.766 384.74 288.517 392.249C306.946 405.121 327.455 415.098 350.363 422.337C370.742 428.777 389.001 432.3 411.374 434.111C421.156 434.903 441.423 434.823 451.392 433.954C486.009 430.936 517.348 421.89 545.641 406.749C551.988 403.353 565.332 394.711 571.146 390.234C590.881 375.033 606.604 356.661 616.284 337.488C619.725 330.673 622.937 322.182 620.037 327.566ZM241.491 339.099C242.429 341.213 246.948 347.796 250.013 351.513C266.521 371.529 289.564 388.051 318.589 400.684C344.143 411.805 373.437 418.756 405.164 421.225C414.212 421.93 436.526 421.93 445.574 421.225C493.837 417.469 535.001 403.594 569.024 379.614C581.16 371.06 595.029 358.33 601.617 349.699C603.345 347.435 603.257 347.484 600.068 350.558C567.202 382.238 519.555 403.125 464.847 409.834C451.418 411.481 442.506 411.982 426.681 411.982C411.097 411.982 405.093 411.668 391.402 410.135C343.925 404.82 299.907 388.462 268.578 364.49C259.792 357.767 251.031 349.635 244.311 341.964C242.586 339.995 241.317 338.705 241.491 339.099Z" fill="#168C23"/>
<path fill-rule="evenodd" clip-rule="evenodd" d="M284.547 62.3983C248.428 64.69 218.069 72.1579 191.394 85.3125C170.982 95.378 155.111 107.781 143.219 122.96C133.301 135.619 127.303 147.925 123.819 162.76C114.753 201.37 125.762 243.54 156.505 287.965C175.787 315.827 202.725 344.01 236.342 371.493C250.678 383.213 259.401 389.644 274.901 399.923C293.589 412.317 309.332 421.565 325.878 429.87L328.938 431.406L326.096 429.728C321.5 427.015 316.479 423.903 305.21 416.78C274.289 397.234 245.789 374.229 221.043 348.839C179.11 305.815 153.101 262.228 145.045 221.479C142.996 211.118 142.674 207.394 142.649 193.861C142.625 180.088 142.88 177.087 144.869 167.792C154.263 123.89 187.829 90.7866 240.461 73.5167C256.989 68.0933 272.79 64.9192 295.044 62.5519L298.761 62.1562L293.513 62.1594C290.626 62.1611 286.592 62.2685 284.547 62.3983ZM302.939 64.2523C289.509 65.1232 278.782 66.5266 266.834 68.9762C264.429 69.4695 261.969 69.9736 261.367 70.0968C260.766 70.22 257.92 70.9327 255.042 71.6804C200.589 85.8318 163.742 116.508 150.778 158.482C142.89 184.024 144.268 214.047 154.692 243.706C165.242 273.727 183.357 302.712 211 333.8C232.77 358.283 257.711 380.628 284.461 399.615C290.47 403.881 292.716 405.327 289.947 403.147C270.353 387.723 259.526 378.187 245.929 364.378C224.044 342.153 204.671 316.837 191.181 292.835C178.341 269.989 170.543 248.442 167.139 226.405C164.796 211.238 164.798 194.58 167.143 180.683C173.844 140.983 197.83 109.237 236.51 88.8778C258.627 77.2364 285.514 69.4434 312.538 66.842C322.428 65.8901 325.452 65.7388 338.123 65.5629L351.243 65.3807L345.558 64.8828C342.431 64.6093 337.834 64.2546 335.343 64.0951C329.121 63.6969 310.085 63.7891 302.939 64.2523ZM240.593 65.1283C229.521 66.7065 215.966 69.3449 207.008 71.6655C157.922 84.3815 121.225 110.051 104.337 143.483C99.44 153.178 96.2185 163.486 94.2324 175.813C93.4609 180.603 93.4448 200.049 94.2075 205.463C96.1214 219.042 99.388 230.985 104.628 243.563C106.284 247.536 110.64 256.938 111.597 258.602C111.914 259.154 113.087 261.281 114.203 263.329C131.314 294.719 160.647 328.063 198.287 358.913C221.753 378.145 250.85 397.831 279.736 414.02C293.675 421.831 312.731 431.582 323.735 436.533C343.997 445.649 367.01 454.566 386.232 460.75C395.179 463.628 398.307 464.479 394.323 462.952C379.017 457.086 367.235 452.307 358.897 448.582C326.718 434.204 303.143 421.429 275.803 403.554C254.685 389.747 239.056 377.929 219.733 361.157C166.38 314.847 131.706 265.439 121.224 220.789C118.258 208.152 117.397 201.113 117.389 189.421C117.381 177.08 118.761 167.287 122.073 156.191C130.562 127.749 152.271 103.159 183.644 86.452C194.661 80.5846 203.325 76.907 216.101 72.6756C224.557 69.8751 228.585 68.7733 239.718 66.2158C248.109 64.2884 248.319 64.0272 240.593 65.1283ZM330.907 67.6982C316.291 68.3425 300.464 70.2704 288.702 72.8392C255.013 80.1971 227.767 93.5845 206.81 113.077C197.349 121.878 187.758 134.482 182.267 145.333C176.418 156.893 172.979 167.314 170.65 180.54C168.146 194.762 168.311 213.542 171.081 229.383C178.31 270.731 202.626 314.002 242.835 357.07C247.262 361.812 258.201 372.616 258.575 372.616C258.823 372.616 258.938 372.751 255.887 369.465C217.529 328.147 192.467 281.398 186.394 239.839C184.298 225.497 184.216 208.6 186.179 195.866C189.519 174.21 197.531 154.402 209.779 137.529C223.855 118.137 244.429 101.561 267.604 90.9413C290.103 80.6313 312.048 74.835 337.686 72.4307C355.477 70.7623 373.237 71.0413 392.355 73.2895C399.695 74.1526 400.342 74.2039 399.518 73.8567C397.14 72.8546 380.733 70.3203 369.619 69.2386C357.162 68.0257 339.456 67.3212 330.907 67.6982ZM345.558 73.9761C293.788 77.5464 251.027 95.9132 222.419 126.868C218.218 131.414 210.753 141.249 207.582 146.419C200.741 157.569 195.6 169.746 192.48 182.184C189.331 194.743 188.336 203.148 188.336 217.208C188.336 232.432 189.711 243.109 193.574 257.886C198.459 276.566 207.025 296.203 218.785 315.675C224.195 324.632 233.19 337.885 233.655 337.581C233.737 337.527 232.901 335.945 231.798 334.066C226.549 325.125 225.278 322.874 222.835 318.199C207.353 288.56 199.713 260.115 199.713 232.104C199.713 193.735 214.062 159.062 241.144 131.984C264.934 108.198 295.951 92.1762 333.705 84.1721C346.386 81.4836 357.503 80.1724 373.139 79.5216C394.018 78.6524 416.574 80.9542 441.087 86.4552C443.836 87.072 446.15 87.5337 446.23 87.4813C446.453 87.3352 435.745 84.0621 431.06 82.844C418.083 79.4703 402.198 76.5692 387.982 74.9773C375.695 73.6014 357.29 73.1672 345.558 73.9761ZM366.551 82.0055C324.771 84.7507 286.825 98.2355 258.558 120.382C226.747 145.305 208.431 177.572 203.839 216.778C202.627 227.118 203.112 244.469 204.932 255.881C207.016 268.955 210.75 282.602 215.671 295.127C218.537 302.422 221.964 310.003 222.296 309.785C222.394 309.721 221.984 308.33 221.385 306.695C215.796 291.426 212.221 276.526 210.635 261.897C209.991 255.952 210.103 239.306 210.831 232.82C213.447 209.511 220.432 189.422 232.495 170.514C244.372 151.897 259.801 136.449 279.288 123.662C307.152 105.378 338.035 94.6235 374.205 90.6087C382.844 89.6493 387.352 89.4485 400.008 89.4585C413.347 89.4691 417.956 89.7152 429.585 91.0378C446.726 92.9875 470.327 98.6309 487.436 104.871C489.456 105.608 491.176 106.168 491.258 106.114C491.384 106.032 481.797 101.82 478.275 100.41C463.196 94.372 440.803 88.1333 423.625 85.1844C405.497 82.0723 383.869 80.8677 366.551 82.0055ZM391.043 91.6222C359.251 92.9253 328.658 100.388 302.697 113.173C276.796 125.929 256.868 142.192 241.217 163.349C224.631 185.77 215.653 210.589 213.653 239.552C212.779 252.208 214.224 269.087 217.159 280.517C218.175 284.472 218.225 283.689 217.407 276.65C213.625 244.1 221.358 212.075 239.817 183.835C259.147 154.264 289.327 130.837 327.044 116.125C360.372 103.126 398.499 97.7274 435.434 100.779C449.978 101.98 467.215 104.944 479.737 108.397C492.176 111.827 501.892 115.293 514.359 120.751C523.784 124.875 524.144 124.84 516.344 120.556C493.12 107.8 463.673 98.2109 434.942 94.0474C425.407 92.6655 418.31 92.0058 408.537 91.5924C401.222 91.2827 399.237 91.2862 391.043 91.6222ZM480.481 97.974C480.481 98.0433 481.613 98.5908 482.996 99.1903C491.95 103.073 506.755 110.601 521.508 118.773C550.091 134.608 587.154 158.995 611.895 178.248C649.592 207.584 677.42 235.573 698.858 265.711C722.705 299.238 735.485 334.191 735.483 365.884C735.481 387.455 730.126 405.682 718.523 423.607C705.088 444.359 684.365 460.84 656.735 472.744C643.706 478.357 635.022 481.161 618.029 485.241C610.267 487.105 611.044 487.143 621.746 485.426C629.156 484.237 639.601 482.014 647.332 479.982C654.489 478.1 668.772 473.385 675.216 470.777C704.893 458.765 728.558 440.672 742.396 419.414C750.841 406.441 755.113 395.472 758.056 379.205C759.015 373.907 759.159 354.453 758.283 348.696C756.008 333.748 752.207 320.383 746.592 307.588C728.26 265.812 688.973 221.487 634.885 181.557C625.792 174.845 598.835 157.167 587.633 150.57C554.355 130.973 516.37 111.959 489.01 101.203C485.883 99.9735 482.684 98.7157 481.903 98.4077C481.121 98.0998 480.481 97.9047 480.481 97.974ZM555.256 143.156C558.736 145.756 564.062 149.688 567.09 151.894C588.082 167.184 614.613 190.097 632.266 208.184C676.621 253.627 701.76 296.635 708.955 339.386C710.406 348.006 710.708 351.902 710.709 362.017C710.709 374.378 709.881 381.121 706.999 392.23C703.024 407.549 694.483 423.646 683.892 435.782C663.162 459.534 632.971 475.756 592.944 484.648C587.014 485.965 574.152 488.058 566.859 488.892C563.972 489.223 560.626 489.607 559.424 489.748L557.237 490.003L559.642 490.034C563.075 490.078 575.397 489.302 582.103 488.619C610.862 485.691 634.833 479.753 656.516 470.188C668.701 464.812 682.864 456.288 691.551 449.102C711.956 432.223 725.088 411.179 729.984 387.512C731.531 380.036 731.741 377.451 731.741 365.884C731.741 352.253 731.03 346.354 727.806 333.227C717.042 289.392 683.386 242.21 630.746 197.155C610.896 180.166 591.27 165.555 566.665 149.447C549.87 138.452 546.39 136.533 555.256 143.156ZM591.257 176.243C604.921 189.614 613.057 198.122 622.488 208.9C657.563 248.985 679.111 289.706 685.816 328.571C688.294 342.94 688.453 359.848 686.238 373.619C681.441 403.455 667.012 428.238 642.856 448.132C637.746 452.34 625.864 460.067 618.904 463.708C596.865 475.238 569.853 482.8 541.055 485.502C533.305 486.229 528.827 486.434 517.219 486.598L504.754 486.773L508.94 487.145C517.488 487.905 520.744 488.068 530.996 488.245C552.328 488.614 573.226 486.58 593.1 482.2C650.949 469.452 689.4 438.781 702.828 394.674C706.014 384.21 707.199 375.442 707.221 362.16C707.239 351.145 706.968 347.835 705.236 337.953C698.546 299.778 677.087 261.342 639.354 219.945C628.93 208.509 611.832 192.045 597.986 180.11C592.281 175.193 584.401 168.701 582.026 166.96C581.468 166.551 585.622 170.729 591.257 176.243ZM604.704 194.175C604.696 194.269 608.881 199.812 614.004 206.493C634.512 233.237 646.504 253.741 655.875 278.082C661.989 293.962 664.99 305.907 667.315 323.63C668.053 329.256 668.057 350.321 667.321 355.571C664.655 374.582 660.391 388.154 652.541 402.61C634.27 436.261 600.897 460.753 557.291 472.513C537.256 477.916 517.89 480.337 494.695 480.337C480.856 480.337 468.155 479.431 454.678 477.483C452.633 477.188 450.894 476.988 450.813 477.038C450.546 477.205 461.62 479.469 466.835 480.314C491.92 484.379 516.396 485.387 539.743 483.316C569.424 480.684 596.615 472.896 619.341 460.519C654.135 441.569 676.737 410.734 682.725 374.048C684.321 364.271 684.803 349.739 683.848 340.196C679.323 294.963 655.633 249.259 612.084 201.739C606.233 195.355 604.733 193.817 604.704 194.175ZM621.754 222.42C621.75 222.607 622.949 224.928 624.42 227.576C632.569 242.253 637.75 253.425 642.086 265.669C654.031 299.399 655.877 331.961 647.545 362.017C640.619 387.004 625.959 410.001 605.637 427.761C578.022 451.893 541.201 466.72 498.631 470.849C484.4 472.229 465.835 472.228 450.304 470.846C437.73 469.727 421.153 466.914 408.253 463.71C405.781 463.096 403.701 462.63 403.633 462.675C403.339 462.867 418.67 467.537 424.281 468.965C456.625 477.196 488.449 479.893 519.261 477.015C539.471 475.128 559.237 470.47 576.972 463.418C597.602 455.214 616.817 442.49 630.179 428.184C647.943 409.165 659.07 386.381 663.05 360.871C665.17 347.284 665.003 327.729 662.657 314.893C661.723 309.78 661.389 308.114 660.618 304.723C655.268 281.205 643.905 255.434 628.41 231.674C624.844 226.207 621.766 221.926 621.754 222.42ZM630.931 247.944C630.931 248.122 631.323 249.368 631.802 250.714C633.152 254.507 636.028 264.091 637.23 268.808C643.574 293.681 643.978 315.719 638.532 339.815C634.308 358.508 626.446 375.244 614.311 391.379C598.711 412.121 579.043 427.947 553.123 440.612C530.181 451.822 504.168 458.622 475.014 461.029C467.417 461.656 446.592 461.745 438.933 461.183C415.161 459.438 394.153 455.36 372.715 448.329C367.704 446.686 364.947 445.715 358.46 443.311L356.929 442.743L358.022 443.342C360.062 444.457 371.34 449.314 375.735 450.969C394.233 457.936 415.213 463.559 433.295 466.396C440.432 467.516 448.854 468.475 457.958 469.205C463.859 469.678 485.522 469.674 491.415 469.198C522.893 466.658 548.423 459.79 572.107 447.489C578.526 444.156 592.98 434.645 598.391 430.196C617.862 414.184 631.943 395.136 640.103 373.771C650.983 345.286 652.167 314.197 643.611 281.663C641.157 272.336 636.602 259.337 633.121 251.735C631.468 248.125 630.931 247.195 630.931 247.944ZM635.094 276.936C635.207 278.748 635.52 282.938 635.789 286.246C637.668 309.352 630.835 338.847 618.657 360.192C606.785 381.002 589.484 399.226 567.739 413.829C544.869 429.185 518.278 439.865 488.572 445.622C472.715 448.696 458.615 449.962 440.245 449.962C410.274 449.962 384.58 445.907 356.645 436.77C348.516 434.11 343.634 432.245 334.557 428.33L326.314 424.775L329.376 426.649C340.123 433.23 356.753 440.52 373.655 446.06C395.506 453.221 415.128 457.089 438.714 458.881C445.148 459.37 466.586 459.376 472.828 458.89C488.744 457.651 501.88 455.513 515.641 451.922C550.866 442.73 583.021 423.469 604.756 398.541C622.307 378.412 633.656 353.87 637.475 327.784C639.806 311.865 639.102 291.38 635.738 277.223L634.887 273.642L635.094 276.936Z" fill="#EF0E03"/>
<path fill-rule="evenodd" clip-rule="evenodd" d="M412.687 0.0978515C339.033 2.06444 273.145 14.7747 211.942 38.8221C165.613 57.0253 123.495 81.9782 90.7087 110.646C83.439 117.002 71.5894 128.264 72.1706 128.264C72.2559 128.264 73.673 127.071 75.3196 125.614C85.1517 116.911 95.3167 109.293 110.908 98.9411C133.776 83.7586 152.799 73.4865 178.922 62.2143C234.697 38.1477 294.715 23.5878 360.642 18.1303C393.583 15.4038 428.566 15.2539 462.312 17.6955C517.495 21.688 573.572 33.1904 622.835 50.6216C670.058 67.3306 710.971 88.6976 747.094 115.516C791.296 148.333 822.531 186.941 838.173 228.097C839.131 230.618 840.161 233.515 840.462 234.536C841.532 238.167 841.334 235.637 840.199 231.19C820.923 155.624 753.689 87.6809 656.293 45.3438C600.625 21.1454 536.535 6.03515 470.418 1.52073C454.371 0.424996 426.322 -0.266246 412.687 0.0978515ZM398.036 18.4305C396.593 18.4873 391.968 18.6697 387.758 18.8359C342.384 20.6272 298.1 27.1927 255.482 38.4474C242.132 41.9729 236.291 43.704 223.532 47.9174C193.402 57.8672 164.106 70.6336 139.056 84.7297C132.661 88.3283 119.261 96.5147 114.85 99.5174C111.266 101.958 111.639 101.792 118.027 98.1094C164.684 71.2137 224.795 51.1656 290.447 40.6048C343.453 32.0781 401.133 30.4048 457.516 35.758C542.822 43.857 625.827 68.2155 692.555 104.731C708.519 113.467 729.172 126.444 740.95 135.139C769.216 156.006 788.675 174.473 805.242 196.156C826.803 224.376 839.338 252.396 843.707 282.142C844.062 284.559 844.353 287.27 844.354 288.167C844.354 289.089 844.574 289.886 844.86 290.001C845.468 290.248 845.095 272.65 844.37 266.913C839.091 225.153 816.416 183.242 779.536 147.08C763.158 131.022 747.744 118.671 726.065 104.234C669.253 66.4002 597.95 39.7651 518.527 26.7074C495.268 22.8837 471.537 20.4052 444.395 18.9654C436.638 18.554 404.367 18.1816 398.036 18.4305ZM380.542 35.2009C334.604 35.9351 289.456 41.5217 246.493 51.7881C223.369 57.3141 203.346 63.3164 184.17 70.4703C177.575 72.9308 167.332 76.9737 167.332 77.1163C167.332 77.1645 171.351 75.8633 176.264 74.2247C201.93 65.6637 232.583 58.3296 262.894 53.4975C317.632 44.7708 370.431 43.272 429.088 48.7794C533.667 58.5986 634.807 91.4677 711.567 140.582C742.72 160.514 770.792 184.383 790.473 207.671C815.257 236.998 830.21 267.543 835.041 298.711C836.016 305.001 836.16 326.231 835.266 331.941C834.643 335.928 833.54 341.651 833.141 342.97C832.999 343.443 832.993 343.761 833.13 343.677C833.519 343.437 836.754 333.617 837.75 329.65C840.699 317.908 841.468 310.684 841.162 297.635C840.815 282.831 838.929 271.712 834.266 256.966C824.29 225.42 802.253 192.467 772.76 164.994C743.758 137.979 707.525 113.915 665.864 94.0007C628.906 76.3334 584.788 61.3131 541.043 51.5037C488.305 39.6775 435.572 34.3211 380.542 35.2009ZM339.868 48.3491C303.089 49.723 264.423 54.5471 232.06 61.7993C226.408 63.066 222.275 64.036 222.876 63.9546C223.477 63.8733 228.594 63.0442 234.247 62.1124C250.504 59.4322 269.682 57.0382 283.668 55.9427C320.423 53.0643 360.79 53.6659 399.567 57.6701C452.708 63.1577 504.564 74.3662 557.233 91.7487C589.87 102.52 615.55 112.87 643.6 126.558C675.519 142.134 704.896 160.227 728.826 179.047C778.433 218.062 809.01 259.717 819.4 302.435C821.806 312.325 822.681 319.79 822.674 330.366C822.667 339.47 822.257 344.009 820.691 352.28C818.156 365.665 812.354 379.959 804.577 391.98C803.374 393.839 802.459 395.404 802.543 395.459C802.626 395.514 804.383 393.33 806.447 390.606C823.858 367.628 832.551 342.759 832.545 315.948C832.535 276.716 813.031 235.125 776.838 197.159C753.621 172.805 723.566 149.847 688.876 129.966C641.556 102.849 585.534 81.222 526.399 67.245C483.211 57.037 441.826 51.1547 396.287 48.7507C386.136 48.2147 350.294 47.9598 339.868 48.3491ZM305.317 57.0966C297.182 57.4647 282.709 58.3625 282.437 58.5161C282.362 58.5588 288.364 58.5249 295.777 58.441C315.821 58.2138 333.929 58.981 354.991 60.9502C419.654 66.9955 494.498 84.7507 562.043 110.069C618.414 131.199 667.81 158.26 708.988 190.57C766.701 235.854 800.102 285.663 805.039 333.803C805.683 340.085 805.307 355.03 804.365 360.588C801.333 378.477 794.521 394.201 783.327 409.144C777.562 416.84 771.92 423.099 765.573 428.839C764.397 429.902 763.526 430.772 763.637 430.772C764.325 430.772 777.081 419.804 782.128 414.873C790.669 406.529 800.604 393.297 806.096 382.951C820.587 355.654 823.092 325.633 813.503 294.189C805.166 266.854 787.852 239.333 762.641 213.344C726.805 176.402 681.001 145.793 621.523 119.04C584.272 102.284 535.674 86.0366 492.067 75.7599C446.475 65.0148 402.759 58.9535 357.362 57.0823C344.545 56.5541 317.145 56.5618 305.317 57.0966ZM377.262 65.8914C377.382 65.9708 380.51 66.5746 384.213 67.2335C412.797 72.3183 437.267 78.6684 473.479 90.3972C565.868 120.321 631.258 153.006 684.468 195.861C724.34 227.973 754.13 262.769 769.704 295.417C777.43 311.614 781.693 325.607 784.06 342.541C784.775 347.651 784.785 363.394 784.077 368.323C781.284 387.767 773.991 404.86 761.895 420.316C752.705 432.057 742.922 440.922 728.244 450.808C722.099 454.947 721.902 455.112 725.176 453.387C745.37 442.744 763.068 428.953 775.437 414.221C790.806 395.914 799.225 376.541 801.545 354.142C802.166 348.14 801.81 335.337 800.84 328.79C795.519 292.908 775.073 256.966 740.055 221.937C697.991 179.859 637.641 142.153 570.169 115.792C539.21 103.697 499.846 91.1732 468.012 83.2911C439.71 76.2833 411.838 70.7086 387.977 67.2825C377.849 65.8284 376.999 65.7181 377.262 65.8914ZM174.782 79.3132C159.339 84.7575 142.51 92.9685 129.938 101.193C98.1774 121.97 78.5464 149.066 73.0952 179.653C70.6263 193.507 71.2159 211.032 74.6535 225.949C81.3157 254.858 98.3663 284.78 125.013 314.324C139.055 329.892 156.676 346.141 175.648 361.018C195.226 376.369 220.758 393.289 244.412 406.588C303.903 440.037 368.726 464.261 436.407 478.338C446.092 480.352 462.468 483.342 462.762 483.149C462.847 483.094 458.946 482.23 454.093 481.23C398.866 469.851 346.153 451.506 298.554 427.099C278.392 416.761 263.887 408.341 243.718 395.265C219.525 379.582 202.222 366.635 183.013 349.845C145.767 317.291 118.143 282.314 103.262 248.866C96.6349 233.97 93.1015 221.793 90.7105 205.61C89.9451 200.428 89.9442 180.972 90.7092 175.96C95.112 147.115 108.485 124.304 132.611 104.487C138.642 99.5335 151.444 91.1469 159.022 87.1848C163.768 84.7042 171.29 81.2495 178.542 78.2206C180.426 77.4337 178.644 77.9517 174.782 79.3132ZM134.312 94.6561C115.214 104.258 100.397 114.664 87.0735 127.834C68.4689 146.224 56.7461 167.221 52.3673 189.997C49.7121 203.806 50.0183 220.126 53.2123 235.047C59.3343 263.645 75.6743 292.431 102.279 321.485C147.693 371.08 220.944 416.689 306.192 448.449C361.088 468.901 417.203 482.298 473.882 488.485C486.68 489.882 503.428 491.175 503.986 490.81C504.126 490.718 503.725 490.644 503.095 490.644C500.988 490.644 481.663 488.41 473.479 487.221C395.026 475.82 315.703 449.14 246.936 411.025C202.814 386.57 166.708 360.242 136.322 330.366C123.436 317.696 115.171 308.318 105.015 294.844C83.4124 266.182 71.6349 238.927 68.4969 210.336C67.9353 205.22 67.9375 192.419 68.5012 186.846C71.5946 156.258 88.3002 128.811 117.147 106.922C122.016 103.227 130.673 97.3981 135.596 94.4994C137.506 93.3753 138.982 92.4557 138.877 92.4563C138.772 92.4569 136.717 93.4469 134.312 94.6561ZM487.693 97.8293C487.934 97.9957 493.093 100.239 499.159 102.813C529.251 115.587 561.697 132.081 590.836 149.418C599.72 154.703 620.608 168.171 629.338 174.242C666.247 199.91 698.465 230.021 722.056 260.898C736.73 280.104 746.179 296.385 752.897 314.037C759.954 332.581 762.92 348.995 762.443 366.874C762.196 376.129 761.739 379.718 759.742 388.08C751.284 423.499 723.246 453.026 680.958 471.047C674.633 473.742 673.927 474.132 677.942 472.711C684.949 470.232 697.451 464.919 704.284 461.515C721.601 452.891 736.58 442.526 747.886 431.345C753.229 426.061 755.195 423.822 759.831 417.738C783.712 386.403 787.566 348.615 771.11 307.162C764.525 290.576 756.041 275.936 743.469 259.465C719.264 227.753 684.734 196.649 644.722 170.518C607.209 146.017 566.196 126.102 513.06 106.583C501.528 102.346 486.954 97.3174 487.693 97.8293ZM88.6798 121.46C71.1031 134.884 59.0947 148.312 48.9769 165.858C26.507 204.824 28.0168 249.491 53.2884 293.412C68.5306 319.902 92.4542 346.223 123.216 370.349C144.95 387.393 168.698 402.494 197.013 417.274C254.971 447.528 323.633 470.99 391.913 483.873C426.817 490.459 456.739 493.964 491.63 495.553C511.635 496.464 547.193 495.673 564.23 493.939L568.166 493.538L563.793 493.669C551.359 494.041 526.292 494.126 517.871 493.823C488.291 492.762 464.508 490.366 435.211 485.494C378.685 476.096 321.229 459.015 268.142 435.826C192.569 402.816 130.544 360.043 91.5371 314.037C65.6361 283.49 50.9739 252.862 47.5144 222.081C46.9362 216.938 46.9332 203.488 47.5092 198.305C49.7812 177.85 57.7712 158.555 71.2089 141.071C75.6008 135.356 82.9737 127.336 88.1091 122.687C90.2906 120.713 92.0077 119.097 91.925 119.097C91.8419 119.097 90.382 120.16 88.6798 121.46ZM46.7525 161.579C36.599 174.84 30.6098 185.636 26.3395 198.374C18.5564 221.588 17.6371 246.35 23.6826 269.921C36.2814 319.045 74.9605 365.872 135.606 405.42C159.089 420.734 183.615 433.838 211.723 446.087C270.003 471.485 339.854 490.348 405.859 498.514C462.778 505.556 518.77 505.61 571.37 498.673C588.273 496.443 601.819 494.061 620.547 490.024C632.379 487.474 636.29 486.438 628.47 487.926C612.904 490.887 590.871 493.838 569.916 495.768C534.306 499.049 500.377 499.191 464.104 496.212C378.812 489.207 287.295 464.322 211.505 427.525C187.549 415.894 170.743 406.411 150.029 392.838C132.689 381.475 121.427 373.136 108.371 361.99C68.5765 328.019 42.7245 290.948 33.5152 254.65C30.7502 243.752 29.799 235.884 29.8029 223.944C29.8082 207 32.2608 194.485 38.5351 179.383C41.3805 172.536 47.6837 160.848 50.3598 157.458C50.7451 156.97 50.9896 156.524 50.903 156.467C50.816 156.411 48.9485 158.711 46.7525 161.579ZM19.3668 207.82C19.2264 208.259 18.3224 211.002 17.3581 213.917C12.7392 227.877 10.7562 239.522 10.7636 252.644C10.7899 299.473 33.9613 345.523 78.675 387.608C115.665 422.423 169.226 453.644 230.092 475.871C276.359 492.765 328.622 505.107 380.677 511.431C435.086 518.041 489.4 518.12 541.679 511.667C591.074 505.569 643.489 492.188 683.846 475.373C689.874 472.861 689.645 472.868 682.097 475.425C661.687 482.338 642.147 487.746 620.867 492.371C587.538 499.614 555.902 503.775 520.276 505.6C510.549 506.098 470.979 506.095 461.233 505.595C437.179 504.361 416.023 502.429 396.151 499.652C312.121 487.912 229.602 461.642 164.489 425.901C147.808 416.745 125.597 402.617 112.698 392.959C68.9635 360.211 39.5174 324.408 25.4058 286.823C15.9025 261.512 13.7792 237.312 18.8849 212.517C19.4818 209.62 19.8916 207.198 19.7959 207.136C19.7005 207.073 19.5072 207.381 19.3668 207.82ZM7.08024 263.906C6.32362 270.125 7.36933 285.983 9.23334 296.563C15.8094 333.888 37.8485 372.092 72.1956 405.706C88.735 421.893 103.878 433.97 124.648 447.536C177.269 481.909 240.314 506.461 313.408 521.049C355.289 529.407 402.796 533.738 447.019 533.229C503.901 532.575 554.677 525.353 608.403 510.275C647.087 499.419 686.351 483.182 716.995 465.368C720.292 463.451 727.319 459.054 732.611 455.596C737.903 452.138 740.658 450.205 738.734 451.301C701.097 472.727 663.995 487.612 619.118 499.29C581.084 509.187 540.147 515.582 501.251 517.701C481.729 518.765 456.536 519.061 439.524 518.426C397.055 516.84 357.211 511.876 316.251 503.066C236.57 485.927 166.429 456.78 111.594 418.021C68.2563 387.388 36.1157 350.526 20.182 313.178C12.8113 295.902 9.26528 281.517 7.57535 262.044C7.51062 261.296 7.30285 262.077 7.08024 263.906ZM11.6655 321.166C11.5102 322.429 16.898 338.426 20.5853 347.65C42.7223 403.03 93.4339 453.731 164.091 491.127C177.143 498.034 198.939 508.022 212.817 513.454C267.715 534.941 326.182 547.595 388.633 551.502C407.16 552.661 435.246 553.008 450.956 552.271C501.575 549.897 544.126 543.237 588.941 530.674C637.569 517.041 681.405 497.708 719.646 473.029C745.495 456.348 765.024 440.667 782.984 422.172C788.61 416.377 788.458 416.43 781.315 422.751C760.418 441.245 734.892 458.943 709.062 472.847C691.365 482.372 669.99 491.998 651.263 498.874C595.848 519.223 538.915 530.95 477.853 534.595C463.141 535.474 452.687 535.698 434.193 535.533C416.007 535.371 406.868 535.018 391.476 533.886C313.775 528.168 238.663 509.073 175.274 478.923C138.367 461.37 108.288 442.012 82.1366 418.984C50.0843 390.761 27.2037 359.782 14.0399 326.785C12.7514 323.555 11.683 321.027 11.6655 321.166Z" fill="#FECC04"/>
<path d="M788.091 784.656H710.091L695.211 820.656H655.371L730.251 652.656H768.651L843.771 820.656H802.971L788.091 784.656ZM775.851 755.136L749.211 690.816L722.571 755.136H775.851Z" fill="white"/>
<path d="M601.114 820.656L600.874 719.856L551.434 802.896H533.914L484.714 722.016V820.656H448.234V652.656H480.394L543.274 757.056L605.194 652.656H637.114L637.594 820.656H601.114Z" fill="white"/>
<path d="M368.326 761.136V820.656H329.446V760.656L264.406 652.656H305.686L350.566 727.296L395.446 652.656H433.606L368.326 761.136Z" fill="white"/>
<path d="M268.56 652.656L213.6 820.656H171.84L134.88 706.896L96.72 820.656H55.2L0 652.656H40.32L78.24 770.736L117.84 652.656H153.84L192.24 771.696L231.36 652.656H268.56Z" fill="white"/>
<path d="M811.051 929.776C805.867 929.776 800.843 929.04 795.979 927.568C791.179 926.096 787.371 924.144 784.555 921.712L788.875 912.016C791.627 914.192 794.987 915.984 798.955 917.392C802.987 918.736 807.019 919.408 811.051 919.408C816.043 919.408 819.755 918.608 822.187 917.008C824.683 915.408 825.931 913.296 825.931 910.672C825.931 908.752 825.227 907.184 823.819 905.968C822.475 904.688 820.747 903.696 818.635 902.992C816.523 902.288 813.643 901.488 809.995 900.592C804.875 899.376 800.715 898.16 797.515 896.944C794.379 895.728 791.659 893.84 789.355 891.28C787.115 888.656 785.995 885.136 785.995 880.72C785.995 877.008 786.987 873.648 788.971 870.64C791.019 867.568 794.059 865.136 798.091 863.344C802.187 861.552 807.179 860.656 813.067 860.656C817.163 860.656 821.195 861.168 825.163 862.192C829.131 863.216 832.555 864.688 835.435 866.608L831.499 876.304C828.555 874.576 825.483 873.264 822.283 872.368C819.083 871.472 815.979 871.024 812.971 871.024C808.043 871.024 804.363 871.856 801.931 873.52C799.563 875.184 798.379 877.392 798.379 880.144C798.379 882.064 799.051 883.632 800.395 884.848C801.803 886.064 803.563 887.024 805.675 887.728C807.787 888.432 810.667 889.232 814.315 890.128C819.307 891.28 823.403 892.496 826.603 893.776C829.803 894.992 832.523 896.88 834.763 899.44C837.067 902 838.219 905.456 838.219 909.808C838.219 913.52 837.195 916.88 835.147 919.888C833.163 922.896 830.123 925.296 826.027 927.088C821.931 928.88 816.939 929.776 811.051 929.776Z" fill="white"/>
<path d="M763.968 928.809L750.24 909.129C749.664 909.193 748.8 909.225 747.648 909.225H732.48V928.809H720V861.609H747.648C753.472 861.609 758.528 862.569 762.816 864.489C767.168 866.409 770.496 869.161 772.8 872.745C775.104 876.329 776.256 880.585 776.256 885.513C776.256 890.569 775.008 894.921 772.512 898.569C770.08 902.217 766.56 904.937 761.952 906.729L777.408 928.809H763.968ZM763.68 885.513C763.68 881.225 762.272 877.929 759.456 875.625C756.64 873.321 752.512 872.169 747.072 872.169H732.48V898.953H747.072C752.512 898.953 756.64 897.801 759.456 895.497C762.272 893.129 763.68 889.801 763.68 885.513Z" fill="white"/>
<path d="M706.088 918.345V928.809H655.688V861.609H704.744V872.073H668.168V889.545H700.616V899.817H668.168V918.345H706.088Z" fill="white"/>
<path d="M625.031 861.609H637.511V928.809H625.031V861.609Z" fill="white"/>
<path d="M580.913 872.169H558.641V861.609H615.665V872.169H593.393V928.809H580.913V872.169Z" fill="white"/>
<path d="M549.275 861.609V928.809H539.003L501.947 883.305V928.809H489.562V861.609H499.835L536.891 907.113V861.609H549.275Z" fill="white"/>
<path d="M440.141 929.776C433.293 929.776 427.117 928.304 421.613 925.36C416.109 922.352 411.789 918.224 408.653 912.976C405.517 907.664 403.949 901.744 403.949 895.216C403.949 888.688 405.517 882.8 408.653 877.552C411.789 872.24 416.109 868.112 421.613 865.168C427.117 862.16 433.293 860.656 440.141 860.656C446.989 860.656 453.165 862.16 458.669 865.168C464.173 868.112 468.493 872.208 471.629 877.456C474.765 882.704 476.333 888.624 476.333 895.216C476.333 901.808 474.765 907.728 471.629 912.976C468.493 918.224 464.173 922.352 458.669 925.36C453.165 928.304 446.989 929.776 440.141 929.776ZM440.141 918.832C444.621 918.832 448.653 917.84 452.237 915.856C455.821 913.808 458.637 910.992 460.685 907.408C462.733 903.76 463.757 899.696 463.757 895.216C463.757 890.736 462.733 886.704 460.685 883.12C458.637 879.472 455.821 876.656 452.237 874.672C448.653 872.624 444.621 871.6 440.141 871.6C435.661 871.6 431.629 872.624 428.045 874.672C424.461 876.656 421.645 879.472 419.597 883.12C417.549 886.704 416.525 890.736 416.525 895.216C416.525 899.696 417.549 903.76 419.597 907.408C421.645 910.992 424.461 913.808 428.045 915.856C431.629 917.84 435.661 918.832 440.141 918.832Z" fill="white"/>
<path d="M382.499 928.809L368.771 909.129C368.195 909.193 367.331 909.225 366.179 909.225H351.011V928.809H338.531V861.609H366.179C372.003 861.609 377.059 862.569 381.347 864.489C385.699 866.409 389.027 869.161 391.331 872.745C393.635 876.329 394.787 880.585 394.787 885.513C394.787 890.569 393.539 894.921 391.043 898.569C388.611 902.217 385.091 904.937 380.483 906.729L395.939 928.809H382.499ZM382.211 885.513C382.211 881.225 380.803 877.929 377.987 875.625C375.171 873.321 371.043 872.169 365.603 872.169H351.011V898.953H365.603C371.043 898.953 375.171 897.801 377.987 895.497C380.803 893.129 382.211 889.801 382.211 885.513Z" fill="white"/>
<path d="M289.886 872.073V892.521H322.334V903.081H289.886V928.809H277.406V861.609H326.462V872.073H289.886Z" fill="white"/>
<path d="M239.304 861.609L217.032 928.809H203.784L187.176 879.081L170.28 928.809H156.936L134.664 861.609H147.624L164.328 912.681L181.704 861.609H193.224L210.216 912.969L227.4 861.609H239.304Z" fill="white"/>
<path d="M128.119 918.345V928.809H77.7188V861.609H126.775V872.073H90.1987V889.545H122.647V899.817H90.1987V918.345H128.119Z" fill="white"/>
<path d="M59.712 861.609V928.809H49.44L12.384 883.305V928.809H0V861.609H10.272L47.328 907.113V861.609H59.712Z" fill="white"/>
</svg>
