<?xml version="1.0" encoding="UTF-8"?>
<svg id="Layer_1" xmlns="http://www.w3.org/2000/svg" version="1.1" viewBox="0 0 200 200">
  <!-- Generator: Adobe Illustrator 30.1.0, SVG Export Plug-In . SVG Version: 2.1.1 Build 136)  -->
  <defs>
    <style>
      .st0 {
        fill: #244087;
        fill-rule: evenodd;
      }
    </style>
  </defs>
  <path class="st0" d="M109.89,74.44c-4.03.44-7.62,2.17-10.57,5.12-4.8,4.78-6.17,12.21-3.46,18.68,3.66,8.74,14.36,12.6,24.35,8.77,4.78-1.83,8.6-6.15,9.97-11.28.58-2.18.58-6.46-.01-8.56-1.26-4.47-4.65-8.71-8.61-10.74-3.41-1.75-7.47-2.44-11.67-1.99M83.1,91.34v16.72h4.92l-.06-16.65-.06-16.65-2.4-.07-2.4-.07v16.72M137.16,91.34v16.71h4.67v-13.08s.01-13.08.01-13.08l.67.75c.37.41,2.75,3.37,5.29,6.57,2.93,3.69,4.78,5.82,5.06,5.82.41,0,3.4-3.6,8.58-10.32.99-1.28,1.9-2.37,2.03-2.42.14-.05.23,4.93.23,12.84v12.92h4.67v-33.42h-4.42l-5.47,6.87c-3.01,3.78-5.54,6.84-5.63,6.82-.15-.04-3.69-4.37-9.03-11.04l-2.11-2.64h-2.27s-2.27,0-2.27,0v16.71M44.6,75.39c-4.64.92-9.05,4.41-11.25,8.92-1.49,3.04-1.95,5.46-1.78,9.35.1,2.31.27,3.43.8,5.05,1.05,3.27,2.86,6.53,4.74,8.54.68.73.87.8,2.24.8.82,0,1.5-.07,1.5-.14s-.7-.91-1.55-1.84c-3.22-3.53-5.56-8.8-5.57-12.57v-1.17s1.84-.05,1.84-.05c1.01-.03,2.25-.05,2.75-.06h.91s.29,1.58.29,1.58c.39,2.09,1.62,5.22,2.66,6.73,2.85,4.14,6.87,6.63,11.76,7.28,9.14,1.22,17.25-5.45,18.35-15.08.63-5.56-1.4-11.97-5.21-16.5-.93-1.1-.94-1.11-2.52-1.11-.87,0-1.58.07-1.58.15s.8,1,1.78,2.05c2.01,2.15,3.31,4.33,4.38,7.35.66,1.88,1.3,5.54,1.04,5.99-.06.1-1.37.18-2.92.18-2.78,0-2.81,0-2.81-.57,0-1.13-1-4.47-1.88-6.23-1.04-2.1-3.46-4.84-5.47-6.19-1.54-1.03-4.01-2.11-5.67-2.47-1.31-.29-5.34-.29-6.81,0M44.16,77.8c-.81.24-1.74.58-2.07.76l-.6.33.6.49c1.02.84,3.15,1.69,4.33,1.73l1.13.04.03-1.84.03-1.84-.98-.05c-.54-.03-1.64.14-2.45.38M48.71,79.3v2.03l1.17-.15c1.42-.19,4.36-1.62,4.36-2.13s-2.39-1.42-4.15-1.62l-1.38-.16v2.03M109.52,78.94c-4.72.98-8.36,4.44-9.58,9.1-.81,3.1-.29,7.26,1.22,9.83,2.2,3.76,5.79,5.9,10.32,6.17,8.12.48,14.13-4.87,14.13-12.57,0-5.76-3.63-10.66-9.08-12.26-1.95-.57-4.97-.69-7.01-.26M39.18,80.51c-1.74,1.45-3.49,3.61-3.49,4.31,0,.08.58.14,1.29.14,1.28,0,1.3-.01,3.42-2.07l2.13-2.06-.95-.76-.95-.76-1.45,1.2M54.35,80.29c-.81.7-.83.75-.36,1.01.27.15,1.23,1.04,2.14,1.97,1.61,1.65,1.68,1.69,2.89,1.69,1.53,0,1.57-.27.28-1.9-1.05-1.33-3.44-3.51-3.84-3.51-.14,0-.64.33-1.11.74M42.66,82.05c-1.25.94-2.55,2.26-2.55,2.59,0,.25.76.32,3.3.32,1.81,0,3.47-.07,3.69-.15.28-.11.39-.48.39-1.29v-1.14s-1.79-.43-1.79-.43c-2.24-.54-2.17-.54-3.02.1M50.23,81.96l-1.55.39.07,1.24.07,1.24,3.62.07c3.09.06,3.62.01,3.62-.3,0-.52-3.19-3.09-3.79-3.06-.28.02-1.2.2-2.05.41M34.85,86.38c-.42.81-1.13,3.46-1.13,4.21,0,.49.1.52,1.54.46l1.54-.07.17-1.5c.09-.82.34-1.92.55-2.43.21-.51.39-1.02.39-1.14s-.61-.22-1.34-.22c-1.22,0-1.38.06-1.7.69M38.66,86.62c-.42.82-1.01,3.25-1.01,4.15,0,.25.82.32,3.77.32h3.77l.28,1.98c.15,1.09.5,2.47.76,3.07l.48,1.09h8.95c6.87,0,9.01-.07,9.19-.31.46-.6,1-2.3,1.18-3.69l.18-1.41h-7.67v-.8c0-1.06-.64-3.72-1.11-4.62l-.37-.72h-17.91l-.47.93M58.29,85.91c0,.12.17.62.38,1.12.21.5.46,1.54.55,2.3l.17,1.39,1.45.07,1.45.07-.16-1.18c-.2-1.49-.88-3.58-1.24-3.82-.38-.26-2.61-.23-2.61.03M48.26,87.58c.06.5.21.7.57.7.76,0,.68-1.2-.08-1.31-.5-.07-.56,0-.49.61M54.7,87.27c-.22.58.09,1.17.58,1.08.27-.05.43-.31.43-.69,0-.7-.78-1-1.01-.39M47.1,89.49c-.2.48-.53,1.27-.73,1.76-.45,1.08-.45,1.08-.05,1.08.17,0,.49-.46.69-1.03.48-1.31,1.04-1.58.86-.41-.31,1.95-.43,5.12-.2,5.12.27,0,.42-.52.67-2.27.25-1.71.73-1.48,1,.47.14,1.03.35,1.68.57,1.75.26.08.3-.04.18-.47-.09-.32-.22-1.75-.3-3.17l-.14-2.58.86,1.55c.74,1.33.83,1.66.63,2.33-.29,1.02.29,2.4.94,2.23.69-.18,1.04-1.19.76-2.18-.18-.65-.16-.94.1-1.2.19-.19.53-.85.77-1.47.24-.62.53-1.13.66-1.13.35,0,.26,1.15-.27,3.44-.26,1.15-.48,2.23-.49,2.4,0,.22.5.31,1.71.31.95,0,1.72-.08,1.72-.19s-.21-.91-.46-1.8c-.97-3.4-.88-5.44.14-3.29.23.47.51.86.64.86.3,0,0-1.16-.53-2.09-.36-.62-.6-.75-1.54-.81-1.27-.08-1.42.05-2.06,1.74-.42,1.13-.94,1.82-.85,1.12.09-.67-.02-.95-.38-.95-.23,0-.37.23-.37.61,0,1.04-.38.69-1-.92l-.6-1.54-1.3-.07c-1.28-.07-1.3-.06-1.66.8M67.05,92c-.09.09-.17.62-.17,1.17,0,.55-.22,1.61-.48,2.35s-.48,1.43-.48,1.54c0,.1.64.18,1.43.18h1.44l.39-1.04c.47-1.24.89-3.03.9-3.81,0-.51-.1-.55-1.43-.55-.79,0-1.51.07-1.6.16M41.58,92.63c0,.55.7,3.29,1.01,3.96.27.59.42.65,1.71.65h1.41l-.59-1.66c-.32-.91-.59-2.02-.59-2.46v-.8h-1.48c-1.02,0-1.47.1-1.47.31M43.55,98.45c0,.5,2.36,3.31,3.52,4.19l1.25.95.93-.66c.51-.36.93-.73.93-.83,0-.09-.47-.5-1.06-.9-.59-.4-1.44-1.23-1.9-1.85-.82-1.09-.87-1.11-2.25-1.12-.78,0-1.41.09-1.41.21M48.47,99.35c.6.62,1.55,1.4,2.11,1.73.87.51,1.12.56,1.72.33.39-.15,1.15-.35,1.69-.44l.98-.17.07-1.28.07-1.28h-7.74l1.1,1.13M56.08,99.46c0,.78.11,1.27.31,1.31,4.02,1.03,3.86,1.05,5.9-.65,2.26-1.88,2.23-1.9-2.27-1.9h-3.94v1.24M64.46,99.09c-.6.89-1.67,1.91-2.71,2.59l-.58.38,1.02.81,1.02.81.8-.5c1.29-.8,4.12-4.06,4.12-4.74,0-.11-.69-.21-1.54-.21-1.48,0-1.56.03-2.12.87M53.25,102c-1.5.36-3.81,1.59-3.81,2.01,0,.38,2.12,1.2,4.05,1.55.79.15,1.48.27,1.52.27s.08-.94.08-2.09c0-2.31.1-2.22-1.84-1.75M56.08,103.76v2.15l1.29-.16c1.97-.25,4.85-1.21,4.85-1.62,0-.59-3.07-1.97-5.22-2.34l-.92-.16v2.15M91.67,114.36c-.36.06-1.24.47-1.96.9-3.37,2.03-3.62,7.27-.44,9.37,1.87,1.24,4.87,1.4,7.4.41.67-.26.68-.28.68-2.62v-2.35l-1.9.07c-1.83.07-1.9.09-1.9.67,0,.54.1.6,1.11.61l1.11.02.07,1.17c.07,1.07.02,1.19-.57,1.41-.85.32-3.1.31-3.97-.02-3.1-1.17-3.5-5.71-.67-7.6.77-.51,1.21-.61,2.66-.61,1.17,0,2.01.14,2.57.43,1.12.58,1.25.55,1.25-.28,0-.6-.15-.77-.95-1.09-1.02-.41-3.44-.68-4.49-.5M146.67,114.53c-4.91,1.38-5.81,7.93-1.41,10.32,3.38,1.84,7.64.56,9.01-2.71.43-1.03.43-3.31,0-4.33-1.14-2.71-4.48-4.16-7.6-3.28M31.55,118.68c.08,3.9.13,4.31.64,5.13.81,1.29,2.01,1.81,4.23,1.81,2.36,0,3.55-.57,4.35-2.08.52-.98.56-1.37.56-5.08v-4.02h-1.47v3.65c0,2.01-.12,3.99-.27,4.42-.43,1.23-1.67,1.84-3.47,1.71-1.31-.09-1.59-.21-2.2-.89l-.7-.78v-8.1h-1.76l.08,4.24M45.76,119.97v5.53h1.47v-4.24s.02-4.24.02-4.24l1.12,1.23c.61.68,2.28,2.58,3.71,4.24,2.19,2.55,2.7,3.01,3.3,3.01h.71v-11.06h-1.47v4.18c0,2.3-.08,4.17-.18,4.16-.1-.01-1.79-1.89-3.75-4.16-2.97-3.45-3.68-4.14-4.24-4.16h-.68s0,5.51,0,5.51M66.59,116.71c-.06,1.25-.06,3.74,0,5.53l.11,3.26h1.4l.07-4.3.07-4.3,1.59,1.99c.88,1.09,1.72,2.09,1.87,2.22.19.16.8-.41,1.97-1.86.93-1.15,1.77-2.09,1.87-2.09.1,0,.18,1.88.18,4.18v4.18h1.47v-11.06h-.8c-.71,0-.99.23-2.39,1.98-.88,1.09-1.71,2.09-1.86,2.21-.18.15-.86-.49-2.09-1.97-1.57-1.9-1.93-2.2-2.59-2.21h-.77s-.11,2.26-.11,2.26M81.88,119.72c0,2.91-.03,5.37-.06,5.47s.3.22.74.26l.8.08v-11.09h-1.47v5.28M101.78,119.97v5.53h1.47v-4.67h.98c.88,0,1.08.12,1.92,1.2.52.66,1.27,1.71,1.66,2.33.65,1.03.81,1.14,1.65,1.14.69,0,.89-.08.75-.31-.67-1.09-2.47-3.61-2.98-4.16l-.6-.66.83-.74c.75-.67.83-.87.83-2.09,0-2.3-1.24-3.11-4.73-3.11h-1.78s0,5.53,0,5.53M116.84,114.87c-.09.24-1.09,2.59-2.22,5.22-1.14,2.64-2.12,4.93-2.2,5.1-.09.21.13.31.73.31.83,0,.88-.06,1.47-1.54l.61-1.54,2.49-.07,2.49-.07.72,1.61c.69,1.53.76,1.61,1.57,1.61h.85l-2.47-5.53c-2.39-5.36-2.49-5.53-3.18-5.53-.45,0-.77.16-.87.43M124.14,115.04c0,.59.06.61,1.9.68l1.9.07.07,4.85.07,4.85h1.45l.07-4.85.07-4.85,2.04-.07c1.95-.07,2.04-.1,1.97-.61-.08-.54-.14-.54-4.81-.61l-4.73-.07v.61M137.4,119.97v5.53h1.47v-11.06h-1.47v5.53M157.8,119.97v5.53h1.47v-4.18c0-2.3.09-4.18.21-4.18s1.84,1.88,3.85,4.18c3.03,3.48,3.75,4.18,4.3,4.18.66,0,.66-.01.8-2.15.08-1.18.12-3.64.1-5.47l-.04-3.32-.68-.08c-.37-.04-.69.01-.7.12-.01.11-.06,1.97-.11,4.13-.05,2.16-.09,4.02-.1,4.13-.01.2-3.3-3.43-6.03-6.66-1.25-1.48-1.59-1.74-2.27-1.76l-.8-.02v5.53M103.44,115.81c-.1.1-.18.94-.18,1.87v1.68h1.18c.85,0,1.33-.14,1.72-.5.67-.63.72-1.96.09-2.53-.49-.44-2.51-.81-2.81-.51M146.49,116.22c-2.1,1.12-2.93,3.35-2.02,5.41,1.24,2.81,4.89,3.53,7.26,1.45,1.2-1.05,1.55-3.4.76-5.07-.96-2.03-3.91-2.91-6-1.79M116.83,118.78c-.43,1.04-.71,1.99-.63,2.12.13.21,2.97.07,3.19-.16.12-.12-1.46-3.85-1.64-3.85-.08,0-.5.85-.92,1.88"/>
</svg>