<?xml version="1.0" encoding="UTF-8"?>
<svg id="Layer_1" xmlns="http://www.w3.org/2000/svg" version="1.1" viewBox="0 0 200 200">
  <!-- Generator: Adobe Illustrator 30.1.0, SVG Export Plug-In . SVG Version: 2.1.1 Build 136)  -->
  <defs>
    <style>
      .st0 {
        fill: #e12b28;
        fill-rule: evenodd;
      }
    </style>
  </defs>
  <path class="st0" d="M148.6,86.23c-.05.12-.06,1.02-.04,2l.05,1.79,2.49.05,2.49.05v-4.1h-2.46c-1.88,0-2.48.05-2.54.21M168.43,86.12c-.06.06-.11,1.76-.11,3.79v3.68l-.37-.56c-.85-1.28-3.32-1.82-6.9-1.49-2.39.22-2.95.37-3.97,1.07-.56.39-.93.82-1.28,1.5l-.49.95-.05,3.37c-.05,3.11-.03,3.44.3,4.3.4,1.07,1.3,1.92,2.44,2.32,1.79.63,6.48.73,8.29.18.83-.25,1.51-.77,2.06-1.56.16-.22.27-.34.26-.25s0,.55,0,1.02l.02.86h4.74v-19.3h-2.43c-1.33,0-2.48.05-2.54.11M67.41,90.19v1.55h-2.63l.05,1.84.05,1.84,1.25.05,1.25.05.06,3.47c.05,3.28.08,3.51.45,4.2.42.79.96,1.34,1.7,1.74,1.26.67,5.21.93,7.35.48,1.88-.4,2.77-.99,3.42-2.26.37-.73.75-3.33.53-3.56-.08-.08-1.11-.2-2.29-.26l-2.14-.11-.08.95c-.11,1.31-.57,1.71-1.95,1.71-.87,0-1.04-.06-1.46-.48l-.48-.48v-5.42l3.88-.04,3.88-.04v-3.6l-3.88-.04-3.88-.04v-3.1h-5.07v1.55M30.94,91.57c-2.3.29-3.43,1.2-3.75,3.01-.1.56-.18,1.07-.18,1.13s1.12.11,2.49.11h2.49s.26-.47.26-.47c.31-.55.98-.68,3.32-.67,1.87.01,2.99.19,3.33.53.24.24.53,2.24.33,2.24-.04,0-.31-.12-.6-.26-.88-.44-2.73-.6-5.83-.51-3.98.12-5.07.48-5.84,1.97-.31.58-.36.94-.36,2.48,0,2.1.3,2.91,1.34,3.59,1.08.7,1.86.82,5.27.83,3.73,0,4.63-.16,5.58-1.02l.63-.57v1.35h4.92l-.05-5.27c-.05-5.24-.05-5.28-.45-6.07-.52-1.02-1.21-1.62-2.4-2.08-.89-.35-1.24-.37-5.21-.41-2.34-.02-4.73.02-5.32.09M50.73,91.56c-2.21.29-3.38,1-4.15,2.5-.39.76-.49,1.23-.61,2.77-.28,3.63.13,5.77,1.36,7.11,1.17,1.27,3.14,1.7,7.8,1.69,5.76,0,7.67-.76,8.45-3.36.13-.43.23-1.17.23-1.65v-.87h-5l-.16.52c-.09.28-.36.67-.62.86-.42.31-.68.34-3.05.34s-2.63-.03-3.05-.34c-.63-.47-.87-1.01-.97-2.23-.12-1.48.19-2.55.9-3.03.52-.35.72-.37,3.16-.37h2.61l.56.56c.31.31.56.71.56.9,0,.33.07.34,2.54.34h2.54v-.7c0-1.02-.44-2.56-.92-3.18-.53-.7-1.4-1.27-2.44-1.61-.64-.21-1.67-.28-4.82-.32-2.2-.03-4.41,0-4.91.07M94.23,91.58c-1.44.17-2.12.4-2.92.97-1.64,1.19-2.13,3.22-1.84,7.61.15,2.21.46,3.15,1.32,3.97,1.27,1.21,2.82,1.5,7.96,1.5,4.81,0,6.09-.2,7.56-1.19,1.25-.85,1.81-2.68,1.82-5.99,0-4.58-1.27-6.43-4.77-6.88-1.39-.18-7.58-.18-9.13,0M133.48,91.57c-2.47.31-3.74,1.49-3.75,3.48v.78s2.45,0,2.45,0c1.95,0,2.45-.05,2.45-.22,0-.12.15-.36.34-.53.31-.28.62-.31,3-.31,2.95,0,3.39.11,3.68.95.19.55.23,1.75.06,1.75-.06,0-.45-.17-.86-.37-.71-.35-.93-.37-4.51-.36-3.1,0-3.92.05-4.69.29-1.13.35-1.99,1.11-2.25,2-.31,1.03-.39,2.72-.18,3.68.51,2.39,2.21,3.05,7.37,2.9,3.05-.09,4.11-.34,4.91-1.16l.48-.49v1.37h4.93l-.05-5.27-.05-5.27-.45-.85c-.52-.98-1.22-1.57-2.45-2.05-.79-.31-1.25-.35-5.12-.38-2.34-.02-4.73.02-5.32.09M117.13,91.89c-.61.22-1.12.55-1.6,1.06-.39.41-.73.75-.75.75s-.01-.44.03-.98l.07-.98h-5.11v13.57h5.05l.05-3.88c.06-4.49.13-4.74,1.47-5.41,1.06-.53,3.3-.67,4.6-.29,1.49.43,1.58.68,1.58,4.2,0,1.58.05,3.44.11,4.13l.11,1.25h4.86v-4.63c0-5.05-.1-5.83-.89-6.97-.54-.77-1.36-1.36-2.47-1.75-.63-.23-1.44-.3-3.52-.34-2.33-.04-2.82,0-3.6.27M82.62,95.49c0,2.06.04,3.86.1,4.01.15.39,4.72.39,4.87,0,.05-.14.1-1.95.1-4.01v-3.75h-5.07v3.75M148.69,91.78s-.05,3.08-.1,6.79l-.1,6.75h5.11v-13.57h-2.45c-1.35,0-2.46.02-2.46.04M95.58,95.78c-.76.38-1.06,1.14-1.07,2.72-.01,1.46.26,2.3.91,2.72.48.32,5.28.45,6.22.17.99-.3,1.26-.9,1.26-2.84,0-2.85-.29-3.06-4.12-3.05-2.1,0-2.78.07-3.19.27M161.3,95.68c-.97.39-1.22,1.14-1.14,3.4.05,1.27.11,1.52.44,1.87.53.56,1.5.77,3.66.76,2.34,0,3.16-.17,3.71-.71.4-.4.43-.54.49-2.21.04-1.39,0-1.89-.21-2.28-.46-.89-.91-1-3.89-.99-1.47,0-2.84.08-3.06.17M33.31,99.58c-1.06.15-1.72.67-1.72,1.37,0,1.12,1.19,1.51,4.24,1.37,2.76-.12,3.45-.42,3.44-1.48,0-.67-.14-.87-.73-1.09-.62-.24-3.97-.35-5.23-.17M135.84,99.59c-1.38.2-1.89.73-1.64,1.72.18.71.81.97,2.56,1.04,2.18.09,4.19-.2,4.68-.66.45-.42.49-1.1.09-1.6-.22-.27-.57-.39-1.43-.5-1.33-.17-3.08-.17-4.26,0M82.62,103.35v1.96h5.07v-3.93h-5.07v1.96"/>
</svg>