<?xml version="1.0" encoding="UTF-8"?>
<svg id="Layer_1" xmlns="http://www.w3.org/2000/svg" version="1.1" viewBox="0 0 200 200">
  <!-- Generator: Adobe Illustrator 30.1.0, SVG Export Plug-In . SVG Version: 2.1.1 Build 136)  -->
  <defs>
    <style>
      .st0 {
        fill: #0a0908;
      }

      .st0, .st1 {
        fill-rule: evenodd;
      }

      .st1 {
        fill: #f4a728;
      }
    </style>
  </defs>
  <path class="st1" d="M98.26,41.64c-2.12,4.73-4.55,10.12-5.38,11.98l-1.52,3.39-.77-1.22c-.43-.67-2.82-4.52-5.32-8.56-2.5-4.04-4.6-7.34-4.67-7.34-.07,0-.31,1.2-.52,2.67-.55,3.75-2.64,16.51-2.75,16.83-.06.17-1.29-.11-3.7-.86-12.14-3.79-16.78-5.2-16.86-5.11-.05.05,2.13,3.7,4.85,8.1,2.74,4.45,4.85,8.09,4.74,8.2-.11.1-3.63.83-7.83,1.62-4.2.79-7.68,1.47-7.73,1.51-.06.05,2.76,2.95,6.25,6.44,3.5,3.5,6.31,6.4,6.25,6.45-.11.09-14.5,6.77-15.99,7.41-.47.2-.85.43-.85.51,0,.15,4.88,1.47,13.51,3.66l5.66,1.43-1.1,1.03c-.61.57-3.8,3.44-7.11,6.38-3.61,3.22-5.87,5.38-5.65,5.42.43.09,20.51-3.8,21.51-4.16.17-.06-.15-.53-.82-1.21-1.38-1.38-1.97-2.9-2.18-5.63-.09-1.13-.61-7.53-1.17-14.23-1.45-17.42-1.43-16.96-.72-18.5.68-1.49,2.06-2.9,3.51-3.6,1.26-.61.77-.58,17.16-1.02,7.2-.19,17.6-.5,23.12-.68,13.8-.46,15.28-.45,16.84.14,1.53.57,3.55,2.35,4.2,3.69,1.08,2.25,1.11,1.79-1.09,21.26-1.35,11.95-2.16,18.32-2.41,18.9-.2.48-.59,1.13-.87,1.44-.28.31-.34.44-.15.3.28-.21,2.81-.09,11.39.53,6.07.44,11.4.77,11.85.73.77-.06.33-.39-7.47-5.63-4.56-3.06-8.32-5.63-8.37-5.7-.05-.08,3.72-.68,8.38-1.34,4.66-.66,8.65-1.26,8.88-1.32.46-.13.8.15-4.17-3.38-6.74-4.78-12.3-8.83-12.3-8.96,0-.08.81-.38,1.79-.66,3.63-1.04,14.27-4.41,14.41-4.56.08-.09-3.28-2.21-7.46-4.71-5.8-3.47-7.59-4.65-7.52-4.94.05-.21,2.83-4.45,6.17-9.42,3.34-4.97,6.04-9.06,6-9.1-.04-.04-1.87.59-4.06,1.4-6.95,2.55-20.36,7.32-20.84,7.4-.51.09-.53-.15-1.38-14.61-.22-3.7-.44-6.77-.49-6.83-.06-.06-.19.04-.29.23-.11.19-3.2,4.72-6.87,10.07-3.67,5.35-6.79,9.9-6.92,10.11-.18.3-1-2.42-3.64-12.06-1.87-6.85-3.45-12.45-3.52-12.45-.07,0-1.86,3.87-3.98,8.6M118.8,65.55c.41.05,1.02.05,1.37,0,.34-.05,0-.09-.74-.09-.75,0-1.03.04-.62.09M111.28,65.78c.4.05,1.12.05,1.59,0,.47-.05.14-.09-.74-.09-.88,0-1.26.04-.86.09M103.99,66c.4.05,1.12.05,1.59,0,.47-.05.14-.09-.74-.09-.88,0-1.26.04-.86.09M96.94,66.23c.41.05,1.07.05,1.48,0,.41-.05.07-.09-.74-.09s-1.15.04-.74.09M89.19,66.46c.4.05,1.12.05,1.59,0,.47-.05.14-.09-.74-.09-.88,0-1.26.04-.86.09M81.11,66.69c.47.05,1.24.05,1.71,0,.47-.05.09-.09-.85-.09s-1.32.04-.85.09M117.66,67.83c.41.05,1.07.05,1.48,0,.41-.05.07-.09-.74-.09s-1.15.04-.74.09M110.6,68.05c.41.05,1.07.05,1.48,0,.41-.05.07-.09-.74-.09s-1.15.04-.74.09M103.09,68.28c.54.05,1.36.05,1.82,0s.03-.09-.97-.09c-1,0-1.38.04-.85.09M95.8,68.51c.41.05,1.02.05,1.37,0,.34-.05,0-.09-.74-.09-.75,0-1.03.04-.62.09M88.52,68.74c.54.05,1.36.05,1.82,0s.03-.09-.97-.09c-1,0-1.38.04-.85.09M80.77,68.96c.41.05,1.02.05,1.37,0,.34-.05,0-.09-.74-.09-.75,0-1.03.04-.62.09M109.52,69.5c-2.82.09-10.86.34-17.88.55-13.97.41-14.23.44-15.23,1.79-.29.4-.59.89-.67,1.11-.07.21.26,4.93.75,10.48.49,5.55.95,11.22,1.04,12.59.18,2.9.6,4.1,1.73,4.96,1.13.86,2.22,1.02,8.74,1.3,3.26.14,7.92.35,10.36.47,13.23.67,18.55.9,20.36.9h2.02l.97-.97c.69-.7,1.01-1.22,1.11-1.88.38-2.36,3.1-26.46,3.1-27.46,0-1.78-.85-3.01-2.56-3.72-.94-.39-4.5-.42-13.84-.11M108.43,72.95c-2.24.33-4,1.55-4.93,3.42-.72,1.44-.75,2.7-.13,4.33.37.97,1.36,5.25,1.36,5.92,0,.09-1.74.17-3.87.17-3.54,0-3.87-.03-3.87-.4,0-.22.36-2.49.8-5.04.44-2.55.78-4.66.74-4.68-.21-.14-11.71-1.39-11.84-1.28-.09.07-.23.55-.31,1.05l-.15.92,4.41.52c2.42.29,4.62.57,4.88.63l.48.11-.76,4.37c-.42,2.4-.82,4.62-.88,4.94-.11.5.13.78,1.93,2.25,3.06,2.51,2.9,2.1,1.68,4.47-.58,1.12-1.08,2.08-1.12,2.12-.04.04-1.94-.69-4.24-1.63l-4.17-1.71-.44.89c-.27.55-.36.96-.23,1.08.12.11,2.41,1.09,5.09,2.18,3.78,1.54,4.91,1.92,5.06,1.69.1-.17.77-1.35,1.49-2.64.72-1.28,1.36-2.33,1.44-2.33s.71,1.17,1.42,2.6l1.29,2.6,2.12-.52c1.17-.29,3.76-.9,5.76-1.36,2-.46,3.76-.88,3.91-.92.2-.06.2-.34.02-1.07-.13-.54-.26-1.01-.29-1.04-.03-.03-2.35.48-5.17,1.15l-5.12,1.21-1.18-2.21-1.18-2.21,2.2-1.62c1.21-.89,2.33-1.7,2.49-1.79.22-.13.19-.62-.14-2.33-.61-3.12-.65-2.98.64-2.58,2.26.7,5.23-.02,6.97-1.7,1.24-1.2,1.75-2.29,1.75-3.8,0-3.7-3.69-6.38-7.92-5.76M88.64,110.36c0,.75.04,1.03.09.62.05-.41.05-1.02,0-1.37-.05-.34-.09,0-.09.74M91.85,110.48l.02,1.25,1.31.02,1.31.02-1.24-.09-1.24-.09-.09-1.18-.09-1.18.02,1.25M109.06,111.03v1.01l-1.2.08-1.2.08,1.31.04,1.31.04v-1.14c0-.63-.05-1.14-.11-1.14s-.11.46-.11,1.01M122.67,110.87c.41.05,1.02.05,1.37,0,.34-.05,0-.09-.74-.09-.75,0-1.03.04-.62.09M77.58,111.33c.54.05,1.36.05,1.82,0,.47-.05.03-.09-.97-.09-1,0-1.38.04-.85.09M85.55,111.55c.53.05,1.4.05,1.94,0,.53-.05.1-.09-.97-.09s-1.5.04-.97.09M99.67,112.01c.41.05,1.07.05,1.48,0,.41-.05.07-.09-.74-.09s-1.15.04-.74.09M114.81,112.46c.47.05,1.24.05,1.71,0,.47-.05.09-.09-.85-.09s-1.32.04-.85.09M123.24,112.69c.47.05,1.24.05,1.71,0,.47-.05.09-.09-.85-.09s-1.32.04-.85.09M77.8,114.51c.4.05,1.12.05,1.59,0,.47-.05.14-.09-.74-.09-.88,0-1.26.04-.86.09M85.89,114.74c.47.05,1.24.05,1.71,0,.47-.05.09-.09-.85-.09s-1.32.04-.85.09M93.06,114.97c.41.05,1.07.05,1.48,0,.41-.05.07-.09-.74-.09s-1.15.04-.74.09M99.89,115.2c.4.05,1.12.05,1.59,0,.47-.05.14-.09-.74-.09-.88,0-1.26.04-.86.09M107.98,115.42c.47.05,1.24.05,1.71,0,.47-.05.09-.09-.85-.09s-1.32.04-.85.09M115.61,115.65c.4.05,1.12.05,1.59,0,.47-.05.14-.09-.74-.09-.88,0-1.26.04-.86.09M124.15,115.88c.47.05,1.24.05,1.71,0,.47-.05.09-.09-.85-.09s-1.32.04-.85.09M75.89,121.07c0,1.13.04,1.62.09,1.09.05-.53.05-1.45,0-2.05-.05-.6-.09-.17-.09.96M92.39,124.76c.54.05,1.36.05,1.82,0,.47-.05.03-.09-.97-.09-1,0-1.38.04-.85.09M71.1,138.03c0,.81.04,1.15.09.74.05-.41.05-1.07,0-1.48-.05-.41-.09-.07-.09.74M114.53,138.2c1.69.06,2.23.15,2.45.45.16.21.28.28.28.15,0-.61-.61-.77-2.72-.72l-2.17.05,2.16.07M71.11,141.56c0,1,.04,1.38.09.85.05-.54.05-1.36,0-1.82s-.09-.03-.09.97M113.57,140.48c.66.05,1.69.05,2.28,0,.59-.05.05-.08-1.2-.08-1.25,0-1.74.04-1.07.08M112.34,146c0,1.94.04,2.74.08,1.76.04-.97.04-2.56,0-3.53-.04-.97-.08-.18-.08,1.76M71.59,154.25c-.06.17-.09,3.07-.06,6.45l.06,6.15,3.74.06c3.63.06,3.78.05,4.96-.53,1.45-.71,1.89-1.43,1.89-3.13,0-.91-.14-1.43-.52-2l-.52-.77.52-.77c.72-1.06.72-2.85.01-3.9-.98-1.44-1.86-1.7-6.15-1.78-3.02-.06-3.84,0-3.93.23M88.38,154.25c-.15.15-.27.49-.27.75,0,.83.45,1.02,2.32,1.02h1.78v8.88h-1.79c-2,0-2.39.22-2.26,1.3l.07.64,4.87.06c5.04.06,5.49,0,5.49-.87s-.62-1.13-2.41-1.13h-1.69v-8.88h1.78c1.87,0,2.32-.2,2.32-1.02,0-.96-.31-1.02-5.24-1.02-3.35,0-4.77.08-4.96.27M104.42,154.33c-.22.57-.16,2.13.1,2.62.43.81,2.04.5,2.04-.38,0-.49.1-.54,1.02-.54h1.02v5.21c0,5.75.01,5.81,1.41,5.68l.75-.07.06-5.41.06-5.41h.88c.74,0,.9.09,1.02.54.24.96,2.06,1.01,2.25.06.08-.42.07-1.31-.03-2.37-.02-.22-1.24-.28-5.24-.28-4.54,0-5.23.05-5.35.36M122.5,154.14c-.56.2-1.18.83-1.39,1.39-.36.93.37,1.9,4.14,5.49,2,1.9,3.63,3.56,3.63,3.67s-1.23.21-2.74.21c-2.71,0-2.74,0-3-.58-.23-.5-.39-.57-1.19-.51-.68.05-.95.18-1,.48-.15.8.2,1.51,1.04,2.08.82.56.96.58,4.68.58s3.84,0,4.39-.56c.37-.37.56-.82.56-1.31,0-.67-.42-1.17-3.87-4.62-2.13-2.13-3.87-4-3.87-4.15,0-.21.64-.29,2.49-.29h2.49l.49.68c.51.71,1.08.85,1.84.45.98-.52.26-2.12-1.31-2.92-.51-.26-6.69-.34-7.36-.09M73.99,157.73v1.71h2.34c2.9,0,3.35-.23,3.35-1.71s-.45-1.71-3.35-1.71h-2.34v1.71M73.99,163.22v1.73l2.64-.08c3.05-.09,3.41-.3,3.21-1.86-.17-1.32-.58-1.5-3.4-1.51h-2.45s0,1.72,0,1.72"/>
  <path class="st0" d="M111.23,62.54c-4.51.16-14.4.45-21.98.65-7.58.2-14.37.41-15.08.46-2.45.17-4.72,1.81-5.81,4.18-.71,1.54-.72,1.09.72,18.5.56,6.7,1.08,13.11,1.17,14.23.28,3.59,1.39,5.55,3.9,6.89,1.73.92,3.14,1.14,8.5,1.3,2.44.08,4.83.19,5.29.26l.85.13v2.47l-5.98-.17c-3.29-.09-7.58-.17-9.53-.17h-3.55l-1.12.69c-1.37.84-2.52,2.49-2.73,3.89-.11.76.07,2.28.68,5.63.46,2.53.94,4.99,1.07,5.47.34,1.29,2.02,2.99,3.53,3.55,1.22.46,1.65.46,28.97.46,30.74,0,28.88.09,30.73-1.5,1.05-.9,1.2-1.26,2.79-6.59,1.43-4.78,1.59-6.05.93-7.33-.67-1.31-1.94-2.28-3.32-2.55-.63-.12-4.43-.28-8.44-.35-4.01-.07-8.03-.19-8.94-.27l-1.65-.13v-2.06l1.76.14c.97.08,3.77.21,6.23.29,4.45.15,4.46.15,5.73-.43,1.5-.69,3.03-2.17,3.64-3.53.34-.75.89-5.05,2.47-19.02,2.21-19.49,2.18-19.03,1.1-21.28-.65-1.34-2.67-3.12-4.2-3.69-1.12-.42-1.72-.47-5.41-.44-2.28.02-7.84.16-12.35.32M123.3,65.31c-1.99.11-28.98.93-39.74,1.22-10.45.28-10.74.32-11.86,1.87-.55.76-.67,1.15-.67,2.2,0,1.52,2.43,30.81,2.64,31.76.2.93,1.92,2.57,2.98,2.84.48.12,6.36.49,13.06.82,26.74,1.31,30.25,1.49,32.14,1.62,1.71.12,2.08.08,2.89-.33.51-.26,1.21-.84,1.55-1.28.7-.92.45.95,3.17-23.28,1.67-14.87,1.67-14.43.07-16.04-.93-.93-2.68-1.58-4.04-1.51-.45.02-1.43.08-2.18.12M114.98,67.89c-4.84.19-12.99.45-28.7.92-9.01.27-9.21.31-10.77,1.91-1.4,1.44-1.41,1.58-.74,9.28.33,3.79.83,9.73,1.13,13.2.5,5.92.57,6.37,1.14,7.34.65,1.11,2.04,2.19,3.33,2.6.44.14,3.31.36,6.38.49,11.57.51,29.79,1.36,31.54,1.47,1.58.1,1.97.05,2.97-.42,1.34-.62,2.2-1.56,2.68-2.92.19-.54.72-4.26,1.17-8.26.45-4.01,1.18-10.27,1.61-13.91.73-6.16.76-6.7.45-7.74-.71-2.39-2.86-3.92-5.72-4.07-.86-.05-3.77,0-6.47.11M109.52,69.5c-2.82.09-10.86.34-17.88.55-13.97.41-14.23.44-15.23,1.79-.29.4-.59.89-.67,1.11-.07.21.26,4.93.75,10.48.49,5.55.95,11.22,1.04,12.59.18,2.9.6,4.1,1.73,4.96,1.13.86,2.22,1.02,8.74,1.3,3.26.14,7.92.35,10.36.47,13.23.67,18.55.9,20.36.9h2.02l.97-.97c.69-.7,1.01-1.22,1.11-1.88.38-2.36,3.1-26.46,3.1-27.46,0-1.78-.85-3.01-2.56-3.72-.94-.39-4.5-.42-13.84-.11M108.43,72.95c-2.24.33-4,1.55-4.93,3.42-.72,1.44-.75,2.7-.13,4.33.37.97,1.36,5.25,1.36,5.92,0,.09-1.74.17-3.87.17-3.54,0-3.87-.03-3.87-.4,0-.22.36-2.49.8-5.04.44-2.55.78-4.66.74-4.68-.21-.14-11.71-1.39-11.84-1.28-.09.07-.23.55-.31,1.05l-.15.92,4.41.52c2.42.29,4.62.57,4.88.63l.48.11-.76,4.37c-.42,2.4-.82,4.62-.88,4.94-.11.5.13.78,1.93,2.25,3.06,2.51,2.9,2.1,1.68,4.47-.58,1.12-1.08,2.08-1.12,2.12-.04.04-1.94-.69-4.24-1.63l-4.17-1.71-.44.89c-.27.55-.36.96-.23,1.08.12.11,2.41,1.09,5.09,2.18,3.78,1.54,4.91,1.92,5.06,1.69.1-.17.77-1.35,1.49-2.64.72-1.28,1.36-2.33,1.44-2.33s.71,1.17,1.42,2.6l1.29,2.6,2.12-.52c1.17-.29,3.76-.9,5.76-1.36,2-.46,3.76-.88,3.91-.92.2-.06.2-.34.02-1.07-.13-.54-.26-1.01-.29-1.04-.03-.03-2.35.48-5.17,1.15l-5.12,1.21-1.18-2.21-1.18-2.21,2.2-1.62c1.21-.89,2.33-1.7,2.49-1.79.22-.13.19-.62-.14-2.33-.61-3.12-.65-2.98.64-2.58,2.26.7,5.23-.02,6.97-1.7,1.24-1.2,1.75-2.29,1.75-3.8,0-3.7-3.69-6.38-7.92-5.76M107.35,75.02c-3.47,1.66-3.62,5.42-.29,7.09,3.36,1.67,7.62-.32,7.57-3.55-.04-2.96-4.24-4.99-7.28-3.53M110.05,77.23c.35.93,0,1.45-1.05,1.54-.64.05-.87-.03-1.07-.4-.32-.59-.69-.4-.69.36,0,.81.37,1.39,1.13,1.79,1.02.53,1.95.43,2.76-.29.57-.51.71-.81.71-1.53s-.14-1.02-.71-1.53c-.98-.88-1.43-.85-1.09.05M91.8,110.53l.07,1.2,4.9.15c2.69.08,6.61.21,8.71.28l3.81.13v-2.22l-3.36-.15c-1.85-.08-5.05-.25-7.12-.36-2.07-.12-4.51-.21-5.42-.21h-1.66s.07,1.19.07,1.19M70.67,114.44c-.9.4-1.69,1.41-1.69,2.16,0,.87,1.59,9.39,1.83,9.85.12.22.48.61.81.87l.6.47h27.76c24.31,0,27.85-.04,28.43-.34.7-.36.76-.53,2.86-7.5,1.16-3.87,1.14-3.89-4.62-4.08-2.35-.08-8.02-.25-12.59-.37-4.57-.13-12.98-.38-18.67-.56-5.7-.18-12.72-.38-15.6-.45-2.88-.07-5.96-.18-6.83-.24-1.07-.07-1.82,0-2.3.21M74.26,121.01l.07,3.47,10.29.06,10.29.06.23-.74c.82-2.6,1.42-4.78,1.35-4.85-.1-.1-20.15-1.48-21.43-1.48h-.87s.07,3.47.07,3.47M105.94,118.7c-1.08.31-2.28,1.55-2.47,2.54-.3,1.62,1.12,3.37,3.04,3.73.94.18,2.57-.2,3.35-.77,1.53-1.12,1.65-3.26.26-4.53-1.17-1.08-2.63-1.41-4.18-.96M118.85,118.87c-1,.53-1.82,1.71-1.82,2.63,0,1.05.78,2.15,1.88,2.65,1.21.55,2.3.56,3.49.02,1.29-.59,1.92-1.45,1.92-2.66,0-2.36-3.14-3.88-5.47-2.64M75.81,121.07v1.94h17.98l.37-1.27c.2-.7.33-1.31.29-1.35-.1-.1-16.4-1.25-17.71-1.25h-.93v1.94M106.33,120.2c-.65.24-1.37,1.06-1.37,1.57,0,.29.31.77.73,1.12.63.53.88.6,1.82.51,1.64-.16,2.35-1.04,1.86-2.32-.29-.77-2-1.26-3.05-.87M119.23,120.51c-1.73,1.36.72,3.23,2.81,2.15,1.1-.57,1.11-1.8.01-2.39-.74-.4-2.17-.27-2.83.24M71.42,136.12c-.09.09-.16,3.1-.16,6.7,0,5.51.05,6.58.34,6.82.49.4,1.45.1,1.6-.51.07-.28.1-2.38.06-4.67-.04-2.29-.02-4.16.05-4.16.06,0,1.04,2.13,2.16,4.73l2.05,4.72,1.12.07c.74.05,1.18-.03,1.31-.23.1-.16.19-3.14.19-6.6,0-5.43-.05-6.35-.35-6.66-.2-.2-.54-.36-.75-.36-.87,0-.94.4-.94,5.1,0,2.87-.08,4.47-.22,4.34-.12-.12-1.07-2.27-2.12-4.77l-1.9-4.55-1.14-.07c-.63-.04-1.21,0-1.3.09M87.88,136.5c-.12.28-.59,1.79-1.04,3.36-.45,1.57-1.22,4.14-1.71,5.72-.49,1.58-.89,3.08-.89,3.33,0,.63.57,1.05,1.21.89.42-.1.62-.43.95-1.51l.42-1.37h3.7l.45,1.42c.41,1.31.5,1.42,1.11,1.42,1.25,0,1.22-.3-.64-6.83-.96-3.36-1.85-6.3-1.97-6.53-.32-.6-1.3-.54-1.57.09M97.86,136.14c-.51.14-.72.85-.41,1.43.21.4.47.46,1.83.46h1.59v9.79h-1.46c-1.54,0-2.18.33-2.18,1.11,0,.85.43.94,4.55.94s4.55-.09,4.55-.94c0-.76-.65-1.11-2.07-1.11h-1.35v-9.79h1.45c1.01,0,1.54-.1,1.73-.34.4-.48.1-1.4-.51-1.57-.58-.16-7.14-.15-7.73.01M110.45,136.4c-.26.49-.36,11.79-.11,12.72.15.57.78.85,1.45.63.43-.14.46-.34.46-3.67v-3.53l.57.07c.46.06.95.72,2.68,3.6,1.95,3.25,2.16,3.53,2.77,3.53,1.29,0,1.24-.53-.28-3.22-.77-1.36-1.61-2.8-1.86-3.19l-.46-.71.94-.15c1.26-.2,1.74-.48,2.26-1.35.9-1.47.41-3.77-.98-4.61-.62-.37-1.25-.46-3.96-.52-3.05-.07-3.24-.05-3.47.38M126.59,136.31c-.78.44-3.24,5.54-3.24,6.72,0,1.07,2.29,5.95,3.04,6.48.8.56,2.1.48,2.88-.17.78-.66,2.79-4.74,2.96-6.01.1-.75-.07-1.32-.99-3.33-1.41-3.09-1.96-3.77-3.16-3.91-.55-.06-1.14.03-1.49.23M112.48,139.29v1.25h2.12c2.34,0,2.66-.15,2.66-1.25s-.32-1.25-2.66-1.25h-2.12v1.25M126.68,139.8c-1.65,3.56-1.6,2.95-.39,5.65.72,1.59,1.19,2.38,1.44,2.38.41,0,2.52-4.02,2.52-4.81,0-.73-2.08-4.98-2.43-4.98-.17,0-.68.79-1.13,1.76M88.35,141.85c-.13.47-.38,1.34-.56,1.94l-.33,1.08h1.25c.97,0,1.23-.07,1.13-.31-.07-.17-.34-1.04-.6-1.94-.27-.89-.53-1.62-.58-1.62s-.2.38-.33.85"/>
</svg>