<?xml version="1.0" encoding="UTF-8"?>
<svg id="Layer_1" xmlns="http://www.w3.org/2000/svg" version="1.1" viewBox="0 0 200 200">
  <!-- Generator: Adobe Illustrator 30.1.0, SVG Export Plug-In . SVG Version: 2.1.1 Build 136)  -->
  <defs>
    <style>
      .st0 {
        fill: #0f1213;
      }

      .st0, .st1 {
        fill-rule: evenodd;
      }

      .st1 {
        fill: #e5402c;
      }
    </style>
  </defs>
  <path class="st1" d="M160.36,87.51c-4.96,1.94-7.35,7.53-5.21,12.19.8,1.75,2.79,3.85,4.36,4.6,2.07.99,3.92,1.23,5.97.76,7.23-1.63,9.82-10.53,4.5-15.5-1.18-1.1-3.03-2.09-4.48-2.39-.48-.1-.78-.07-.78.09,0,.14.76,1.15,1.69,2.25s2.04,2.7,2.47,3.56c2.46,4.91-.25,9.78-5.42,9.75-2.95-.02-5.32-1.71-6.02-4.28-.65-2.41.48-5.55,3.25-9.06.88-1.12,1.61-2.12,1.61-2.23,0-.32-.74-.22-1.95.25M117.6,89.41c3.1.04,8.1.04,11.11,0,3.01-.04.48-.07-5.63-.07s-8.57.03-5.48.07M136.18,89.4c.7.05,1.84.05,2.54,0s.13-.09-1.27-.09-1.97.04-1.27.09M30.55,91.64c0,1,.04,1.4.09.91.05-.5.05-1.31,0-1.81-.05-.5-.09-.09-.09.91M98.61,92.79c-.04,1.2.2,1.61.58.99.1-.17.07-.21-.09-.11-.17.11-.3-.23-.36-.99l-.09-1.15-.04,1.27M30.56,96.35c0,1.59.04,2.21.09,1.38.05-.84.05-2.14,0-2.9-.05-.76-.09-.08-.09,1.52M53.74,96.35c0,1.33.04,1.84.09,1.14.05-.7.05-1.79,0-2.41-.05-.63-.09-.05-.09,1.28M36.02,96.78l.12,1.98.07-1.79c.04-.98-.01-1.87-.12-1.98-.11-.11-.14.7-.07,1.79M102.76,96.83c0,1.06.04,1.47.09.9.05-.57.05-1.44,0-1.93-.05-.49-.09-.03-.09,1.03M118.23,95.59c-.07.18-.09.92-.05,1.63l.08,1.3.12-1.63c.12-1.64.09-1.91-.15-1.3M119.57,97.02l.12,1.74.08-1.54c.04-.85-.01-1.63-.12-1.74-.11-.11-.14.59-.08,1.54M129.82,95.59c-.07.18-.09.92-.05,1.63l.08,1.3.12-1.63c.12-1.64.09-1.91-.15-1.3M115.79,97.32c0,.93.04,1.28.1.78.05-.5.05-1.26,0-1.69-.05-.43-.1-.02-.1.91M127.38,97.32c0,.93.04,1.28.1.78.05-.5.05-1.26,0-1.69-.05-.43-.1-.02-.1.91M30.55,100.7c0,.8.05,1.09.1.66.05-.43.05-1.09,0-1.45-.06-.36-.1,0-.1.79M81.99,108.79c0,1.26.04,1.78.09,1.15.05-.63.05-1.66,0-2.29-.05-.63-.09-.11-.09,1.15M111.21,109.03c0,1.39.04,1.97.09,1.27s.05-1.84,0-2.54-.09-.13-.09,1.27M162.98,106.79c.43.05,1.09.05,1.45,0,.36-.06,0-.1-.79-.1-.8,0-1.09.05-.66.1M51.09,110.48c0,1.39.04,1.97.09,1.27s.05-1.84,0-2.54-.09-.13-.09,1.27M78.85,109.75c0,1,.04,1.4.09.91.05-.5.05-1.31,0-1.81-.05-.5-.09-.09-.09.91M119.9,109.75c0,1,.04,1.4.09.91.05-.5.05-1.31,0-1.81-.05-.5-.09-.09-.09.91M121.31,108.61c.23.19.45.78.5,1.4l.09,1.07.04-1.14c.04-.96-.04-1.18-.5-1.4-.48-.23-.49-.22-.14.07M144.04,109.99c0,.86.04,1.22.1.78.05-.43.05-1.14,0-1.57-.05-.43-.1-.08-.1.78M94.34,110.23c-.19.31.07.73.44.71.21-.01.2-.05-.01-.14-.68-.28-.22-.55,1.09-.63l1.39-.09-1.37-.05c-.76-.03-1.44.06-1.52.2"/>
  <path class="st0" d="M161.32,85.73c-1.96.39-3.16.99-4.97,2.47l-1.4,1.15H30.67v6.52s.01,6.52.01,6.52l62.1.06,62.1.06,1.36,1.25c.75.69,2.07,1.58,2.93,1.99,1.48.7,1.73.74,4.47.74,2.62,0,3.03-.06,4.23-.63,2.85-1.35,4.97-3.73,5.82-6.53.41-1.35.49-2.13.41-3.92-.08-1.94-.21-2.46-.9-3.87-1.47-2.99-4.37-5.21-7.7-5.91-1.56-.33-2.13-.31-4.18.1M160.36,87.51c-4.96,1.94-7.35,7.53-5.21,12.19.8,1.75,2.79,3.85,4.36,4.6,2.07.99,3.92,1.23,5.97.76,7.23-1.63,9.82-10.53,4.5-15.5-1.18-1.1-3.03-2.09-4.48-2.39-.48-.1-.78-.07-.78.09,0,.14.76,1.15,1.69,2.25s2.04,2.7,2.47,3.56c2.46,4.91-.25,9.78-5.42,9.75-2.95-.02-5.32-1.71-6.02-4.28-.65-2.41.48-5.55,3.25-9.06.88-1.12,1.61-2.12,1.61-2.23,0-.32-.74-.22-1.95.25M162,90.74c-2.33,3.54-2.98,5.3-2.67,7.23.2,1.24,1.46,2.71,2.67,3.11,1.2.4,2.98.17,3.86-.48,2.47-1.82,2.46-5.53,0-8.57-.44-.54-1.19-1.5-1.67-2.13l-.87-1.15-1.31,1.99M74.6,91.18c-.32.19-.42.56-.42,1.58,0,1.21-.03,1.3-.38.95-.53-.53-2.08-.48-2.81.09-1.44,1.13-1.4,3.94.08,5.18.84.71,2.37.85,2.95.27.31-.31.39-.31.65,0,.36.43,1.24.46,1.64.07.2-.2.29-1.42.29-3.95,0-3.24-.05-3.7-.44-4.06-.5-.45-.94-.49-1.55-.14M96.8,91.22c-.37.27-.41.75-.35,4.16l.07,3.86.66.23c1.07.38,1.64-.33,1.64-2.05s.16-2.16.7-2.16c.74,0,.99.54.99,2.17s.24,2.17,1.13,2.17c.97,0,1.35-.95,1.25-3.12-.07-1.63-.18-2.01-.67-2.54-.63-.67-2.04-.85-2.93-.37-.43.23-.47.16-.47-.83,0-1.59-.95-2.31-2.01-1.53M36.28,91.87c-.14.26-.25.69-.25.97,0,.33-.16.5-.46.5-.42,0-.75.44-.75.99,0,.13.27.33.6.46.57.22.6.33.6,2.03s.05,1.84.64,2.3c.71.56,2.46.69,2.94.21.47-.47.33-1.15-.28-1.39-.46-.18-.6-.46-.74-1.48-.18-1.33-.08-1.57.7-1.71.7-.13.67-1.26-.04-1.36-.37-.05-.56-.3-.67-.88-.08-.44-.32-.87-.53-.95-.74-.28-1.53-.14-1.78.32M42.7,93.33c-2,.61-2.93,3-1.86,4.76.65,1.07,1.65,1.52,3.35,1.52,1.58,0,2.7-.61,2.7-1.47,0-.71-.65-.82-1.97-.35-1.14.41-1.21.41-1.67,0-.26-.24-.39-.52-.29-.62s1.11-.22,2.24-.26c1.9-.07,2.06-.11,2.13-.6.1-.72-.53-1.87-1.34-2.44-.81-.57-2.35-.82-3.29-.53M48.86,93.48c-.48.33-.52.58-.52,2.96,0,2.75.15,3.17,1.12,3.17s1.3-.62,1.3-2.2c0-1.35.04-1.45.66-1.67,1.16-.41,1.39-.63,1.46-1.41.06-.62-.04-.81-.57-1.05-.58-.27-.7-.23-1.2.35-.41.48-.59.56-.68.31-.24-.63-1-.86-1.57-.46M61.14,93.37c-2.16.63-2.9,2.78-1.71,5,.42.79,1.54,1.24,3.09,1.24,1.73,0,3.04-.68,2.93-1.51-.1-.7-.94-.82-2.06-.29-.67.32-.98.35-1.43.14-1-.46-.63-.71,1.3-.87,2.39-.2,2.48-.23,2.48-.95,0-2-2.35-3.42-4.59-2.76M80.16,93.26c-.98.15-2.28,1.49-2.48,2.55-.21,1.13.32,2.53,1.2,3.19.97.72,4.24.7,4.98-.03.7-.7.45-1.54-.47-1.54-.36,0-.76.09-.89.21-.45.42-1.48.5-1.94.17-.25-.19-.41-.39-.34-.46s1.04-.21,2.17-.32c1.99-.19,2.05-.22,2.13-.85.21-1.85-1.92-3.29-4.36-2.92M106.28,93.32c-1.71.52-2.4,1.45-2.4,3.26,0,.91.14,1.25.8,1.97.67.73,1,.89,2.05.99,2.41.23,3.91-1,3.91-3.19,0-1.07-.11-1.4-.68-2.01-.37-.4-1.11-.84-1.63-.99-1.07-.3-1.19-.3-2.05-.04M112.37,93.48c-.48.33-.52.58-.52,2.96,0,2.72.16,3.18,1.07,3.17,1,0,1.21-.38,1.34-2.34.12-1.81.14-1.88.72-1.88s.61.07.72,1.81c.14,2.13.28,2.41,1.19,2.41.98,0,1.3-.54,1.45-2.5.12-1.52.19-1.73.62-1.73s.5.2.6,1.71c.13,1.86.48,2.51,1.34,2.51,1.02,0,1.32-.59,1.32-2.66s-.24-2.87-1-3.34c-.7-.44-2.31-.4-2.82.06-.39.36-.5.35-1.38-.1-1.01-.52-1.86-.47-2.56.17-.26.24-.45.27-.56.1-.35-.57-1.02-.72-1.54-.35M123.95,93.48c-.47.33-.51.58-.51,2.95,0,2.75.15,3.17,1.12,3.17s1.3-.62,1.3-2.28.36-2.26,1.08-1.98c.28.11.37.54.37,1.82,0,1.9.36,2.51,1.41,2.39.84-.1,1.23-.95,1.24-2.68,0-1.04.1-1.43.38-1.54.63-.24.89.29,1.01,2.02.12,1.82.34,2.25,1.16,2.25,1.03,0,1.32-.59,1.32-2.69,0-2.35-.37-3.2-1.57-3.59-.74-.24-1-.21-1.86.21-.93.46-1.04.47-1.43.11-.6-.54-2.22-.54-2.81,0-.4.36-.52.38-.68.1-.33-.54-.95-.65-1.5-.27M137.12,93.34c-2.69.81-3.12,4.62-.66,5.9.92.48,3.22.48,4.12.01.81-.42,1.19-1.29.69-1.6-.49-.31-1.01-.26-1.88.18-.62.31-.91.33-1.38.12-1.1-.5-.51-.86,1.63-.99l2.03-.12-.03-.92c-.04-1.13-1-2.23-2.25-2.58-1-.28-1.33-.28-2.27,0M145.05,93.25c-.27.05-.72.15-1.02.21-.77.16-1.52,1.06-1.52,1.81,0,.82.66,1.41,2.11,1.9.63.21,1.18.5,1.22.63.14.47-.76.4-1.7-.13-.86-.48-.99-.5-1.32-.17-.57.57-.22,1.52.69,1.84,1.08.38,3.01.33,3.83-.1,1.34-.69,1.62-2.17.57-3-.35-.28-.76-.5-.91-.5-.15,0-.68-.11-1.17-.25-1.16-.32-1.21-.82-.06-.62.46.08,1.21.21,1.66.29.5.09.88.04.99-.13.26-.42-.52-1.44-1.2-1.58-1.21-.25-1.7-.3-2.17-.2M54.03,93.71c-.29.29-.38.9-.38,2.6,0,2.47.33,3.3,1.33,3.3.83,0,1.33-.86,1.33-2.31,0-1.22.01-1.24,1.03-1.7.71-.32,1.05-.63,1.11-1.02.17-1.18-1.29-1.73-1.98-.75l-.35.51-.27-.51c-.32-.6-1.26-.67-1.81-.13M85.99,94.04c-1.24,1.24-.75,2.39,1.29,3.05,1.52.49,1.87.76,1.28.99-.25.1-.76-.01-1.22-.25-.99-.53-1.91-.43-2,.24-.13.88.78,1.41,2.59,1.51,2.33.13,3.64-.63,3.64-2.12,0-.78-.84-1.43-2.41-1.87-.8-.22-1.45-.49-1.45-.61,0-.29,1.63-.25,1.81.04.08.13.47.24.87.24,1.02,0,1.2-.65.37-1.37-.55-.48-.92-.57-2.35-.57-1.55,0-1.76.06-2.4.71M43.06,95.1c-.36.44-.1.64.81.64.42,0,.84-.07.92-.16.27-.27-.35-.81-.92-.81-.3,0-.67.15-.81.32M61.68,94.93c-.17.07-.3.28-.3.47,0,.24.3.34.98.34.81,0,.97-.08.9-.42-.08-.42-.98-.64-1.59-.39M80.38,94.94c-.46.46-.1.8.83.8.81,0,.96-.07.85-.38-.08-.21-.15-.43-.15-.48,0-.17-1.36-.11-1.53.06M137.49,95.07c-.51.51-.32.68.8.68.6,0,1.09-.09,1.09-.19,0-.36-.58-.77-1.09-.77-.28,0-.64.13-.8.29M106.58,95.31c-.36.36-.38,1.51-.04,2.14.57,1.06,1.68.29,1.68-1.16,0-.77-.38-1.27-.97-1.27-.21,0-.52.13-.68.29M164.5,95.5c-.36.36-.43.61-.27,1.03.22.61.73.79,1.62.57,1.05-.26.56-2.03-.56-2.06-.17,0-.52.21-.78.47M72.63,95.64c-.52.52-.48,1.21.11,1.8.69.69,1.44.27,1.44-.81,0-1.25-.79-1.76-1.55-.99M77.82,105.88c-.46.29-.2,1.1.35,1.1.3,0,.51-.19.55-.51.08-.56-.42-.88-.9-.58M118.74,106.03c-.36.36-.36.45-.04.77.41.41,1.12.24,1.12-.27,0-.19-.15-.47-.34-.62-.26-.22-.43-.19-.74.13M135.74,106.02c-.26.31-.24.44.09.78.37.38.43.38.8,0,.33-.33.35-.47.09-.78-.17-.21-.39-.37-.49-.37s-.32.17-.49.37M41.86,106.43c-.15.15-.28.46-.28.69s-.16.47-.36.55c-.2.08-.36.29-.36.48s.16.41.36.48c.25.1.36.49.36,1.34,0,1.45.45,2.01,1.54,1.91.91-.09,1.21-.88.42-1.08-.72-.19-.74-1.99-.02-2.18.27-.07.48-.29.48-.48s-.22-.41-.48-.48c-.27-.07-.48-.33-.48-.57,0-.59-.79-1.02-1.17-.65M71.69,106.28c-.09.09-.17,1.28-.17,2.64,0,1.9.08,2.53.36,2.77.6.5,1.05-.12,1.14-1.53.07-1.15.12-1.25.68-1.25s.61.09.68,1.37c.08,1.44.5,1.94,1.17,1.38.55-.45.44-3.01-.15-3.6-.52-.52-1.34-.62-1.93-.24-.29.19-.39.06-.48-.67-.09-.67-.25-.92-.61-.97-.27-.04-.57,0-.66.1M80.58,106.66c-.08.31-.11,1.53-.07,2.71.06,1.76.15,2.2.51,2.41.81.49,1.02-.25.89-3.02-.11-2.37-.15-2.52-.66-2.59-.39-.06-.57.07-.67.48M86.65,106.5c-.08.22-.15.67-.15,1,0,.49-.09.57-.42.44-.97-.4-1.23-.37-1.89.2-.98.84-.99,2.38-.02,3.21.72.62,1.59.75,2.04.3.21-.21.37-.21.65.03.2.17.54.24.74.16.31-.12.36-.59.3-2.86-.06-2.56-.1-2.73-.58-2.79-.3-.04-.57.09-.66.32M109.85,106.28c-.09.09-.17,1.28-.17,2.64,0,2.57.25,3.24,1.09,2.92.31-.12.36-.59.3-2.86-.06-2.53-.1-2.73-.56-2.79-.27-.04-.57,0-.66.1M122.16,106.52c-.09.09-.17.36-.17.58s-.22.47-.48.54c-.27.07-.48.24-.48.38s.22.37.48.51c.39.21.48.51.48,1.57,0,1.42.33,1.81,1.53,1.81.95,0,1.05-1.18.1-1.2-.1,0-.18-.49-.18-1.09,0-.93.07-1.09.48-1.09.6,0,.65-.73.05-.88-.24-.06-.54-.35-.66-.64-.24-.54-.85-.8-1.15-.5M132.05,106.53c-.09.09-.16.34-.16.57s-.24.51-.53.64l-.53.24.53.46c.41.35.53.72.53,1.59,0,1.39.47,1.95,1.54,1.85.89-.09,1.17-.79.41-1.03-.71-.23-.72-2.04-.01-2.23.61-.16.63-.8.02-.96-.25-.07-.53-.38-.61-.7-.14-.55-.81-.79-1.18-.42M36.18,108.02c-.47.52-.52,1.33-.1,1.68.17.14.67.35,1.13.46,1.02.26,1.28.8.38.8-.35,0-.85-.11-1.11-.25-.37-.2-.5-.17-.63.16-.22.58.55,1.06,1.73,1.06,1.37,0,2.11-.56,2.01-1.53-.06-.67-.19-.79-1.04-1-1.26-.32-1.68-.59-1.37-.9.16-.16.54-.14,1.13.05,1.12.37,1.64,0,.81-.58-.77-.54-2.44-.51-2.95.05M46.24,107.82c-.67.27-1.04.96-1.04,1.93,0,1.03.33,1.57,1.19,1.93,1.72.71,3.57-.5,3.3-2.17-.25-1.55-1.85-2.34-3.46-1.69M51.34,107.9c-.07.17-.09,1.45-.05,2.83.06,2.24.12,2.53.52,2.6.56.11.87-.34.87-1.25,0-.56.08-.66.43-.52,1,.41,1.27.38,1.86-.21.85-.85.86-2.35.02-3.19-.64-.64-1.55-.77-2.02-.3-.23.23-.35.23-.58,0-.38-.38-.9-.37-1.05.03M57.57,107.95c-.59.41-.71,1.35-.23,1.75.17.14.67.35,1.13.46.46.12.87.34.93.5.13.39-1.2.39-1.59,0-.23-.23-.36-.22-.59.02-.49.49.62,1.24,1.84,1.24,2.72,0,2.78-2.22.07-2.78-.39-.08-.64-.27-.58-.43.11-.3.55-.31,1.68-.04.51.13.66.08.66-.22,0-.86-2.31-1.22-3.33-.51M66.43,108.28c-.47.47-.71.95-.71,1.44,0,1.73,2.3,2.81,3.68,1.73.37-.29.66-.61.66-.72,0-.41-.81-.49-1.22-.11-.27.25-.62.33-.94.23-.42-.13-.5-.32-.44-1.02.1-1.14.71-1.54,1.4-.92.46.41.54.42.88.08.34-.34.31-.42-.28-.89-.96-.76-2.15-.68-3.02.19M77.56,107.94c-.23.27-.27.83-.16,1.99.16,1.72.38,2.15,1,1.92.57-.22.44-4.1-.14-4.21-.21-.04-.53.1-.7.3M93.86,107.86c-.78.43-1.09.96-1.08,1.88.01,1.37.93,2.19,2.46,2.19.81,0,1.88-.56,1.88-.98,0-.13-.62-.2-1.39-.17-1.1.05-1.39-.01-1.39-.3s.36-.38,1.51-.43c1.33-.06,1.51-.13,1.51-.56,0-.27-.32-.81-.71-1.2-.76-.76-1.88-.93-2.8-.43M98.72,107.95c-.08.21.04.65.26.99.38.58.38.66-.03,1.42-.75,1.38.11,2.21.95.93l.42-.64.52.65c.36.45.65.6.94.49.53-.2.53-.46,0-1.34-.39-.67-.39-.74.02-1.44.77-1.31-.1-2.03-.99-.81l-.45.62-.33-.62c-.37-.69-1.09-.83-1.31-.25M103.78,107.96c-.08.21-.15,1.34-.15,2.52,0,2.53.11,2.9.87,2.9.51,0,.58-.11.58-.97,0-1.05.04-1.09.76-.7,1.01.54,2.38-.6,2.38-1.98,0-1.47-1.49-2.53-2.67-1.9-.38.2-.6.21-.79.02-.38-.38-.82-.33-.99.12M114.02,107.74c-1.41.56-1.93,2.37-.97,3.4,1.5,1.61,4.36.46,4.02-1.61-.07-.46-.33-1.03-.58-1.28-.47-.47-1.85-.75-2.47-.51M118.67,107.86c-.18.18-.3.96-.3,1.91,0,1.69.35,2.35,1.09,2.06.54-.21.42-4.1-.13-4.2-.2-.04-.5.06-.66.23M126.28,107.84c-.46.27-.56.83-.19,1.06.13.08.58-.03,1-.25.69-.36.8-.36,1.14-.02.42.42.53.34-1.4.92-.93.28-1.1.42-1.17,1.03-.05.47.06.82.35,1.03.54.39,1.6.41,1.97.03.22-.22.42-.21.87.03.88.47,1.11.15,1.11-1.57,0-2-.44-2.52-2.11-2.51-.63,0-1.34.12-1.57.25M135.81,107.74c-.46.19-.41,3.56.06,3.95.68.56,1.09-.13,1.09-1.82,0-2.15-.19-2.51-1.15-2.12M139.07,108.06c-1.27,1-1.04,2.85.44,3.55.77.37.96.38,1.86.06,1.2-.42,1.69-1.35,1.35-2.58-.38-1.4-2.44-1.98-3.65-1.03M144.31,107.85c-.27.44-.1,3.68.2,3.87.62.38,1.12-.26,1.19-1.55.06-1.01.16-1.28.53-1.35.62-.12.87.36.87,1.69,0,1.2.48,1.68,1.12,1.15.55-.45.44-3.01-.15-3.6-.54-.54-1.23-.62-1.97-.22-.36.19-.57.19-.76,0-.34-.34-.82-.34-1.03.01M46.94,108.83c-.71.71-.09,2.31.77,1.98.54-.21.55-1.92.01-2.13-.49-.19-.44-.2-.78.14M52.96,108.77c-.18.11-.27.53-.23,1.01.13,1.38,1.39,1.21,1.4-.2,0-.6-.71-1.1-1.17-.81M94.39,108.69c-.37.37-.13.57.69.57.58,0,.83-.1.77-.3-.11-.34-1.19-.54-1.46-.27M114.31,108.83c-.39.39-.37,1.52.04,1.86.32.27,1.11.14,1.12-.18,0-.09.06-.38.14-.66.08-.3-.02-.67-.26-.91-.47-.47-.65-.49-1.04-.11M139.87,109.12c-.27.72-.08,1.52.41,1.7.53.2,1.03-.31,1.03-1.06,0-1.2-1.05-1.67-1.44-.65M85.15,109.11c-.08.2-.1.61-.06.92.06.42.24.56.68.56.53,0,.6-.1.6-.85,0-.69-.1-.86-.54-.92-.32-.05-.6.07-.68.28M105.24,109.15c-.29.74-.15,1.29.36,1.45.67.21,1-.15.9-1-.09-.8-1-1.12-1.26-.45M127.48,110.16c-.46.12-.57.68-.19.92.33.2,1.26-.33,1.15-.66-.11-.32-.4-.4-.97-.25"/>
</svg>