<?xml version="1.0" encoding="UTF-8"?>
<svg id="Layer_1" xmlns="http://www.w3.org/2000/svg" version="1.1" viewBox="0 0 200 200">
  <!-- Generator: Adobe Illustrator 30.1.0, SVG Export Plug-In . SVG Version: 2.1.1 Build 136)  -->
  <defs>
    <style>
      .st0 {
        fill: #494145;
      }

      .st0, .st1, .st2, .st3, .st4, .st5 {
        fill-rule: evenodd;
      }

      .st1 {
        fill: #8e8f91;
      }

      .st2 {
        fill: #823b67;
      }

      .st3 {
        fill: #bbbcbc;
      }

      .st4 {
        fill: #d6d8d7;
      }

      .st5 {
        fill: #3b3b3a;
      }
    </style>
  </defs>
  <path class="st3" d="M99.46,48.8c.58.04,1.53.04,2.1,0s.11-.07-1.05-.07-1.63.03-1.05.07M143.91,63.54l-1.4,1.45,1.45-1.4c1.35-1.3,1.55-1.51,1.4-1.51-.03,0-.68.65-1.45,1.45M130.73,64.84c.58.04,1.53.04,2.1,0s.11-.07-1.05-.07-1.63.03-1.05.07M120.02,74.61c0,.66.04.91.08.55.04-.36.04-.9,0-1.2-.05-.3-.08,0-.08.66M104.38,75.01c0,.66.04.91.08.55.04-.36.04-.9,0-1.2-.05-.3-.08,0-.08.66M107.82,86.34c0,5.24.03,7.38.06,4.76.03-2.62.03-6.9,0-9.52-.03-2.62-.06-.48-.06,4.76M76.77,78.52c-.08.71-.04,1.54.09,2.03l.22.83.44-.81c.24-.44.69-1.11,1-1.48.55-.66.59-.67,2.06-.63.83.02,1.86.14,2.31.26.82.22,2.48,1.2,3.37,1.98.5.44.77,1.22.41,1.22-.11,0-.2.1-.2.23,0,.14.15.09.38-.11.36-.32.41-.31.96.15.32.27.96,1.02,1.41,1.67.79,1.13.81,1.19.44,1.42-.21.13-.38.35-.38.49,0,.14.1.09.21-.1.11-.19.31-.35.43-.35s.41.16.64.35l.42.35-.39-.46c-.31-.37-.32-.43-.07-.34.26.1.36-.09.53-.94.44-2.25.63-3.47.61-4.06-.02-.6-.02-.6-.18-.11-.09.28-.27,1.36-.41,2.41-.32,2.52-.42,2.67-1.14,1.83-2.7-3.14-5.13-5.27-6.59-5.78-.38-.13-1.46-.3-2.39-.38l-1.7-.14-.88.88c-.48.48-.95,1.06-1.03,1.28-.14.36-.17.34-.33-.2-.09-.33-.12-1.07-.05-1.65.07-.58.08-1.05.02-1.05s-.16.54-.24,1.2M74.72,79.22c0,.88.04,1.22.08.75.04-.47.04-1.19,0-1.6s-.08-.02-.08.86M122.25,86.04c0,3.42.03,4.84.06,3.17.03-1.67.03-4.47,0-6.21-.03-1.74-.06-.37-.06,3.04M76.95,81.71c-.22.22-.06.46.22.35.18-.07.26-.03.19.08-.17.28.16.25.79-.08l.54-.28-.82-.08c-.45-.04-.87-.04-.91.01M79.95,82.46c.06.13.05.27-.03.32-.08.05-.05.06.07.04.12-.03.22.07.22.21s-.13.21-.3.15c-.19-.07-.25-.03-.16.11.14.23.93.26.93.03,0-.07-.19-.35-.42-.61-.23-.26-.36-.37-.3-.24M80.2,84.67c-.3.3-.13.71.27.61.26-.07.4,0,.4.18,0,.15.08.28.18.28s.13-.19.07-.42c-.08-.29-.22-.39-.5-.32-.28.07-.36.02-.28-.18.12-.31.07-.36-.14-.15M79.79,86.57c-.14.68.08,1.07.76,1.4.26.13.21.04-.13-.23-.3-.24-.55-.55-.55-.71,0-.19.18-.26.55-.21.3.04.39.03.2-.02-.32-.08-.44-.31-.37-.71.01-.08-.06-.15-.15-.15s-.23.28-.3.63M90.55,88.44c0,.66.04.91.08.55.04-.36.04-.9,0-1.2-.05-.3-.08,0-.08.66M104.6,90.15c0,1.38.03,1.94.07,1.25.04-.69.04-1.82,0-2.51-.04-.69-.07-.13-.07,1.25M88.35,92.65c0,.88.04,1.22.08.75.04-.47.04-1.19,0-1.6s-.08-.02-.08.86M80.59,91.49c-.25.25-.13.87.16.87.16,0,.62.23,1.03.5s.84.5.96.5c.12,0,.09-.09-.08-.2-.25-.16-.23-.2.1-.21.26,0,.11-.13-.4-.34-.44-.18-.99-.54-1.22-.79-.23-.25-.48-.4-.55-.33M95.7,91.75c-.17.11-.57.21-.9.23-.54.03-.55.04-.09.11.28.04.82-.06,1.2-.22.38-.17.56-.3.4-.31-.17,0-.44.08-.6.19M96.79,92.24c-.05,1.32-1.27,5.92-2.67,10.07-1.99,5.94-2.14,6.95-1.96,13.28.1,3.26.2,4.55.38,4.66.14.09.93.17,1.75.19l1.5.03-1.1.18c-1.66.27-1.66.36,0,.33l1.5-.03.13.59.13.59.02-.67.02-.67,1.55.14,1.55.14.1-1.57c.19-2.97.1-3.9-.55-5.88-.79-2.38-1.76-7.5-1.75-9.22,0-.72.15-2.34.34-3.61.33-2.3.53-4.3.58-6.01.03-.88.03-.88.2.3.2,1.45.07,3.62-.43,6.74-.39,2.45-.38,2.57.3,6.49.47,2.71.69,3.62,1.35,5.81.57,1.87.6,2.15.5,4.21-.06,1.21-.18,2.39-.26,2.61-.12.33-.1.36.12.15.15-.14.75-.25,1.33-.25.69,0,1.45-.17,2.17-.49l1.11-.49v-1.06c.01-.58.15-1.79.31-2.67s.4-2.39.52-3.34l.23-1.74-.73-1.54c-.4-.84-.93-1.82-1.18-2.17-.5-.7-.47-.16-.39-8.23.04-3.95.06-4.17.39-3.91.33.25.33.24,0-.15-.2-.23-1.1-.76-2-1.17-.91-.41-2.19-1.01-2.85-1.32-1.63-.77-2.2-.85-2.22-.31M77.26,92.3c0,.08-.03,1.5-.08,3.16l-.08,3.01.97-1.07.97-1.07.67.49c1.59,1.17,5.07,1.73,6.44,1.03.87-.44,2.19-1.5,2.05-1.64-.06-.06-.36.12-.66.41-.3.29-.94.72-1.42.97-.73.37-1.07.43-2.1.33-1.67-.16-3.82-.92-4.54-1.6-.56-.53-.59-.63-.55-2.07l.04-1.51-.8-.28c-.95-.33-.9-.32-.9-.14M79.16,98.42c.12,1.26.06,1.66-.4,3.06-.3.88-.63,1.72-.75,1.86-.35.43,0,.51.81.19.63-.25,3.52-.94,3.94-.94.06,0,.11.11.11.23s-.05.19-.11.13c-.13-.13-2.82.61-4.87,1.33-1.73.61-1.65.6-1.51.22.06-.17.23-.3.37-.3.32,0,.96-1.06,1.61-2.67.36-.87.49-1.59.49-2.58,0-.75-.08-1.37-.18-1.37-.31,0-1.44,1.28-1.77,2-.18.39-.35.76-.39.83-.04.07.09.12.28.1.29-.02.35.15.35,1.1,0,1.16-.16,1.46-1.9,3.64l-.5.63.5-.32c.68-.44,5.81-2.13,6.92-2.29l.9-.12v.88c0,.74-.1.97-.62,1.43-.34.3-.69.55-.78.55-.26,0-2.22.86-2.14.94.04.04.47-.09.96-.3.48-.21,1.19-.43,1.56-.51.65-.13.67-.12.35.23-.18.2-.33.5-.33.67,0,.38-.43.73-1.68,1.36-1.04.52-1.32.9-.96,1.27.17.17.29.16.48-.03.2-.2.18-.23-.1-.12-.23.09-.35.04-.35-.15,0-.31,1.37-1.16,1.87-1.16.41,0,.61.33.31.52-.15.1-.18.06-.08-.11.09-.14-.08-.1-.37.09-.65.43-.65.46,0,.39.3-.03.77-.35,1.09-.72.62-.73.79-1.43.29-1.24-.17.06-.3.01-.3-.11s.14-.28.31-.35c.17-.07.29-.27.26-.44-.03-.18.11-.61.29-.97.19-.35.34-.78.34-.94s.1-.36.22-.44c.31-.19,3.21-.11,3.47.1.21.17,4.05.62,5.25.62.59,0,.64-.07.95-1.17.63-2.24.38-2.55-2.18-2.72-.99-.07-2.41-.17-3.15-.24-1.54-.13-3.39.3-4.09.95-.36.34-.4.51-.26,1.14.23,1,.23,1.04-.12,1.04-.19,0-.3-.19-.3-.49,0-1.07-3.34-6.12-4.04-6.12-.13,0-.15.53-.07,1.45M49.07,99.97c0,1.16.03,1.63.07,1.05s.04-1.53,0-2.1-.07-.11-.07,1.05M123.41,100.32c.63.04,1.67.04,2.31,0s.12-.07-1.15-.07-1.79.03-1.15.07M113.89,100.52c.36.04.99.04,1.4,0,.42-.04.12-.08-.65-.08-.77,0-1.11.03-.76.08M85.88,100.84c-1.65.38-2,.63-2,1.43,0,.38.11.75.24.83.45.28,4.93.97,7.41,1.14l1.33.09.32-1c.64-1.99.38-2.27-2.28-2.44-1.05-.06-2.36-.16-2.91-.21-.55-.05-1.5.02-2.1.16M108,104.28c0,.99.03,1.42.08.96.04-.47.04-1.28,0-1.8-.04-.53-.08-.15-.08.85M80.56,104.49c-.33.16-.44.25-.23.19,1.21-.34,1.33-.34,1.33-.03,0,.17-.16.4-.35.52-.19.11-.26.21-.14.21.32,0,.69-.43.69-.84,0-.44-.47-.45-1.3-.05M120.7,107.73c.36.04.99.04,1.4,0,.42-.04.12-.08-.65-.08-.77,0-1.11.03-.76.08M108.45,108.08c.1.26,3.43.84,3.64.63.06-.06.23,0,.38.12.22.18.25.16.15-.1-.07-.18-.27-.33-.46-.34-.96-.02-2.8-.24-3.27-.39-.41-.13-.52-.11-.44.09M80.05,110.32c-.6.62-1.61,1.47-2.25,1.88-.64.42-1.06.79-.94.83.15.05.17,1.16.05,3.68l-.16,3.6-1,.13-1,.13,1-.07c.55-.04,1.86-.17,2.91-.28,1.05-.11,3.44-.22,5.31-.25,2.76-.04,2.98-.06,1.15-.11-1.24-.04-2.25-.13-2.25-.21.02-.61.52-2.15,1.03-3.14.49-.97.58-1.35.49-2.01-.09-.64,0-1.12.47-2.22.33-.77.53-1.46.45-1.54-.08-.07-.55-.19-1.06-.27l-.92-.13-.36,1.37c-.2.75-.43,1.85-.52,2.43-.15.99-.95,2.68-1.4,2.96-.27.17-1.2,2.01-1.2,2.38,0,.3-.36.63-.51.47-.18-.18.89-2.55,1.66-3.69.62-.93.91-1.66,1.33-3.47.54-2.28.54-2.29.14-2.66-.22-.2-.34-.5-.28-.67.13-.35-.43-.42-.64-.08-.1.16-.18.16-.27,0-.08-.13-.57.23-1.23.91M79.98,110.66c-.53.58-1.36,1.31-1.85,1.62-.97.61-1.07.93-.14.45.62-.32,1.64-1.25,2.54-2.31.94-1.1.49-.9-.55.24M112.04,110.62c-.67.1-.58.13.55.15.74.02,1.35,0,1.35-.05,0-.16-1.13-.22-1.9-.1M109.63,110.8c.07.11.34.2.6.2s.53-.09.6-.2c.07-.12-.17-.2-.6-.2s-.68.08-.6.2M113.94,111.99c-.37.11-.22.15.6.16.76,0,.98-.05.7-.16-.49-.2-.66-.2-1.3,0M111.04,112.35c.33.05.65.15.7.23.06.08.46.03.9-.1.79-.24.78-.25-.7-.23-.83,0-1.23.05-.9.1M115.8,113.24c-.77.47-.88.83-.15.5.27-.13.5-.3.5-.38,0-.08.13-.1.28-.04.15.06.34.01.41-.1.08-.13,0-.16-.21-.08-.23.09-.3.06-.2-.1.18-.29.16-.29-.63.2M73.64,113.73c-.28.17-.72.64-.97,1.05-.45.72-.45.72.31-.13.42-.47,1.04-.94,1.37-1.04.4-.12.47-.18.2-.19-.22,0-.63.13-.91.3M110.01,114.91c-.01.33.02.44.06.25.05-.2.29-.36.58-.38.27-.01.58-.05.69-.08s.44-.06.74-.08c.99-.05.28-.3-.89-.31-1.14-.02-1.15-.01-1.18.59M90.99,120.81c.22.09.76.09,1.2.01.75-.14.73-.15-.4-.16-.81,0-1.07.04-.8.15M96.45,136.41c1.24.04,3.27.04,4.51,0,1.24-.04.23-.06-2.26-.06s-3.5.03-2.26.06M99.57,151.24c.64.04,1.63.04,2.21,0,.57-.04.05-.07-1.16-.07-1.21,0-1.68.03-1.05.07M47.48,154.35l-1.8,1.85,1.85-1.8c1.72-1.67,1.95-1.91,1.8-1.91-.03,0-.86.83-1.85,1.85M48.69,154.35l-1.6,1.65,1.65-1.6c1.54-1.49,1.75-1.71,1.6-1.71-.03,0-.77.74-1.65,1.65M117.22,156.2c0,.77.04,1.06.08.65.04-.42.04-1.05,0-1.4-.04-.36-.08-.02-.08.76M91.66,157.56c-.04.14-.02.88.04,1.65l.12,1.4.04-1.65c.03-1.55-.03-1.99-.19-1.4M97.99,160.91c0,1.82.03,2.56.07,1.65s.04-2.4,0-3.31-.07-.17-.07,1.65"/>
  <path class="st4" d="M98.75,32.36c.74.04,2,.04,2.81,0,.8-.04.2-.07-1.34-.07-1.54,0-2.2.03-1.46.07M98.75,33.36c.74.04,2,.04,2.81,0,.8-.04.2-.07-1.34-.07-1.54,0-2.2.03-1.46.07M112.2,40.13c0,.66.04.91.08.55.04-.36.04-.9,0-1.2-.05-.3-.08,0-.08.66M52.8,51.76c-.82.83-1.45,1.5-1.39,1.5s.77-.68,1.59-1.5,1.45-1.5,1.39-1.5-.77.68-1.59,1.5M53.2,52.81l-1.9,1.95,1.95-1.9c1.82-1.77,2.05-2.01,1.9-2.01-.03,0-.91.88-1.95,1.95M136.8,63.99c.6.61,1.13,1.1,1.19,1.1s-.39-.5-.99-1.1-1.13-1.1-1.19-1.1.39.5.99,1.1M145.41,66.44l-1.7,1.75,1.75-1.7c.96-.93,1.75-1.72,1.75-1.75,0-.15-.23.07-1.81,1.7M74.91,75.61c0,.66.04.91.08.55.04-.36.04-.9,0-1.2-.05-.3-.08,0-.08.66M126.57,80.02c-.05,3.09-.08,5.65-.05,5.7.21.35.25-.83.2-5.72l-.05-5.59-.1,5.61M104.61,82.63c0,2.87.03,4.01.06,2.54.03-1.47.03-3.81,0-5.21-.03-1.4-.06-.2-.06,2.67M79.26,78.46c-.38.15-.92.75-1.53,1.71-.6.95-.6,1,.07.64.34-.18.78-.24,1.15-.16.95.2,2.47,1.04,2.71,1.5.22.42.15,1.36-.23,2.84-.19.73-.58,1.05-.58.47,0-.18-.14-.25-.4-.18-.48.13-.5-.08-.09-.91.17-.35.27-.7.21-.79-.12-.2-.9-.17-1.4.05-.55.24-1.43-.13-1.43-.6s1-.64,1.94-.31c.5.17.57.16.39-.05-.37-.45-1.8-.84-2.08-.57-.26.26-.84.33-.68.08.05-.09-.08-.16-.29-.16-.31,0-.39.15-.41.81-.04,1.4.03,1.76.76,3.82.7,1.96,1.66,3.68,2.46,4.41.57.52.5.88-.23,1.19-.46.19-.79.21-1.21.07-.32-.11-.63-.15-.69-.09-.06.06.19.19.56.29l.67.18-.04,1.53c-.04,1.46-.01,1.56.55,2.09.72.68,2.87,1.44,4.53,1.6,1.03.1,1.38.04,2.15-.34.51-.25,1.16-.71,1.45-1.01.49-.52.53-.7.64-3.02l.11-2.48-.45.4c-.46.41-1.19,1.54-2.63,4.06-1.12,1.97-1.34,1.91-1.23-.35l.09-1.8h-.8c-.52,0-1.06-.17-1.54-.5-.41-.28-.87-.5-1.03-.5s-.29-.17-.29-.37c0-.6.23-.66.68-.18,1.2,1.29,2.5,1.15,4.46-.46,1.64-1.35,2.87-3.01,3.41-4.61.24-.72.57-1.39.74-1.49.25-.16.16-.39-.53-1.37-1.09-1.56-1.9-2.24-2.28-1.93-.15.13-.26.38-.23.56.04.23-.08.31-.4.28-.33-.03-.51.09-.65.45-.23.6-1.11.69-1.52.15-.16-.21-.27-.25-.27-.1,0,.36-.94.31-1.09-.07-.52-1.35.29-1.99,2.52-1.99h1.55l-.54-.47c-.96-.83-2.6-1.8-3.39-2-1.03-.26-3.3-.44-3.67-.29M121.24,81.33c0,1.27.03,1.79.07,1.15s.04-1.67,0-2.31-.07-.12-.07,1.15M91.69,80.07c0,.75-.18,1.93-.63,4.23-.16.84-.28,1.04-.52.95-.27-.1-.27-.07-.04.21.15.18.26.7.24,1.16l-.03.83.2-.86c.11-.47.29-.8.39-.74.1.06.63.8,1.17,1.64.9,1.4,1,1.49,1.2,1.1.12-.23.22-.79.22-1.24,0-.5.08-.78.2-.7.27.17.25.07-.09-.62-.16-.32-.62-1.84-1.02-3.37-.78-2.97-1.3-3.99-1.3-2.57M121.25,92.05c0,4.52.03,6.4.06,4.17.03-2.23.03-5.92,0-8.22-.03-2.3-.06-.47-.06,4.05M79.79,86.57c-.21,1.07.96,1.93,2.26,1.66.4-.08.88-.13,1.07-.11.65.08,1.19-.37,1.12-.94-.05-.42-.17-.54-.58-.56-.29-.01-.63-.09-.77-.17-.14-.09-.43.02-.69.27-.4.38-.52.39-1.14.17-.74-.26-1.03-.53-.87-.79.05-.09.01-.16-.09-.16s-.24.28-.31.63M94.5,87.64c-.03.11-.03.44-.01.74.02.3-.2.94-.48,1.42-.62,1.05-.63,1.14-.14,1.01.42-.11.93-2.02.77-2.88-.05-.27-.11-.4-.14-.29M82.64,88.44c-.06.06-.66.13-1.35.16-1.28.06-1.61.27-1.62.99,0,.51.88.87,1.45.59.25-.12.95-.27,1.55-.34l1.1-.12-.47.4c-.34.29-.77.4-1.5.41h-1.03s.47.4.47.4c.74.61,2.06.53,2.88-.17.36-.31.82-.63,1.01-.7.49-.18.44-.88-.1-1.22-.46-.3-2.21-.61-2.39-.42M126.66,94.16c0,3.14.03,4.43.06,2.86.03-1.57.03-4.14,0-5.71-.03-1.57-.06-.29-.06,2.86M91.79,89.15c-.07.11-.1.21-.06.22.03,0,.28.06.55.1.27.05.61.19.76.31.15.12.34.16.42.08.2-.2-.71-.91-1.17-.91-.2,0-.42.09-.49.2M122.45,95.76c0,2.48.03,3.5.06,2.26.04-1.24.04-3.27,0-4.51-.04-1.24-.06-.23-.06,2.26M96.7,91.75c.17.11.5.2.75.2.25,0,.88.23,1.4.5.52.27,1.81.89,2.86,1.37,1.05.48,2.03,1.02,2.18,1.21.15.18.36.34.47.34.49,0-1.19-1.1-2.78-1.82-.97-.44-2.22-1.02-2.77-1.28-1.02-.49-2.7-.9-2.1-.51M91.79,91.95c.38.16,2.06.28,1.89.13-.05-.04-.58-.12-1.19-.18-.69-.07-.95-.05-.7.06M108.01,98.97c0,2.04.03,2.87.07,1.85.04-1.02.04-2.69,0-3.71-.04-1.02-.07-.19-.07,1.85M32.84,100.07c0,2.09.03,2.92.07,1.84.04-1.08.04-2.79,0-3.81s-.07-.13-.07,1.96M33.83,99.97c0,1.49.03,2.1.07,1.35.04-.74.04-1.96,0-2.71-.04-.74-.07-.14-.07,1.35M151.5,99.97c0,1.16.03,1.63.07,1.05s.04-1.53,0-2.1-.07-.11-.07,1.05M166.73,99.87c0,.88.04,1.22.08.75.04-.47.04-1.19,0-1.6-.04-.41-.08-.02-.08.86M117.31,100.32c.69.04,1.78.04,2.41,0s.06-.07-1.26-.07c-1.32,0-1.84.03-1.14.07M85.88,100.84c-1.65.38-2,.63-2,1.43,0,.38.11.75.24.83.45.28,4.93.97,7.41,1.14l1.33.09.32-1c.64-1.99.38-2.27-2.28-2.44-1.05-.06-2.36-.16-2.91-.21-.55-.05-1.5.02-2.1.16M76.31,101.86c-.52.66-.94,1.7-.77,1.88.19.19.86-.7,1.13-1.52.29-.85.14-1-.37-.36M81.57,103.32c-1.5.36-5.95,1.97-6.58,2.38-.42.27-1.71,1.46-2.87,2.64l-2.11,2.15.06,2.47c.05,2.17.11,2.51.45,2.76.74.54,1.27.35,1.96-.71.74-1.13,1.37-1.51,3-1.82,1.5-.29,3.08-1.34,4.98-3.32.83-.86,1.32-1.43,1.1-1.26-.93.71-1.97,1.2-2.16,1-.34-.34-.03-.73.99-1.24,1.29-.65,1.68-.98,1.68-1.43,0-.35-.06-.34-.75.13-1.51,1.02-3.49,1.36-2.96.5.15-.25,2.91-1.6,3.27-1.6.11,0,.47-.25.81-.55.51-.45.62-.7.62-1.4,0-.81-.03-.86-.55-.83-.3.01-.73.07-.95.12M80.06,104.66c-2.52,1.05-3.26,1.62-2.62,2.02.19.12,3.7-1.19,4.17-1.55.38-.29.31-.95-.1-.94-.19,0-.85.22-1.45.47M110.82,110.82c-.06.1.46.17,1.16.16,1.4-.02,1.37-.1-.09-.24-.53-.05-1-.01-1.06.08M112.94,112.18c.47.13.45.15-.27.29-.42.08-.73.19-.68.24.05.05.62-.03,1.27-.18,1.15-.26,1.17-.27.51-.4-.87-.17-1.48-.14-.82.05M110.22,116.61c.02,1.28.03,1.3.57,1.33.49.02.5.01.06-.06-.45-.08-.5-.19-.57-1.33l-.08-1.24.02,1.3M81.07,120.03c-1.14.1-1.03.12.89.15,1.2.02,2.15,0,2.1-.04-.19-.16-1.77-.23-2.99-.11M76.9,120.39c-.14.09.31.13,1,.09,1.82-.11,2.05-.2.55-.23-.72-.01-1.42.05-1.56.14M89.79,120.82c.33.08.83.16,1.1.16.45,0,.46,0,.1-.16-.22-.09-.72-.17-1.1-.16h-.7s.6.16.6.16M105.79,122.72c0,.88.04,1.22.08.75.04-.47.04-1.19,0-1.6-.04-.41-.08-.02-.08.86M96.17,125.13c0,.88.04,1.22.08.75.04-.47.04-1.19,0-1.6s-.08-.02-.08.86M105.59,127.84c0,.94.03,1.32.08.85.04-.47.04-1.24,0-1.7-.04-.47-.08-.09-.08.85M119.12,126.68c-.04.14-.02.61.05,1.05q.13.79.16-.25c.03-1.02-.05-1.31-.21-.8M79.93,128.24c0,.72.04,1.01.08.65.04-.36.04-.94,0-1.3-.04-.36-.08-.07-.08.65M96.18,130.34c0,1.54.03,2.15.07,1.34.04-.8.04-2.07,0-2.81-.04-.74-.07-.08-.07,1.46M103.39,131.24c0,.83.04,1.17.08.75.04-.41.04-1.09,0-1.5-.04-.41-.08-.08-.08.75M129.24,133.15c0,.77.04,1.06.08.65.04-.42.04-1.05,0-1.4-.04-.36-.08-.02-.08.76M151.35,142.25c-.99.99-1.47,1.35-1.75,1.28-.21-.05-.38-.05-.38,0s.17.14.38.2c.28.07.79-.31,1.85-1.38.81-.81,1.42-1.48,1.37-1.48s-.72.62-1.47,1.38M51.8,151.19c-.82.83-1.45,1.5-1.39,1.5s.77-.68,1.59-1.5,1.45-1.5,1.39-1.5-.77.68-1.59,1.5M115.71,153.72c-.04.89,0,1.66.09,1.72.08.05.15-.68.15-1.62s-.04-1.72-.09-1.72-.11.73-.15,1.62M103,154.45c-.26.18-.55.91-.3.76.1-.06.23.05.29.24.06.19.08.1.04-.2-.04-.35.05-.63.26-.75.18-.1.23-.19.12-.19-.11,0-.3.06-.42.14M97.97,156.3c0,.83.04,1.17.08.75.04-.41.04-1.09,0-1.5-.04-.41-.08-.08-.08.75M99.53,157.05c-.01.58.05,1.05.14,1.05s.13-.34.09-.75c-.12-1.29-.2-1.39-.23-.3M99.51,162.32c0,1.03.04,1.83.09,1.78.14-.14.18-3.39.04-3.53-.07-.07-.13.71-.13,1.74M97.65,167.68c.47.04,1.24.04,1.7,0,.47-.04.09-.08-.85-.08s-1.32.03-.85.08M102.07,167.68c.47.04,1.19.04,1.6,0,.41-.04.02-.08-.86-.08-.88,0-1.22.04-.75.08"/>
  <path class="st1" d="M98.27,32.56c1.14.04,2.94.04,4.01,0,1.07-.04.14-.07-2.07-.07-2.21,0-3.08.03-1.94.07M98.47,33.16c.91.04,2.36.04,3.21,0,.85-.04.1-.07-1.66-.07-1.76,0-2.46.03-1.54.07M79.1,35.76c-.81.28-1.43.54-1.39.58.04.04.84-.19,1.77-.51.93-.32,1.55-.58,1.39-.58-.17,0-.96.23-1.77.51M78.7,36.56c-.81.28-1.43.54-1.39.58.04.04.84-.19,1.77-.51.93-.32,1.55-.58,1.39-.58-.17,0-.96.23-1.77.51M69.45,39.84c-1.26.66-2.39,1.3-2.51,1.41-.17.17,4.81-2.33,5.09-2.55.41-.33-.68.15-2.58,1.14M101.05,40.16c-.08.08-.13.33-.13.56.01.41.02.41.19.02.15-.35.18-.32.21.2.03.48.06.51.13.16.1-.5-.19-1.15-.4-.93M59.21,46.37c-.5.39-1.04.85-1.2,1.02s.26-.11.95-.63c.69-.52,1.25-.98,1.25-1.03,0-.14-.05-.11-1,.64M72.85,47.05c0,.11.1.2.21.2s.15.11.07.25c-.08.14-.07.18.03.1.09-.09.63.28,1.18.8.84.79.8.74-.18-.3-1.27-1.33-1.31-1.36-1.31-1.05M65.67,47.89c-.28.28-.31,1.14-.07,1.52.1.16.16-.07.15-.59-.02-.74.05-.87.48-.99.42-.12.44-.15.09-.16-.23-.01-.52.09-.65.22M96.46,49c.36.04.9.04,1.2,0,.3-.05,0-.08-.66-.08-.66,0-.91.04-.55.08M102.87,49c.36.04.94.04,1.3,0,.36-.04.07-.08-.65-.08s-1.01.04-.65.08M52.9,51.91l-1.8,1.85,1.85-1.8c1.72-1.67,1.95-1.91,1.8-1.91-.03,0-.86.83-1.85,1.85M53,52.81l-2.1,2.16,2.16-2.1c2-1.95,2.25-2.21,2.1-2.21-.03,0-1,.97-2.16,2.16M147.02,52.36c.93.94,1.74,1.7,1.8,1.7s-.66-.77-1.59-1.7-1.74-1.7-1.8-1.7.66.77,1.59,1.7M147.72,52.06c.65.66,1.24,1.2,1.29,1.2s-.44-.54-1.09-1.2-1.24-1.2-1.29-1.2.44.54,1.09,1.2M56.7,53.51l-1.2,1.25,1.25-1.2c1.16-1.11,1.34-1.31,1.2-1.31-.03,0-.59.56-1.25,1.25M120.36,52.94c0,.1,2.19,1.12,2.38,1.11.17-.01-.88-.57-1.71-.92-.37-.15-.67-.24-.67-.19M77.41,54.08c-.63.33-1.15.64-1.15.69,0,.09,2.39-1.05,2.59-1.23.26-.24-.44.02-1.44.54M48.17,57.12c-.47.58-.99,1.21-1.15,1.4-.16.19-.24.35-.18.35s.62-.63,1.24-1.4c.62-.77,1.09-1.4,1.04-1.4s-.48.47-.95,1.05M69.61,58.66c-.54.44-.39.8.17.39.32-.24.59-.77.39-.77-.04,0-.29.17-.55.38M67.57,60.29c-.73.67-1.32,1.28-1.31,1.35.05.39-.06.5-.23.24-.12-.18-.2-.21-.2-.06,0,.55.38.39,1.26-.5.51-.52.93-1.03.92-1.14,0-.11.1-.23.24-.28.16-.05.19.02.08.2-.09.15.02.12.24-.07.31-.27.57-.95.36-.95-.02,0-.64.55-1.37,1.22M147.37,61.84c-1.93,1.94-2.17,2.25-1.72,2.25.13,0,.17-.06.09-.14-.08-.08.74-1.02,1.82-2.1,1.08-1.08,1.91-1.96,1.86-1.96s-.98.88-2.05,1.96M105.23,62.48c-.2.22-.3.54-.23.71.07.18.04.27-.08.2-.33-.21-.22.44.24,1.39l.44.9-.69.8c-.38.44-.79.8-.91.81-.13,0-.62-.16-1.1-.38-.48-.22-1.25-.4-1.7-.4-.66,0-.9-.11-1.15-.5-.18-.27-.53-.59-.77-.71-.34-.17-.32-.12.1.21.71.55.69.71-.08.98-.35.12-1.25.58-2.01,1.02-.76.44-1.74.9-2.18,1.03-.75.23-.84.2-1.68-.4-1.19-.85-1.99-1-2.68-.49-.3.22-.78.46-1.08.53-.7.17-.92.84-.44,1.36.24.27.51.36.82.28.69-.17.6.54-.16,1.18-.34.29-.5.52-.35.52.15,0,.65.43,1.12.95.7.78.85.88.85.53,0-.3.18-.47.65-.61.73-.21.98-.82.47-1.18-.18-.13-.38-.52-.45-.87-.16-.81.2-.83,1.54-.1,1.25.68,2.12.59,4.4-.47,2.78-1.3,3.5-1.29,5.61.08,1.53.99,1.78,1.64,1.19,3-.39.9-.41,1.19-.28,3.58.08,1.43.11,5.63.08,9.32-.04,3.69-.07,7.34-.07,8.1,0,1.44-.23,1.8-.81,1.31-.26-.21-.3.29-.34,3.94-.08,8.07-.11,7.53.39,8.23.25.35.78,1.33,1.18,2.17l.73,1.54-.23,1.74c-.12.96-.36,2.46-.52,3.34s-.3,2.08-.31,2.66v1.05s1.1,0,1.1,0c1.19,0,2.23-.34,2.67-.87.15-.18.51-.33.8-.33.42,0,.46-.04.23-.2-.25-.16-.22-.22.17-.33.46-.13.47-.17.36-1.95-.06-1-.17-2.07-.24-2.38-.15-.6-.09-.64,1.16-.85,1.17-.19.91-.54-.35-.49-.61.03-1.21-.05-1.33-.17-.25-.25-.52-1.36-.78-3.16-.09-.66-.27-1.74-.39-2.41-.14-.77-.25-6.94-.31-17.31-.09-15.74-.1-16.12-.49-16.76-.54-.88-.52-1,.29-1.73.38-.35.75-.8.81-.99.15-.47,2.75-1.48,3.85-1.48.71,0,.96.11,1.54.71.78.8,2.29,1.39,3.6,1.39.79,0,1.37-.23,2.86-1.12.85-.51,1.04-.25.39.52-.63.75-.67,1.56-.12,2.26.25.32.33.56.2.64-.11.07-.15.21-.09.32.07.11,0,.17-.15.14-.2-.04-.28.31-.32,1.35-.08,2.26-.34,2.8-.95,1.97-.33-.45-.9-.2-.9.39,0,.56.35.95.84.95.2,0,.36.12.36.26s-.5,1.56-1.12,3.16c-.61,1.6-1.55,4.12-2.09,5.61-1.04,2.89-4.5,12.37-4.84,13.27-.14.35-.41.58-.79.67-.82.18-.9.43-.35,1.19.95,1.32,2.37,2.76,1.85,1.87-.08-.14.05-.08.29.13.52.46.58.67.08.32-.19-.14,0,.08.45.49,1.69,1.56,4.43,2.49,7.82,2.66,1.87.09,2.48.04,4.01-.34.99-.25,1.85-.51,1.9-.58.06-.07.73-.44,1.49-.83,1.59-.8,3.37-2.47,4.1-3.85l.49-.92-.74-1.53c-.41-.84-.74-1.57-.74-1.62s-.21-.56-.47-1.14c-.26-.58-.99-2.32-1.62-3.87-.63-1.54-1.42-3.46-1.75-4.25l-.6-1.45.03-6.37.03-6.37.54-.6.54-.6-.65.59-.65.59v5.78c0,3.18-.07,5.78-.15,5.77-.17,0-3.36-7.28-3.36-7.66,0-.13.22-.29.5-.36.63-.15,1.04-1.13.6-1.41-.43-.27-.54-.24-.65.21-.15.58-.49.49-.85-.22-.25-.49-.27-.75-.11-1.23.25-.71.29-2.22.06-2.44-.08-.08-.15-.48-.15-.88,0-.65-.07-.74-.58-.83-.76-.14-.84-.42-.25-.97.42-.4.5-.41.73-.14.52.62,1.39.12,1.4-.81,0-.48-.64-1.16-.89-.93-.09.08-.11.04-.03-.09.22-.38-.68-.87-1.59-.87-.57,0-1.08.17-1.61.53-1.01.69-2.23.83-3.39.38-1.11-.42-1.24-.62-.77-1.18q.37-.44-.05-.08c-.4.34-.45.33-1.37-.18-.83-.46-1.11-.52-2.16-.42-.73.07-1.61.32-2.21.63-.55.29-1.1.52-1.23.52-.13,0-.56-.44-.96-.98l-.73-.98.38-.62c.52-.85.49-1.9-.06-2.41-.56-.53-1.59-.53-2.06-.02M123.36,62.4c-.32.2-.36.26-.1.16.22-.08.76-.21,1.2-.29l.8-.15-.7-.02c-.39-.01-.93.12-1.2.29M136.6,63.99c.93.94,1.74,1.7,1.8,1.7s-.66-.77-1.59-1.7-1.74-1.7-1.8-1.7.66.77,1.59,1.7M66.56,63.53c.05.08.49.15.97.15.61,0,.9.09.97.3.07.21.08.2.06-.05-.02-.27-.27-.38-1.07-.46-.57-.06-.99-.03-.94.05M145.51,66.54l-1.6,1.65,1.65-1.6c1.54-1.49,1.75-1.71,1.6-1.71-.03,0-.77.74-1.65,1.65M40.47,68.9c-.5.99-.86,1.8-.81,1.8s.51-.81,1.01-1.8.86-1.8.81-1.8-.51.81-1.01,1.8M153.53,68.95l-1.2,1.25,1.25-1.2c.69-.66,1.25-1.22,1.25-1.25,0-.15-.2.03-1.31,1.2M160.09,69.19c.35.71.67,1.26.71,1.22.09-.09-1.12-2.52-1.26-2.52-.05,0,.19.58.54,1.3M56.96,72.56c-1.13,1.84-1.19,1.95-1.09,1.95.05,0,.43-.56.85-1.25.42-.69.9-1.46,1.05-1.7s.24-.45.19-.45-.5.65-1,1.45M76.54,72.18c-.06.15-.08.67-.04,1.15.06.85.07.84.16-.28.1-1.17.07-1.38-.12-.87M78.97,74.51c-.88.44-1.71.8-1.85.8-.2,0-.24.55-.18,2.52.08,2.51.19,3.1.45,2.37.08-.21.53-.78,1.01-1.26l.88-.88,1.7.14c.93.08,2.01.25,2.39.38,1.46.51,3.89,2.64,6.59,5.78.72.84.81.69,1.14-1.83.13-1.05.32-2.17.42-2.49.1-.32.13-.63.08-.69-.06-.06-.1,0-.1.13,0,.45-.36.23-.49-.3-.18-.71-2.99-3.39-4.1-3.91-1.39-.65-4.65-1.57-5.53-1.57-.53,0-1.33.27-2.39.8M74.72,76.02c0,.99.03,1.42.08.96.04-.47.04-1.28,0-1.8-.04-.53-.08-.15-.08.85M120.82,77.07c-.07.19-.37,1.03-.68,1.85-.31.83-1.33,3.62-2.28,6.21-.95,2.59-2.12,5.79-2.61,7.12-.49,1.32-1.34,3.64-1.9,5.15-.56,1.51-1.01,2.85-1.01,2.99,0,.19.63.22,2.74.12,1.51-.07,3.54-.13,4.51-.13h1.77v-11.83c0-7.99-.07-11.83-.21-11.83-.11,0-.26.16-.33.35M122.16,83.08c0,2.73.06,7.74.13,11.13l.13,6.16h4.34l.06-5.56.06-5.56.05,5.56.05,5.56h2.41c1.43,0,2.41-.08,2.41-.2,0-.11-.17-.58-.39-1.05-.21-.47-.52-1.17-.69-1.56-.95-2.21-1.86-4.28-2.43-5.53-.36-.78-.72-1.64-.81-1.9-.08-.27-.25-.61-.36-.75-.38-.47-.98-2.31-1.03-3.14-.06-.94-.7-2.54-.85-2.13-.06.15-.02.33.08.4.18.13.7,1.66.6,1.77-.07.07-2.28-4.87-3.04-6.8-.3-.74-.57-1.35-.62-1.35s-.08,2.23-.08,4.96M121.84,81.43c0,1.32.03,1.84.07,1.14.04-.69.04-1.78,0-2.41s-.07-.06-.07,1.26M123.24,79.64c.07.18.18.54.24.8.07.27.2.48.3.48.24,0,.23-.1-.11-.91-.28-.67-.68-1.02-.43-.38M74.53,81.63c0,1.21.03,1.68.07,1.05.04-.64.04-1.63,0-2.21-.04-.57-.07-.05-.07,1.16M77.5,81.04c-.55.39-.4.7.32.66q.54-.02-.06-.16l-.6-.13.48-.27c.3-.16.83-.23,1.38-.16.56.06.79.03.62-.07-.45-.28-1.65-.21-2.14.13M86.34,82.16c.09.27-.11.35-1.11.46-.67.08-1.38.24-1.59.38-.31.19-.42.18-.58-.06-.16-.26-.19-.25-.19.05,0,.38.69.5.9.15.2-.32.45-.23.56.2.11.43.65.52,1.14.19.26-.17.25-.24-.09-.5-.36-.28-.33-.3.45-.3.88,0,.98-.1.62-.6-.19-.26-.2-.26-.11.03M118.2,82.78c-.52,1.05-1.51,3.97-1.38,4.09.05.05.42-.79.83-1.88.41-1.08.82-2.18.93-2.44.33-.82.07-.66-.38.23M79.22,82.9c.21.13.2.22-.06.43-.25.21-.43.21-.86.03-.51-.22-.52-.21-.16.07.49.38.61.38,1.21-.01.27-.18.6-.26.74-.19s.08,0-.13-.18c-.21-.17-.53-.31-.7-.31-.24,0-.25.04-.05.17M107.41,85.74c0,1.6.03,2.25.07,1.45.04-.8.04-2.11,0-2.91-.04-.8-.07-.15-.07,1.45M80.49,84.27c-.01.13-.08.37-.14.54-.09.23-.01.28.3.19.31-.08.42-.01.43.27.01.21.11.07.21-.3.11-.37.14-.72.08-.79-.06-.06-.11.04-.11.22,0,.44-.55.43-.66-.02-.05-.19-.1-.25-.11-.12M89.49,85.72c-.11.21-.2.51-.19.65,0,.15.11.01.22-.3.13-.36.32-.54.54-.5.29.06.33.44.33,3.15s.05,3.1.3,3.17c.25.07.25.05.02-.11-.23-.16-.26-.73-.16-3.1.12-2.91.04-3.35-.59-3.35-.14,0-.35.17-.46.39M121.84,89.35c0,1.82.03,2.56.07,1.65s.04-2.4,0-3.31-.07-.17-.07,1.65M82.2,86.96c-.28.32-.42.35-.79.18-.42-.21-.43-.2-.07.09.39.31,1.13.13,1.13-.28,0-.28,1.43-.09,1.62.22.11.18.18.19.18.04,0-.63-1.58-.82-2.07-.24M79.86,87.03c0,.33,1.34,1.31,1.78,1.31.16,0-.11-.21-.58-.46-.48-.25-.91-.58-.96-.73-.06-.18,0-.22.17-.11.17.1.21.08.11-.07-.2-.33-.52-.29-.52.06M84.41,88.88c.24.05.55.22.69.39.21.25.15.39-.34.81l-.59.5.65-.43c.36-.24.65-.5.65-.59,0-.3-.74-.82-1.12-.79-.32.02-.32.04.05.11M79.66,89.48c0,.57.57.71,2.01.46.78-.13,1.38-.28,1.33-.33-.05-.05-.7.02-1.45.15-1.24.22-1.38.21-1.63-.13-.15-.2-.27-.27-.27-.15M115.5,89.99c-.17.36-.67,1.7-1.11,2.96-.79,2.27-1.32,3.72-1.65,4.51-.09.22-.22.67-.28,1l-.12.6.28-.5c.15-.28.62-1.54,1.03-2.81s.87-2.49,1-2.71c.34-.56,1.35-3.52,1.24-3.63-.05-.05-.23.2-.4.57M71.22,90.8c-1.01,1.31-1.04,1.35-.93,1.35.06,0,.48-.5.93-1.1.46-.61.79-1.1.74-1.1s-.38.38-.75.85M107.41,94.66c0,2.65.03,3.7.06,2.34.03-1.36.03-3.52,0-4.81-.03-1.29-.06-.18-.06,2.47M81.31,90.79c.04.13.21.27.37.32.25.07.25.05,0-.12-.22-.15-.07-.22.6-.28l.89-.08-.97-.03c-.67-.02-.94.04-.89.2M88.55,92.85c0,.66.04.91.08.55.04-.36.04-.9,0-1.2-.05-.3-.08,0-.08.66M95.63,91.98c-.23.14-1.13.19-2.36.14-1.09-.04-1.81-.01-1.59.07.35.13.38.28.28,1.31-.13,1.39-.32,1.66-.82,1.2-.35-.32-.44-.29-1.53.36-.64.38-1.25.64-1.37.57-.13-.08-.17.03-.1.3.12.46-.7,1.25-1.99,1.91-1.37.7-4.85.14-6.44-1.03l-.67-.49-.98,1.07-.98,1.07.12-2.96c.07-1.63.06-2.96,0-2.96s-.5.15-.95.33c-.59.24-.75.38-.56.5.19.13.16.16-.13.14-.22-.02-.58-.02-.8,0-.34.03-.35.07-.1.25.24.17.2.18-.15.08-.52-.15-2.84.99-3.83,1.88-.34.3-.89,1.16-1.22,1.91-.66,1.47-.7,1.61-.44,1.44.09-.06.18.5.18,1.24,0,.74.14,1.69.3,2.11.32.85.24,1.74-.15,1.74-.36,0-.61-.36-1.07-1.51-.26-.65-.44-.89-.51-.7-.65,1.68-.99,2.96-1.13,4.27-.19,1.75-.31,2.01-2.35,5.08-1.61,2.41-2.03,3.52-2.56,6.67-.36,2.16-.31,3.57.14,3.87.22.14.21.21-.03.37-.37.24,1.45.24,3.41,0l1.3-.16-1.6.06c-.88.03-1.42-.01-1.2-.09.24-.09.55-.55.75-1.13.45-1.25.85-1.76,1.24-1.61.21.08.31.38.31.92,0,.69.09.85.59,1.11.33.17.89.32,1.25.34.58.03.55.05-.24.17l-.9.14.93.03c.61.02,1.01-.07,1.18-.27.14-.17.4-.31.58-.32.21-.01.24-.05.08-.12-.3-.12-.32-1.09-.06-2.41.3-1.52.39-2.53.28-3.02-.14-.57-.47-.59-.47-.02s-1.67,2.23-2.14,2.14c-.67-.13-.48-.69.78-2.26.69-.86,1.37-1.76,1.51-1.99.23-.4.25-.39.25.2,0,1.67.69,2.56,1.81,2.35l.5-.1-.07,2.14-.07,2.14.71-.08c.39-.05.66-.01.61.08s-.34.16-.64.16c-.3,0-.67.1-.84.21-.22.16-.14.18.33.09.35-.07,1.57-.23,2.71-.37l2.07-.24.16-3.58c.09-1.97.13-3.61.08-3.66s-.79.1-1.66.32c-1.6.4-1.89.59-2.99,2.04-.55.72-1.33.88-1.93.39-.46-.37-.47-.47-.42-2.99l.05-2.61,2.24-2.17c3.29-3.19,3.42-3.33,4.18-4.38.6-.82.7-1.12.7-2.09,0-.94-.05-1.12-.35-1.1-.19.02-.32-.03-.28-.1.04-.07.21-.44.39-.83.33-.73,1.46-2,1.77-2,.1,0,.18.62.18,1.37,0,.99-.14,1.7-.49,2.58-.65,1.61-1.29,2.67-1.61,2.67-.14,0-.31.14-.37.3-.15.38-.23.39,1.51-.22,2.05-.72,4.75-1.45,4.87-1.33.06.06.11,0,.11-.13s-.05-.23-.11-.23c-.42,0-3.31.69-3.94.94-.81.33-1.16.25-.81-.19.12-.14.45-.98.75-1.86.47-1.4.52-1.79.4-3.06-.09-.93-.06-1.45.07-1.45.71,0,4.04,5.05,4.04,6.12,0,.3.11.49.3.49.35,0,.35-.04.12-1.04-.15-.63-.11-.8.26-1.14.7-.65,2.56-1.08,4.09-.95.74.06,2.16.17,3.15.24,2.56.17,2.81.48,2.18,2.72-.31,1.1-.36,1.17-.95,1.17-1.19,0-5.04-.45-5.25-.62-.25-.2-3.16-.29-3.45-.11-.11.07-.25.4-.32.73-.15.77-.97,1.6-1.57,1.61-.25,0-.6.09-.76.2-.25.16-.24.19.09.2.39,0,.39,0,0,.32-.28.23-.2.22.31-.05.39-.2.86-.49,1.05-.65.31-.25.35-.24.35.03,0,.17-.14.36-.3.43-.17.06-.3.22-.3.34s.14.18.3.11c.59-.23.3.59-.5,1.43-.44.46-.8.9-.8.98s.11.04.24-.09c.34-.34.83-.3.69.06-.06.16.06.47.28.67.39.37.39.38-.14,2.66-.42,1.81-.71,2.54-1.33,3.47-.76,1.14-1.83,3.51-1.66,3.69.16.16.51-.17.51-.47,0-.37.93-2.22,1.2-2.38.45-.28,1.25-1.97,1.4-2.96.09-.58.32-1.67.52-2.43l.36-1.37.92.13c.51.07.98.19,1.06.27.08.07-.13.77-.45,1.54-.46,1.1-.57,1.58-.47,2.22.1.66,0,1.04-.49,2.01-.51,1-1.01,2.53-1.03,3.15,0,.08.91.15,2.02.15s2.53.13,3.16.29c1.57.4,5.75.72,6.84.53.85-.15.82-.16-.6-.19-.83-.02-1.62-.1-1.75-.19-.18-.12-.29-1.4-.38-4.66-.18-6.34-.04-7.35,1.96-13.28,1.38-4.1,2.58-8.66,2.66-10.06.03-.47-.58-.61-1.15-.28M82.78,92.93c-.36.14-.36.16-.03.29.57.22.92.16.92-.17s-.27-.36-.89-.12M98.33,94.76c-.06,1.72-.25,3.72-.58,6.01-.18,1.27-.34,2.89-.34,3.61,0,1.66.95,6.78,1.7,9.12.79,2.47.85,2.91.63,5.21-.1,1.1-.14,2.08-.09,2.17.28.46.5-.44.6-2.5.11-2.14.07-2.41-.5-4.28-.67-2.19-.88-3.1-1.35-5.81-.68-3.92-.69-4.04-.3-6.49.49-3.12.63-5.29.43-6.74-.16-1.18-.17-1.18-.2-.3M84.74,95.78l-.36.62-.13-.57c-.11-.48-.13-.43-.15.3-.03,1,.17.96.75-.16.49-.94.41-1.08-.11-.19M70.99,95.79c-.31.23-.65.61-.76.85q-.21.43.15.03c.2-.22.62-.6.94-.85.73-.56.42-.58-.33-.02M33.04,99.87c0,2.43.03,3.39.06,2.14.04-1.25.04-3.23,0-4.41-.04-1.18-.06-.16-.06,2.27M151.31,99.97c0,1.93.03,2.72.07,1.75.04-.96.04-2.54,0-3.51-.04-.96-.07-.18-.07,1.75M66.45,97.05c-.14.17-.21.77-.16,1.55l.07,1.27.04-1.31c.02-.72.15-1.42.28-1.55.13-.13.19-.24.12-.24s-.22.13-.35.28M33.63,99.77c0,1.6.03,2.25.07,1.45.04-.8.04-2.11,0-2.91-.04-.8-.07-.15-.07,1.45M121.67,98.26c-.09.8-.06,1.43.07,1.65.16.27.21-.05.22-1.29,0-.91-.03-1.65-.07-1.65s-.14.58-.22,1.29M167.55,100.07c0,1.76.03,2.46.07,1.54.04-.91.04-2.36,0-3.21-.04-.85-.07-.1-.07,1.66M166.94,99.97c0,1.05.03,1.48.08.95s.04-1.38,0-1.9-.08-.1-.08.95M68.64,99.43c0,.07-.19.6-.42,1.19-.23.58-.33.97-.23.86.28-.3.88-1.94.75-2.06-.06-.06-.11-.05-.11.02M107.39,101.47c0,.77.04,1.06.08.65.04-.42.04-1.05,0-1.4-.04-.36-.08-.02-.08.76M123.52,100.72c.47.04,1.24.04,1.7,0,.47-.04.09-.08-.85-.08s-1.32.03-.85.08M76.19,101.83c-.41.55-1.14,2.14-1.14,2.46,0,.05.09.1.2.1s.2-.14.2-.3.14-.3.31-.3c.3,0,1.29-1.81,1.29-2.36,0-.44-.36-.27-.86.4M49.26,103.18c0,.72.04,1.01.08.65.04-.36.04-.94,0-1.3-.04-.36-.08-.07-.08.65M107.6,105.28c0,1.1.03,1.53.07.95.04-.58.04-1.48,0-2-.04-.52-.07-.04-.07,1.06M80.77,104.6c-.33.16-.31.17.15.08.79-.15.68.17-.17.48-.39.14-.67.3-.62.35.19.19,1.54-.52,1.54-.82,0-.35-.3-.38-.9-.09M78.71,105.38c-1.2.57-1.68,1.22-.9,1.21.29,0,.3-.03.06-.19-.38-.24-.33-.29,1.21-1,.71-.33,1.2-.6,1.09-.61-.11,0-.76.26-1.45.58M78.91,107.3c-.25.17-.45.4-.45.5,0,.29.84.21,1.4-.13.34-.21.37-.26.1-.17-.22.08-.58.18-.8.23-.36.08-.36.05.07-.32.55-.49.32-.56-.33-.1M107.95,108.41c.01.38.1.96.19,1.29.11.4.12.19.05-.6-.12-1.33-.28-1.76-.24-.69M80.21,108.64c-.41.24-.75.55-.75.7,0,.31.19.33.6.06.22-.14.23-.2.04-.2-.14,0-.21-.09-.14-.2s.26-.2.42-.2c.18,0,.24.09.15.24-.08.13.14.04.49-.21.35-.25.64-.49.64-.54,0-.23-.78-.03-1.45.36M114.34,108.95c0,.09.1.26.22.38.34.34.05.61-.83.76-.44.07-.8.22-.8.32,0,.18.2.22,1.75.3,1.58.08,1.92.48.8.97l-.65.28.76.02c.86.02,1.16.43.77,1.06-.22.35-.2.37.15.18.31-.17.39-.4.36-1.13-.03-.85-.1-.96-.89-1.45-.55-.35-.85-.68-.85-.95,0-.41-.34-.89-.64-.89-.09,0-.16.07-.16.16M79.98,110.66c-.53.58-1.36,1.31-1.85,1.62-.97.61-1.07.93-.14.45.62-.32,1.64-1.25,2.54-2.31.94-1.1.49-.9-.55.24M68.12,110.5c-1.45.95-3.13,2.54-4.19,3.94-.88,1.17-1.15,1.97-.68,1.97.23,0,1.76-1.34,4.57-3.98.82-.77,1.56-1.36,1.65-1.3.09.06.16-.08.16-.3s.05-.54.12-.71c.2-.52-.52-.35-1.64.38M109.26,113.7c.07.44.19,1.25.27,1.8l.15,1v-1c.02-.55-.11-1.36-.26-1.8l-.28-.8.12.8M113.24,114l-1.4.37,1.14.02c1.12.02,2.16-.28,2.16-.62,0-.23-.27-.2-1.9.23M97.3,120.96l.8.08v2.49c0,1.37.07,2.49.15,2.49.08,0,.11-1.15.05-2.56l-.1-2.56-.85-.02-.85-.02.8.08M100.2,121.03c-.07.12-.08.27-.01.33.07.07.12.02.12-.11,0-.32,1.54-.3,1.67.02.06.15.11.11.12-.1.01-.28-.15-.35-.87-.35-.49,0-.95.1-1.02.21M105.59,123.13c0,.88.04,1.22.08.75.04-.47.04-1.19,0-1.6-.04-.41-.08-.02-.08.86M96.4,127.59v5.56s.81.02.81.02l.8.02-.75-.08-.75-.08-.06-5.5-.06-5.5v5.56M103.79,125.03c0,.94.03,1.32.08.85.04-.47.04-1.24,0-1.7-.04-.47-.08-.09-.08.85M131.05,125.83c0,.83.04,1.17.08.75.04-.41.04-1.09,0-1.5-.04-.41-.08-.08-.08.75M119.26,128.34c0,1.36.07,2.43.15,2.37.08-.05.15-1.12.15-2.37s-.07-2.32-.15-2.37c-.08-.05-.15,1.02-.15,2.37M109.62,126.7c-.06.16-.08.64-.03,1.07l.08.77.04-.9c.03-.66.09-.82.23-.6.17.26.19.25.2-.04,0-.45-.37-.67-.51-.3M105.4,128.54c0,1.1.03,1.53.07.95.04-.58.04-1.48,0-2-.04-.52-.07-.04-.07,1.06M98.14,129.39c.03,1.58.11,1.39.21-.5.03-.58-.01-1.05-.09-1.05-.08,0-.14.7-.12,1.55M42.93,129.05c-.63.33-1.15.64-1.15.69s.54-.17,1.2-.51,1.2-.65,1.2-.7c0-.13.04-.15-1.25.52M103.59,130.34c0,.88.04,1.22.08.75.04-.47.04-1.19,0-1.6-.04-.41-.08-.02-.08.86M79.74,129.74c.02.68.09.81.48.83.36.02.37,0,.06-.06-.28-.06-.42-.3-.48-.83l-.09-.74.02.8M130.78,131.65c0,.59.06,1.01.14.93.14-.14.09-1.76-.06-1.91-.05-.05-.08.4-.08.99M109.16,132.69c-.03.7-.07.74-.78.82l-.75.08.76.03c.84.04,1.03-.19.89-1.1-.07-.49-.09-.46-.12.17M34.04,134.93c-.65.59-1.14,1.11-1.08,1.15.06.04.64-.45,1.29-1.08,1.5-1.46,1.37-1.5-.2-.07M165.54,136.19c.66.7.94,1.14.85,1.36-.07.19-.04.28.07.2.39-.24.18-.63-.85-1.61l-1.05-.99.98,1.04M91.45,136.6c.47.04,1.19.04,1.6,0,.41-.04.02-.08-.86-.08-.88,0-1.22.04-.75.08M104.17,136.6c.52.04,1.38.04,1.9,0s.1-.08-.95-.08-1.48.03-.95.08M165.31,139.21c-.94,1.4-1.09,1.65-.99,1.65.05,0,.5-.63,1.02-1.4s.89-1.4.84-1.4-.44.52-.87,1.15M151.22,142.62l-1.3,1.35,1.35-1.3c.74-.71,1.35-1.32,1.35-1.35,0-.15-.2.04-1.41,1.3M37,143.37c.35.71.67,1.26.71,1.22.09-.09-1.12-2.52-1.26-2.52-.05,0,.19.58.54,1.3M143.99,144.18c.59.28,1.12.47,1.16.43.05-.05-.3-.24-.78-.43-1.37-.55-1.55-.55-.38,0M142.28,146.02c-.54.63-.87,1.08-.74,1,.28-.17,1.95-2.15,1.82-2.15-.05,0-.53.51-1.07,1.14M49.94,146.79c-.74.38-1.35.74-1.35.79,0,.09,2.79-1.24,2.99-1.43.27-.25-.47.04-1.64.64M151.83,147.94c0,.08,2.29,1.51,2.71,1.69.11.05,0-.08-.25-.28-.52-.42-2.46-1.54-2.46-1.41M50.8,150.99c-.82.83-1.45,1.5-1.39,1.5s.77-.68,1.59-1.5,1.45-1.5,1.39-1.5-.77.68-1.59,1.5M48.89,153.9c-1.65,1.65-2.96,3.01-2.9,3.01s1.45-1.35,3.1-3.01,2.96-3.01,2.9-3.01-1.45,1.35-3.1,3.01M117.22,153.3c0,.94.03,1.32.08.85.04-.47.04-1.24,0-1.7-.04-.47-.08-.09-.08.85M158.35,152.37c.99.9,1.5,1.22,1.5.93,0-.11-.12-.21-.28-.21s-.39-.14-.53-.31c-.14-.17-.54-.5-.88-.72-.48-.32-.44-.25.18.31M149.93,153.5c.65.66,1.24,1.2,1.29,1.2s-.44-.54-1.09-1.2-1.24-1.2-1.29-1.2.44.54,1.09,1.2M157.44,152.34s.52.52,1.15,1.06c.63.54.97.77.75.52-.42-.48-1.9-1.71-1.9-1.58M116.02,154.3c0,.94.03,1.32.08.85.04-.47.04-1.24,0-1.7-.04-.47-.08-.09-.08.85M149.02,153.42c0,.1,1.01,1.18,2.26,2.39l2.26,2.2-2.21-2.3c-1.21-1.26-2.23-2.34-2.26-2.39-.03-.05-.05,0-.05.1M160.32,155.2c0,1.1.03,1.53.07.95.04-.58.04-1.48,0-2-.04-.52-.07-.04-.07,1.06M159.71,155.7c0,.72.04,1.01.08.65.04-.36.04-.94,0-1.3-.04-.36-.08-.07-.08.65M92.97,156.5c0,1.05.03,1.48.08.95.04-.52.04-1.38,0-1.9-.04-.52-.08-.1-.08.95M98.18,156.4c0,.99.03,1.42.08.96.04-.47.04-1.28,0-1.8-.04-.53-.08-.15-.08.85M41.41,157.33c.15.09.72.16,1.27.16,1.2-.02,1-.12-.47-.24-.63-.05-.96-.02-.8.08M42.13,158.05c.36.04.9.04,1.2,0,.3-.05,0-.08-.66-.08-.66,0-.91.04-.55.08M99.39,160.38c-.06.15-.07,1.12-.04,2.16l.07,1.89.04-2.07c.03-1.5.1-2.03.27-1.92.14.09.18.06.09-.09-.19-.3-.31-.29-.43.03M93.16,162.22c0,.66.04.91.08.55.04-.36.04-.9,0-1.2-.05-.3-.08,0-.08.66M98.27,166.88c1.14.04,2.94.04,4.01,0,1.07-.04.14-.07-2.07-.07-2.21,0-3.08.03-1.94.07M96.86,167.47c.36.04.9.04,1.2,0,.3-.05,0-.08-.66-.08-.66,0-.91.04-.55.08M102.87,167.47c.36.04.94.04,1.3,0,.36-.04.07-.08-.65-.08s-1.01.04-.65.08"/>
  <path class="st5" d="M96.5,32.74c-.39.04-1.69.16-2.91.28-5.26.5-12.4,2.1-15.94,3.56-.28.11-1.27.5-2.21.86-1.73.66-3.08,1.39-2,1.08.28-.08.86-.33,1.3-.55,1.25-.63,6.86-2.47,9.58-3.13,5.25-1.28,9.93-1.82,15.88-1.82,6.04,0,10.69.52,16.07,1.81,2.29.55,7.97,2.37,8.74,2.8.19.11.46.19.6.19,1.23-.03-6.41-2.55-10.54-3.48-3.37-.75-4.87-.99-9.15-1.42-2.59-.26-7.53-.35-9.42-.17M97.7,36.61c0,.1.17,1.34.39,2.76.21,1.42.49,3.25.61,4.08.35,2.37.36,2.41.89,2.41.45,0,.49-.1.81-2.36.18-1.3.4-2.62.48-2.94.18-.73.64-.93.63-.28,0,.26.15,1.62.34,3.02.32,2.41.37,2.56.79,2.56.58,0,.58-.03,1.67-6.52.5-2.99.5-2.91-.07-2.91-.45,0-.49.12-.8,2.16-.18,1.19-.33,2.43-.33,2.76s-.09.74-.2.9c-.18.27-.22.27-.39,0-.11-.17-.2-.6-.2-.96,0-.36-.1-1.31-.21-2.1-.41-2.86-.38-2.78-.85-2.71-.39.06-.47.33-.91,2.97-.26,1.6-.52,2.95-.57,3-.23.23-.44-.58-.66-2.57-.37-3.34-.39-3.44-.94-3.44-.26,0-.48.08-.48.18M89.89,37.32c-.83.13-1.49.32-1.48.42.1.7,1.32,8.29,1.39,8.63.07.33.19.4.59.33.59-.11.61-.29.21-2.55-.32-1.78-.26-1.9.84-1.91.71,0,.93-.21.74-.7-.1-.26-.3-.3-.99-.2-1.06.16-1.26-.13-1.34-1.85l-.05-1.17,1.06-.19c.78-.14,1.03-.26.95-.47-.06-.15-.11-.36-.11-.46s-.07-.17-.15-.15c-.08.02-.83.13-1.65.26M108.78,37.28c-1.01.46-1.72,2.54-1.95,5.76-.16,2.16.18,2.96,1.42,3.39,1.76.61,2.7-.32,3.3-3.22.42-2.03.5-4.06.2-4.85-.35-.92-1.99-1.51-2.97-1.07M109.38,38.16c-.43.17-.8,1.11-1.13,2.86-.44,2.3-.42,3.87.05,4.3.72.65,1.47.21,1.85-1.09.33-1.11.77-4.53.64-5.03-.22-.89-.76-1.29-1.41-1.03M128.38,39.06c.94.44,1.87.9,2.07,1,.2.11.42.15.48.09.13-.13-3.61-1.93-3.98-1.91-.15,0,.49.38,1.43.82M115.81,39.58c-1.57,4.13-2.18,5.68-2.6,6.56l-.48,1,.52.17c.29.1.54.14.57.1.03-.04.46-1.15.96-2.47.96-2.52,1.55-3.31,1.28-1.69-.08.48-.26,1.75-.39,2.82-.23,1.82-.22,1.95.12,2.04.38.1.45-.03,2.33-3.78.93-1.86,1.01-1.3.26,1.8-.32,1.32-.53,2.46-.46,2.53.07.07.31.18.53.25.38.11.46-.15,1.3-4.34.49-2.45.9-4.54.9-4.64s-.2-.25-.45-.35c-.42-.16-.55.02-1.9,2.73-.79,1.6-1.53,2.9-1.63,2.9-.11,0-.13-.44-.06-1.05.28-2.22.57-5.39.5-5.45-.04-.04-.25-.12-.47-.19-.34-.1-.47.05-.84,1.03M82.92,38.82c-.91.22-1.22.53-1.47,1.47-.25.94-.08,2.03.73,4.68.66,2.15,1.46,3.07,2.69,3.07,2.25,0,2.73-1.63,1.6-5.44-.74-2.48-1.22-3.34-2.11-3.71-.37-.15-.69-.27-.72-.26-.03.01-.35.09-.71.18M69.54,40.1c-7.7,4.05-14.25,9.19-19.5,15.27-1.05,1.21-2.11,2.45-2.36,2.74-.6.69-3.53,4.97-4.76,6.94-1.35,2.18-3.99,7.44-4.75,9.46-.35.94-.72,1.88-.82,2.1-.43.93-1.6,4.82-2.26,7.52-.81,3.32-1.44,7.35-1.73,11.1-.84,10.76,1.21,22.47,5.69,32.57.51,1.14.92,2.15.92,2.24s-.92.77-2.05,1.52c-1.13.75-2.16,1.46-2.3,1.57-.13.11-.82.7-1.54,1.31-.71.61-1.26,1.14-1.22,1.18.04.04.52-.32,1.05-.8.54-.48,1.51-1.24,2.16-1.68.65-.44,1.23-.85,1.28-.92.41-.51,6.26-3.72,8.72-4.79.55-.24,1.46-.65,2.03-.91.56-.26,2.14-.85,3.51-1.3,1.37-.45,2.76-.94,3.09-1.09.33-.15,2.04-.66,3.81-1.14,1.76-.48,3.03-.9,2.81-.93-.22-.03-1.39.23-2.61.57-3.44.97-3.13,1.09-4.39-1.66-2.89-6.26-4.36-13.15-4.39-20.61-.02-4.52.43-9.07,1.17-11.83,1.53-5.68,1.93-6.8,3.79-10.62,1.69-3.49,3.66-6.75,5.13-8.54.28-.34.65-.79.81-1,1.44-1.81,2.3-2.8,3.59-4.13.83-.85,1.43-1.62,1.34-1.7-.22-.21-3.99,3.8-5.79,6.16-2.54,3.32-5.05,7.67-6.65,11.53-1.68,4.05-2.43,6.69-3.24,11.44-.47,2.75-.54,3.79-.56,7.5-.02,5.44.11,6.95.97,11.15.87,4.27,2.54,9.29,4.04,12.14.27.51.49,1.02.49,1.14s-1.01.54-2.26.96c-3.06,1.02-6.46,2.43-9.6,3.99-1.44.72-2.68,1.3-2.75,1.3s-.25-.29-.41-.65c-.15-.36-.55-1.24-.87-1.95-2.5-5.5-4.85-14.5-5.31-20.35-.24-3.01-.16-13.05.12-15.04.39-2.78,1.01-5.98,1.64-8.52.58-2.32,2.56-8.4,2.98-9.13.27-.47,1.83-3.89,1.83-4.01,0-.18,2.94-5.28,3.98-6.91,4.33-6.77,11.04-13.74,17.47-18.15.94-.64,1.75-1.23,1.8-1.3.16-.2,3.35-2.07,5.01-2.93.83-.43,1.55-.83,1.6-.89s.39-.23.75-.38c.36-.14.65-.34.65-.44,0-.23.17-.3-2.1.89M82.8,40c-.43.47-.42,1.17.06,3.14.44,1.82.91,3.04,1.37,3.56.45.5,1.18.44,1.56-.14.28-.42.29-.65.09-1.65-.39-1.93-1.22-4.24-1.72-4.77-.55-.6-.91-.63-1.36-.14M131.99,40.79c0,.09.4.36.88.59.73.35,4.1,2.47,5.6,3.5,2.11,1.46,6.5,5.02,6.81,5.51.09.14.27.26.4.25.32,0-1.76-1.94-3.76-3.5-1.47-1.14-2.46-1.85-5.72-4.09-1.45-1-4.21-2.49-4.21-2.28M123.67,42.89c-.41.91-1.26,2.83-1.9,4.26l-1.16,2.61,1.53.73c1.36.65,1.56.69,1.78.41.38-.48.33-.56-.76-1.03-1.13-.49-1.13-.43-.27-2.37.5-1.13.79-1.26,1.69-.76.35.19.58.22.75.07.45-.37.27-.71-.55-1.04-.87-.35-.95-.56-.51-1.45.16-.32.38-.83.5-1.13.25-.66.32-.66,1.5-.16q.92.39,1.14-.02c.12-.23.19-.44.14-.48-.06-.06-3-1.29-3.09-1.29-.01,0-.36.74-.77,1.65M73.37,42.5c-.34.25-.3.4.77,2.63.62,1.3,1.08,2.42,1.02,2.48-.06.06-1-.82-2.07-1.96-1.66-1.77-2.02-2.05-2.4-1.93-.25.08-.45.26-.45.41s.9,2.07,1.99,4.28c1.76,3.54,2.04,4,2.41,3.9.23-.06.41-.19.41-.3s-.51-1.27-1.13-2.59c-1.14-2.42-1.27-3.2-.33-2.09.28.33,1.18,1.3,2.01,2.15,1.39,1.44,1.53,1.53,1.95,1.3q.45-.25-1.5-4.35c-1.07-2.26-2.03-4.13-2.13-4.16-.1-.03-.34.06-.54.21M129.15,45.49c-2.66,4.78-3.07,5.51-3.42,6-.37.53-.37.54.02.75.76.41.61.57,2.4-2.76.84-1.58,1.23-1.99,1.23-1.32,0,.18-.24,1.49-.54,2.92-.46,2.22-.5,2.63-.25,2.78.16.1.38.18.5.19.12,0,.96-1.33,1.88-2.95.92-1.63,1.93-3.39,2.24-3.91.68-1.13.68-1.18.18-1.5-.35-.22-.45-.14-.96.7-.31.52-.79,1.38-1.07,1.9-.27.53-.7,1.2-.96,1.5l-.46.55.1-.7c.06-.39.29-1.72.53-2.98.41-2.19.41-2.28.06-2.55-.2-.15-.41-.28-.47-.28-.06,0-.52.74-1.02,1.65M65.3,46.85c-1.08.44-1.36,1.85-.67,3.37.68,1.51,2.61,4.21,3.29,4.64,1.03.64,2.02.54,2.84-.27.83-.83.88-1.58.21-3.03-.45-.95-2.14-3.55-2.61-4.01-.88-.86-2.02-1.12-3.06-.7M65.67,47.89c-.46.46-.25,1.42.67,2.98,1.65,2.81,2.91,3.9,3.66,3.15.51-.51.25-1.48-.88-3.29-1.74-2.77-2.72-3.58-3.45-2.85M95.35,49.27c-6.41.57-13.55,2.77-19.4,5.96-.55.3-1.41.77-1.9,1.04-.5.27-1.22.72-1.6,1-.39.28-.97.64-1.29.81-.51.26-.53.3-.18.35.22.03.96-.31,1.63-.75.67-.45,1.31-.81,1.42-.81s.22-.07.26-.15c.1-.22,2.31-1.54,3.37-2.02,4.84-2.17,6.5-2.79,9.49-3.54,4.67-1.17,8.19-1.6,13.17-1.59,4.68,0,7.65.32,11.53,1.21,2.03.46,6.59,1.93,8.02,2.58.33.15,1.01.43,1.5.62.5.19,1.13.5,1.4.68s1.4.81,2.51,1.39c1.1.58,2.73,1.57,3.61,2.2.88.63,1.85,1.29,2.14,1.48s.75.54,1,.79c.26.25,1.07.97,1.81,1.59,2.38,2.01,4.81,4.74,7.17,8.07,2.76,3.88,2.46,3.39,4.11,6.73,2.18,4.4,2.88,6.22,3.79,9.87,1.41,5.64,1.71,7.93,1.71,13.08,0,3.18-.33,7.3-.78,9.62-.64,3.32-2.25,8.52-3.42,11.03-.41.88-.92,2.03-1.13,2.56-.3.75-.48.95-.85.95-.59,0-.4.32.26.45.34.06.5,0,.5-.17,0-.15.29-.84.65-1.53.36-.69.76-1.53.89-1.86.13-.33.42-1.05.64-1.6,1.95-4.83,2.89-8.53,3.46-13.63.27-2.43.12-11.26-.22-13.13-1.58-8.68-3.9-14.76-8.01-20.95-2.02-3.04-3.53-4.85-6.52-7.8-4.59-4.52-9.13-7.68-14.6-10.14-.75-.34-1.4-.61-1.46-.61s-.48-.18-.95-.39c-.47-.21-1.66-.66-2.65-.99-6.51-2.17-14.1-3.03-21.1-2.41M60.35,50.51c-.38.28-.28.43,3.75,5.52,1.79,2.26,1.8,2.27,2.19,1.88.39-.39.38-.41-2.46-4.02-1.57-2-2.92-3.63-2.99-3.63s-.29.11-.49.25M138.86,51.18c-.42.51-1.74,2.09-2.93,3.52-1.19,1.43-2.14,2.67-2.1,2.75.16.4,2.43,2.04,2.68,1.94.5-.19.3-.81-.42-1.28-.38-.25-.7-.56-.7-.7,0-.21,1.84-2.58,3.78-4.88,1.43-1.69,1.45-1.75.84-2.08-.33-.18-.5-.07-1.15.72M146.02,50.73c0,.09.48.68,1.07,1.3,3.02,3.2,4.52,4.92,6.1,7.03.96,1.28,1.8,2.37,1.86,2.42.35.28,4.36,7.15,5.19,8.9,5.59,11.69,7.72,23.63,6.51,36.39-.17,1.8-.27,3.31-.22,3.35.3.3.73-5.72.73-10.28,0-5.5-.38-9.01-1.67-15.31-.42-2.04-1.87-6.66-2.99-9.52-.96-2.44-3.87-8.43-4.7-9.67-.21-.31-1-1.5-1.76-2.66-1.6-2.42-2.96-4.24-4.86-6.52-1.57-1.88-5.25-5.69-5.25-5.44M56.67,53.72c-1.34,1.34-1.42,1.48-1.15,1.83.29.38.3.38.76-.05.26-.24.56-.44.67-.44s1.46,1.35,2.99,3c2.62,2.82,2.8,2.98,3.14,2.68.2-.18.36-.4.36-.48s-1.2-1.44-2.66-3c-1.46-1.56-2.69-2.93-2.73-3.03-.04-.11.13-.4.37-.66.38-.41.4-.52.17-.89-.14-.23-.31-.42-.37-.42-.06,0-.75.66-1.55,1.45M143.98,56.13c-.74.46-2,1.26-2.81,1.78-.81.52-2.03,1.27-2.73,1.68-1.21.7-1.25.75-.92,1.11.43.48.6.47,1.23-.02.68-.54.98-.51,1.56.15.6.69.61.92.06,1.67l-.44.6.46.45c.29.27.5.36.55.22.05-.12,1.21-1.91,2.58-3.98,1.37-2.06,2.5-3.79,2.5-3.85,0-.12-.54-.68-.64-.66-.04,0-.67.39-1.4.85M142.12,58.39c-1.64,1.22-1.62,1.19-1.24,1.78.41.63.84.65,1.15.06.13-.25.43-.69.66-.98.9-1.15,1.12-1.46,1.12-1.61,0-.34-.55-.1-1.69.76M52.6,57.97c-.33.4-.3.46,1.53,3.01.87,1.21,2.07,2.91,2.66,3.77l1.08,1.56.39-.42c.38-.41.38-.42-.13-1.1-.66-.87-.65-1.1.09-1.82l.61-.59.82.47q.81.47,1.21.07t-1.08-1.25c-.81-.47-2.67-1.56-4.13-2.43-1.46-.87-2.69-1.58-2.73-1.58s-.19.13-.33.3M145.5,62.21c-1.75,1.83-3.21,3.39-3.24,3.47s.08.27.26.41c.37.31.98.07,3.77-1.46.97-.53,1.85-.94,1.95-.9.1.03-.77,1.03-1.93,2.2-1.72,1.74-2.09,2.22-1.99,2.56.17.54.41.52,1.51-.11.5-.28,2.32-1.24,4.05-2.12,2.92-1.48,3.13-1.63,2.91-1.99-.13-.21-.32-.39-.42-.39s-1.22.59-2.49,1.3c-3.37,1.9-3.42,1.82-.64-1.09,1.74-1.82,1.96-2.13,1.71-2.38-.25-.25-.62-.11-2.82,1.05-1.39.74-2.63,1.31-2.75,1.27-.12-.04.74-1.02,1.92-2.19,2.13-2.1,2.14-2.11,1.77-2.54l-.37-.43-3.19,3.32M54.6,60c0,.22,2.06,2.89,2.23,2.89.27,0,.98-.77.97-1.05,0-.25-1.26-1.15-1.61-1.15-.1,0-.19-.08-.19-.17s-.23-.27-.51-.4c-.56-.26-.89-.3-.89-.11M48.96,62.99c-.29.16-.81.72-1.16,1.24l-.64.96.46.3c.25.17,1.9,1.33,3.66,2.58,1.76,1.25,3.3,2.31,3.41,2.36.27.1.79-.73.57-.91-.09-.08-.83-.62-1.63-1.21-1.94-1.41-1.68-1.65.89-.82l1.96.63.35-.46c.39-.52.6-.41-2.57-1.36-1.39-.42-1.67-.65-1.67-1.4,0-.54-.74-1.38-1.61-1.82-.91-.46-1.3-.48-2.02-.09M48.99,64.19c-.37.45-.13.82,1.08,1.62,1.23.82,1.72.8,1.72-.07,0-1.19-2.13-2.36-2.8-1.55M152.22,68.67c-1.53,1.7-2.24,2.31-3.49,3.04-.87.5-1.61,1-1.64,1.1-.03.11.06.35.21.55.25.33.39.29,2.01-.67,1.55-.91,2.03-1.08,4.39-1.55,1.46-.29,2.69-.55,2.73-.59.05-.03-.03-.27-.17-.54l-.26-.48-1.33.39c-1.9.55-2.43.65-2.43.44,0-.1.59-.77,1.3-1.48.72-.71,1.3-1.34,1.3-1.39,0-.06-.16-.29-.35-.53-.34-.42-.36-.41-2.26,1.7M45.43,67.95c-.12.25-.5.92-.83,1.49l-.61,1.04,1.65.98c.91.54,2.37,1.37,3.26,1.85.88.48,1.92,1.08,2.3,1.33s.79.47.9.47.55-.64.97-1.42c.61-1.13.71-1.47.52-1.7-.38-.46-.57-.35-1.03.61-.24.5-.58.9-.76.9-.39,0-2.61-1.37-2.61-1.61,0-.1.15-.5.34-.9.3-.63.31-.74.05-.91-.43-.27-.45-.26-.95.6-.35.61-.53.76-.8.65-.82-.34-2.04-1.05-2.17-1.27-.08-.13.07-.62.32-1.09.39-.72.43-.91.21-1.17-.35-.43-.51-.4-.77.13M81.07,69.62c-.61.16-1.43.38-1.83.49-.79.22-2.09,1.4-2.4,2.18-.22.55-.01,2.83.25,2.83.1,0,.83-.33,1.62-.74,2.07-1.05,2.94-1.08,5.72-.2,1.23.39,2.49.84,2.8,1.01.77.4,3,2.46,3.7,3.42.31.43.57.68.57.56s.46-.68,1.01-1.24c.78-.78.98-1.11.89-1.42-.34-1.07-3.86-5.03-4.71-5.3-.22-.07-.4-.2-.4-.29,0-.39-1.09-.82-2.84-1.12-2.67-.47-3.14-.49-4.38-.17M156.54,73.21c-.7.33-5.66,2.52-6.77,2.98-.41.17-.75.36-.75.42,0,.41,1.31,2.92,1.52,2.92.45,0,.5-.35.17-1.19-.18-.45-.28-.93-.23-1.07.05-.14.72-.5,1.48-.8,1.3-.52,1.39-.53,1.64-.19.14.19.31.56.37.8.12.48.39.56.86.26.24-.15.24-.26-.05-.69-.59-.9-.44-1.21.86-1.79.66-.29,1.28-.54,1.37-.54s.38.45.64,1.01c.32.68.57.97.75.9.15-.06.32-.11.36-.11.21,0,.04-.57-.55-1.84-.35-.75-.73-1.37-.85-1.36-.12,0-.49.13-.82.29M42.82,74.61c-.5.22-.8.58-1.25,1.54-.33.69-.53,1.31-.45,1.39.36.32,8.37,3.56,8.48,3.43.25-.28.78-2.13.78-2.71,0-1.31-1.5-2.37-4.96-3.54-1.45-.49-1.74-.5-2.62-.12M42.89,75.83c-.6.6-.38,1.06.74,1.57,2.73,1.24,5.18,2.16,5.46,2.05.48-.18.39-1.39-.15-1.88-.82-.75-4.1-2.06-5.18-2.06-.31,0-.7.14-.87.31M155.54,79.95c-2.32.77-4.29,1.47-4.38,1.56-.09.09-.07.34.04.56.2.38.25.38,1.97-.18,2.03-.66,2.07-.66,2.07-.28,0,.16-.72.81-1.6,1.45-1.56,1.13-1.79,1.46-1.42,2.04.14.22.51.02,1.72-.9,2.21-1.69,2.06-1.61,2.51-1.33,1.01.63,3.45-.11,3.97-1.19.21-.45.2-.76-.07-1.85-.18-.72-.39-1.31-.46-1.3-.07,0-2.02.65-4.34,1.41M157.44,80.4c-1.34.54-1.58,1.12-.61,1.52.52.22.75.2,1.52-.09.99-.38,1.34-.82,1.16-1.48-.14-.55-.62-.54-2.07.05M39.43,81.94c-.31,1.16-.36,1.64-.19,1.69.13.04,1.77.49,3.64,1,1.87.51,3.8,1.05,4.27,1.21.66.21.88.22.94.04.04-.13.26-.82.49-1.53.52-1.61.52-1.61-.05-1.61-.39,0-.5.16-.72,1-.14.55-.35,1-.47,1s-.84-.19-1.61-.42l-1.4-.42.13-.96c.1-.78.07-.99-.19-1.09-.18-.07-.35-.12-.38-.12s-.12.31-.19.68c-.2,1.05-.48,1.18-1.84.83-1.54-.4-1.63-.51-1.32-1.64.28-1.03.29-.98-.28-1.15-.37-.11-.45.04-.84,1.49M78.04,81.14c-.36.22-.26.28.99.55,1.46.32,1.87.3,1.18-.06-.86-.45-1.87-.68-2.16-.49M85.08,81.72c-.16.1-.36.14-.45.09s-.16,0-.16.11-.16.21-.35.21c-.3,0-.31-.03-.05-.22.25-.18.24-.2-.07-.1-.2.07-.44.12-.53.12s-.15.22-.13.48c.03.46.06.47.57.2.3-.15.9-.28,1.33-.28.55,0,.83-.1.92-.33.17-.44-.06-.64-.29-.27-.13.2-.19.21-.19.04,0-.3-.19-.31-.59-.06M159.12,85.63c-.34.15-.89.62-1.2,1.04-1.3,1.72-2.19,2.48-2.91,2.48-.79,0-1.17-.3-1.17-.9,0-.23.11-.53.24-.66.34-.34-.04-.66-.59-.51-.38.1-.45.25-.45,1,0,1.14.46,1.82,1.39,2.07,1.43.38,2.47-.17,3.84-2.05.58-.8,1.18-1.4,1.47-1.47,1.18-.3,2.06.33,1.57,1.11-.39.62-.3.84.3.77.49-.06.56-.15.61-.91.08-1.07-.22-1.62-1.07-1.98-.83-.35-1.21-.35-2.02,0M38.16,87.28c-.13.64-.28,1.36-.34,1.61s-.06.45-.01.45,2.02.36,4.38.81c2.36.44,4.4.76,4.54.71.38-.15.31-.87-.1-.98-.19-.05-.98-.21-1.75-.34-1.99-.35-2.1-.43-1.9-1.33.19-.86.11-1.07-.4-1.07-.28,0-.41.2-.51.8-.07.44-.21.84-.29.9-.29.18-2.65-.34-2.75-.6-.05-.14,0-.6.11-1.02.12-.42.19-.78.16-.8-.02-.02-.24-.1-.48-.17-.4-.12-.46-.03-.67,1.03M90.04,86.25c-.08.08-.14.79-.13,1.57.02,1.34.03,1.38.21.62.21-.89.16-2.43-.08-2.19M82.37,87.24c-.11.17-.42.35-.68.4-.26.05-.53.15-.6.22-.07.07.18.08.55,0,.37-.07.93-.13,1.24-.13.42,0,.55-.09.51-.35-.07-.45-.76-.56-1.02-.15M80.32,89.24c-.19.22-.17.33.09.54.29.23.31.22.19-.1-.11-.29-.06-.34.23-.25.24.08.37.02.37-.19,0-.38-.55-.38-.88-.01M82.5,89.12c-.17.11.09.14.66.1.81-.06.95-.01,1.11.38.1.25.19.32.19.17,0-.16.14-.22.31-.16.41.16.38-.07-.05-.39-.39-.3-1.81-.36-2.23-.1M87.13,90.49c-.47.51-.85.98-.85,1.03s.11,0,.24-.13c.37-.37.6-.28.37.15-.36.68-.23.67.34-.02.3-.37.64-.73.75-.81.13-.09.11-.15-.04-.15-.18,0-.19-.14-.06-.5.1-.28.17-.5.15-.49s-.43.43-.9.94M89.91,90.88c-.03,1.17.13,1.37,1.28,1.54.55.08.71.06.5-.07-.17-.11-.54-.19-.84-.19-.56,0-.55.04-.83-1.81-.04-.28-.09-.04-.1.53M88.84,92.4c.11,1.8.21,1.89.23.2,0-.8-.06-1.45-.15-1.45s-.13.56-.09,1.25M84.49,92.74c-.31.24-.4.41-.25.5.13.08.23.52.24.98.01.65.05.75.19.44.16-.37.17-.36.19.1.03.75.4.07.41-.73,0-.34.14-.74.3-.88s.3-.38.3-.55c0-.25-.05-.26-.32-.04-.23.19-.36.2-.45.04-.1-.15-.28-.11-.61.13M91.49,93.32c0,.65-.32.83-.74.42-.15-.15-.25-.12-.33.1-.08.22,0,.31.26.31.21,0,.47.15.58.34.15.27.22.14.33-.61.08-.52.09-1.01.02-1.08-.07-.07-.12.16-.12.51M68.37,101.19c-.12.45.17,1.46.59,2.08.24.36.26.34.19-.2-.25-1.95-.56-2.7-.78-1.88M166,112.37c-.76,4.23-2.3,9.45-4.04,13.67-.49,1.2-.9,2.3-.89,2.44,0,.48,1.69-3.56,2.6-6.26.24-.72.52-1.48.62-1.7.58-1.29,2.26-8.95,2.15-9.77-.03-.24-.23.49-.43,1.62M65.45,113.26c-.12.12-.22.33-.22.47s-.11.28-.25.33c-.14.05-.18.16-.09.26.09.09.43-.11.77-.45.47-.47.55-.64.32-.73-.16-.06-.4-.01-.52.11M68.74,115.11c-.09.22-.35.62-.58.9-.24.28-.28.38-.09.24.27-.2.35-.2.43,0,.13.34.58-.82.48-1.23-.06-.26-.11-.24-.24.08M70.3,116.62c.02.2.19.32.44.3.23-.01.47.05.53.15.07.1.17,0,.23-.23.09-.33-.01-.41-.56-.48-.52-.06-.66,0-.64.25M69.79,119.37c-.17.85-.29,1.57-.28,1.59.01.02.45-.02.98-.08l.95-.11v-1.11c0-1.29-.16-1.31-.27-.03-.07.83-.12.89-.72.95-.54.05-.63,0-.54-.3.16-.58.38-2.47.28-2.47-.05,0-.23.7-.39,1.55M125.37,119.96c1.49.17,6.94,1.22,11.03,2.13.72.16,2.65.66,4.3,1.11,1.65.45,3.05.82,3.11.81.54-.03-2.04-.92-4.3-1.48-.66-.16-2.42-.61-3.91-.99-1.49-.38-3.7-.84-4.91-1.03s-2.64-.42-3.17-.52c-.53-.1-1.39-.17-1.9-.15-.8.03-.84.04-.24.11M64.89,121.02c.06.22.02.4-.08.4s-.18.15-.18.32c0,.24.12.29.45.2.25-.07.72-.12,1.05-.13.46,0,.53-.05.3-.2-.17-.11-.46-.14-.64-.09-.25.08-.38-.04-.47-.41-.07-.28-.22-.51-.33-.51s-.15.18-.1.4M96.6,121.19c-.05.05-.09,2.75-.09,5.99v5.89l.75-.06c.85-.07.79.18.83-3.31.02-1.66.08-2.03.31-1.94.15.06.32.3.38.54.05.24.46,1.38.91,2.54l.81,2.1.84.06c.46.03.81-.02.77-.11-.04-.1-.6-1.5-1.24-3.11l-1.17-2.93.75-1.96c.41-1.08.92-2.34,1.12-2.8.47-1.06.47-1.08-.08-.98-.25.05-.59.09-.77.1-.21.01-.63.82-1.29,2.52-.54,1.38-1.05,2.51-1.14,2.51-.15,0-.27-2.39-.22-4.24.02-.69-.02-.74-.67-.81-.38-.04-.73-.04-.78.01M90.29,122.87c-.14.91-.51,3.37-.82,5.46-.32,2.09-.62,4.1-.67,4.46-.09.63-.06.65.59.65s.69-.02.81-.98c.19-1.41.3-1.52,1.62-1.52h1.15s.34,1.1.34,1.1c.32,1.05.37,1.1,1.01,1.1.48,0,.67-.09.64-.3-.02-.16-.44-1.74-.95-3.5-.5-1.76-1.2-4.31-1.55-5.66l-.64-2.46h-1.29l-.25,1.65M104.05,123.18c-.07,1.07-.18,3.78-.25,6.01l-.13,4.06h1.4l.12-2.56c.07-1.41.18-4.11.26-6.01l.13-3.46h-1.41l-.12,1.95M108.64,121.47c-.04.14-.13.98-.18,1.86-.06.88-.25,3.38-.44,5.55s-.29,4.09-.22,4.26c.07.18.36.31.69.31h.57l.29-3.61c.17-2.1.37-3.61.49-3.6.11,0,.3.53.42,1.16.12.63.51,2.29.87,3.68l.65,2.54.68.08c.52.06.68,0,.68-.23,0-.17.09-1.3.19-2.52.1-1.21.29-3.42.4-4.91.12-1.49.26-3.09.32-3.56l.11-.85h-.71c-.39,0-.72.07-.72.15-.02.93-.63,7.16-.71,7.24-.15.15-.48-.39-.49-.78,0-.36-1.53-6.61-1.63-6.7-.29-.24-1.2-.29-1.26-.07M79.11,122.36c-.15.06-.25.48-.25,1.04,0,.51-.1,1.75-.21,2.74-.29,2.51-.76,8.4-.68,8.49.04.04.39.01.78-.06q.71-.13.71-1.22c0-1.3.31-1.56,1.76-1.46l.94.06.38,1.07c.37,1.03.41,1.07.99.95.33-.07.64-.15.68-.19s-.33-1.23-.82-2.65c-.93-2.7-2.79-7.94-3.04-8.55-.13-.33-.71-.44-1.25-.22M118.93,122.98c-.12.3-.29.78-.37,1.05-.09.28-.93,2.51-1.88,4.96-.95,2.45-1.73,4.59-1.73,4.76,0,.21.2.3.65.3.6,0,.68-.09,1.06-1.05l.4-1.05,1.1.05c1.59.07,1.6.08,1.6,1.44v1.2l.71.13c.39.07.74.1.77.06.08-.1-.62-10.43-.78-11.55-.11-.78-.17-.85-.72-.85-.46,0-.64.12-.81.55M72.25,123.31c-2.23.43-2.3.46-2.24.93.1.71.24.78,1.24.58.5-.1,1.16-.18,1.48-.19h.58s-.14,1.22-.14,1.22c-.08.67-.36,2.64-.64,4.36-.28,1.72-.55,3.65-.62,4.29-.1,1.04-.08,1.15.26,1.15.52,0,4.73-.78,4.85-.89.05-.05.03-.33-.04-.62-.13-.51-.17-.53-1.08-.37-.52.09-1.26.16-1.64.17-.7.01-.7,0-.64-.79.03-.44.38-2.81.77-5.27.66-4.18.72-5.08.33-5.03-.09.01-1.19.22-2.46.46M129.68,124.29c-.05.13-.37,1.15-.72,2.25-.35,1.1-1.12,3.48-1.71,5.27-.59,1.8-1.08,3.4-1.08,3.55,0,.3.93.63,1.15.41.11-.11,1.34-4.05,1.87-5.98.36-1.34.65-.9.52.8-.07.85-.14,2.49-.16,3.64-.04,2-.02,2.09.41,2.25.42.15.52.03,1.34-1.75.49-1.06,1.17-2.59,1.51-3.41.34-.82.7-1.49.8-1.49.24,0,.26-.18-.4,3.81-.62,3.73-.61,3.86.38,3.76.47-.05.51-.15.65-1.46.08-.77.45-3.43.83-5.91.38-2.48.67-4.52.66-4.54-.02-.01-.31-.09-.64-.16l-.61-.13-1.68,3.72c-.92,2.04-1.77,3.72-1.87,3.72-.13,0-.15-1.45-.07-4.09l.13-4.09-.61-.21c-.46-.16-.63-.15-.69.03M90.92,126.63c-.37,3.23-.38,3.19.89,3.04.58-.07.68-.15.67-.61-.01-.89-.88-4.3-1.12-4.38-.14-.05-.3.65-.45,1.95M62.5,125.45l-.62.18,1.57,5.85c.86,3.21,1.6,5.88,1.64,5.92.08.08,1.34-.33,1.34-.44,0-.04-.36-1.4-.8-3.04s-1.13-4.26-1.53-5.83c-.4-1.57-.78-2.85-.85-2.84-.07.01-.4.1-.75.2M79.79,126.56c-.07.51-.13,1.64-.13,2.51v1.58h.69c1.28,0,1.33-.07.92-1.47-.9-3.1-1.05-3.54-1.2-3.54-.09,0-.22.42-.29.93M119.15,125.68s-.36,1.09-.78,2.36c-.43,1.27-.7,2.38-.62,2.47s.53.22.98.28l.83.11v-2.63c0-1.62-.08-2.63-.2-2.63-.11,0-.2.02-.21.05M58.9,126.52l-.61.26-.24,2.74c-.13,1.51-.3,2.84-.37,2.96-.19.31-.33,0-1.18-2.61-.73-2.24-.75-2.27-1.27-2.14-.29.07-.61.21-.7.3-.09.09.67,2.7,1.7,5.81l1.88,5.65.59-.12c.32-.06.63-.16.69-.22.08-.08-1.02-3.76-1.48-4.96-.24-.61.42-.4.96.3.28.36.67.84.88,1.08.21.24.64.77.97,1.19.33.42.74.94.91,1.15.24.3.45.36.95.25.68-.15,1.02-.47.7-.68-.49-.33-4.07-4.89-4.07-5.2,0-.19.1-1.59.21-3.12.12-1.53.18-2.81.15-2.84-.03-.03-.34.06-.67.2M150.53,126.63c.07.11.21.2.31.2s.74.27,1.43.6c.68.33,1.28.56,1.34.5.09-.09-2.79-1.5-3.07-1.5-.07,0-.07.09,0,.2M140.3,128.64c-.44.77-1.78,3.05-2.98,5.06-1.2,2.01-2.22,3.76-2.27,3.88-.08.19,1.12.79,1.24.63.02-.03.29-.49.6-1.02.53-.91.6-.97,1.23-.87.37.06.92.23,1.22.38.53.26.55.33.49,1.48-.06,1.14-.04,1.22.47,1.45.69.31.9.16.9-.62,0-.51.66-7,1.09-10.7.07-.63.02-.86-.21-.95-.73-.28-1-.08-1.78,1.29M146.93,130.99c-.44.85-1.17,2.23-1.62,3.06s-1.22,2.27-1.7,3.21c-.48.94-1.03,1.94-1.23,2.23-.36.52-.36.53.13.85.27.18.56.32.65.32.09,0,.92-1.49,1.85-3.32,2.31-4.54,2.41-4.55,1.34-.15-1.02,4.17-1.02,4.21-.51,4.48.25.13.49.15.56.05.07-.1,1.01-1.51,2.09-3.13,1.08-1.62,2.05-2.95,2.16-2.95.25,0,.25.04-.23,1.25-.23.58-.81,2.15-1.28,3.49l-.86,2.43.49.22c.73.33.79.3,1.06-.63.14-.47.55-1.71.92-2.76,2.06-5.86,2.74-7.85,2.67-7.89-.04-.02-.31-.15-.6-.27-.52-.22-.57-.17-1.9,1.7-.76,1.06-1.69,2.43-2.08,3.05-1.55,2.47-1.87,2.61-1.34.56.72-2.78,1.59-6.79,1.49-6.87-.18-.14-.96-.5-1.09-.5-.09,0-.52.7-.96,1.55M49.13,130.09c-.53.18-.56.24-.43,1.02.27,1.69,2.14,11.26,2.21,11.33.04.04.34-.03.65-.16.55-.23.57-.28.42-1.08-.31-1.59-.26-1.72.74-2.15.51-.22,1.04-.39,1.18-.39s.52.41.84.91c.51.82.63.9,1.16.8.33-.06.65-.18.73-.26.1-.12-3.43-5.34-6.49-9.59-.4-.55-.51-.6-1.01-.43M139.4,132.59c-.61,1.18-1.1,2.23-1.1,2.33,0,.26,1.54.78,1.73.58.08-.08.29-1.01.47-2.06s.37-2.15.43-2.46c.24-1.21-.46-.47-1.52,1.6M43.03,132.89c-.25.12-.45.3-.45.39s.45,1.08,1.01,2.18c.55,1.11.95,2.1.89,2.2-.14.23-1.59.99-1.88.99-.16,0-2.04-3.2-2.28-3.9-.08-.24-1.34.26-1.34.53,0,.15,5.31,10.26,5.55,10.57.04.05.39-.07.79-.26.52-.25.66-.41.52-.59-.24-.3-2.65-4.86-2.65-5.01,0-.23,1.84-1.18,2.1-1.08.15.06.82,1.14,1.5,2.42.68,1.27,1.31,2.36,1.41,2.42.23.14,1.21-.31,1.21-.55,0-.17-1.87-3.78-2.2-4.26-.08-.11-.8-1.46-1.6-3.01-1.89-3.63-1.74-3.46-2.56-3.06M162.27,133.14c.87.62.99.72,1.6,1.21l.49.4-.4-.47c-.4-.47-2.01-1.64-2.26-1.64-.07,0,.18.22.56.49M50.2,133.4c0,.08.26,1.14.57,2.36l.56,2.21.66-.03c.36-.02.79-.16.94-.31.24-.24.1-.57-.98-2.32-.69-1.12-1.37-2.04-1.51-2.04-.14,0-.25.06-.25.15M156.92,136.81c-.98,1.07-2.89,3.09-4.25,4.48l-2.47,2.53.66.43.66.43.82-.93.82-.93,1.03.56c1.14.62,1.19.79.72,2.13-.3.85-.29.89.12,1.23.24.19.54.35.68.35s.56-1.01.96-2.26c.39-1.24,1.27-3.83,1.94-5.76l1.22-3.51-.45-.35c-.25-.19-.51-.35-.58-.35-.07,0-.93.88-1.9,1.95M32.55,136.05c0,.11.6,1.21,1.34,2.46,3.55,5.97,6.11,12.14,5.8,13.97-.07.39-.2,1.14-.29,1.66-.09.52-.1.9-.03.86.08-.05.2-.45.27-.89.12-.78.34-1.04,2.13-2.62l.5-.44-.5.32c-.28.18-.71.47-.97.66-.4.28-.49.29-.65.05-.1-.16-.18-.47-.18-.7,0-.44-.97-3.41-1.47-4.52-1.47-3.26-2.22-4.73-3.88-7.64-1.06-1.85-1.95-3.36-2-3.36s-.07.09-.07.2M166.06,136.17c0,.11.18.32.4.48.5.36.51.75.04,1.29-.45.52-1.48,2.12-1.36,2.12s1.92-2.38,2.04-2.69c.05-.13-.18-.5-.52-.82-.33-.32-.61-.49-.61-.39M92.69,136.72c-.06.06-1.05.13-2.21.16-3.49.07-11.33.93-15.23,1.68-5.98,1.14-7.02,1.36-8.88,1.83-2.87.73-9.47,2.86-9.31,3.01.04.04,1.02-.24,2.17-.63,2.08-.71,5.1-1.57,8.06-2.32l1.56-.39.64.45c.35.25.73.52.84.61,1.52,1.21,3.23,2.34,4.66,3.08.97.5,1.89.99,2.06,1.09.62.38,2.49,1.19,2.73,1.19.14,0,.28.07.31.16.07.18,2.72,1.24,4.28,1.72,5.11,1.55,9.66,2.32,14.65,2.48,10.86.34,22.31-3.14,30.9-9.41.76-.56,1.24-.76,1.79-.76.41,0,.7-.04.66-.09-.14-.14-5.87-1.31-9.5-1.93-3.86-.66-9.51-1.4-10.42-1.37-.62.03.84.26,5.94.95,4.71.64,11.31,1.9,11.66,2.22.29.27-3.02,2.48-6.43,4.28-2.56,1.35-4.19,2.05-6.91,2.96-4.07,1.36-5.95,1.81-9.77,2.32-3.17.43-9.95.48-12.53.09-3.01-.46-7.79-1.46-9.11-1.92-3.83-1.33-5.1-1.83-6.93-2.69-2.61-1.24-8.72-5.04-8.72-5.42,0-.22,4.17-.98,9.32-1.7,7.84-1.09,13.13-1.38,23.69-1.29,4.94.04,8.4.01,7.68-.06-1.75-.18-17.51-.45-17.65-.31M156.96,138.51c-.21.25-.9,1.05-1.55,1.79-.65.73-1.17,1.43-1.17,1.54,0,.3,1.18,1.09,1.47.97.22-.08,1.95-4.19,1.94-4.6,0-.29-.32-.15-.69.3M163.32,143.22c-.56,1.19-1.15,2.47-1.32,2.86-.51,1.18-1.68,5.25-1.81,6.31-.07.55.22-.26.63-1.81.88-3.27,1.31-4.41,2.76-7.36.59-1.19.99-2.16.91-2.16s-.61.97-1.17,2.16M135.2,141.43c0,.12,3.64,1.35,4.71,1.59,1.02.23-.32-.37-1.9-.86-.94-.29-1.95-.6-2.26-.7-.3-.1-.55-.11-.55-.04M54.8,144.2c-.55.18-4.6,2.15-4.54,2.21.03.03,1.06-.39,2.29-.94s2.31-.99,2.39-.99c.09,0,.63.61,1.22,1.35.58.74,1.73,2.07,2.55,2.95s1.5,1.73,1.5,1.89c0,.28-2.15,2.4-2.45,2.41-.08,0-.15.16-.15.34,0,.29.07.27.46-.1.26-.24.54-.44.62-.44s.62.32,1.19.72l1.03.72-.85-.77c-.47-.43-.85-.92-.85-1.1s.32-.57.7-.88c.39-.31.7-.69.7-.84s-.57-.88-1.26-1.62c-.7-.73-1.8-1.97-2.46-2.74-.66-.77-1.26-1.43-1.34-1.47-.08-.04-.15-.24-.15-.45,0-.39-.08-.43-.6-.25M142.3,146.43c-.33.41-.76.94-.96,1.19-.2.25-.29.45-.2.45.21-.01,1.95-2.18,1.84-2.29-.05-.05-.35.25-.68.65M147.22,145.97c0,.05.43.29.95.53s1.04.48,1.15.54c.58.31-.3-.37-.96-.74-.73-.41-1.15-.52-1.15-.32M48.29,147.3c-2.86,1.5-5.91,3.42-5.91,3.72,0,.11.03.09,2.1-1.24.88-.57,2.3-1.41,3.16-1.88.85-.47,1.55-.89,1.55-.93,0-.13-.06-.11-.91.34M140.18,149.04c-.83.89-1.27,1.45-1.13,1.45.06,0,.52-.5,1.04-1.1,1.08-1.26,1.13-1.46.09-.35M53.8,149.23c.59.11,1.18.59,1.41,1.16.16.38.16.38.18-.05.02-.67-.67-1.26-1.44-1.23-.55.02-.57.04-.15.12M49.2,153.02c-4.07,4.09-4.72,4.54-6.62,4.55-1.39.01-2.27-.44-2.79-1.43-.22-.41-.4-.63-.4-.49-.02.53.62,1.45,1.25,1.79.44.23,1.11.35,2.05.35,1.94,0,2.55-.4,6.42-4.31,1.76-1.78,3.43-3.46,3.71-3.72.27-.26.41-.48.31-.48s-1.86,1.68-3.91,3.74M153.64,149.46c0,.11.18.26.4.33.22.07.51.23.65.36.14.13.9.68,1.69,1.21.79.54,1.94,1.42,2.55,1.97.73.65,1.12.89,1.12.68,0-.17-.1-.32-.22-.32s-.73-.44-1.35-.97c-.63-.54-1.86-1.47-2.74-2.07-2.04-1.39-2.1-1.43-2.1-1.19M144.18,149.74c-.17.14-.37.7-.43,1.25-.09.79-.07.9.09.5.32-.8,1.2-1.6,1.76-1.6.35,0,.83.34,1.57,1.1.59.6,1.06,1.02,1.06.93s-.53-.68-1.19-1.3c-.96-.92-1.32-1.13-1.87-1.13-.37,0-.82.11-.99.25M78.33,150.24c-.16.45-1.26,2.98-2.52,5.75-.94,2.07-.97,2.21-.63,2.46.2.15.44.24.53.21.09-.03.5-.84.91-1.79.41-.96.81-1.8.88-1.88.08-.08.47.02.87.21.61.29.76.3.91.08.26-.42.23-.47-.52-.83-.83-.4-.86-.63-.2-2.06.54-1.18.69-1.24,1.78-.79.9.38.87.38.99-.12.09-.35-.09-.5-1.2-1-1.53-.69-1.64-.7-1.8-.24M119.29,150.94c-.32.23-.32.36-.03,1.85.17.88.52,2.96.77,4.61.41,2.74.49,3,.84,2.94.61-.1.68-.28.49-1.13-.22-.96-.03-1.25.93-1.43.55-.1.75-.05.97.25.82,1.14.82,1.14,1.26.9l.43-.23-.62-1.05c-.34-.58-1.09-1.73-1.66-2.55-.57-.83-1.44-2.16-1.93-2.96-.49-.8-.94-1.45-1-1.45s-.27.11-.46.25M138.6,150.9c-.25.17-.09.4.86,1.3.64.6,1.11,1.18,1.05,1.28-.06.1-.52.44-1.01.75-.5.31-.9.64-.9.73,0,.2.23.07,1.46-.82.92-.66.98-.68,1.45-.37.76.5,1.26.4,1.71-.33.22-.36.4-.83.39-1.05,0-.25-.15-.08-.39.45-.47,1.04-.84,1.21-1.56.72-.3-.21-.65-.42-.78-.47-.58-.26-2.1-1.86-2-2.12.13-.33.11-.34-.28-.07M82.58,151.93c-.05.14-.76,2.07-1.58,4.27-1.33,3.58-1.46,4.04-1.17,4.26.17.14.4.23.5.19s.49-.91.87-1.96c.38-1.04.77-2.08.88-2.3.1-.22.5-1.29.88-2.37.63-1.77.66-1.98.35-2.09-.19-.07-.41-.16-.49-.2-.08-.05-.19.04-.24.18M116.4,152.03c-.18.07-.25.67-.25,2.01,0,1.25-.07,1.88-.21,1.83-.12-.04-.64-.7-1.17-1.47-.8-1.17-1.04-1.39-1.44-1.33-.27.04-.51.1-.55.13-.04.03.56.91,1.33,1.95,1.69,2.29,1.97,2.8,2.53,4.75.4,1.38.48,1.51.92,1.46.26-.03.51-.09.55-.13.04-.04-.15-.81-.44-1.71-.46-1.45-.52-1.97-.52-4.63,0-3.05-.03-3.16-.75-2.86M55.67,152.93c.3,1.02.72,1.34,1.37,1.02.46-.23.46-.23-.07-.12-.45.09-.59.01-.85-.5-.17-.34-.32-.75-.32-.92s-.08-.31-.19-.31-.09.35.05.83M85.18,152.92c-.18.52-2.06,7.29-2.2,7.93-.13.61-.1.65.63.85,1.96.55,2.2.53,3.04-.32.62-.62.9-1.17,1.4-2.73.4-1.23.63-2.37.63-3.08,0-1.02-.06-1.19-.69-1.78-.38-.36-1.01-.71-1.42-.79-.4-.08-.86-.19-1.01-.25-.16-.06-.33.01-.38.16M149.23,153.2c0,.11.97,1.15,2.15,2.31s1.74,1.65,1.23,1.1c-2.44-2.65-3.38-3.59-3.38-3.4M110.94,153.79c0,.16.18,1.22.4,2.36.68,3.51.56,3.53-1.24.26-.74-1.34-1.39-2.3-1.57-2.3-.73,0-.76.25-.28,2.5.26,1.21.67,3.17.9,4.36.41,2.02.46,2.16.92,2.16.55,0,.56.17-.16-3.39-.21-1.04-.31-1.96-.22-2.05s.79.96,1.55,2.34c1.17,2.12,1.46,2.51,1.87,2.51.56,0,.61.47-.52-5.26-.7-3.56-.76-3.76-1.19-3.76-.27,0-.46.12-.46.29M120.16,153.57c0,.31.86,3.47.98,3.59.2.2,1.22-.18,1.22-.46,0-.41-1.71-3.2-1.95-3.2-.14,0-.25.03-.25.07M86.01,154.05c-.09.15-.51,1.64-1.43,5-.48,1.74-.41,2.07.41,2.07.75,0,1.46-.95,2.01-2.68.76-2.4.83-3.31.29-3.98-.41-.52-1.08-.73-1.27-.4M91.69,154.57c-.09.23-.5,1.28-.9,2.33s-.81,2.08-.91,2.31c-.1.22-.42,1.03-.72,1.8s-.63,1.52-.74,1.66c-.25.32-.18.39.46.48.43.06.54-.05.8-.8l.3-.87.87.12c1.18.16,1.24.22,1.24,1.21,0,.78.05.88.53.97l.53.1-.13-2.73c-.07-1.5-.14-3.65-.15-4.77-.02-2-.03-2.04-.51-2.13-.37-.07-.54.01-.66.33M105.82,154.45c-.44.03-1.2.1-1.68.17l-.88.12.13,1.04c.07.57.27,2.61.44,4.54s.34,3.53.37,3.56c.03.03.75,0,1.6-.07,1.46-.12,1.54-.15,1.54-.62s-.05-.49-1.05-.42l-1.05.07-.18-1.56c-.1-.86-.14-1.6-.09-1.64.05-.05.47-.11.93-.14.74-.04.85-.11.85-.53,0-.45-.06-.47-.95-.41-.91.06-.95.04-1.08-.53-.07-.33-.14-1.02-.16-1.53l-.02-.93,1.01-.1c1.14-.11,1.26-.18,1.16-.69-.05-.3-.22-.36-.87-.32M101.68,154.83c-.2.05-.64.86-1.12,2.03-.43,1.07-.87,1.92-.97,1.89-.1-.03-.21-.91-.25-1.95-.06-1.88-.07-1.91-.55-1.91h-.49v9.22h1v-2.1c0-2.89.26-2.85,1.31.2.59,1.71.66,1.81,1.24,1.87l.62.06-.89-2.25c-.49-1.24-.89-2.39-.89-2.57s.4-1.29.89-2.48c.53-1.27.79-2.15.65-2.13-.13.01-.39.06-.57.11M62.42,155.39c0,.06.38.35.85.66.47.3.9.61.95.67.09.11,1.02.67,2.46,1.48.3.17.55.24.55.16,0-.09-.47-.42-1.05-.75-1.07-.6-2.29-1.37-2.67-1.69-.34-.28-1.09-.65-1.09-.54M159.87,156.8c-.02.33-.26.87-.53,1.2-.48.59-.54.6-2.28.6-1.01,0-1.67.07-1.5.16.48.27,2.58.21,3.19-.08.83-.4,1.36-1.21,1.25-1.9l-.09-.58-.04.6M134.59,157.48c-.72.42-1.53.88-1.8,1.04-.59.34-1.49.99-1.37.99.21,0,2.78-1.43,3.75-2.08,1.39-.94,1.09-.91-.57.05M91.52,157.36c-1.03,2.83-1.11,3.18-.82,3.37.16.1.52.17.79.14.49-.05.5-.09.56-2.01.04-1.28-.02-1.95-.16-1.95-.12,0-.29.2-.38.45M69.64,159.82c0,.06.79.47,1.75.91.96.44,1.92.9,2.12,1.01.2.11.42.16.47.1.09-.09-3.97-2.13-4.24-2.13-.06,0-.11.05-.11.11M127.57,161.21c-.94.49-1.65.89-1.58.89.16.01,2.99-1.31,3.38-1.58.69-.48-.22-.13-1.8.69M74.29,162.02c.22.22,4.25,1.71,4.45,1.64.12-.04-.46-.32-1.28-.63-.82-.31-1.78-.68-2.13-.84-.62-.28-1.24-.38-1.04-.18M121.21,163.68c-.91.3-1.65.6-1.65.68,0,.16,2.74-.66,3.31-.99.63-.36.13-.27-1.66.32M79.06,163.8c0,.09,2.24.86,2.92,1.01.21.05,1.24.31,2.29.58,2.45.63,6.5,1.32,8.42,1.43,1.7.1,1.44.03-1.7-.41-4.13-.58-7.48-1.31-10.61-2.31-1.29-.41-1.32-.42-1.32-.3M115.35,165.34c-1.7.42-1.83.45-4.31.86-3.22.53-5.74.76-10.02.92l-4.21.15,3.11.03c3.04.03,7.93-.32,10.73-.77,1.94-.31,6.03-1.18,6.57-1.4.78-.31-.18-.2-1.86.21"/>
  <path class="st2" d="M94.6,49.98c-6.06.69-11.9,2.44-17.34,5.18-1.48.75-5.1,2.95-5.18,3.15-.04.09-.21.16-.38.16s-.28.04-.23.09c.05.05,1.6.19,3.45.32,3.2.22,3.43.21,4.74-.19.76-.23,1.85-.42,2.44-.42.9,0,1.13.08,1.47.52l.41.52,2.09-.19c2.02-.18,2.14-.17,3.63.37,1.81.65,3.4,1.55,6.35,3.59,1.19.82,2.54,1.75,3.01,2.07.47.32.95.76,1.06.97.15.29.43.39,1.05.39.46,0,1.24.18,1.72.4.48.22.98.39,1.1.38.13,0,.54-.38.91-.81l.69-.8-.44-.9c-.46-.94-.57-1.59-.24-1.39.11.07.15-.01.08-.2-.19-.49.5-1.11,1.22-1.11,1.36,0,1.95,1.47,1.13,2.82l-.38.62.73.98c.4.54.84.98.96.98.13,0,.68-.23,1.23-.52.6-.31,1.48-.56,2.21-.63,1.05-.1,1.33-.04,2.15.41l.94.52,1.13-.88c.62-.48,1.31-1.05,1.54-1.25,1.5-1.38,1.94-1.65,3.04-1.88.64-.13,1.59-.46,2.11-.72s1.19-.48,1.48-.48c.5,0,2.7,1.02,4.64,2.15.79.46,1.01.49,3.11.44,1.44-.04,2.24.02,2.22.14-.06.32-2.26,4.07-3.04,5.18-.77,1.09-1.5,1.86-3.29,3.42l-1.15,1-.02,6.37-.02,6.37.6,1.45c.33.8,1.12,2.71,1.75,4.25.63,1.54,1.37,3.28,1.62,3.87.26.58.47,1.1.47,1.14s.33.77.74,1.62l.74,1.53-.49.92c-.76,1.43-2.5,3.06-4.14,3.85-.79.39-1.44.8-1.45.92-.01.24,1.09,1.81,3.45,4.88.92,1.2,1.55,2.22,1.55,2.5,0,.57-1.07,2.25-1.83,2.88-.35.29-.91.49-1.49.54-.51.04-.95.11-.97.14-.02.03-.38.49-.79,1.01-.74.93-.74.95-.29,1.03.25.05,1.95.33,3.77.62,3.35.54,9.76,2.08,12.77,3.05.91.29,1.7.48,1.76.42.21-.21,2.35-5.26,2.92-6.9.63-1.8,1.67-5.61,2-7.3,1.04-5.36,1.07-13.53.07-18.74-2.88-15.04-11.55-27.31-24.47-34.61-9.26-5.23-20.16-7.46-30.64-6.26M64.35,64.5c-9.86,10.48-14.82,23.4-14.3,37.28.26,6.92,1.7,13.22,4.38,19.09.57,1.24,1.05,2.29,1.08,2.32.03.03,1.41-.27,3.07-.68l3.02-.74-.12-.86c-.13-.98.39-4.4.95-6.19.22-.71.98-2.11,1.84-3.4,2.02-3.02,2.18-3.37,2.29-4.79.09-1.21.94-4.26,1.28-4.64.1-.1-.12-.46-.5-.81-.94-.89-1.12-1.32-1.12-2.65,0-.94.09-1.27.46-1.67.52-.56,1.67-2.06,3.46-4.53.67-.92,1.43-1.92,1.7-2.23.27-.31.6-.8.73-1.09.13-.29.62-.94,1.1-1.44l.86-.91.04-6.23c.02-3.43-.02-6.23-.09-6.23-.23,0-3.13-2.21-3.31-2.53-.26-.46-1.1-3.48-1.26-4.49-.16-1.04-.4-1.57-.9-2.02-.2-.17-.42-.56-.49-.85-.12-.48-.23-.54-1.01-.54-.67,0-.92-.09-1.09-.4-.12-.22-.29-.4-.39-.4s-.86.73-1.69,1.61M126.97,94.85v5.52h2.41c1.43,0,2.41-.08,2.41-.2,0-.11-.17-.58-.39-1.05-.21-.47-.52-1.17-.69-1.56-.96-2.24-1.86-4.29-2.46-5.58-.38-.81-.74-1.69-.8-1.96-.36-1.43-.48-.22-.48,4.82M90.09,137.39c-8.11.63-15.36,1.59-19.65,2.59l-.5.12.54.47c.82.7,5.45,3.54,7.28,4.46,3.92,1.97,9.49,3.76,14.12,4.53,10.58,1.77,21.27.17,30.85-4.6,3.15-1.57,7.04-3.96,7.04-4.32,0-.23-.96-.46-5.41-1.26-3.85-.69-8.83-1.41-8.9-1.29-.28.46-1.27,1.69-1.69,2.08-1.09,1.02-1.41.93-4.85-1.39l-2.1-1.42-7.92-.02c-4.36-.01-8.32.01-8.82.05"/>
  <path class="st0" d="M103.67,33.16c.36.04.94.04,1.3,0,.36-.04.07-.08-.65-.08s-1.01.04-.65.08M117.95,35.2c-.5.14-.5.14.12.27.34.07.83.07,1.09,0,.44-.12.45-.13.08-.28-.47-.18-.64-.18-1.29,0M121.13,35.99c.23.15.23.2,0,.27-.15.05.04.09.43.08s.93.05,1.2.13c.36.1.33.07-.1-.13-.76-.34-1.91-.61-1.53-.36M76.05,37.24c.24.17.19.19-.2.11-.28-.06-.64-.02-.8.08-.26.17-.26.19,0,.2.27,0,.27.03,0,.22-.24.17-.22.19.1.08,1.46-.51,1.54-.55,1.27-.72-.39-.25-.73-.21-.37.04M125.57,37.63c.27.17.27.2,0,.21-.17,0,.28.28.98.6,1.44.67,1.88.77.82.19-.39-.21-.57-.39-.4-.4.27-.01.27-.03,0-.2-.17-.11-.47-.14-.68-.08-.22.07-.33.04-.25-.08.07-.11-.02-.26-.19-.32-.47-.18-.62-.14-.28.08M72.6,38.47c-.52.23-.95.53-.95.69,0,.35.04.35.89-.06.38-.18.64-.42.58-.54-.07-.12,0-.15.18-.09.18.07.3,0,.3-.17,0-.15,0-.27-.02-.27,0,0-.45.2-.97.43M130.12,39.8c-.29.11-.18.23.55.58.63.3.92.37.93.19,0-.14.09-.07.19.15.14.34.17.35.19.06,0-.19-.26-.49-.61-.67-.38-.2-.57-.23-.47-.08.1.16.05.21-.13.14-.15-.06-.26-.2-.23-.33s.03-.22,0-.21c-.03,0-.21.08-.41.16M132.21,41.12c.2.22,3.78,2.31,3.78,2.21,0-.05-.45-.37-1-.71-.55-.34-.95-.7-.9-.79.06-.1-.18-.32-.52-.5-.35-.18-.57-.23-.5-.11.17.28,0,.28-.55-.01-.24-.13-.38-.17-.31-.09M64.63,42.76c-.39.28-.68.6-.64.72.03.12-.07.17-.23.1-.16-.06-.46.02-.66.19-.35.28-.34.28.08.08.31-.15.45-.15.45,0,0,.12.36-.03.81-.32.44-.29.76-.58.7-.64-.06-.06,0-.22.12-.37.31-.38.18-.32-.63.25M136.19,43.49c0,.05.5.42,1.1.83.61.4,1.1.64,1.1.52s.09-.16.2-.09.2.08.2.02-.43-.39-.95-.75-.83-.5-.68-.31c.35.43.16.43-.48.02-.27-.18-.49-.28-.49-.23M139.1,45.04c.13.21.08.24-.21.13-.48-.18-.33-.05,1.27,1.16.69.52,1.34.89,1.46.82.27-.17.11-.39-.66-.93-.43-.3-.56-.34-.37-.11.15.19.19.34.07.34-.26,0-.68-.51-.54-.65.06-.06-.18-.32-.54-.57-.36-.25-.57-.34-.48-.19M60.12,46.34c-.65.54-1.01.66-.78.26.1-.17.03-.16-.19.03-.19.15-.3.33-.24.38.14.14-.29.64-.54.64-.11,0-.08-.16.07-.35.25-.32.24-.32-.07-.08-.19.15-.3.35-.25.43.05.09-.18.39-.52.68s-.57.52-.51.52c.1,0,3.09-2.34,3.62-2.83.41-.38-.02-.15-.59.32M142.01,47.69c.94.97,3.38,2.92,3.27,2.62-.12-.31-.09-.32.2-.08.18.15.3.34.25.42-.05.08.56.77,1.35,1.53,1,.96,1.12,1.05.39.28-1.51-1.59-1.3-1.72.32-.19.75.71.28.24-1.05-1.06-1.69-1.65-2.52-2.32-2.75-2.25-.19.06-.39.02-.46-.09-.07-.11-.5-.49-.97-.84-.47-.36-.71-.51-.55-.34M99.17,49c.64.04,1.63.04,2.21,0,.57-.04.05-.07-1.16-.07-1.21,0-1.68.03-1.05.07M98.56,49.6c.85.04,2.25.04,3.11,0,.85-.04.16-.07-1.55-.07s-2.41.03-1.55.07M107.63,49.59c.22.05,1.53.31,2.91.58s2.73.54,3.01.6c.47.1.47.09.07-.09-.58-.26-5.39-1.23-5.94-1.2-.4.02-.4.03-.04.11M53.1,51.91l-2.2,2.26,2.26-2.2c1.24-1.21,2.26-2.23,2.26-2.26,0-.14-.26.11-2.31,2.2M90.59,50.36c-.11.04-.91.22-1.77.4-.86.18-1.53.37-1.49.41s1.06-.14,2.27-.4c1.21-.26,1.97-.48,1.69-.48s-.59.03-.7.07M110.43,50.66c.88.2,1.74.37,1.9.36.48-.02-2.45-.73-3.01-.73-.28,0,.22.17,1.1.37M53,52.61l-1.9,1.95,1.95-1.9c1.82-1.77,2.05-2.01,1.9-2.01-.03,0-.91.88-1.95,1.95M113.61,51.38c.54.16,1.02.25,1.07.2.11-.11-1.3-.53-1.74-.51-.17,0,.14.15.67.31M84.98,51.69c-1.16.38-3.62,1.39-7.12,2.92-1.15.5-3.59,1.95-3.6,2.13,0,.09.29-.02.64-.26,1.74-1.15,7.2-3.6,10.07-4.53.77-.25,1.22-.46,1-.46-.22,0-.67.08-1,.19M114.96,51.73c.16.19,3.64,1.35,3.74,1.25.04-.04-.67-.33-1.59-.63-.92-.3-1.8-.6-1.97-.65s-.25-.04-.18.03M118.97,53.14s1.03.49,2.19,1c1.16.51,1.89.75,1.63.55-.26-.2-.8-.48-1.2-.62-.4-.14-1.08-.43-1.52-.63-.71-.34-1.31-.5-1.1-.29M149.73,55.07c.55.61,1.24,1.4,1.54,1.76.3.36.63.63.75.6.12-.03.54.31.94.75l.73.8-.68-.87c-.37-.48-.75-.85-.84-.83-.22.05-1.33-1.02-1.33-1.28,0-.11.29.06.64.39.35.32.16.03-.42-.66-.58-.69-1.11-1.25-1.18-1.25s.08.21.32.46c.82.88.44.82-.51-.07l-.95-.89,1,1.1M49.98,55.22c-.38.41-.92,1.02-1.19,1.35l-.5.6.61-.55c.34-.3.66-.51.71-.45.05.05.4-.21.78-.6.45-.46.61-.77.48-.9-.13-.13-.43.05-.9.55M75.09,55.49c-1.03.56-1.83,1.06-1.78,1.11s.72-.27,1.49-.72c.77-.44,1.49-.81,1.61-.81s.32-.14.46-.3c.35-.43.31-.41-1.77.72M50.09,55.27c-.31.33-.53.64-.47.7s.36-.17.67-.5.53-.64.47-.7-.36.17-.67.5M123.77,55.32c0,.05.88.59,1.96,1.19,2,1.12,5.12,3.24,6.11,4.14.3.28.55.4.55.28s-.11-.26-.25-.31c-.14-.05-.19-.16-.11-.24.16-.18.89.36,2.22,1.64,1.35,1.3,1.01,1.33-.5.04-.69-.59-.13.02,1.25,1.35s2.96,2.99,3.51,3.67c1.62,2.02,1.99,2.39,1.06,1.07-.48-.68-1.66-2.06-2.63-3.08s-1.7-1.9-1.63-1.97c.21-.21,3.63,3.44,5.36,5.73.44.58.84,1.05.9,1.05.14,0-.82-1.26-2.37-3.11-1.65-1.96-4.55-4.78-6.7-6.5-2-1.61-2.47-1.91-1.3-.84.5.45.84.82.75.83-.14,0-1.63-.99-3.66-2.44-1.03-.74-4.51-2.68-4.51-2.51M49,56.96c-.26.27-.53.45-.61.41-.08-.05-.31.11-.52.36l-.38.45.45-.38c.52-.44.61-.22.12.32-.18.2-.29.37-.23.37s.48-.45.95-1c.89-1.05,1.02-1.35.23-.51M127.62,56.92c.6.51,1.76,1.23,1.76,1.1,0-.05-.52-.42-1.15-.82s-.91-.53-.6-.27M71.49,57.62c-.8.5-1.41.95-1.36,1s.36-.1.68-.33c.33-.23.67-.43.76-.43.09,0,.49-.27.87-.6.94-.79.77-.73-.95.35M72.68,57.6c-.59.39-1.01.76-.94.83.07.07.19.04.27-.07.08-.11.59-.49,1.14-.84.55-.35.91-.64.8-.63-.11,0-.68.33-1.27.72M44.57,62.23c-.56.85-.78,1.28-.48.95.31-.35.49-.45.42-.25-.19.58-.02.41.76-.77.41-.62.63-1.05.5-.97-.18.11-.21.06-.12-.18.26-.67-.07-.3-1.07,1.22M155.13,61.26c.06.1.02.21-.09.25-.11.04,0,.29.25.57.25.28.38.42.3.31-.28-.37-.15-.56.19-.29.23.18.19.06-.11-.38-.4-.57-.84-.95-.54-.47M66.16,61.77c-.33.28-.51.59-.43.72.09.14-.45.85-1.34,1.76-.82.84-1.66,1.76-1.87,2.03s.49-.4,1.55-1.5c1.07-1.1,1.94-2.13,1.95-2.29,0-.16.21-.5.45-.75.57-.61.42-.59-.3.03M63.92,63.94c-2.43,2.56-2.79,2.96-2.67,2.96.06,0,1.04-.99,2.16-2.21,1.13-1.21,2.01-2.21,1.97-2.21s-.7.65-1.46,1.45M43.15,64.34c-.13.25-.37.68-.53.95l-.29.5.42-.5c.45-.54.56-.42.22.21-.11.21-.16.39-.11.39s.25-.28.42-.62c.18-.34.22-.56.11-.49-.27.17-.28,0,0-.5.11-.21.16-.39.11-.39s-.21.2-.34.45M60.71,67.39c-.11.15-.67.91-1.25,1.69-.58.78-1.02,1.42-.97,1.42.13,0,2.55-3.25,2.47-3.32-.04-.04-.15.06-.26.21M159.04,67.48c.27.5.26.67,0,.5-.12-.07-.07.15.11.49.18.34.37.62.42.62s0-.17-.11-.39c-.27-.5-.26-.67,0-.5.12.07.07-.15-.11-.49-.18-.34-.37-.62-.42-.62s0,.17.11.39M59.88,69.55c-.43.47-1.28,1.8-.94,1.45.34-.34,1.51-1.9,1.43-1.9-.05,0-.27.2-.49.45M58.05,72.16c-.6.87-1.19,1.94-.97,1.74.21-.2,1.73-2.59,1.64-2.59-.05,0-.35.38-.67.85M89.74,71.97c1.91,1.92,2.06,2.06,1.71,1.51-.49-.77-1.61-1.9-2.01-2.04-.21-.07-.09.14.3.54M142.54,72.61c.4.61.77,1.07.82,1.02.09-.09-1.32-2.13-1.47-2.13-.05,0,.25.5.65,1.11M80.26,73.65c-.9.33-3.44,1.66-3.19,1.66.17,0,1.02-.36,1.89-.8,1.92-.97,2.68-1.01,4.92-.28.88.29,1.65.48,1.7.43.05-.05-.67-.33-1.6-.62-1.58-.49-3.04-.64-3.74-.38M38.29,74.29c.07.3.04.43-.08.35-.12-.08-.16.05-.1.33.07.32.04.37-.09.18-.15-.21-.22-.2-.32.08-.07.19-.09.39-.03.45.06.06.11-.02.11-.18,0-.22.04-.23.17-.03.11.18.26,0,.48-.55.18-.45.24-.77.15-.71-.09.06-.22,0-.28-.15-.06-.14-.06-.04,0,.22M86.69,75.18c1.24.6,3.73,2.86,4.15,3.79.39.84.56.93.74.39.07-.21.3-.54.51-.73.22-.2.4-.43.4-.52s-.23.07-.5.34-.5.6-.5.72-.26-.13-.57-.56c-1.2-1.65-4.06-3.91-4.89-3.88-.14,0,.15.21.66.45M164.07,79.22c-.02.33-.05.35-.21.1-.27-.42-.22-.04.1.8.19.5.28.59.3.3l.03-.4.17.4c.29.67.2-.13-.1-.9-.18-.48-.28-.57-.29-.3M121.84,81.43c0,1.32.03,1.84.07,1.14.04-.69.04-1.78,0-2.41s-.07-.06-.07,1.26M123.24,79.64c.07.18.18.54.24.8.07.27.2.48.3.48.24,0,.23-.1-.11-.91-.28-.67-.68-1.02-.43-.38M146.93,81.03c.08.22.49,1.39.91,2.61.42,1.21.77,2.08.78,1.93.01-.4-1.15-3.78-1.51-4.4-.17-.3-.25-.36-.17-.14M78.99,81.13c.35.11.89.34,1.2.52l.57.32-.9-.11-.9-.11.65.29c.92.41,1.31,1.09,1.15,1.98-.11.57-.07.72.17.72.39,0,.78-1.68.54-2.31-.21-.56-1.49-1.32-2.4-1.42l-.71-.08.63.2M83.89,81.59c-.72.25-1.1.89-.81,1.36.14.23.25.23.56.04.21-.13.93-.3,1.61-.38.72-.08,1.17-.22,1.1-.34-.07-.11,0-.27.13-.35.87-.53-1.24-.81-2.59-.34M85.08,81.72c-.16.1-.36.14-.45.09s-.16,0-.16.11-.16.21-.35.21c-.3,0-.31-.03-.05-.22.25-.18.24-.2-.07-.1-.2.07-.44.12-.53.12s-.15.22-.13.48c.03.46.06.47.57.2.3-.15.9-.28,1.33-.28.55,0,.83-.1.92-.33.17-.44-.06-.64-.29-.27-.13.2-.19.21-.19.04,0-.3-.19-.31-.59-.06M52.83,82.47c-.12.31-.27.83-.33,1.16-.06.33.07.11.29-.49.41-1.1.44-1.7.04-.67M118.2,82.78c-.52,1.05-1.51,3.97-1.38,4.09.05.05.42-.79.83-1.88.41-1.08.82-2.18.93-2.44.33-.82.07-.66-.38.23M77.97,82.92c-.06.1-.02.24.09.31.11.07.2.04.2-.07s.18-.19.4-.17c.49.04.54.34.05.36-.22.01-.26.05-.09.12.14.06.39,0,.56-.15.24-.2.25-.28.04-.42-.35-.22-1.11-.21-1.25.02M107.41,85.74c0,1.6.03,2.25.07,1.45.04-.8.04-2.11,0-2.91-.04-.8-.07-.15-.07,1.45M125.17,84.22c0,.17.09.31.2.31s.2.13.2.29c0,.4.39,1.39.51,1.28.13-.13-.5-1.94-.73-2.08-.1-.06-.18.03-.18.2M165.59,85.41c-.08.42-.1.82-.04.89.06.06.12-.1.13-.37.01-.45.03-.46.19-.08.21.49.22.01.02-.7-.13-.47-.15-.45-.29.27M89.29,86.78c-.24.7-.45,1.41-.47,1.6-.01.18-.09.3-.16.25-.21-.13-.59.43-.7,1.03-.06.31-.15.63-.2.72-.06.09.02.17.16.17.16,0,.19.06.06.15-.11.08-.45.45-.75.81-.52.64-.75.66-.36.04.11-.17.11-.34,0-.4-.1-.06.09-.41.41-.78.93-1.07.69-.98-.49.18-1.01.99-2.43,2.07-2.99,2.27-.13.05-.18.15-.1.24.08.08.41-.04.73-.27.43-.31.62-.35.68-.17.07.2.16.19.42-.02.29-.24.33-.23.33.03,0,.17-.14.41-.3.55s-.3.53-.3.88c0,.8-.38,1.48-.41.73-.02-.46-.03-.47-.18-.1-.13.31-.18.21-.25-.5-.06-.63-.1-.41-.12.69-.03,1.42,0,1.55.25,1.21.16-.21.24-.46.19-.54-.05-.08-.01-.15.09-.15s.62-.73,1.16-1.62c1.2-1.99,1.84-2.79,2.19-2.79.41,0,.58,1.62.35,3.28-.11.79-.18,1.46-.16,1.49.02.03.57-.26,1.21-.65,1.1-.66,1.19-.68,1.54-.37.52.47.71.17.79-1.22.05-.92,0-1.2-.23-1.27-.27-.07-.27-.06,0,.13.22.15.09.18-.5.09-1.15-.18-1.31-.37-1.27-1.54l.03-1.03.14.9c.11.71.14.53.15-.9,0-1.21-.04-1.61-.15-1.2-.12.45-.16.25-.18-.84-.02-1.4.25-2.14.44-1.22.05.25.08.14.06-.25-.02-.47-.14-.72-.36-.76-.24-.05-.44.27-.77,1.2M121.84,89.35c0,1.82.03,2.56.07,1.65s.04-2.4,0-3.31-.07-.17-.07,1.65M83.56,86.9c-.1.08-.2.34-.21.58-.02.37.04.41.35.24.38-.2.5-.69.21-.86-.09-.05-.25-.04-.35.04M80.06,87.18c0,.21.86.66,1.1.59.11-.03.37-.1.59-.14.21-.04.48-.18.6-.31.16-.17.11-.18-.2-.01-.32.16-.52.15-.82-.07-.41-.29-1.26-.33-1.26-.07M80.89,88.93c.32.13.47.61.19.61-.1,0-.31-.13-.47-.28-.17-.17-.39-.22-.54-.12-.3.19-.13.8.22.8.17,0,.16-.08-.02-.3-.16-.19-.17-.3-.03-.3.12,0,.29.13.38.29.14.24.36.25,1.46.04,1.81-.34,2.46-.16,1.71.47-.16.14-.26.32-.2.4.05.09-.02.15-.15.15-.14,0-.65,0-1.15.03-.66.03-.82.09-.6.23.6.39,1.49.21,2.55-.53.58-.4,1.05-.79,1.05-.88,0-.24-.6-.67-.74-.53-.07.07.02.18.21.25.18.07.33.2.33.3s-.14.12-.3.06c-.17-.07-.31,0-.31.16,0,.15-.09.07-.19-.17-.16-.39-.3-.44-1.1-.38-1.11.08-1.02-.1.15-.29.62-.1.37-.13-.93-.13-.98,0-1.66.06-1.5.13M115.5,89.99c-.17.36-.67,1.7-1.11,2.96-.79,2.27-1.32,3.72-1.65,4.51-.09.22-.22.67-.28,1l-.12.6.28-.5c.15-.28.62-1.54,1.03-2.81s.87-2.49,1-2.71c.34-.56,1.35-3.52,1.24-3.63-.05-.05-.23.2-.4.57M107.41,94.66c0,2.65.03,3.7.06,2.34.03-1.36.03-3.52,0-4.81-.03-1.29-.06-.18-.06,2.47M88.84,92.4c.11,1.8.21,1.89.23.2,0-.8-.06-1.45-.15-1.45s-.13.56-.09,1.25M150.47,91.65c0,.33.07.87.15,1.2.21.83.22.01.01-1-.14-.67-.17-.71-.17-.2M91.49,93.32c0,.65-.32.83-.74.42-.15-.15-.25-.12-.33.1-.08.22,0,.31.26.31.21,0,.47.15.58.34.15.27.22.14.33-.61.08-.52.09-1.01.02-1.08-.07-.07-.12.16-.12.51M33.62,95.86c0,.66.04.91.08.55.04-.36.04-.9,0-1.2-.05-.3-.08,0-.08.66M166.94,96.66c0,.88.04,1.22.08.75.04-.47.04-1.19,0-1.6-.04-.41-.08-.02-.08.86M70.99,95.79c-.31.23-.65.61-.76.85q-.21.43.15.03c.2-.22.62-.6.94-.85.73-.56.42-.58-.33-.02M150.51,99.87c0,2.32.03,3.24.06,2.04.04-1.19.04-3.09,0-4.21-.04-1.12-.06-.15-.06,2.17M151.11,100.07c0,2.43.03,3.39.06,2.14.04-1.25.04-3.23,0-4.41-.04-1.18-.06-.16-.06,2.27M167.35,100.07c0,2.32.03,3.24.06,2.04.04-1.19.04-3.09,0-4.21-.04-1.12-.06-.15-.06,2.17M121.67,98.26c-.09.8-.06,1.43.07,1.65.16.27.21-.05.22-1.29,0-.91-.03-1.65-.07-1.65s-.14.58-.22,1.29M49.87,100.07c0,1.21.03,1.68.07,1.05.04-.64.04-1.63,0-2.21-.04-.57-.07-.05-.07,1.16M49.26,99.97c0,1.05.03,1.48.08.95.04-.52.04-1.38,0-1.9-.04-.52-.08-.1-.08.95M68.82,99.52c-.11.3-.35.94-.53,1.42-.35.92-.21,1.7.47,2.79.67,1.07,1.24.07.73-1.29-.16-.42-.29-1.38-.3-2.12,0-.74-.04-1.35-.09-1.35s-.17.25-.28.55M107.39,101.47c0,.77.04,1.06.08.65.04-.42.04-1.05,0-1.4-.04-.36-.08-.02-.08.76M123.52,100.72c.47.04,1.24.04,1.7,0,.47-.04.09-.08-.85-.08s-1.32.03-.85.08M68.37,101.19c-.12.45.17,1.46.59,2.08.24.36.26.34.19-.2-.25-1.95-.56-2.7-.78-1.88M166.93,103.08c0,.77.04,1.06.08.65.04-.42.04-1.05,0-1.4-.04-.36-.08-.02-.08.76M33.62,103.88c0,.66.04.91.08.55.04-.36.04-.9,0-1.2-.05-.3-.08,0-.08.66M49.46,103.98c0,.72.04,1.01.08.65.04-.36.04-.94,0-1.3-.04-.36-.08-.07-.08.65M107.6,105.28c0,1.1.03,1.53.07.95.04-.58.04-1.48,0-2-.04-.52-.07-.04-.07,1.06M80.65,104.77c-1.58.48-3.58,1.61-2.84,1.61.31,0,3.65-1.51,3.66-1.65,0-.18-.12-.17-.81.04M80.56,106.79c-.07.11-.29.2-.49.2-.4,0-1.46.78-1.08.8.26,0,1.81-.66,2.27-.98.25-.17.23-.21-.14-.21-.24,0-.49.09-.56.2M107.95,108.41c.01.38.1.96.19,1.29.11.4.12.19.05-.6-.12-1.33-.28-1.76-.24-.69M149.66,109.34c-.13.75-.28,1.58-.34,1.86-.1.49-.1.49.09.05.25-.56.69-3.04.56-3.17-.05-.05-.2.52-.32,1.26M166.31,109.69c0,.33.06.87.14,1.2.13.55.15.51.3-.46.09-.59.1-1.12.04-1.19-.07-.07-.13.14-.14.46l-.02.58-.15-.6-.15-.6v.6M50.28,110.3c.29,1.63.55,2.73.63,2.65.1-.1-.52-3.21-.67-3.35-.06-.06-.04.26.04.7M68.12,110.5c-2.78,1.83-6.14,5.93-4.84,5.91.14,0,.97-.68,1.85-1.51,3.09-2.89,4.25-3.89,4.38-3.76.07.07.13-.06.13-.29s.05-.56.12-.73c.2-.52-.52-.35-1.64.38M148.57,113.84c-.31,1.12-.52,2.06-.48,2.1.11.11,1.18-3.72,1.1-3.94-.04-.1-.31.73-.62,1.84M65.45,113.26c-.12.12-.22.33-.22.47s-.11.28-.25.33c-.14.05-.18.16-.09.26.09.09.43-.11.77-.45.47-.47.55-.64.32-.73-.16-.06-.4-.01-.52.11M109.26,113.7c.07.44.19,1.25.27,1.8l.15,1v-1c.02-.55-.11-1.36-.26-1.8l-.28-.8.12.8M69.34,113.77c-.11.21-.77,1.09-1.46,1.95-1.26,1.56-1.46,2.13-.78,2.26.47.09,2.14-1.58,2.14-2.14s.33-.55.47.02c.12.49.03,1.5-.28,3.02-.11.53-.19,1.28-.19,1.66v.7l1.05-.13c.58-.07,1.2-.21,1.39-.31.19-.1.56-.17.84-.17s.55-.07.6-.16-.22-.12-.61-.08l-.71.08.07-2.13c.07-2.02.05-2.13-.33-2.13-.24,0-.31.06-.18.15.14.09.16.3.06.55-.09.22-.17.3-.17.18,0-.12-.22-.2-.47-.17-.32.04-.47-.06-.49-.32-.02-.26.07-.34.31-.26.19.06.09-.06-.21-.25-.42-.27-.57-.58-.66-1.27-.07-.5-.14-1.03-.16-1.17-.02-.16-.12-.11-.24.13M68.74,115.11c-.09.22-.35.62-.58.9-.24.28-.28.38-.09.24.27-.2.35-.2.43,0,.13.34.58-.82.48-1.23-.06-.26-.11-.24-.24.08M147.51,117.24c-.19.58-.56,1.54-.82,2.12-.54,1.23-.6,1.52-.17.91.36-.52,1.57-3.87,1.44-4-.05-.05-.25.38-.45.97M52.61,116.72c-.01.25.84,2.47,1.16,3.02.38.65.25.25-.46-1.52-.38-.94-.69-1.61-.7-1.49M69.79,119.37c-.17.85-.29,1.57-.28,1.59.01.02.45-.02.98-.08l.95-.11v-1.11c0-1.29-.16-1.31-.27-.03-.07.83-.12.89-.72.95-.54.05-.63,0-.54-.3.16-.58.38-2.47.28-2.47-.05,0-.23.7-.39,1.55M109.44,118.21c-.17.27.38.36,3.71.59,1.7.12,3.28.13,3.81.02.89-.17.89-.17-.33-.14-.68.02-1.2-.02-1.16-.09.11-.18-4.03-.41-4.65-.26-.38.1-.5.07-.4-.09.09-.15-.03-.23-.36-.23-.28,0-.56.09-.62.19M52.86,119.02c.24.77.82,2.12.98,2.31.21.23-.57-1.84-.88-2.3-.17-.26-.19-.26-.11,0M117.45,119.03c-.6.12-.43.14.7.09,1.1-.05,1.34-.02.9.11-.44.13-.25.15.7.08.92-.07,1.21-.04,1,.11-.24.16-.2.2.2.18.28-.01.77-.08,1.1-.15.46-.1.15-.19-1.34-.38-2.1-.26-2.08-.26-3.27-.03M64.77,120.26c-.27.58-.55,1.22-.62,1.41-.06.19-.27.35-.46.35s-.29.05-.23.11c.2.2,1.16-.15,1.16-.43,0-.15.08-.28.18-.28s.13-.18.08-.4c-.06-.22-.01-.4.1-.4s.26.23.33.51c.09.37.23.48.47.41.19-.06.48-.02.64.09.22.14.09.2-.5.23-.49.02-.61.06-.3.11.28.04,1.04,0,1.7-.11.8-.12.98-.19.54-.2-.36-.01-.92-.16-1.24-.32-.48-.25-.59-.45-.64-1.15-.09-1.28-.6-1.24-1.22.09M122.46,119.62c-.36.16-.35.17.1.16.28,0,.77-.08,1.1-.16l.6-.15h-.7c-.39-.02-.88.06-1.1.15M127.47,120.02c.33.08.87.15,1.2.15.51,0,.47-.03-.2-.17-1.02-.21-1.84-.2-1,.01M125.19,120.09s.62.13,1.29.19c.79.07,1,.06.6-.05-.62-.17-2.04-.27-1.89-.14M128.48,120.63c1.02.21,1.84.2,1-.01-.33-.08-.87-.15-1.2-.15-.51,0-.47.03.2.17M145.41,122.34q-.71,1.64-2.1,1.19c-.29-.09-.27-.04.1.19.54.35.55.35-1.17-.1-1.31-.34-1.21-.11.12.26.63.18,1.33.39,1.54.47.27.1.34.08.24-.09-.09-.15.02-.24.32-.24.39,0,.57-.26,1.11-1.54.36-.84.62-1.57.58-1.6-.04-.04-.37.62-.73,1.46M55.21,122.98c0,.42.57.52,1.42.24,1.04-.34.86-.49-.21-.17-.7.21-.87.2-1.02-.04-.13-.21-.18-.22-.18-.03M145.52,123.42c-.17.33-.31.72-.31.88,0,.19-.15.26-.45.21-.25-.05-.14.04.25.19,1.34.53,1.54.56,1.54.24,0-.17-.1-.3-.23-.3s-.39-.12-.59-.27c-.34-.25-.34-.3-.03-.9.18-.35.28-.64.23-.64s-.24.27-.41.59M162.39,124.51c-.2.51-.16.68.06.32.17-.27.19-.27.19,0,0,.17-.09.44-.19.6-.17.27-.2.27-.2,0s-.03-.27-.2,0c-.27.41-.25.78.02.4.16-.23.19-.16.1.3-.1.52-.06.5.26-.2.45-.99.73-1.92.46-1.53-.15.22-.21.22-.28.01-.06-.18-.13-.16-.22.09M148.49,125.74c0,.31.48.55.75.38.1-.06.18-.03.18.08s.26.28.57.39c.45.16.57.14.57-.08,0-.15-.03-.28-.06-.28s-.5-.17-1.04-.38c-.78-.31-.98-.33-.98-.11M103.78,127.74c0,.66.04.91.08.55.04-.36.04-.9,0-1.2-.05-.3-.08,0-.08.66M130.85,128.94c0,.99.03,1.42.08.96.04-.47.04-1.28,0-1.8-.04-.53-.08-.15-.08.85M153.64,128.05c.15.28.34.37.61.28.27-.08.38-.04.34.14-.04.17.11.25.41.22.25-.03.41.04.34.14-.07.11.16.34.51.52.59.3.62.3.56-.03-.04-.19-.19-.39-.35-.44-.19-.06-.23,0-.13.18.08.15-.02.08-.22-.15-.38-.44-.85-.73-1.76-1.07-.48-.18-.5-.17-.3.21M160.9,128.19c-.12.35-.13.71-.03.87.15.23.18.23.2-.02.01-.17.01-.48,0-.7-.02-.3.01-.33.15-.13.15.21.21.2.31-.08.07-.19.09-.39.03-.45-.06-.06-.11.02-.11.18,0,.23-.03.24-.17.01-.13-.2-.23-.11-.38.32M156.73,129.57c.02.16.52.57,1.1.9.9.52,1.05.55.98.24-.05-.22-.22-.34-.44-.3-.22.04-.31-.02-.23-.15.08-.13,0-.16-.21-.08-.22.09-.3.05-.21-.09.07-.12.03-.29-.1-.37-.16-.1-.18-.06-.08.11.11.17.07.22-.12.16-.15-.06-.26-.19-.23-.31.02-.11-.08-.25-.23-.31-.17-.06-.26.01-.23.19M159.88,130.36c-.15.34-.35.49-.54.41-.6-.23-.28.45.41.85.69.41,1,.2.48-.31-.15-.15-.16-.34-.01-.6.11-.21.14-.49.05-.63-.1-.17-.23-.08-.39.28M105.19,131.65c0,.83.04,1.17.08.75.04-.41.04-1.09,0-1.5-.04-.41-.08-.08-.08.75M38.19,131.18c-.78.52-1.01.77-.85.93.16.16.29.15.47-.03.2-.2.17-.23-.15-.12-.4.13-.4.12-.01-.19.47-.38.79-.42.59-.07-.08.15-.07.18.04.08.1-.09.18-.26.18-.38s.13-.26.28-.31c.18-.06.22,0,.13.15-.12.19-.06.2.27.02.51-.28.56-.45.07-.27-.31.12-.32.09-.08-.21.37-.45.3-.42-.95.4M161.33,132.35c.02.17.99,1.06,2.14,1.98,1.15.92,2.36,1.96,2.69,2.31.54.58.57.68.32,1.08-.25.4-.24.42.03.19.38-.32.58-1.21.3-1.38-.12-.07-.14-.03-.06.1.08.13.09.23.02.23-.21,0-.7-.56-.7-.8,0-.28-1.22-1.33-1.46-1.25-.1.03-.13-.02-.07-.12.14-.23-1.1-1.15-1.45-1.07-.15.03-.22-.02-.16-.12.06-.1-.28-.47-.76-.82-.6-.43-.86-.53-.83-.33M129.45,134.25c0,.94.03,1.32.08.85.04-.47.04-1.24,0-1.7-.04-.47-.08-.09-.08.85M35.16,133.35c-.14.17-.18.3-.1.3s.04.14-.1.3c-.35.42-.71.38-.38-.05.15-.19-.29.14-.98.73-.69.59-1.25,1.22-1.25,1.4,0,.28.03.28.2.02.11-.17.2-.21.2-.11,0,.11.39-.17.85-.62.47-.45,1.19-1.06,1.6-1.37.41-.3.7-.63.64-.73-.16-.26-.41-.22-.69.12M96.06,136.61c1.36.03,3.52.03,4.81,0,1.29-.03.18-.06-2.47-.06-2.65,0-3.7.03-2.34.06M90.14,136.8c.53.04,1.34.04,1.8,0,.47-.04.03-.08-.96-.08s-1.37.04-.85.08M105.38,136.81c.64.04,1.63.04,2.21,0,.57-.04.05-.07-1.16-.07-1.21,0-1.68.03-1.05.07M95.26,137.21c2.02.03,5.27.03,7.22,0,1.95-.03.3-.06-3.67-.06-3.97,0-5.56.03-3.55.06M106.63,137.25c-.23.09.2.12,1,.06.77-.06,1.44-.14,1.49-.18.17-.15-2.1-.04-2.49.12M110.74,137.26l-.9.14.9.02c.5,0,1.31-.06,1.8-.15l.9-.16h-.9c-.5,0-1.31.07-1.8.15M89.24,137.4c.36.04.9.04,1.2,0,.3-.05,0-.08-.66-.08-.66,0-.91.04-.55.08M113.04,137.46c-.67.12-.71.15-.2.16.33,0,1.01-.06,1.5-.15.81-.14.83-.16.2-.16-.39,0-1.06.07-1.5.15M82.47,137.87c-.54.09-.14.11,1,.04,1.05-.06,1.94-.14,1.99-.18.14-.12-2.02-.03-2.99.14M73.15,138.76c-.66.14-.98.26-.7.27.28,0,1.04-.11,1.7-.25.66-.15.98-.27.7-.27-.28,0-1.04.12-1.7.25M72.65,139.31c-1.16.23-2.01.44-1.9.48s1.33-.15,2.71-.42c1.38-.26,2.24-.48,1.9-.48-.33,0-1.55.19-2.71.42M70.14,139.36c-.55.14-.82.26-.6.26.22,0,.85-.11,1.4-.25.55-.14.82-.26.6-.26-.22,0-.85.11-1.4.25M126.77,139.37l.9.27-1.2-.09c-.99-.07-1.08-.05-.5.09,1.07.27,2.63.44,2.01.21-.37-.14-.22-.16.6-.09,1.05.08,1.03.07-.5-.3-1.84-.44-2.64-.5-1.3-.1M165.14,139.7c-.06.09-.03.17.06.17.09,0,0,.1-.18.21-.21.12-.29.33-.22.53.08.21.05.28-.09.19-.12-.07-.28-.04-.35.07-.07.11-.03.2.09.2.16,0,.16.11,0,.4-.47.88,0,.33.65-.77.48-.81.61-1.17.42-1.17-.15,0-.33.08-.38.17M69.64,140.04c0,.16,1.94,1.59,2.61,1.92.41.2-.08-.19-1.31-1.05-.74-.52-.89-.71-.67-.85.21-.14.17-.18-.17-.18-.25,0-.45.07-.45.17M132.09,140.65c-.34.13-.31.17.22.28.34.07.83.07,1.09.02.34-.08.4-.05.21.08-.21.15-.15.22.23.32.28.07.66.07.85,0,.24-.09.3-.06.2.1-.08.13-.04.23.08.23s.19-.11.14-.25c-.05-.14-.34-.23-.67-.19-.4.04-.49,0-.31-.12.37-.24-.51-.47-1.16-.29-.33.09-.43.05-.33-.11.16-.26,0-.28-.57-.05M60.72,141.85c-.9.32-.95.36-.5.48.65.17,2.79-.48,2.27-.69-.51-.2-.64-.19-1.76.21M127.44,142.34c-.68.46-1.4.95-1.6,1.09-.2.14.1.02.67-.28.89-.46,2.56-1.68,2.27-1.66-.06,0-.65.38-1.33.84M58.74,142.51c-.43.16-.51.25-.3.38.39.25.73.21.37-.04-.23-.16-.16-.18.3-.09.39.08.51.06.33-.06-.23-.15-.23-.2,0-.29.5-.2-.12-.11-.7.1M140.06,142.82c.08.05.11.16.05.25-.14.23,1.05.61,1.44.46.21-.08.28-.05.19.1-.09.14.17.32.69.47,1.03.31,1.17.65.56,1.32-.26.29-.35.45-.2.36.19-.11.24-.07.18.12-.06.15-.2.26-.32.23s-.88.73-1.68,1.69-1.72,2.03-2.03,2.4c-.31.37-.47.67-.35.67s.22.15.22.33c0,.28-.05.29-.35.06-.19-.15,0,.11.44.58.44.46.84.84.89.84s-.16-.27-.48-.6-.49-.6-.38-.6c.3,0,1.35,1.16,1.41,1.55.03.19-.15.53-.39.75-.24.22-.36.33-.25.25.37-.28.56-.15.29.2-.25.32-.24.32.07.08.19-.15.31-.34.26-.42-.05-.08.06-.31.25-.5.33-.34.29-.41-.7-1.39l-1.04-1.04,1.29-1.39c.88-.95,1.21-1.43,1.05-1.54-.22-.14-.06-.24.3-.19.08.01.48-.4.9-.92.42-.52,1.05-1.25,1.41-1.62.59-.62.68-.65.97-.36.31.31.69.41,1.26.33.15-.02.22.05.15.16-.07.11.02.25.19.31.2.08.26.04.17-.11-.08-.14-.03-.18.14-.12.15.06.26.19.23.31-.02.11.09.26.26.32.17.07.25.03.18-.08-.07-.11,0-.2.14-.21.14,0-.31-.28-1.01-.6-.7-.32-1.35-.54-1.45-.47-.1.06-.18.02-.18-.08,0-.25-1.37-.72-1.9-.66-.28.03-.32,0-.15-.13.18-.12.03-.24-.48-.4-.41-.12-.82-.18-.91-.12-.09.06-.17.02-.17-.09s-.2-.15-.45-.09c-.36.08-.39.06-.15-.12.18-.13.21-.22.07-.22-.13,0-.35-.03-.5-.07-.15-.04-.2-.03-.12.02M57.81,143.09c.24.17.21.2-.15.12-.27-.06-.4-.02-.33.1.08.13-.04.15-.33.06-.33-.1-.41-.08-.3.1s.02.21-.33.11c-.37-.1-.41-.09-.18.08.25.17.25.21.02.21-.16,0-.24.04-.19.1.05.05.61-.1,1.25-.33.78-.29,1.07-.48.89-.59-.39-.24-.71-.2-.36.05M74.65,143.44c.54.45,4.65,2.64,4.94,2.63.1,0-.82-.53-2.03-1.16-1.21-.64-2.48-1.32-2.81-1.52l-.6-.37.5.42M55,143.99c-.46.28-.47.29-.05.18.36-.1.45-.04.45.29,0,.23.07.41.15.41s.15-.27.16-.6c0-.69-.02-.7-.71-.29M122.14,145.26c-1.5.74-3.78,1.71-5.06,2.14-1.28.43-2.26.81-2.17.84.61.2,9.06-3.35,9.95-4.19.31-.28.15-.22-2.72,1.21M52.4,145.09c-.72.34-1.6.75-1.95.92-.36.17-.6.39-.53.5.07.11,0,.17-.15.14-.15-.03-.49.02-.75.11-.35.12-.41.21-.22.32.33.2,1.63-.4,1.46-.67-.07-.12.01-.15.22-.07.23.09.3.06.2-.1-.1-.16-.03-.19.2-.1.22.09.3.05.21-.09-.09-.14,0-.18.24-.11.21.06.6-.02.88-.17.31-.17.39-.29.2-.3-.38-.02.58-.59,1-.59.27,0,.27.02,0,.19-.17.11-.21.19-.1.19s.34-.09.5-.19c.22-.14.23-.2.04-.2-.14,0-.21-.09-.14-.2.17-.28.16-.27-1.3.42M162.1,145.43c-.16.45-.14.59.05.59.15,0,.21-.17.16-.42-.07-.3-.04-.35.1-.15.15.21.22.2.32-.08.07-.19.09-.39.03-.45-.06-.06-.11.02-.11.18,0,.23-.03.24-.17.01-.13-.2-.22-.12-.38.32M78.27,146.05c1.5.75,1.79.85,1.79.62,0-.11-.12-.19-.26-.19s-.73-.23-1.3-.5c-.57-.28-1.11-.5-1.19-.49-.08,0,.35.26.96.56M56.29,146.23c.21.25.43.41.49.35s.38.15.71.45l.61.55-.59-.71c-.33-.39-.62-.63-.66-.54-.04.1-.26.01-.5-.19l-.43-.36.38.45M80.57,146.45c.44.2,1.03.43,1.3.5.28.07.14-.04-.3-.24-.44-.2-1.03-.43-1.3-.5-.28-.07-.14.04.3.24M148.71,146.46c.07.12.02.22-.13.23-.14,0,.32.31,1.04.68.72.37,1.37.63,1.45.58.08-.05.15,0,.15.1s.16.18.35.16c.19-.02.33.09.3.22-.05.25.19.33.72.26.15-.02.22.05.15.15-.07.11.11.34.4.53.49.32.51.32.44-.03-.05-.23-.22-.34-.44-.3-.2.04-.31-.03-.24-.14.07-.11-.67-.64-1.63-1.19-2.54-1.43-2.73-1.52-2.57-1.27M58.37,148.61c1.63,1.81,1.84,2.2,1.44,2.61-.14.14-.12.21.06.21.53,0,.37-1.04-.25-1.64-.33-.32-.6-.67-.6-.77,0-.29.99.67,1.43,1.38.21.33.37.48.37.33,0-.31-2.62-3.09-2.77-2.93-.06.06-.38-.15-.71-.45-.33-.3.13.27,1.04,1.28M47.8,147.36c-.27.15-.51.41-.53.59-.04.28.06.26.74-.08.79-.4,1.08-.69.45-.45-.22.09-.29.05-.19-.11.18-.29.14-.29-.46.05M116.45,148.3c-.55.21-.74.34-.42.27.63-.12,1.95-.66,1.63-.66-.11,0-.65.17-1.2.39M45.96,148.38c-.01.06-.04.19-.05.29-.01.11-.21.34-.43.52-.22.18-.04.12.4-.12.87-.49,1.49-.98.76-.61-.54.28-.73.29-.56.02.07-.11.07-.2.01-.2s-.12.05-.14.1M86.58,148.59c.44.15.98.26,1.2.26.22,0-.05-.13-.6-.28-1.25-.35-1.68-.34-.6.02M113.51,148.51c-.29.11-1.51.41-2.71.67-1.2.26-1.97.48-1.72.49.25,0,1.24-.16,2.21-.37,1.78-.4,3.6-.98,3.05-.98-.17,0-.54.09-.83.2M140.18,149.04c-.83.89-1.27,1.45-1.13,1.45.06,0,.52-.5,1.04-1.1,1.08-1.26,1.13-1.46.09-.35M85.98,148.97c.44.15,1.12.32,1.5.39.66.11.66.11-.11-.15-.44-.15-1.12-.32-1.5-.39-.66-.11-.66-.11.11.15M53.2,149.33c0,.1-.09.12-.21.05-.11-.07-.18-.02-.15.11.03.13-.07.29-.22.34-.19.07-.23.01-.12-.18.09-.15-.71.58-1.78,1.62-1.06,1.05-1.93,1.95-1.93,2s.81-.71,1.8-1.7,1.8-1.71,1.8-1.6-.83,1.05-1.85,2.1c-1.53,1.58-1.45,1.51.48-.37,2.11-2.07,2.39-2.27,2.95-2.19.34.05.57.03.52-.05-.13-.22-1.29-.34-1.29-.14M144.1,149.6c-.38.3-.37.3.05.1.79-.38,2.17-.17,2.17.34,0,.34,1.96,2.44,2.16,2.32.11-.07.16-.05.1.05-.15.24.4,1,.59.81.16-.16,1.27.84,1.27,1.14,0,.11-.29-.06-.65-.38-.36-.32.34.44,1.55,1.68,1.31,1.35,2.59,2.46,3.15,2.75.96.49,1.51.65.96.28-.22-.15-.08-.17.5-.09l.8.11-.9-.31c-.5-.17-1.1-.32-1.35-.33-.25,0-.4-.08-.35-.17.15-.24-.46-.65-.73-.49-.15.09-.19.06-.1-.07.08-.12-.81-1.21-2.04-2.49-1.2-1.25-2.66-2.81-3.26-3.48-1.82-2.03-2.94-2.55-3.91-1.78M42.98,150.3c-.61.44-1.1.9-1.1,1.03s-.13.27-.28.32c-.19.06-.23,0-.12-.18.09-.15-.03-.1-.27.11-.24.21-.39.43-.34.48.05.05-.01.24-.15.41-.14.17.25-.08.85-.56.61-.48,1.1-.96,1.1-1.07s.13-.25.28-.3c.19-.06.23,0,.12.18-.09.16-.09.21.02.11.1-.09.18-.26.18-.38s.13-.26.28-.31c.18-.06.22,0,.13.15-.19.3.38.02,1-.5.38-.32.37-.32-.14-.01-.68.4-.88.41-.56.02.37-.45.21-.37-1,.51M154.34,149.69c.12.2.07.23-.22.13-.28-.1-.25-.03.11.25.36.28.54.32.65.15.14-.23.17-.19.23.26.01.11.38.44.8.73.43.29.71.42.62.28-.1-.17-.06-.22.12-.15.15.06.26.19.23.31-.02.11.28.46.69.76.4.31.66.44.57.29-.11-.18-.07-.23.12-.16.15.06.26.19.24.3-.02.11.27.5.65.87.58.56.7.82.72,1.58.06,2.2.31,2.02.4-.29.05-1.32.03-2.63-.06-2.91-.1-.31-.11-.18-.04.38.08.57.05.83-.09.75-.11-.07-.24-.03-.28.1-.04.12-.61-.22-1.27-.76-1.08-.89-3.36-2.55-4.08-2.96-.2-.12-.24-.09-.12.1M55.06,150.75c.31,1.32.32,1.35.54,1.35.11,0,.2-.2.19-.45-.01-.43-.02-.43-.2-.05-.13.28-.15.1-.08-.6.07-.72.04-.89-.09-.6-.15.33-.19.34-.2.06,0-.19-.09-.39-.18-.44-.09-.06-.08.27.03.74M95.65,150.23c.36.04.9.04,1.2,0,.3-.05,0-.08-.66-.08-.66,0-.91.04-.55.08M143.72,150.99c.06.7.03.91-.1.7-.17-.27-.2-.27-.2,0,0,.17.08.42.17.57.28.44.42-.55.21-1.47-.17-.78-.18-.77-.09.2M147.24,151.02c.49.57.93.99.98.95.05-.05-.35-.51-.89-1.03l-.98-.95.89,1.03M99.15,150.44c.74.04,2,.04,2.81,0,.8-.04.2-.07-1.34-.07-1.54,0-2.2.03-1.46.07M99.36,151.04c.63.04,1.67.04,2.31,0s.12-.07-1.15-.07-1.79.03-1.15.07M59.39,152.95c.32.41.18.45-.38.1-.34-.21-.46-.18-.85.24-.38.41-.38.43-.04.15.23-.19.48-.34.57-.34s.71.39,1.39.88c.68.48,1.36.83,1.52.78.17-.06.22-.01.14.12-.19.31,1.43,1.44,1.83,1.29.2-.08.27-.04.19.09-.07.12,0,.31.14.44.21.17.3.16.39-.06.07-.17-.08-.42-.36-.6-.28-.18-.5-.23-.54-.11-.04.11-.24.06-.47-.12q-.4-.32,0-.2c.33.1.31.05-.1-.27-.36-.28-.54-.32-.65-.15-.14.22-.17.19-.23-.25-.01-.1-.14-.3-.28-.44-.2-.2-.25-.2-.25,0,0,.14-.09.2-.2.13-.11-.07-.16-.2-.11-.28.05-.09-.19-.37-.55-.63-.37-.27-.53-.33-.37-.13.15.19.19.34.07.34-.25,0-.68-.5-.54-.64.06-.06-.06-.23-.25-.38-.32-.25-.33-.25-.08.07M39.21,154.98c0,.66.05.89.18.7.16-.25.18-.25.18,0,0,.16.04.24.09.19.05-.05-.03-.49-.18-.99l-.27-.89v.99M48.31,154.25c-.08.08-.26.15-.38.15s-.23.14-.23.3-.11.3-.25.3-.23.06-.2.14c.03.08-.31.53-.75,1-.44.47-.15.23.65-.54.8-.77,1.45-1.42,1.45-1.45,0-.1-.13-.06-.28.09M139.05,154.83c-.25.17-.45.22-.45.1s-.5.11-1.11.51c-.8.52-1.04.77-.85.9.18.12.14.16-.14.12-.22-.03-.83.2-1.35.51-.98.58-1.22.81-.6.58.32-.12.32-.1.05.23-.16.2.24.02.9-.4,2.05-1.3,4.11-2.71,4.11-2.81,0-.13-.04-.11-.55.24M151.73,155.9c1.56,1.57,2.08,1.92.69.47-.49-.52-1.09-1.15-1.34-1.4-.24-.26-.51-.47-.6-.47s.47.63,1.24,1.4M98.86,154.84c.43.08.45.17.45,1.96s.18,2.42.52,1.88c.09-.14.06-.18-.08-.1-.16.1-.24-.44-.28-1.82-.06-1.94-.06-1.96-.56-1.98-.44-.02-.44,0-.05.06M64.83,156.82c.27.33.26.35-.06.23-.49-.18-.44,0,.07.27.34.18.39.17.27-.03-.11-.18-.06-.22.19-.12.19.07.41.14.48.14.07,0,0,.08-.14.18-.22.14-.18.23.2.43.41.22.44.21.24-.03-.13-.16-.25-.37-.28-.48-.03-.11-.32-.37-.66-.58-.58-.35-.6-.35-.32-.01M91.57,157.14c-.09.14-.06.18.09.09.17-.1.23.35.23,1.66v1.8l-.55.09c-.52.09-.52.09.05.06l.6-.03.06-1.95c.05-1.83-.09-2.35-.48-1.72M132.91,158.24c-.4.21-.5.36-.33.47.18.11.16.19-.09.28-.47.18-.55.16-.39-.09.07-.12-.15-.07-.5.11-.37.19-.57.42-.49.55.09.14.03.18-.16.11-.4-.15-1.6.44-1.43.71.08.13,0,.16-.17.1-.17-.07-.3,0-.3.15,0,.22.11.22.62,0,.34-.14.59-.37.56-.51-.03-.14.06-.21.2-.15.41.16,1.21-.21,1.04-.48-.09-.15-.04-.2.14-.12.16.06.6-.05.99-.26.38-.2.56-.38.39-.38-.21,0-.14-.14.2-.4.6-.47.51-.5-.28-.07M159.58,158.04c-.08.08-.29.16-.48.19-.19.03-.66.14-1.05.24l-.7.19.6.04.6.04-.6.17c-.53.15-.51.16.19.08.49-.05.98-.28,1.3-.59.28-.28.46-.51.39-.51s-.17.06-.25.14M66.43,158.18c0,.08,1.77,1.13,1.9,1.13.02,0,.04-.14.04-.31s-.26-.44-.57-.61c-.35-.18-.57-.21-.57-.08,0,.15-.12.15-.4,0-.22-.12-.4-.17-.4-.12M92.96,159.51c0,.72.04,1.01.08.65.04-.36.04-.94,0-1.3-.04-.36-.08-.07-.08.65M98.2,161.21v3.01s.51.02.51.02c.43.02.43,0,.06-.06-.43-.08-.45-.17-.51-3.03l-.06-2.94v3.01M68.64,159.21c0,.16.28.43.62.61.41.21.57.24.47.07-.11-.18-.06-.21.18-.12.85.34.98.33.33-.04-.39-.22-.73-.32-.76-.22-.03.09-.2.12-.37.06-.22-.08-.24-.16-.07-.26.16-.1.14-.18-.08-.27-.2-.08-.32-.01-.32.17M127.67,160.96c-.44.24-1.87.85-3.18,1.36-1.8.71-2.27.96-1.94,1.05.6.16,2.73-.65,2.37-.91-.18-.13-.11-.15.21-.08.59.13,1.07-.04.9-.32-.08-.14,0-.16.21-.08.22.09.3.05.21-.09-.09-.14,0-.18.24-.11.21.06.6-.02.88-.17.31-.18.39-.29.2-.3-.17,0,.02-.19.4-.4s.61-.38.5-.38-.56.19-1,.43M78.66,163.5c.27.19.27.21,0,.23-.2.01-.17.07.1.18.22.09.63.12.9.07.41-.08.45-.06.2.14-.26.2-.25.22.07.12.2-.07.47-.13.6-.13.24-.01-.75-.41-1.67-.67-.38-.11-.43-.09-.2.07M119.27,164.34c.09.14,0,.18-.24.1-.21-.06-.78.01-1.28.17s-.81.29-.7.3c.11,0,.43.07.7.13.4.09.44.07.2-.11-.25-.18-.21-.22.2-.19.98.07,1.4-.03,1.4-.33,0-.17-.1-.3-.21-.3s-.15.1-.08.22M82.18,164.71c-.18.3.23.44.83.29.5-.13.51-.15.16-.29-.55-.21-.85-.21-.99,0M85.68,165.52c.39.13.42.16.12.18-.21.01-.34.07-.28.12.06.06.41.04.79-.04.66-.13.66-.14.18-.28-.28-.08-.68-.14-.9-.14-.32,0-.3.03.1.16M111.84,165.91l-.6.14.79.14c.44.07.83.09.89.04s-.08-.1-.29-.11c-.37-.01-.37-.02.02-.19.48-.2.07-.21-.8-.02M93.39,166.93l-.8.14h.8c.44.01,1.3-.05,1.9-.14l1.1-.15h-1.1c-.61,0-1.46.06-1.9.14M104.14,166.8s.9.12,1.89.18c1.27.08,1.54.06.9-.06-.91-.17-2.94-.26-2.79-.12M95.9,167.11c-.39.07,1.06.1,3.21.06,2.15-.04,4-.11,4.11-.14.38-.13-6.62-.05-7.32.09M99.47,167.48c.58.04,1.48.04,2,0,.52-.04.04-.07-1.06-.07-1.1,0-1.53.03-.95.07"/>
</svg>