<?xml version="1.0" encoding="UTF-8"?>
<svg id="Layer_1" xmlns="http://www.w3.org/2000/svg" version="1.1" viewBox="0 0 200 200">
  <!-- Generator: Adobe Illustrator 30.1.0, SVG Export Plug-In . SVG Version: 2.1.1 Build 136)  -->
  <defs>
    <style>
      .st0 {
        fill: #183f7c;
        fill-rule: evenodd;
      }
    </style>
  </defs>
  <path class="st0" d="M75.44,59.33c-5.75,2.34-11.13,5.66-17.01,10.5-2.47,2.03-7.61,7.21-9.49,9.56-6.9,8.61-10.92,18.44-11.69,28.57-.8,10.48,2.84,17.38,10.57,20.08,1.89.66,5.75.81,8.19.32,5.05-1.02,10.68-4.24,14.9-8.52,6.09-6.17,10.15-13.54,12.32-22.38,2.28-9.26,2.28-19.67,0-30.17-1-4.61-1.85-5.96-3.28-5.22-.86.45-1.57,1.46-2.69,3.87-1.54,3.29-2.13,5.81-2.14,9.09,0,2.44.08,3.05.78,5.78,2.17,8.43,2.59,15.26,1.34,21.96-1.67,8.97-6.58,15.53-14.45,19.33-5.47,2.64-9.94,1.87-12.7-2.18-2.16-3.17-3.04-7.2-3.04-13.87,0-8.02,1.32-13.87,4.62-20.44,3.64-7.25,10.89-15.75,18.69-21.9,2.06-1.62,3.49-2.59,6.89-4.65,1.06-.64.04-.5-1.81.26M103.42,90.64c-2.73.64-4.27,1.16-6.11,2.03-5.74,2.74-9.5,7.38-10.71,13.24-.49,2.37-.31,7.16.34,9.45,1.7,5.91,5.83,9.82,12.31,11.67,4.41,1.25,10.89,1.14,15.94-.28l.65-.18.06-2.11c.04-1.19-.03-2.11-.14-2.11s-.83.29-1.59.65c-2.58,1.21-4.54,1.61-7.93,1.61-3.45,0-4.86-.28-7.46-1.52-2.88-1.38-5.37-4.44-6.5-8-2.2-6.93-.31-14.75,4.48-18.52,2.63-2.08,5.26-2.89,9.26-2.88,3.27.01,4.96.36,7.46,1.51.91.42,1.69.73,1.73.69.04-.04.1-.93.13-1.98.06-2.26.02-2.31-2.32-2.88-1.5-.37-8.52-.65-9.62-.38M153.14,90.86c-6.8.97-10.53,4.74-10.07,10.17.3,3.62,2.38,6.01,8.33,9.55,5.85,3.49,6.64,4.41,6.64,7.73,0,2.12-.55,3.46-1.98,4.84-3.29,3.15-8.8,3.3-14.33.4-1.86-.98-3.56-2.48-5.62-4.95-1.91-2.3-5.38-7.13-5.41-7.55-.01-.17.53-.51,1.3-.8,2.83-1.07,5.24-2.72,6.5-4.44,1.86-2.53,2.19-6.08.83-8.84-1.27-2.59-4.2-4.59-7.67-5.26-1.32-.25-10.33-.5-12.88-.36-.31.02-.31.15.06,1.23.39,1.15.41,2.05.35,17.06-.06,14.37-.1,15.93-.43,16.67l-.37.82h6.71l-.48-1.04c-.46-.99-.48-1.35-.54-8.12l-.06-7.09.6.68c.33.37,2.08,2.57,3.87,4.89s3.84,4.78,4.53,5.47c1.42,1.42,4.05,3.33,5.77,4.2,8.03,4.04,18.59,2.46,22.48-3.35,1.18-1.77,1.46-2.75,1.44-5.15-.01-1.81-.08-2.13-.79-3.6-1.26-2.63-2.35-3.55-8.45-7.13-3.98-2.34-5.61-4.24-5.84-6.81-.34-3.72,2.12-6.11,6.25-6.1,1.94,0,3.99.52,5.61,1.41l1.34.74.09-2.11c.06-1.33,0-2.21-.15-2.38-.13-.15-.77-.37-1.43-.5-1.35-.26-5.22-.45-6.21-.31M124.08,101.36l.06,7.36,1.64-.07c3.98-.16,7.13-1.75,8.67-4.37.46-.79.59-1.34.67-2.8.11-2.04-.19-3.12-1.25-4.58-1.22-1.68-4.66-2.9-8.19-2.9h-1.65l.06,7.36M68.98,103.94c-1.33,1.47-2.45,2.02-6.45,3.15-3.77,1.07-5.49,2-7.31,3.96-1.61,1.74-2.49,3.57-2.65,5.56-.1,1.24-.05,1.65.32,2.36,1.53,2.99,4.69,3.29,8.26.78,2.63-1.85,4.93-4.93,7.38-9.89,1.63-3.29,2.34-5.31,2.25-6.31-.1-1.05-.58-.95-1.79.39M160.26,125.69c-.65.69-.62,1.68.07,2.33,1.42,1.34,3.52-.21,2.63-1.94-.54-1.04-1.9-1.24-2.7-.39M161.22,125.6c-.37.14-.33.18.24.3.62.12.67.2.65,1.03-.02.87-.04.88-.38.46-.35-.44-.36-.44-.6.1-.34.75.24.95,1.02.37.75-.56.83-1.14.25-1.87-.5-.63-.54-.64-1.18-.39M160.37,125.99c-.22.22-.17,1.22.07,1.6.15.24.21.04.21-.71,0-1.05-.03-1.15-.29-.89M39.77,133.47c-2,.64-3.09,2.26-2.93,4.38.11,1.56.59,2.3,1.92,2.98,1.46.75,3.92.58,3.92-.27,0-.26-.13-.3-.6-.17-.33.09-1.01.17-1.51.16-1.53,0-2.68-1.42-2.68-3.28,0-1.52.55-2.47,1.7-2.98.92-.41,1.29-.41,2.61-.04.36.1.49.05.49-.2,0-.19-.09-.4-.2-.46-.39-.24-2.1-.32-2.71-.13M65.72,133.56c-1.75.65-2.54,1.86-2.54,3.9,0,1.52.44,2.43,1.56,3.27,1.57,1.16,4.28.5,5.33-1.29.5-.85.56-1.16.48-2.48-.06-1.09-.21-1.68-.54-2.12-.96-1.29-2.8-1.83-4.3-1.28M82.32,133.56c-1.92.68-2.78,1.89-2.78,3.88,0,2.11,1.17,3.48,3.21,3.79,1.3.2,2.54-.11,2.64-.65.07-.34,0-.39-.43-.26-1.4.42-2.12.4-2.87-.07-.97-.6-1.46-1.64-1.45-3.11,0-2.49,1.92-3.78,4.27-2.87.21.08.31-.03.31-.31,0-.7-1.47-.9-2.89-.39M123.2,133.69c-.8.49-1.23,1.36-1.04,2.12.07.27.76,1,1.54,1.61,1.24.97,1.41,1.2,1.41,1.84,0,1.24-1.13,1.74-2.41,1.08-.63-.32-.64-.32-.64.2,0,.47.12.56.94.68,1.64.25,3.2-.82,3.2-2.19,0-.64-.63-1.59-1.36-2.04-1.7-1.05-2.13-1.98-1.27-2.75.41-.38.93-.38,1.81-.01.29.12.38.06.38-.27,0-.78-1.47-.93-2.57-.27M149.54,133.6c-2.32,1.01-3.26,3.54-2.13,5.76.35.68.77,1.11,1.45,1.46,1.53.8,3.95.62,3.95-.29,0-.24-.11-.3-.38-.19-2.25.92-4.41-.56-4.42-3.02,0-1.42.67-2.6,1.76-3.09.79-.36,1.2-.35,2.54.03.39.11.49.05.49-.29,0-.73-1.92-.94-3.27-.36M160.53,133.47c-.69.28-1.39,1.29-1.39,2.01,0,.65.23.93,2.15,2.59,1.02.88,1.09,1.21.45,2.03-.52.66-1.22.74-2.18.24-.61-.31-.64-.31-.64.1,0,.57.63.89,1.75.89.74,0,1.04-.14,1.65-.74,1.06-1.06,1.04-2.11-.04-3.05-2.47-2.14-2.62-2.4-1.81-3.21.45-.45.98-.47,1.99-.08.29.11.38.04.38-.29,0-.64-1.28-.91-2.31-.49M46.13,134.51c-.25.57-.98,2.24-1.62,3.71-.65,1.47-1.18,2.73-1.18,2.8s.21.09.46.05c.33-.05.6-.41.94-1.27l.48-1.2,1.43-.06,1.43-.06.49,1.32c.41,1.1.58,1.32,1.01,1.32.29,0,.52-.1.52-.21s-.49-1.25-1.08-2.51c-.59-1.26-1.29-2.88-1.56-3.6-.26-.72-.57-1.31-.68-1.31s-.4.47-.65,1.04M49.7,133.85c.06.3.26.36,1,.31l.92-.07v7.01h1.09v-6.98h1.09c.82,0,1.09-.08,1.09-.33,0-.27-.44-.33-2.63-.33-2.38,0-2.63.04-2.56.38M56.33,137.23c.09,3.55.12,3.77.53,3.83.41.06.44-.05.44-1.8v-1.87h3.49v1.85c0,1.84,0,1.85.55,1.85h.55l-.06-3.76c-.06-3.71-.07-3.76-.55-3.83-.47-.07-.49,0-.49,1.58v1.65h-3.49v-1.64c0-1.59-.02-1.64-.53-1.64h-.53l.1,3.76M71.9,137.29v3.82h1.83c1.75,0,2.1-.13,2.1-.77,0-.05-.63-.02-1.39.05l-1.39.13-.16-1.14c-.09-.63-.13-2.04-.1-3.14.07-2.68.06-2.76-.45-2.76-.42,0-.44.15-.44,3.82M77.14,137.29c0,3.67.02,3.82.44,3.82.24,0,.44-.07.44-.16.01-.39.02-6.74,0-7.09,0-.23-.18-.38-.45-.38-.42,0-.44.15-.44,3.82M89.79,137.29v3.82h.56c.55,0,.56-.02.51-1.53-.02-.84,0-1.58.06-1.64.06-.06.67.63,1.36,1.53,1.07,1.4,1.35,1.64,1.91,1.64h.66l-.83-1.04c-.46-.57-1.06-1.31-1.33-1.65-.58-.71-.64-1.02-.19-1.02.17,0,.56-.3.87-.67.76-.91.74-1.8-.07-2.62-.58-.58-.78-.64-2.07-.64h-1.43v3.82M95.67,137.29v3.82h1.85c1.09,0,1.85-.09,1.85-.22,0-.12,0-.29,0-.38,0-.09-.59-.13-1.31-.09l-1.31.07v-3.09h1.2c.9,0,1.2-.08,1.2-.32s-.33-.33-1.25-.38l-1.25-.07v-2.4l1.36-.06c1.02-.05,1.36-.15,1.36-.38,0-.25-.38-.32-1.85-.32h-1.85v3.82M100.99,137.23l.03,3.76h1.85c1.58,0,1.86-.06,1.92-.37.06-.33-.08-.36-1.36-.24l-1.43.13v-7.04h-1.04l.03,3.76M106.14,137.29v3.82h1.09v-7.63h-1.09v3.82M108.98,137.3v3.82l1.91-.06c1.51-.05,1.92-.13,1.97-.4.05-.28-.16-.32-1.36-.25l-1.43.09v-3.1h1.2c.92,0,1.2-.08,1.2-.33s-.28-.33-1.2-.33h-1.2v-2.62h1.31c1.02,0,1.31-.07,1.31-.33s-.35-.33-1.85-.33h-1.85v3.82M114.43,137.3v3.83l.49-.07c.46-.07.48-.15.42-1.76l-.07-1.69h1.22c1.09,0,1.22-.05,1.22-.45s-.11-.44-1.14-.38l-1.14.07-.07-1.39-.07-1.39,1.43.11c1.29.1,1.43.08,1.43-.3s-.18-.41-1.85-.41h-1.85v3.83M127.51,137.29v3.82h1.83c1.47,0,1.86-.07,1.96-.34.07-.19.13-.37.13-.39s-.64,0-1.42.04l-1.42.09v-3.1h1.2c.92,0,1.2-.08,1.2-.33s-.28-.33-1.2-.33h-1.2v-2.62h1.31c1.02,0,1.31-.07,1.31-.33s-.35-.33-1.85-.33h-1.85v3.82M132.75,137.29v3.82h.54c.52,0,.54-.06.6-1.69l.06-1.69,1.38,1.69c1.03,1.26,1.51,1.69,1.91,1.69.61,0,.68-.26.18-.67-.19-.16-.78-.85-1.31-1.54l-.96-1.25.76-.47c.54-.34.79-.68.9-1.22.33-1.74-.5-2.5-2.73-2.5h-1.32v3.82M137.39,133.75c.06.15.72,1.87,1.47,3.82.75,1.95,1.48,3.54,1.63,3.54.24,0,2.95-6.81,2.95-7.4,0-.13-.17-.23-.38-.23-.3,0-.6.66-1.35,2.94-.53,1.62-1.03,2.94-1.11,2.94s-.61-1.32-1.19-2.94c-.96-2.69-1.1-2.94-1.59-2.94-.34,0-.5.1-.43.27M144.74,137.27v3.83h1.1l-.06-3.76c-.06-3.71-.07-3.76-.55-3.83l-.49-.07v3.83M154.12,137.29v3.82h1.85c1.62,0,1.85-.05,1.85-.38s-.21-.38-1.36-.38h-1.36s0-1.42,0-1.42v-1.42l1.25-.07c.9-.05,1.25-.15,1.25-.37s-.36-.32-1.25-.37l-1.25-.07v-2.4l1.31-.02c1.03-.02,1.32-.1,1.38-.38.06-.31-.18-.36-1.8-.36h-1.87v3.82M65.56,134.41c-.95.64-1.35,1.49-1.35,2.87,0,1.86.91,3.12,2.41,3.32,1.84.25,2.89-.98,2.89-3.36,0-1.54-.56-2.57-1.63-3.02-1.03-.43-1.45-.4-2.31.18M90.82,134.4c-.06.15-.05.84,0,1.52.1,1.22.12,1.25.68,1.12.32-.07.74-.29.95-.47.5-.44.49-1.62-.02-2.08-.47-.42-1.47-.48-1.62-.09M133.84,135.64c0,1.2.07,1.54.32,1.54.65,0,1.41-.51,1.66-1.13.23-.55.21-.72-.17-1.23-.28-.38-.68-.61-1.12-.65l-.69-.07v1.54M46.09,136.31c-.53,1.34-.48,1.52.48,1.52.46,0,.89-.06.96-.13.16-.16-.71-2.27-.93-2.27-.09,0-.32.39-.52.88"/>
</svg>