<?xml version="1.0" encoding="UTF-8"?>
<svg id="Layer_1" xmlns="http://www.w3.org/2000/svg" version="1.1" viewBox="0 0 200 200">
  <!-- Generator: Adobe Illustrator 30.1.0, SVG Export Plug-In . SVG Version: 2.1.1 Build 136)  -->
  <defs>
    <style>
      .st0 {
        fill: #243a90;
        fill-rule: evenodd;
      }
    </style>
  </defs>
  <path class="st0" d="M40.36,69.9s-.79.16-1.67.26c-2.95.36-4.31,1.17-5.7,3.38-.38.61-.67,1.11-.64,1.11.27,0,3.95-1.48,4.72-1.9.81-.44,3.75-2.92,3.46-2.92-.05,0-.12.03-.16.07M65.18,70.05c2.92,2.66,3.35,2.94,6.03,3.88.81.28,1.61.58,1.78.65.26.11.23-.03-.2-.8-1.44-2.56-2.75-3.3-6.57-3.69-.62-.06-1.08-.08-1.03-.04M72.53,71.23c.21.23.78,1.23,1.27,2.23.49.99,1.25,2.35,1.69,3.01.44.66.87,1.32.96,1.46.09.14-.29-.15-.84-.65-1.27-1.16-1.88-1.46-4.12-2.07l-1.81-.49.34.48c.46.64,2.44,2.43,3.54,3.19.49.34,1.68.91,2.64,1.28.97.37,2.02.87,2.35,1.11q.67.51.32-.33c-.15-.35-.34-1.27-.44-2.04-.36-2.96-2.09-5.22-5.41-7.1-.84-.47-.85-.48-.49-.07M31.68,71.86c-2.75,1.84-4.06,3.74-4.41,6.42-.11.8-.33,1.78-.5,2.17l-.31.71.95-.57c.52-.31,1.35-.7,1.83-.86,1.86-.6,3.24-1.49,5.06-3.24.97-.94,1.74-1.74,1.7-1.78-.11-.11-3.68.95-4.38,1.31-.35.18-1.02.66-1.49,1.07-.88.77-.89.73-.07-.48.27-.39.92-1.59,1.46-2.67s1.12-2.17,1.31-2.43c.46-.66.24-.59-1.15.34M48.47,72.1c-.33.09-1.02.28-1.53.43l-.93.26.1,1.27c.07.87.03,1.32-.11,1.42-.11.08-.81.41-1.56.73l-1.35.58-.75-.85c-.41-.47-.75-.91-.76-.98-.02-.4-1.44.28-2.98,1.43-.07.05.1.61.39,1.24.28.63.47,1.24.42,1.37-.11.26-2.2,2.03-2.39,2.03-.07,0-.6-.29-1.17-.63l-1.04-.63-.7.8c-.39.44-.83,1.02-1,1.3l-.3.5.84.96.84.96-.72,1.29c-.8,1.45-.89,1.49-2.49,1.07-.85-.22-.92-.21-1.08.1-.4.74-1.01,2.58-.92,2.74.06.09.53.41,1.05.7.52.29.98.62,1.02.73.04.1-.07.85-.24,1.65-.35,1.62-.3,1.58-2.14,1.81l-.82.1v1.61c0,1.81-.13,1.64,1.57,1.98l.96.19.22,1.46c.12.8.17,1.57.12,1.71-.05.14-.57.49-1.16.79l-1.06.54.11.67c.18,1.16.79,2.57,1.1,2.57.16,0,1.26-.32,2.46-.72l2.18-.72-.5-1.46c-1.51-4.43-1.28-9.79.6-14.13,1.32-3.04,4.22-6.58,6.91-8.45,2.42-1.67,5.62-3.01,8.05-3.38l.79-.12-.39-1.84c-.51-2.41-.76-3.3-.91-3.28-.07,0-.39.09-.73.18M56.32,72.06c-.09.15-1.13,4.58-1.13,4.83,0,.07.52.23,1.16.35,3.66.72,7.03,2.48,9.88,5.15,2.44,2.29,4.29,5.21,5.31,8.38.73,2.28.93,3.53.93,6.03,0,2.56-.24,4.2-.94,6.28-.27.8-.47,1.47-.45,1.5.03.03,1.08.37,2.35.77,2.63.83,2.56.85,3.03-.8.54-1.9.6-1.7-.77-2.42-1.03-.54-1.22-.71-1.15-1.01.05-.2.13-.65.18-1.01.31-2.02.14-1.79,1.58-2.13l1.3-.31-.06-1.52c-.07-1.71-.16-1.84-1.26-1.85-1.31,0-1.38-.07-1.7-1.52-.43-1.99-.43-1.97.77-2.61,1-.53,1.05-.59.96-1.1-.05-.3-.29-1-.54-1.55l-.45-1.01-.65.12c-.35.07-.96.16-1.33.21l-.69.09-.74-1.31-.74-1.31.82-.96.82-.96-.31-.57c-.17-.31-.63-.89-1.03-1.28l-.72-.71-1,.6c-.55.33-1.08.6-1.17.6s-.71-.47-1.35-1.04l-1.17-1.04.54-1.21.54-1.21-.43-.34c-.58-.46-2.11-1.35-2.32-1.36-.1,0-.44.34-.78.76-.95,1.19-.98,1.2-2.61.53l-1.44-.59.05-1.37c.04-1.19.01-1.38-.26-1.46-.43-.13-2.88-.8-2.92-.8-.02,0-.08.07-.13.16M79.4,76.66c.24.61.57,2.08.77,3.46.19,1.32.54,2.97.78,3.67.24.69.43,1.3.43,1.34s-.29-.36-.65-.88c-.36-.53-1-1.23-1.42-1.56-.85-.66-4.23-2.3-4.02-1.95.94,1.56,2.72,4.13,3.18,4.59.32.32,1.21.99,1.97,1.48.76.49,1.67,1.22,2.02,1.61l.65.72v-1.19c0-.65.13-1.79.28-2.53.61-2.94-.35-5.45-3.27-8.6l-1.12-1.21.42,1.05M25.22,77.11c-1.88,2.16-2.71,3.7-3.08,5.72-.16.84-.13,1.28.17,2.74.21,1.02.33,2.12.29,2.65l-.07.91.51-.62c.28-.34,1.26-1.11,2.17-1.71.91-.6,1.9-1.35,2.2-1.67.48-.5,2.98-4.32,2.98-4.54,0-.14-3.5,1.66-4.11,2.11-.32.24-.93.91-1.36,1.49-.43.58-.73.9-.66.71.57-1.49.81-2.43,1.13-4.51.21-1.31.55-2.87.77-3.46.21-.59.33-1.08.27-1.08s-.61.56-1.21,1.25M113.28,77.5l-.9.42v2.23l-.56.05c-.54.05-.56.09-.61.86-.05.8-.05.81.52.86l.57.05.09,2.67c.05,1.69.17,2.81.3,3.05.27.46,1.41.8,2.16.64.99-.21,1.15-.37,1.15-1.19v-.75l-.6.18c-1.02.31-1.13.09-1.13-2.48v-2.22h1.72v-1.55h-1.71l-.05-1.63-.05-1.63-.9.42M148.25,77.51l-.9.4-.05,1.18-.05,1.18-.56.05c-.54.05-.56.08-.56.82s0,.76.6.76h.6v5.33l.49.55c.42.47.61.55,1.33.56.46,0,1.06-.05,1.32-.12.43-.12.47-.2.47-.97v-.84l-.6.18c-1.02.31-1.13.09-1.13-2.48v-2.22h1.72v-1.71l-.85.1-.85.1-.05-1.64-.05-1.64-.9.4M152.26,77.45c-.39.56-.33,1.1.19,1.5.54.43.89.45,1.4.09.48-.34.52-1.28.07-1.69-.46-.42-1.33-.37-1.66.1M181.08,77.5l-.8.41-.11,1.52c-.06.83-.09,3.14-.07,5.13l.04,3.62.99.05.99.05v-5.61c0-3.08-.06-5.6-.13-5.6-.07,0-.49.19-.92.42M99.8,82.85v5.43l.99-.05.99-.05.05-5.38.05-5.38h-2.07v5.43M119.52,80.15c-1.39.35-2.17,1.13-2.6,2.55-.44,1.47-.19,3.2.62,4.34.59.83,1.62,1.28,2.93,1.28,1.21,0,1.88-.26,2.55-.97l.4-.42-.7-.55c-.38-.3-.7-.49-.7-.4,0,.28-1,.74-1.6.74-.33,0-.79-.15-1.03-.34-.44-.35-.87-1.26-.69-1.45.06-.06,1.21-.1,2.57-.1h2.47v-1.01c0-1.65-.58-2.78-1.72-3.38-.57-.3-1.85-.44-2.5-.28M128.18,80.16c-.26.05-.63.23-.82.4-.44.38-.55.38-.48.02.04-.22-.09-.28-.55-.28-1.33,0-1.21-.4-1.21,4.01v3.96h1.89v-5.37l.5-.5c.56-.56,1-.63,1.72-.25.48.25.49.24.59-.28.16-.78.13-1.32-.07-1.44-.37-.23-1.13-.36-1.58-.26M134.13,80.17c-.31.07-.74.25-.97.4-.39.25-.42.25-.5-.03-.06-.24-.26-.3-.92-.29-.46,0-.86.07-.89.14s-.04,1.87-.04,4v3.88h1.89v-2.58c0-1.52.08-2.75.19-3,.29-.64,1.23-.97,1.95-.7.62.24.78.98.78,3.67v2.59h1.92l-.06-3.14c-.05-2.79-.1-3.21-.41-3.74-.57-.98-1.79-1.47-2.96-1.21M141.48,80.11c-.72.13-1.61.44-2.01.7-.36.23-.36.27-.11.88.14.35.28.66.31.68.02.03.38-.11.8-.3,1.08-.49,2.13-.46,2.66.07.23.23.42.61.42.85,0,.41-.03.42-.64.25-.86-.24-2.1-.1-2.91.32-1.72.89-1.75,3.45-.06,4.44.75.44,2.26.46,3.04.05.47-.25.56-.25.64-.03.07.18.36.25.96.25h.87v-2.98c0-2.75-.03-3.04-.39-3.74-.21-.42-.62-.89-.9-1.05-.55-.31-1.96-.51-2.67-.38M157.97,80.24c-1.66.45-2.57,1.87-2.57,4.01,0,1.03.09,1.45.46,2.21,1.25,2.55,4.99,2.57,6.34.03.58-1.09.55-3.34-.05-4.51-.77-1.5-2.47-2.2-4.18-1.74M167.2,80.17c-.31.07-.74.25-.97.4-.39.26-.42.25-.51-.07-.08-.3-.21-.34-.92-.29l-.83.05v7.92l.89.05.89.05.06-2.78.05-2.78.48-.42c.58-.5,1.31-.53,1.87-.09.39.32.41.44.49,3.14l.09,2.81.9.05.9.05v-3.12c0-2.73-.04-3.2-.33-3.76-.52-1.02-1.81-1.54-3.07-1.25M174.34,80.16c-.81.16-2.03.71-2.03.91,0,.21.48,1.35.58,1.35.04,0,.41-.15.83-.34,1.53-.69,2.9-.3,2.9.83v.49l-.75-.17c-2.68-.61-4.85,1.54-3.8,3.76.59,1.24,2.6,1.77,4.01,1.06.71-.36.71-.36.71-.04,0,.2.21.26.86.26h.86v-3.16c0-2.99-.02-3.19-.39-3.74-.21-.32-.62-.71-.9-.87-.62-.35-2-.52-2.88-.34M103.68,80.31s-.09,1.86-.09,4.02v3.93h1.87l.05-2.77.05-2.77.48-.42c.58-.5,1.31-.53,1.87-.09.39.32.41.44.49,3.14l.09,2.81.9.05.9.05v-3.02c0-3.45-.17-4.16-1.11-4.75-.77-.47-2.37-.48-3.15,0-.46.28-.56.29-.56.09,0-.14-.17-.27-.39-.28-.21-.01-.6-.04-.86-.06-.26-.02-.51,0-.56.06M152.24,80.39c-.05.12-.06,1.92-.04,4l.05,3.79.9.05.9.05v-8.11h-.87c-.54,0-.9.08-.95.22M119.41,81.98c-.44.24-.91,1.15-.71,1.36.06.06.79.1,1.62.1,1.52,0,1.52,0,1.52-.44,0-1.03-1.36-1.61-2.44-1.02M158.21,82.13c-.23.13-.51.41-.64.64-.31.56-.3,2.29.02,2.91.79,1.53,2.82.94,3.1-.89.31-2.03-1.03-3.46-2.48-2.66M45.2,83.34c0,.62.26.79,1.21.79.24,0,.61.12.82.27l.38.27v11.49c0,6.32-.06,11.57-.13,11.68-.23.35-.87.59-1.58.59h-.7v1.38h8.79c6.88,0,8.8-.05,8.86-.22.44-1.45,1.13-3.83,1.13-3.92,0-.07-.16-.17-.36-.22-.27-.07-.43.03-.65.44-.47.87-1.28,1.72-1.87,1.97-.35.15-2,.3-4.46.43-4.52.22-5.09.15-5.39-.74-.28-.82-.26-22.13.03-22.69.27-.53.54-.66,1.55-.79.8-.1.82-.12.82-.7v-.59h-8.44v.58M20.17,85.21c-1.48,3.46-1.93,5.75-1.51,7.71.11.52.56,1.71.99,2.66.44.95.93,2.11,1.09,2.59.3.85.3.86.42.34.31-1.35.71-2.05,2-3.47.75-.83,1.61-1.97,1.91-2.53.44-.83,2.09-5.45,1.98-5.57-.02-.02-1.04.95-2.28,2.15-1.74,1.69-2.37,2.43-2.77,3.24l-.53,1.06v-1.58c0-1-.13-2.25-.38-3.43-.28-1.31-.37-2.26-.33-3.23.03-.75.05-1.37.04-1.37s-.3.64-.63,1.42M84.83,85.44c0,.86-.18,2.37-.38,3.35-.27,1.31-.35,2.21-.29,3.38l.07,1.6-.28-.74c-.47-1.23-1.22-2.16-3.42-4.21l-2.09-1.95.92,2.68c1,2.9,1.48,3.76,3.22,5.69,1.09,1.21,1.88,2.61,1.89,3.32,0,.21.08.39.17.39s.17-.17.17-.37.39-1.25.86-2.31c1.15-2.58,1.17-2.66,1.38-3.95.29-1.84-.27-4.31-1.64-7.23l-.57-1.21v1.57M141.35,84.77c-.51.1-.95.76-.79,1.19.3.8,1.46,1,2.43.41.43-.26.56-.46.56-.85,0-.44-.08-.53-.65-.69-.66-.18-.87-.19-1.55-.06M174.39,84.83c-1.18.5-.77,1.88.57,1.88,1.21,0,2.25-1.04,1.64-1.65-.32-.32-1.67-.46-2.21-.24M59.21,85.75c-1.06.34-1.84.88-2.71,1.85-1.46,1.62-2.13,3.56-2.28,6.61-.19,3.76.7,6.57,2.69,8.4,1.58,1.46,2.33,1.76,4.41,1.76,1.51,0,1.84-.06,2.72-.47,1.96-.92,3.52-3.02,4.2-5.65.39-1.51.39-5,0-6.59-.61-2.49-2.01-4.44-3.95-5.48-.97-.52-1.23-.58-2.71-.62-1.04-.03-1.9.04-2.36.19M38.48,86.45c0,.59.02.61.65.61.36,0,.82.12,1.03.27l.38.27v7.37c0,6.92-.02,7.39-.32,7.65-.17.16-.52.29-.76.29-.74,0-.99.18-.99.71v.5h7.06v-.5c0-.51-.31-.7-1.14-.71-.2,0-.49-.14-.65-.32-.26-.28-.29-1.07-.29-7.64,0-8.23-.07-7.81,1.29-7.92.64-.05.69-.09.69-.57v-.52l-3.49-.05-3.49-.05v.61M59.62,87.07c-.87.46-1.61,1.53-1.85,2.67-.13.6-.17,2.62-.14,5.71.05,4.56.07,4.82.45,5.64.22.47.56,1.03.76,1.24.97,1.03,3.29,1.21,4.58.35,1.13-.75,1.55-1.84,1.77-4.61.19-2.44.09-6.7-.2-8.2-.23-1.2-1.01-2.38-1.86-2.81-.93-.47-2.6-.47-3.51,0M116.62,92.77l-1.01.51.08,5.02.08,5.03.89.05c.7.04.89,0,.89-.21,0-.21.13-.2.8.1,1.53.68,3.01.08,3.8-1.54,1.08-2.21.33-5.43-1.43-6.17-.73-.31-1.93-.3-2.48.02-.24.14-.47.25-.52.25s-.06-.52-.03-1.16c.03-.64.03-1.45,0-1.79l-.06-.62-1.01.51M99.8,97.99v5.43h7.23v-1.89h-5.16l-.05-4.44-.05-4.44-.99-.05-.99-.05v5.43M25.39,94.32c-.11.22-.74,1.15-1.39,2.05-1.67,2.33-2.23,3.61-2.35,5.33l-.09,1.38-.39-.96c-.21-.53-.93-1.91-1.59-3.06-1.24-2.17-1.93-3.78-1.93-4.52,0-.23-.07-.42-.15-.42-.41,0-.5,5.65-.12,7.45.39,1.82.99,2.76,3.12,4.86,1.06,1.04,2.01,2.05,2.1,2.24.13.26.18-.03.18-1.21,0-1.65.08-1.94,1.19-4.56.38-.9.82-2.22.97-2.93.26-1.19.79-5.87.69-6-.03-.03-.14.12-.25.34M79.9,94.21c.04.19.16,1.26.26,2.37.26,2.93.58,4.2,1.67,6.74.93,2.17.97,2.32.99,3.81v1.55s2.1-2.07,2.1-2.07c3.13-3.1,3.61-4.27,3.57-8.61-.02-1.42-.1-2.93-.18-3.36l-.16-.78-.21.98c-.24,1.11-1.17,3.1-2.26,4.88-.41.66-.95,1.74-1.21,2.39l-.46,1.18-.07-1.53c-.09-1.9-.57-2.99-2.4-5.51-.7-.96-1.37-1.89-1.49-2.07-.21-.31-.22-.31-.14.02M109.45,95.49c-.24.07-.68.26-.98.42-.52.27-.54.31-.36.84.1.31.23.61.29.68.06.06.56-.04,1.12-.23,1.66-.56,2.86-.14,2.86,1.02,0,.37-.05.39-.56.26-.9-.23-2.23-.14-2.93.19-.96.46-1.41,1.18-1.41,2.28,0,1.43.9,2.4,2.4,2.58.79.09,1.27-.02,2.36-.59.07-.04.13.06.13.21,0,.22.2.27.97.27h.97l-.07-3.14c-.07-3.56-.21-4.02-1.39-4.62-.67-.34-2.53-.43-3.41-.17M125.55,95.61c-1.44.76-1.97,1.78-1.97,3.76,0,1.63.33,2.49,1.25,3.31,1.4,1.23,3.5,1.19,4.79-.1,1.81-1.81,1.39-5.74-.72-6.86-.9-.47-2.56-.53-3.36-.11M142.7,95.77c-.51.43-.53.43-.53.09,0-.32-.1-.36-.95-.36h-.95v7.94l.99-.05.99-.05v-2.61c0-2.53.01-2.63.42-3.06.45-.48,1.45-.61,2.07-.28.26.14.33.08.42-.37.27-1.35.01-1.7-1.25-1.7-.49,0-.84.13-1.22.45M131.96,97.52c-.19,3.85.21,5.26,1.69,5.82.91.35,1.95.24,2.69-.29l.49-.35v.36c0,.32.1.36.95.36h.95v-7.92h-1.89v2.4c0,3.19-.25,3.78-1.58,3.8-.48,0-.72-.1-.99-.45-.33-.41-.36-.68-.36-3.1v-2.65h-1.84l-.1,2.02M118.32,97.25c-.55.33-.6.49-.6,2.25,0,1.53.03,1.69.38,1.94.43.3,1.38.35,1.84.1.91-.49,1.04-3.28.2-4.04-.41-.37-1.38-.5-1.82-.24M126.38,97.26c-1.18.57-1.22,3.65-.06,4.27.18.1.6.18.93.18,1.69,0,2.28-3.38.75-4.31-.61-.37-1.05-.41-1.62-.13M110.22,99.92c-.92.24-1.2,1.01-.58,1.62.3.3.51.35,1.21.28.47-.05.99-.22,1.19-.39.43-.39.46-1.23.04-1.36-.57-.17-1.51-.25-1.85-.16M25.39,103.21c0,.17-.31,1.38-.69,2.69-.84,2.9-.9,4.21-.27,6.05l.41,1.21-.54-.69c-.79-1.01-1.58-1.73-2.75-2.53-1.44-.98-2.63-2.27-3.26-3.54-.29-.59-.56-1.05-.59-1.02-.11.11.77,3.49,1.19,4.61,1.43,3.8,2.75,5.18,6.04,6.3.65.22,1.52.6,1.93.84l.74.43-.4-.91c-.74-1.68-.84-2.62-.52-4.97.34-2.5.27-3.38-.49-6.49-.5-2.05-.82-2.82-.82-1.98M79.84,103.53c-1,3.74-1.1,4.39-.96,6.61.25,4.03.2,4.96-.29,6.16-.25.59-.42,1.08-.39,1.08s.32-.16.64-.35c.32-.19,1.28-.58,2.12-.86,3.07-1.04,4.45-2.54,5.83-6.37.47-1.3,1.17-4.15,1.04-4.27-.04-.04-.27.35-.53.86-.7,1.4-1.53,2.31-3.25,3.58-1.48,1.1-2.4,1.97-3.07,2.94-.26.38-.26.33.03-.36.5-1.22.75-2.67.62-3.66-.1-.76-1.41-5.77-1.56-5.95-.03-.03-.13.24-.23.6M140.28,107.85c-.62.78-.14,1.78.85,1.77.82,0,1.33-.71,1.05-1.44-.33-.87-1.34-1.05-1.9-.33M164.56,107.7c-.5.4-.54,1.35-.07,1.69.46.34,1.23.29,1.63-.11.44-.44.44-.87-.01-1.44-.42-.53-.99-.58-1.55-.14M102.54,107.83c-.98.3-2,1.26-2.57,2.41-.38.76-.42,1.07-.42,2.92s.05,2.18.4,2.93c.76,1.65,1.96,2.48,3.77,2.63.62.05,1.41,0,1.86-.13,1.05-.29,2.18-1.33,2.69-2.45.36-.79.41-1.17.41-2.89,0-1.86-.03-2.05-.54-3.12-1.03-2.17-3.16-3.05-5.6-2.3M160.26,107.96l-.78.38v2.23l-.56.05c-.55.05-.56.07-.56.9s.01.85.52.85h.52v2.11c0,2.55.17,3.36.8,3.89.41.36.61.4,1.57.34,1.23-.08,1.41-.23,1.42-1.19v-.62s-.86.08-.86.08c-.85.08-.86.08-.88-.41,0-.27-.05-1.33-.09-2.35l-.08-1.85h1.9v-1.7l-.9-.05-.9-.05v-1.51c0-.9-.07-1.5-.17-1.5-.09,0-.52.18-.95.39M35.14,110.35c-1,.94-1.82,1.79-1.82,1.88,0,.23,2.08,2.38,2.3,2.38.1,0,.63-.32,1.19-.71l1.01-.71.64.45c.35.25.95.71,1.33,1.04l.69.59-.4,1.14c-.22.63-.37,1.24-.32,1.36.09.22,2.35,1.49,2.66,1.49.09,0,.41-.35.71-.77.97-1.36.9-1.33,2.24-.87,1.94.66,1.89.61,1.95,2.03l.05,1.25,1.46.29c.8.16,1.52.25,1.59.21.07-.05.25-.46.38-.92.47-1.57.45-1.56,2.08-1.56h1.45l.34.9c.18.5.39,1.08.45,1.29.13.42.38.42,2.42-.03l.86-.19.05-1.31.05-1.31,1.5-.53,1.5-.53.52.63c.28.35.69.83.9,1.07l.38.45,1.08-.57c1.83-.97,1.75-.82,1.26-2.27-.24-.69-.43-1.28-.43-1.3s.59-.48,1.3-1.02l1.3-.98,1.13.73,1.13.73,1.22-1.26,1.22-1.26-1.89-1.77-1.89-1.77-1.35,1.44c-2.94,3.14-6.78,5.3-10.88,6.12-1.51.3-5.84.3-7.23,0-4.23-.9-7.67-2.79-10.65-5.87l-1.64-1.69-1.82,1.71M102.9,109.82c-.94.63-1.38,1.68-1.38,3.29,0,2.38.92,3.74,2.52,3.74,1.7,0,2.71-1.34,2.71-3.59,0-2.26-.88-3.63-2.42-3.77-.66-.06-.94,0-1.43.33M112.56,110.93c-.51.43-.53.43-.53.09,0-.32-.1-.36-.95-.36h-.95v7.92h1.89v-2.2c0-2.45.18-3.35.73-3.74.45-.31,1.52-.35,1.81-.06.3.3.42.08.51-.85.07-.76.04-.85-.38-1.04-.76-.34-1.56-.25-2.15.24M117.41,110.77c-2.01.99-2.58,4.65-1.07,6.78.74,1.03,2.31,1.46,3.53.95.57-.24.6-.23.6.1,0,.19-.08.49-.17.66-.2.38-1.37.87-2.08.87-.63,0-.63.09-.06.93.44.64.47.66,1.23.56,1.06-.15,2.11-.76,2.53-1.48.33-.56.36-.93.41-5.04l.05-4.44h-.96c-.54,0-.96.08-.96.18s-.22.06-.51-.09c-.66-.34-1.84-.33-2.55.02M125.64,110.64c-.95.31-1.58.73-1.48.99.06.14.15.45.2.68.12.48.4.52,1.12.15.29-.15.9-.28,1.37-.29.99-.02,1.54.36,1.54,1.07v.46l-1.42-.06c-1.24-.06-1.51-.01-2.09.33-.95.56-1.36,1.38-1.24,2.46.05.47.24,1.05.41,1.29.74,1.02,2.67,1.37,3.78.69.46-.28.56-.29.56-.09,0,.2.22.26.95.26h.95v-3.06c0-2.57-.05-3.15-.3-3.65-.51-1-1.09-1.3-2.59-1.34-.73-.02-1.52.03-1.75.1M134.77,110.67c-.23.1-.56.3-.73.46-.28.26-.31.25-.31-.1s-.09-.37-.95-.37h-.95v7.92h1.89v-2.49c0-1.37.08-2.69.17-2.94.22-.58,1.2-1.01,1.78-.79.86.33.97.73.97,3.58v2.63h1.89v-3.06c0-3.35-.13-3.89-1.07-4.58-.54-.4-2.06-.55-2.72-.27M152.85,110.64c-.68.22-1.55.7-1.55.86,0,.08.11.42.25.76l.25.61.68-.33c.91-.44,2.43-.45,2.83-.02.16.17.29.51.29.75,0,.43,0,.43-1.33.36-1.14-.06-1.45-.01-2.11.33-1,.52-1.42,1.3-1.33,2.44.08.97.51,1.63,1.34,2.05.81.41,2.16.39,2.88-.04.68-.41.75-.42.62-.09-.08.21.08.26.87.26h.97v-3.06c0-2.57-.05-3.15-.3-3.65-.51-1-1.09-1.3-2.59-1.34-.73-.02-1.52.03-1.75.1M169.96,110.6c-.21.04-.73.38-1.16.76-.58.51-.85.92-1.05,1.57-.52,1.75-.24,3.47.74,4.62.75.88,1.46,1.19,2.66,1.19,2.4,0,3.71-1.65,3.54-4.47-.07-1.13-.17-1.52-.58-2.19-.83-1.34-2.27-1.86-4.15-1.49M178.86,110.68c-.23.09-.56.29-.73.45-.28.26-.31.25-.31-.1s-.09-.37-.95-.37h-.95v7.92h2.12l-.11-2.37c-.13-2.87.02-3.48.91-3.77.73-.24,1.47-.02,1.77.51.14.24.21,1.27.21,3v2.63s1.02,0,1.02,0h1.01s-.07-3.07-.07-3.07c-.08-3.42-.21-3.88-1.34-4.64-.62-.42-1.8-.51-2.59-.2M140.28,110.7s-.02,1.81-.04,3.96l-.04,3.92h.9s.9,0,.9,0v-7.92h-.86c-.47,0-.86.02-.86.04M143.55,111.51v.86l1.88.05,1.88.05-1.97,2.36c-1.8,2.15-1.97,2.42-1.97,3.06v.7h6.56l-.05-.82-.05-.82-1.93-.09-1.93-.09,1.98-2.39c1.77-2.14,1.98-2.46,1.98-3.06v-.67h-6.37v.86M164.39,114.62v3.96h1.89v-7.92h-1.89v3.96M28.07,113.15c.07,1.58.22,2.77.44,3.46.3.98,1.45,3,1.85,3.24.1.06.35.36.57.67.33.47.34.51.05.28-.93-.78-2.98-1.76-4.93-2.39-1.31-.42-2.54-.94-3.07-1.29l-.89-.6.38.64c.79,1.33,2.3,3.18,3.6,4.4,3.14,2.95,6.98,3.9,11.73,2.88.99-.21,1.86-.44,1.94-.52.08-.07-.55-.09-1.4-.04-2.86.16-4.32-.78-5.04-3.26-1.09-3.78-1.58-4.78-3.62-7.46-.72-.95-1.41-1.88-1.52-2.07-.17-.28-.19.13-.1,2.07M77.41,110.97c0,.08-.66,1.03-1.46,2.11-2.1,2.83-2.53,3.72-3.61,7.48-.4,1.41-.97,2.22-1.94,2.79-.77.45-.94.48-2.76.47-1.06,0-1.9.02-1.87.06.16.16,2.73.73,4.07.89,4.29.53,8.39-1.25,11.4-4.93,1.07-1.31,2.2-2.93,2.2-3.17,0-.08-.34.11-.76.43-.5.38-1.45.8-2.8,1.23-2.19.69-3.62,1.34-4.86,2.19l-.77.53.86-1.03c1.85-2.23,2.28-3.43,2.43-6.8.06-1.31.05-2.39-.01-2.39s-.11.06-.11.14M170.51,112.45c-.72.31-1.03,1-1.03,2.24,0,1.2.34,1.85,1.11,2.17,1.07.44,2.06-.39,2.2-1.86.18-1.9-.93-3.14-2.28-2.55M117.9,112.83c-.63.81-.67,2.24-.09,3.37.39.75,1.69.97,2.33.39.28-.25.33-.54.33-1.98,0-1.55-.03-1.71-.38-1.95-.21-.15-.71-.27-1.11-.27-.57,0-.8.09-1.08.45M125.85,115.4c-.25.18-.38.45-.38.78,0,.43.1.56.6.77,1.09.46,2.32-.09,2.32-1.03,0-.45-.08-.6-.39-.68-.71-.19-1.77-.11-2.16.16M153.06,115.4c-.25.18-.38.45-.38.78,0,.43.1.56.61.77.74.31,1.83.08,2.2-.45.33-.46.17-1.14-.29-1.27-.69-.19-1.76-.1-2.14.16M45.46,124.01c-.76.14-2.93.68-4.82,1.2-4.24,1.16-5.8,1.39-7.52,1.13-.69-.11-1.68-.39-2.19-.62-.51-.23-.96-.39-1-.35-.17.17,2.22,1.89,3.48,2.51,1.99.97,3.29,1.28,5.43,1.29,2.62,0,3.99-.5,6.8-2.52,2.58-1.85,3.76-2.29,5.54-2.09l.97.11-1.02.51c-1.36.69-2.84,1.83-4.24,3.29l-1.16,1.2.47.3c.46.3.48.29.9-.18.24-.26.8-.95,1.26-1.53.92-1.17,2.55-2.48,3.73-3.01l.77-.34,1.12.58c1.29.67,3.07,2.28,4.14,3.76q.75,1.03,1.24.78c.27-.14.49-.32.49-.4s-.64-.76-1.43-1.51c-1.49-1.43-3.13-2.64-4.22-3.11l-.64-.28.78-.15c1.69-.32,3,.13,5.49,1.9,2.2,1.56,2.66,1.83,3.97,2.25,2.3.75,4.69.63,7.28-.36,1.4-.54,3.57-1.86,4.25-2.6l.41-.44-1.07.43c-2.52,1.02-4.43.93-9.29-.45-4.51-1.27-6.57-1.62-8.88-1.51-1.04.05-2.3.21-2.8.35-.8.22-1,.22-1.72,0-1.19-.38-4.79-.45-6.5-.13"/>
</svg>