<?xml version="1.0" encoding="UTF-8"?>
<svg id="Layer_1" xmlns="http://www.w3.org/2000/svg" version="1.1" viewBox="0 0 200 200">
  <!-- Generator: Adobe Illustrator 30.1.0, SVG Export Plug-In . SVG Version: 2.1.1 Build 136)  -->
  <defs>
    <style>
      .st0 {
        fill: #18723e;
      }

      .st0, .st1 {
        fill-rule: evenodd;
      }

      .st1 {
        fill: #dcb859;
      }
    </style>
  </defs>
  <path class="st1" d="M96.27,47.12l.03,1.39.05-1.32c.05-1.22.07-1.3.32-1.11.24.19.25.18.05-.07-.4-.51-.5-.29-.46,1.11M100.71,48.3l-.03,1.53-.51.06-.51.06.51.03c.33.02.63-.1.88-.33.21-.2.25-.26.09-.14-.26.2-.28.12-.33-1.27l-.05-1.48-.03,1.53M98.69,48.74c.4.52.77.95.81.95s-.25-.43-.65-.95-.77-.95-.81-.95.25.43.65.95M114.19,48.51c-.05.13-.14.2-.21.16-.07-.04-.21.22-.31.57-.11.35-.24.76-.29.91-.08.23-.06.23.17.04.15-.12.27-.32.27-.44s.14-.51.32-.85c.18-.34.28-.63.23-.63s-.13.11-.18.24M131.88,55.59s.5.43,1.02.91l.95.87-.87-.91c-.48-.5-.93-.91-1.02-.91s-.12.02-.08.04M131.15,59.19c-1.04,1.04-1.86,1.9-1.82,1.9s.93-.85,1.97-1.9,1.86-1.9,1.82-1.9-.93.85-1.97,1.9M69.25,60.93c-.43.43-.74.81-.71.84s.42-.33.85-.79c.98-1.06.89-1.09-.14-.05M128.93,61.57c.78.78,1.45,1.42,1.5,1.42s-.56-.64-1.34-1.42-1.45-1.42-1.5-1.42.56.64,1.34,1.42M72.17,61.02c-.54.56-.55.56-.65.2-.1-.36-.1-.36-.12-.02-.03.58.22.54.86-.12.34-.34.58-.63.53-.63s-.33.25-.63.56M62.5,62.16c-.2.25-.19.26.06.06.24-.18.28-.18.28,0,0,.12.3.51.67.85l.67.63-.59-.64c-.33-.35-.59-.76-.59-.91,0-.35-.22-.35-.5,0M97.9,64.66c-.44.12-1.15.23-1.58.23-.9.01-1.43.35-1.59,1.02-.1.39-.08.42.29.32.45-.11,1.29.26,1.44.63.05.13.03.42-.06.64-.13.34-.25.39-.83.39-.89,0-2.51-.39-3.29-.79-.82-.42-1.19-1-1.17-1.85l.02-.68h-9.03c-4.96,0-8.98.05-8.92.1.06.06.62.34,1.25.63l1.15.53h6.21s6.21,0,6.21,0l.23.44c.73,1.4,3.13,2.65,5.88,3.08.67.1,1.18.26,1.18.36s-.11.99-.24,1.98c-.13.99-.18,1.85-.12,1.91.15.14,2.81,1.26,4.09,1.72l.96.35,2.08-.79c1.94-.74,3.04-1.23,3.04-1.34,0-.03-.11-.76-.24-1.62-.37-2.47-.4-2.38.66-2.52,1.12-.14,2.95-.73,4.14-1.33.91-.46,1.5-.99,2.01-1.79l.27-.43,6.28-.05,6.28-.05,1.11-.59,1.11-.59h-9.02s-9.02-.01-9.02-.01v.78c0,1.22-.79,1.85-2.93,2.33-1.29.29-1.58.22-1.58-.37,0-.24-.14-.67-.32-.96-.17-.29-.32-.61-.32-.73,0-.96-3.48-1.56-5.62-.97M78.28,66.3l-.63.1.95.5c1.74.92,1.85.93,5.47.46,4.04-.52,3.99-.51,3.78-.89-.15-.28-.39-.3-4.55-.28-2.41.01-4.67.07-5.02.12M112.06,66.4c-.12.14-.14.3-.06.37.08.07,1.73.32,3.66.56,3.93.48,4.11.47,5.79-.52l.76-.45-1.22-.1c-.67-.06-2.91-.1-4.98-.1-3.19,0-3.79.04-3.96.24M136.67,67.36c-.18.19-.38.48-.44.64-.1.27-.08.27.17-.02.15-.17.41-.43.57-.57.16-.14.23-.29.16-.33-.07-.04-.28.09-.47.28M84.87,67.65c-2.3.4-2.86.54-2.68.69.4.33,2.66,1.3,3.03,1.3.3,0,3.98-1.34,4.2-1.53.15-.13-1.04-.99-1.34-.98-.17,0-1.62.24-3.22.52M110.99,67.6c-.29.27-.51.5-.47.53.18.15,3.88,1.52,4.1,1.52.35,0,2.4-.83,2.96-1.2l.43-.29-2.53-.42c-4.19-.7-3.88-.69-4.49-.13M88.32,68.93c-.74.3-1.51.64-1.72.75q-.37.19-.05.45c.18.14.79.46,1.37.71,1.2.51.93.58,3.14-.85l1.08-.7-.93-.39c-1.35-.57-1.43-.57-2.9.03M108.9,68.79c-.57.22-1.05.42-1.07.44-.1.1,2.93,1.99,3.18,1.99.31,0,2.41-1.03,2.55-1.25.08-.13-3.17-1.62-3.49-1.59-.08,0-.6.19-1.17.41M91.14,70.47c-.76.54-1.38,1.03-1.39,1.07,0,.05.87.43,1.94.85,1.07.42,2.02.79,2.12.83.1.04.22-.16.28-.45.05-.29.27-1.06.47-1.71l.38-1.19-.39-.11c-.22-.06-.76-.15-1.21-.2-.8-.09-.84-.07-2.2.9M105.78,69.67c-.46.08-.81.2-.77.26.05.08.62,1.92.98,3.15.07.24,4.03-1.26,4.03-1.53,0-.06-.6-.54-1.33-1.08-1.39-1.03-1.47-1.05-2.91-.79M99,77.82c-1.48.9-3.97,2.05-5.57,2.57-2.72.89-3.79,1.04-7.16,1.04-3.31,0-4.63-.18-7.28-.97-1.29-.39-4.15-1.54-4.54-1.83-.23-.18-.3-.06-.69,1.14-1.61,5.03-1.97,11.51-1.01,18.04.38,2.58,1.51,6.81,2.58,9.67,2.12,5.66,5.29,11.12,9.05,15.59.76.9,1.17,1.5.99,1.45-2.35-.7-4.59-.96-7.03-.84l-1.98.1-2.45-2.73c-7.69-8.56-13.06-14.74-13.03-14.97.02-.15,0-.18-.05-.07-.06.15-.19.13-.49-.07-.33-.21-.51-.23-1.02-.1l-.62.17-1.02-1.17c-.56-.64-1.02-1.23-1.02-1.3s.21-.33.47-.58l.47-.45.51.46.51.46-.46-.51c-.26-.28-.55-.51-.66-.51s-.5-.34-.88-.76c-.99-1.1-1.47-1.38-1.96-1.16-.21.1-.39.31-.39.46s.46.79,1.02,1.41l1.02,1.12-.39.36-.39.36-.36-.46c-.69-.89-1.75-1.96-1.94-1.96-.31,0-.72.55-.72.97,0,.26.34.79.99,1.53l.99,1.13.52-.5.52-.5.99,1.09q1.25,1.38,1.05,1.98c-.23.66-.08,1.36.39,1.8.21.19,1.9,2.06,3.76,4.15,1.86,2.09,4.72,5.29,6.36,7.11,2.16,2.39,2.96,3.39,2.91,3.6-.04.16-.01.25.07.2.08-.05.14-.21.14-.36,0-.39.61-1.33.79-1.22.09.05.16-.05.16-.23,0-.37-.16-.42-.44-.14-.14.14-.27.12-.53-.12-.39-.34-8.33-9.2-11.99-13.35l-1.31-1.49.44-.47c.87-.92.74-1,3.5,2.14,1.4,1.59,4.96,5.59,7.92,8.9l5.38,6.02-.42.19c-.23.1-.65.24-.94.3-.47.09-.58.04-1.05-.5l-.53-.61-.11.51c-.06.28-.07.65-.01.82.08.27-.06.39-.89.79-.99.48-1.26.51-.99.12.17-.25-.27.28-.73.87l-.33.43.97,1.74c.53.96,1.02,1.78,1.09,1.81.06.04.22,0,.34-.09.19-.14.19-.15-.03-.08-.36.11-2.16-3.14-1.94-3.5.41-.64,4.06-2.18,6.27-2.63,4.02-.83,8.41-.23,12.26,1.67.71.35,1.37.73,1.46.83.11.14.02.63-.31,1.65-.26.8-.47,1.56-.47,1.68,0,.17-.15.15-.67-.13-1.61-.84-4.91-1.84-6.1-1.84-.31,0-.8-.15-1.1-.34l-.54-.34-.51.49c-.42.41-.64.49-1.25.49-1.15,0-6.97,1.59-6.73,1.83.03.03.43-.08.87-.25.45-.17,1.29-.43,1.87-.57l1.05-.26.66.66.66.66-.45.36-.45.36,1.33,1.26c.73.69,2,1.72,2.81,2.29,1.66,1.15,1.68,1.17,2.76,2.45l.78.92.29-.36c.35-.43.51-.4,2.35.37,1.3.55,1.4.62,2.95,2.38.88,1,1.64,1.91,1.69,2.03.06.16.09.16.09,0,0-.11.14-.2.29-.2.17,0,.21-.05.11-.12-.26-.18-2.14-2.89-2.01-2.89.06,0,.97.21,2.02.46,3.22.79,5.06,1,8.55,1.01,3.49,0,5.32-.21,8.44-1,1.01-.25,1.85-.44,1.87-.42.02.02-.38.67-.9,1.45-.52.77-.94,1.45-.94,1.5s.14.18.31.29c.26.16.3.16.22-.03-.09-.25,2.64-3.63,3.06-3.8.14-.05.21-.13.17-.17s-.39.03-.77.17c-1.43.51-4.9,1.33-6.73,1.59-2.51.36-7.24.36-9.64,0-6.27-.96-12.15-3.4-16.25-6.76-1.21-.99-2.51-2.22-2.51-2.38,0-.07.44-.42.98-.78.54-.37,1.43-1.12,1.98-1.67.55-.55,1.03-1,1.07-1s.37.26.75.58c3.18,2.68,8.62,5.25,13.19,6.24,2.26.49,7.11.61,9.66.24,5.23-.76,10.93-3.25,14.61-6.38l.84-.72.26.38c.41.6,1.42,1.53,2.71,2.48l1.19.88-.94.85c-2.4,2.17-5.41,4.08-8.57,5.43-.89.38-1.59.72-1.55.76.04.04.76-.24,1.6-.61l1.53-.67.29.38.29.38.63-.71c.35-.39.63-.76.64-.83,0-.06.64-.54,1.41-1.05,1.62-1.09,3.5-2.59,4.3-3.41l.55-.57-.46-.37-.46-.37,2.28-2.52c1.25-1.38,2.36-2.54,2.46-2.56.22-.06,2.06.81,2.44,1.15.27.24.26.3-.26,1.28-.3.56-.51,1.02-.46,1.02s.33-.47.64-1.05l.56-1.05-.43-.52c-.99-1.19-1.47-1.97-1.35-2.19.11-.19,7.19-8.16,11.82-13.31,1.04-1.16,1.82-1.9,1.98-1.87.14.02.18,0,.08-.05-.14-.06-.14-.2,0-.56.15-.39.13-.56-.1-.96l-.28-.48.95-1.07c1.42-1.6,1.35-1.57,1.99-.95.3.29.57.5.6.46.03-.04.46-.54.95-1.11,1-1.16,1.12-1.63.54-2.17-.2-.19-.41-.34-.46-.34s-.54.52-1.08,1.15-1.03,1.16-1.08,1.18c-.05.02-.27-.1-.49-.27l-.39-.3,1.17-1.2c1.14-1.17,1.16-1.21.88-1.51-.5-.55-.97-.39-2.14.73l-1.08,1.05.47.39c.26.22.47.45.47.52s-.5.67-1.12,1.33c-.94,1.01-1.17,1.18-1.41,1.04-.16-.09-.43-.16-.59-.16-.36,0-1.15.35-1.15.51,0,.06-1.59,1.88-3.52,4.04-1.94,2.16-5.48,6.11-7.87,8.78l-4.35,4.86-.72-.11c-1.96-.3-5.92-.03-8.07.55-.3.08-.14-.18.77-1.23,2.82-3.27,6.02-8.39,7.89-12.65,3.01-6.86,4.3-12.79,4.3-19.79,0-4.45-.37-7.35-1.37-10.65-.41-1.37-.66-1.65-1.09-1.24-.32.3-3.86,1.6-5.37,1.98-2.41.6-4.36.78-7.17.68-2.67-.1-4.05-.33-6.28-1.09-1.51-.51-4.37-1.84-5.71-2.64l-.8-.48-.94.57M99.33,78.21c-.96.63-3.84,2.01-5.22,2.51-2.48.88-3.86,1.13-6.89,1.22-4.15.13-7.27-.43-11.16-1.99-.87-.35-1.59-.62-1.61-.6-.16.16-.88,3.13-1.16,4.73-.67,4-.71,8.8-.08,13.23,1.31,9.32,6.07,19.37,12.59,26.55.78.86,1.26,1.23,2.12,1.63.61.29,1.34.7,1.62.91.47.36.49.41.33.94-.14.46-.13.59.08.75,1.71,1.33,3.51,2.64,4.87,3.55,1.92,1.28,4.8,2.9,5.16,2.9.84,0,8.44-4.88,9.68-6.2.32-.34.33-.44.17-.97-.22-.73-.19-.76,2.02-1.86,1.34-.67,1.74-.96,2.54-1.86,5.66-6.35,10.09-15.03,11.85-23.23.81-3.79.95-5.13.95-9.66,0-3.33-.06-4.67-.28-6.04-.27-1.67-.84-4.06-1.2-5l-.16-.43-1.15.49c-1.86.8-3.72,1.38-5.58,1.76-2.35.48-7.66.51-9.72.07-2.72-.59-6.04-1.9-8.27-3.27-.9-.55-.86-.55-1.48-.14M143.65,84.32c-.26.04-.55.14-.63.23-.11.11-.04.13.21.05.2-.06.74-.11,1.19-.12.63,0,.72-.03.42-.13-.44-.13-.5-.14-1.19-.04M83.69,84.64c.98.03,2.58.03,3.56,0,.98-.03.18-.05-1.78-.05s-2.76.02-1.78.05M99.68,93.24l-.04,8.72-8.39-.02c-4.61-.01-8.62.03-8.9.09-1.46.3.44.38,8.52.38h8.86v8.71c0,5.7.05,8.71.16,8.71s.16-3.01.16-8.71v-8.71l8.71-.04c5.71-.03,8.69-.1,8.67-.2-.03-.1-3.08-.17-8.67-.19l-8.63-.03-.04-8.71c-.03-5.58-.1-8.71-.2-8.71s-.17,3.14-.2,8.72M110.7,84.64c2.15.04,2.34.07,2.25.32-.08.21-.06.23.08.09.43-.43-.04-.53-2.35-.49l-2.33.03,2.35.05M87.42,87.53c0,.57.03.8.06.51.04-.28.04-.75,0-1.03-.03-.28-.06-.05-.06.51M83.47,89.51c0,.87.03,1.21.06.75.03-.46.03-1.17,0-1.58-.03-.41-.06-.03-.06.84M107.22,89.35c0,.78.03,1.12.06.76.03-.37.03-1.01,0-1.42-.03-.42-.06-.12-.06.67M111.5,90.54c0,1.18.02,1.66.06,1.07.03-.59.03-1.55,0-2.14-.03-.59-.06-.11-.06,1.07M52.86,90.05c0,.34.05.66.12.7.07.04.1-.2.06-.54l-.06-.61.77-.06.77-.06-.83-.03-.83-.03v.62M87.26,90.62c0,.52.03.72.07.43.04-.28.03-.71,0-.95-.04-.24-.07,0-.06.52M144.48,91.28c.28.04.75.04,1.03,0,.28-.03.05-.06-.51-.06s-.8.03-.51.06M147.66,92.36c-.03.65,0,1.19.07,1.19.07,0,.12-.53.12-1.19s-.03-1.19-.07-1.19-.09.53-.12,1.19M141.41,92.44c0,.65.03.92.06.59.03-.33.03-.86,0-1.19-.03-.33-.06-.06-.06.59M58.61,92.83c0,.61.03.84.06.51.03-.33.03-.83,0-1.11-.03-.28-.06-.01-.06.6M145.59,92.87c.28.04.75.04,1.03,0,.28-.03.05-.06-.51-.06s-.8.03-.51.06M107.36,96.28c-.04,3.25-.04,3.29-.39,3.43-.24.1-.27.15-.1.15.56.02.62-.34.57-3.65l-.05-3.23-.04,3.29M54.09,93.66c.72.03,1.89.03,2.61,0s.13-.05-1.31-.05-2.02.02-1.31.05M87.09,96.43l.04,2.57.05-2.51.05-2.51.35.3.35.3-.3-.36c-.17-.2-.36-.36-.44-.36s-.12,1.16-.1,2.57M83.63,97.74c0,.96.03,1.33.06.83.03-.5.03-1.29,0-1.74-.03-.45-.06-.04-.06.92M111.34,97.82c0,1,.03,1.41.06.91s.03-1.32,0-1.82-.06-.09-.06.91M58.32,99.36c.26.04.54.13.63.21.23.23.4.17.4-.13,0-.22-.03-.23-.14-.06-.09.15-.17.16-.24.04-.06-.1-.34-.16-.61-.15l-.51.02.47.07M91.89,100.19c-.18.29.28.32,3.41.28l3.08-.05-3.22-.04c-2.09-.02-3.18-.09-3.12-.19.05-.09.06-.16.02-.16s-.12.07-.18.16M83.69,100.47c.89.03,2.35.03,3.25,0,.89-.03.16-.05-1.62-.05s-2.52.02-1.62.05M107.51,100.47c.93.03,2.5.03,3.48,0,.98-.03.22-.05-1.69-.05-1.92,0-2.72.02-1.79.05M112.98,103.79c.28.04.75.04,1.03,0,.28-.03.05-.06-.51-.06s-.8.03-.51.06M91.29,104.58c.28.03.78.04,1.11,0,.33-.03.1-.06-.51-.06-.61,0-.88.03-.6.06M138.82,108.48c-1.89,2.15-9.86,11.04-15.41,17.2-1.45,1.61-2.63,2.97-2.63,3.04s.27.37.59.67l.59.56.38-.35c.52-.48,3.82-4.12,8.49-9.37,3.26-3.66,5.64-6.33,11.06-12.39l.32-.36-.46-.49c-.85-.89-.78-.93-2.92,1.49M107.06,112.23c0,.74.03,1.04.06.67.03-.37.03-.98,0-1.35-.03-.37-.06-.07-.06.67M118.4,123.88c-3.08.39-6.71,1.61-8.07,2.71l-.38.31.46,1.69c.25.93.5,1.66.54,1.64,1.3-.77,3.76-1.59,6.15-2.07,1.06-.21,2.04-.47,2.17-.58.19-.16.29-.15.48,0,.3.25.64-.06,2.38-2.09.94-1.1,1.12-1.39.91-1.47-.33-.13-3.91-.24-4.64-.15M128.14,124.89c-.16.17-.26.34-.22.38.23.21,1.73.87,1.73.76,0-.19-.96-1.46-1.1-1.46-.07,0-.25.14-.41.32M81.68,128.33c0,.07.24.27.51.45.28.18.99.66,1.59,1.07.77.52,1.25.74,1.66.75.52.01.54.03.19.14-.35.11-.13.25,1.74,1.16,1.18.57,2.67,1.22,3.32,1.44,2.65.88,5.83,1.52,7.5,1.52h.96l-1.82-1.05c-2.06-1.19-5.46-3.48-6.9-4.65l-.97-.79-.27.91c-.15.5-.3,1-.33,1.11-.04.14-.41.19-1.21.17l-1.15-.03.95-.09.95-.09-.79-.42c-.92-.48-2.9-1.13-4.27-1.39-.52-.1-1.11-.22-1.31-.26-.2-.04-.35-.02-.35.05M115.79,128.68c-1.89.48-4.29,1.35-4.45,1.62-.06.09,0,.23.12.3.28.18.1.18-.38,0-.29-.11-.43-.35-.59-1.03-.12-.49-.24-.89-.27-.89s-.61.42-1.28.93c-2.14,1.62-4.17,2.96-6.21,4.08l-1.98,1.09.63.05c1.61.13,6.49-.85,8.86-1.8,2.58-1.02,7.27-3.71,7.98-4.58.18-.22.15-.25-.25-.24-.25,0-1.24.21-2.2.45M77.97,128.67c-.92.11-1.03.29-.5.79l.39.36.64-.52c.65-.52.81-.8.45-.76-.11.01-.55.07-.98.12M128.87,129.77l-.32.64-1.15-.44c-.63-.24-1.4-.49-1.7-.55-.3-.06.13.14.97.43.84.29,1.6.58,1.7.64.18.11,1.07-1.13.92-1.28-.04-.04-.23.21-.4.56M112.51,130.7c.37.03.98.03,1.35,0,.37-.03.07-.06-.67-.06s-1.04.03-.67.06M63.13,139.84c.29.14.65.25.8.25s.36.09.48.2c.16.16.16.12,0-.16-.12-.2-.33-.36-.47-.36s-.5-.04-.79-.09l-.53-.09.53.25M138.9,140.4c-.27.3-.3.3-.49.04-.19-.25-.2-.24-.12.08.05.2.11.36.13.36.17,0,1.06-.46.9-.47-.11,0-.16-.08-.11-.16.16-.27-.01-.18-.32.16M133.65,141.43l-.44.39.68-.33c.66-.32.69-.32,1.03-.03l.35.3-.3-.36c-.39-.46-.76-.45-1.31.03M62.88,141.78c-.39.16-.19.31.34.24.29-.03.58.02.64.11.14.22.41.23.41,0,0-.09-.06-.13-.14-.08-.08.05-.23-.02-.34-.15-.19-.23-.53-.28-.91-.13M67.92,141.84c-.03.33-.65.92-.65.62,0-.12-.04-.17-.1-.11-.05.05,0,.25.14.43.22.31.24.32.36.05.07-.16.11-.35.09-.42-.02-.08.08-.1.21-.05.13.05.29.01.35-.08.06-.1.04-.13-.06-.07-.1.06-.2-.05-.24-.25-.04-.2-.08-.24-.09-.11M71.02,142.25c.13.05.04.22-.24.48l-.43.4.45-.33c.33-.24.61-.31,1.03-.26.72.09.33-.15-.45-.28-.3-.05-.47-.05-.36-.01M150.54,142.54s.37.32.82.63c.96.65,1.02.61-1.69.89-2.08.21-8.8,1.11-11.79,1.57-18.28,2.83-33.01,6.8-37.26,10.05l-.75.57-.59-.47c-2.35-1.89-7.11-3.69-15.32-5.8-8.31-2.14-20.81-4.39-31.18-5.62-2.26-.27-4.31-.55-4.55-.62-.43-.13-.44-.12-.77.98-.26.86-.29,1.14-.14,1.23.11.07.85.17,1.64.23,7.54.56,21.1,2.6,31.05,4.66,7.87,1.63,16.3,3.97,19.05,5.29l.73.35,1.27-.5c3.88-1.54,12.03-3.72,19.63-5.25,10.39-2.09,18.21-3.3,28.4-4.37,2.04-.22,3.73-.41,3.75-.44s-.1-.56-.28-1.18c-.31-1.07-.38-1.17-1.18-1.7-.47-.31-.85-.53-.85-.49M74.04,142.87c.17.08.17.14,0,.35-.16.2-.11.19.23-.03.26-.17.44-.21.44-.11,0,.1.13.18.28.18s.35.05.44.12c.08.07.04,0-.1-.16-.14-.16-.53-.32-.87-.36-.34-.04-.53-.03-.42.02M66.07,143.48c-.17.12-.32.3-.33.4-.01.09-.03.24-.04.32-.01.08-.14.18-.3.22-.17.04-.1.08.17.09.28.01.41-.04.34-.15-.13-.22.55-.96.77-.83.09.06.11.02.05-.08-.15-.24-.28-.23-.66.04M61.34,143.55c-.13.22-.02.26,1.57.55.89.16,1.31.18,1.42.06.11-.11.09-.13-.05-.05-.11.06-.29.05-.4-.04-.1-.08-.45-.2-.77-.26-.32-.06-.62-.19-.66-.3-.05-.11-.08-.09-.09.07,0,.19-.11.24-.37.17-.2-.05-.4-.16-.46-.24-.06-.09-.14-.08-.21.03M121.01,143.95c-.26.12-.62.38-.79.58-.31.36-.31.36.24-.02.74-.52,1.22-.56,1.65-.15l.36.33-.02-.44c-.01-.37-.09-.45-.49-.48-.26-.02-.69.06-.95.18M135.34,143.87c0,.14-.13.19-.38.14-.27-.05-.36-.01-.3.14.09.23.49.28.79.09.13-.08.14-.2.04-.35-.12-.18-.15-.19-.15-.02M73.72,144.24c-.05.13.12.21.54.23.36.02.61-.04.61-.14,0-.1-.14-.14-.32-.09-.17.05-.32.02-.32-.06,0-.22-.43-.17-.52.05M82.6,144.63c.16.06.14.16-.08.42l-.29.34.35-.3c.31-.26.39-.27.62-.08.18.15.23.15.15.02-.07-.12-.04-.2.09-.2.15,0,.14-.04-.03-.16-.13-.08-.42-.15-.63-.14-.22,0-.3.05-.19.09M108.35,145.63c.05.09.25.16.43.16s.45.1.59.23c.23.21.26.19.27-.12,0-.19-.02-.27-.05-.17-.05.13-.19.12-.5-.04-.5-.26-.88-.29-.74-.07M46.77,146.93c-.11.34-.4,1.46-.4,1.56,0,.05,1.12.15,2.49.2,6.57.27,8.85.4,13.26.74,4.86.38,10.38.98,13.84,1.5,1.43.22,2.62.36,2.66.33.12-.12-8.43-1.68-13.96-2.54-4.78-.74-15.47-2-17.04-2-.49,0-.81.08-.85.2M146.44,147.3c-2.56.3-5.98.72-7.6.94-5.89.81-17.02,2.76-16.46,2.88.14.03,1.55-.13,3.14-.35,5.99-.84,14.18-1.54,21.38-1.82,4.78-.18,6.51-.29,6.61-.39.04-.04-.02-.47-.13-.95l-.2-.88h-1.04c-.57.02-3.14.27-5.7.56M109.29,147.39c-.07.12-.05.14.07.07.1-.06.18-.03.18.07,0,.12-.16.15-.49.09-.5-.1-.94.15-.94.55,0,.11.1.06.22-.1.16-.22.37-.29.79-.26.42.04.57-.01.57-.19,0-.32-.26-.47-.41-.24M117.54,147.45c-.26.19-.27.23-.05.23.14,0,.31-.08.37-.18.08-.12.16-.1.25.08.08.14.21.26.29.26s.03-.14-.12-.32c-.32-.37-.35-.38-.75-.07M95.13,148.26c0,.38-.05.41-.54.35-.3-.03-.51,0-.47.06.11.17,1.32.48,1.54.39.1-.04.03-.08-.16-.09-.31-.01-.34-.08-.26-.57.05-.3.04-.55,0-.55s-.1.19-.1.41M102.24,148.06c-.17.13-.25.47-.25,1.21v1.03s.09-.9.09-.9c.11-.96.1-.95.55-1.19.23-.12.25-.18.07-.24-.12-.05-.33,0-.47.1M99.63,150.02c.02.81,0,.83-.42.83-.34,0-.44-.08-.45-.36-.01-.34-.02-.34-.15-.04-.23.52-.19.55.65.55.64,0,.78-.04.64-.2-.09-.11-.2-.52-.23-.91-.06-.65-.06-.64-.05.12M45.98,149.45c-.11.32-.54,2.03-.51,2.04.01,0,1.91.03,4.22.07,7.09.1,13.78.64,27.62,2.23,17.49,2.01,17.78,2.04,17.64,1.9-.26-.26-7.6-2.06-11.62-2.85-8.93-1.76-21.84-3.08-34.23-3.5-2.49-.09-3.06-.07-3.12.11M151.17,149.37c-1,.02-3.21.12-4.91.21-16.72.92-28.82,2.64-39.66,5.64-2.03.56-3.04.95-2.06.79.51-.08,2.94-.37,11.48-1.36,3-.35,6.99-.81,8.87-1.03,10.67-1.25,17.92-1.82,24.59-1.94l5.04-.09-.1-.55c-.06-.31-.19-.81-.29-1.13-.21-.65-.03-.62-2.96-.55M90.94,149.74c-.25.11-.16.14.36.15.37,0,.67-.06.67-.15,0-.19-.59-.19-1.03,0M100.88,150.89c-.04.07.3.12.75.12s.78-.05.73-.1c-.14-.14-1.39-.16-1.48-.02"/>
  <path class="st0" d="M99.7,43.81c.35.27.38.42.46,2.29.05,1.1.05,2.01,0,2.01-.06,0-3.23-4.14-3.36-4.39-.01-.02-.38,0-.82.06-.78.09-.8.1-.51.39.25.25.3.54.3,1.76,0,.81.05,1.95.1,2.53.06.6.04,1.07-.04,1.07-.08,0-.3-.23-.49-.51-.19-.28-.61-.78-.93-1.11l-.58-.6.46-.48c.84-.88.45-2.35-.68-2.57-.52-.1-4,.38-4,.55,0,.07.1.13.22.13.25,0,.24-.06.82,2.99.36,1.86.4,2.33.24,2.59-.19.3-.16.31.81.2.9-.1,1.69-.4,1.05-.4-.32,0-.39-.19-.53-1.48-.07-.7-.06-1.06.05-1.06.29,0,1.05.74,1.62,1.58.49.73.6.81,1.01.73.25-.05.82-.09,1.27-.09.72,0,.78-.03.53-.22-.23-.18-.3-.55-.38-2.13-.06-1.24-.04-1.92.06-1.92.09,0,.86.92,1.73,2.05,1.43,1.87,1.61,2.05,2.08,2.06h.51s0-2.99,0-2.99c0-2.69.03-3.02.28-3.16.21-.12.05-.16-.67-.16q-.95,0-.58.28M103.83,44.19c-.46,1.14-2.39,5.11-2.62,5.36-.22.25-.18.27.49.33.4.03.77,0,.81-.06.04-.07,0-.12-.09-.12-.22,0-.21-.61,0-1.24.17-.49.2-.5,1.17-.5,1.12,0,1.27.1,1.44,1.01.09.5.06.66-.17.83-.16.12-.26.24-.22.27.04.03.59.1,1.23.15.91.07,1.13.05,1-.1-.09-.11-.45-1.54-.8-3.18-.35-1.64-.66-3-.68-3.02s-.34-.08-.7-.14c-.63-.1-.66-.08-.86.41M107.03,44.66c-.09.37-.14.69-.11.73.03.03.27-.17.52-.45.41-.46.52-.5,1.04-.4.32.06.58.16.58.22,0,.06-.22,1.25-.5,2.64-.38,1.94-.57,2.59-.81,2.79-.3.24-.29.26.3.35.34.05.85.15,1.14.2.49.1.52.08.34-.19-.15-.24-.08-.81.37-2.89.31-1.43.58-2.62.62-2.65.03-.03.29,0,.58.09.6.17.95.56.96,1.07,0,.6.26.39.43-.36.15-.66.14-.72-.17-.79-.92-.21-4.91-1.03-5.01-1.03-.06,0-.19.3-.28.67M91.71,44.75c-.13.09-.12.47.03,1.44.12.73.25,1.36.29,1.41.19.19,1.03-.35,1.2-.77.49-1.19-.61-2.68-1.53-2.08M103.47,45.98c-.32.75-.54,1.43-.49,1.51.05.08.48.14.97.14.74,0,.86-.04.78-.25-.05-.14-.18-.76-.28-1.39-.1-.62-.23-1.19-.29-1.26-.06-.07-.37.49-.69,1.24M87.53,45.11c-.48.16-1.39.44-2.02.63-1.09.32-1.13.35-.85.6.39.34,1.81,4.84,1.69,5.35-.09.35-.07.36.34.2.24-.09,1.19-.37,2.1-.61,1.78-.47,1.71-.41,1.49-1.42-.08-.37-.09-.36-.35.16-.29.58-1.25,1.14-1.81,1.06-.26-.04-.4-.3-.68-1.27l-.35-1.23.85-.27c.47-.15.85-.33.85-.4,0-.19-.3-.16-1.03.1-.35.12-.68.17-.74.12-.06-.06-.26-.57-.43-1.14-.29-.92-.3-1.05-.08-1.21.45-.34,1.33-.41,1.74-.14.51.34.57.32.45-.19-.15-.64-.22-.66-1.17-.34M113.12,45.65c.06.15-.24,1.41-.66,2.81-.58,1.92-.84,2.56-1.05,2.62-.5.13-.31.3.66.57,1.21.34,1.32.33,1.09-.02-.14-.22-.03-.75.55-2.55.4-1.25.73-2.37.73-2.5s.14-.27.32-.32c.5-.13.37-.28-.44-.51-.41-.11-.88-.24-1.03-.29-.21-.06-.25-.02-.18.19M81.6,47.72c-1.22.55-2.31,1.01-2.41,1.02-.26,0-.25.22.06.92l.26.59.14-.63c.1-.47.27-.71.64-.92.27-.16.55-.23.62-.16.07.07.59,1.19,1.17,2.48.74,1.65,1,2.41.89,2.53-.45.45-.08.49.78.08.52-.25,1.02-.45,1.11-.45s.16-.07.16-.16-.13-.16-.29-.16c-.23,0-.53-.56-1.35-2.49-.98-2.31-1.04-2.5-.79-2.69.42-.31,1.12-.24,1.47.14.18.19.36.31.41.26.11-.11-.39-1.4-.54-1.38-.06,0-1.1.47-2.32,1.02M116.74,46.79c-.17.03-.48.1-.67.14-.56.12-1.45,1-1.9,1.88-1.15,2.24.12,4.28,2.68,4.29.94,0,1.12-.05,1.66-.49,1.23-1,1.79-2.8,1.26-4.07-.44-1.05-1.99-1.95-3.03-1.74M116.62,47.67c-1.1,1.17-1.86,3.8-1.33,4.61.55.84,1.45.64,2.16-.49,1.05-1.65,1.45-3.68.86-4.33-.44-.48-1.13-.4-1.7.2M121.81,49.02c.11.63-2.38,4.82-2.93,4.95-.37.09-.37.1.19.44.69.43.76.43.66.04-.08-.32,1.78-3.65,2.04-3.65.07,0,.13.3.14.67,0,.79.41,4.71.49,4.77.03.02.5.34,1.05.7.84.56.99.62.99.36,0-.3.93-1.13,1.27-1.13.1,0,.53.29.95.64l.76.64-.25.72c-.14.42-.37.77-.56.83-.28.1-.25.16.3.57.33.25,1.37,1.2,2.29,2.1,1.81,1.77,1.86,1.79,2.58,1l.3-.33-.72.1c-.67.09-.76.06-1.37-.49-.36-.33-.65-.67-.65-.77s.85-1.03,1.88-2.06c1.64-1.63,1.93-1.86,2.26-1.76.29.09.18-.09-.49-.77-.87-.89-1.18-1.09-1.01-.65.06.15-.57.94-1.79,2.23-1.45,1.54-1.89,1.93-1.92,1.69-.03-.17.38-1.5.91-2.95.53-1.45.96-2.67.96-2.7s-.24-.25-.54-.47l-.54-.41-1.63,1.09c-2.24,1.49-3.61,2.28-3.87,2.23-.15-.03.18-.73,1.06-2.26,1.49-2.58,1.52-2.61,1.91-2.61.47,0,.35-.21-.36-.59-.72-.39-.88-.38-.61.06.15.24.02.57-.81,2-.64,1.1-1.03,1.64-1.1,1.5-.06-.11-.19-1.35-.29-2.74-.19-2.71-.17-2.66-1.16-3.18-.43-.22-.43-.22-.36.21M77.64,49.12c-.57.35-.6.38-.26.43.28.04.61.46,1.37,1.8.55.96.95,1.76.89,1.78-.06.02-1.17-.48-2.47-1.12l-2.36-1.16-.7.39c-.67.38-.68.39-.34.57.19.1.77.86,1.29,1.68,1.34,2.16,1.74,2.98,1.62,3.33-.13.4-.02.39.68-.09.46-.31.51-.4.26-.4-.24,0-.57-.42-1.3-1.63-.54-.9-.98-1.71-.98-1.81s.54.07,1.23.38c1.99.9,2.14.97,2.94,1.31.9.38.89.38,1.27.09.28-.21.24-.32-.81-2.17-1.54-2.71-1.66-2.97-1.58-3.39.09-.47.03-.47-.75,0M71.56,52.91c-.72.55-.8.67-.52.71.22.03.87.8,1.91,2.24,1.24,1.72,1.56,2.27,1.49,2.55-.08.31.03.27.8-.34.74-.58.85-.72.61-.81-.41-.15-3.28-4.39-3.22-4.75.07-.42-.09-.36-1.06.39M127.31,54.93c-.63.44-1.15.86-1.15.94,0,.15,1.12,1.11,1.29,1.11.06,0,.25-.37.43-.83.17-.46.43-1.1.57-1.42.14-.33.2-.59.13-.59-.07,0-.64.36-1.27.8M66.73,57.59l-.44.46,1.28,2.78c.7,1.53,1.28,2.87,1.28,2.98s-.17.04-.4-.17c-.49-.46-.61-.37-.36.28.21.56.08.91-.65,1.78l-.41.49-2.08-1.82c-1.15-1-2.11-1.95-2.14-2.11-.04-.22-.22-.07-.73.6-.76,1-.79,1.1-.36.98.22-.06.73.28,1.78,1.17.81.69,1.74,1.45,2.07,1.7.33.25.59.55.59.67,0,.42.24.2,1.23-1.09.54-.71,1.34-1.69,1.77-2.17.73-.82.76-.88.44-.96-.2-.05-.51-.38-.72-.77l-.38-.68.76-.77.76-.77.76.43c.51.28.76.53.76.74,0,.25.16.15.79-.47.79-.78.98-1.09.57-.93-.12.05-.78-.23-1.46-.62-2.14-1.21-3.97-2.17-4.12-2.17-.08,0-.34.2-.58.46M67.11,58.74c0,.28,1.1,2.51,1.24,2.51.07,0,.39-.27.71-.61.67-.69.71-.62-.81-1.51-1.11-.64-1.14-.65-1.14-.4M135.78,62.68c-.47.47-.48.52-.39,1.54.05.58.14,1.28.2,1.56.21,1-1.07,1.57-1.8.8-.54-.57-.62-1.31-.2-1.88.19-.26.32-.51.28-.55-.06-.06-1.11.57-1.35.81-.1.1.47,1.1,1,1.76.29.35.82.78,1.18.94.6.27.72.28,1.32.07,1.01-.35,1.16-.76.91-2.41-.19-1.21-.18-1.4.05-1.75.37-.57.85-.67,1.35-.3.62.46.79,1.07.45,1.66-.36.63-.25.72.36.29.57-.4.58-.47.18-1.24-.38-.74-.89-1.22-1.64-1.53-.88-.37-1.35-.31-1.9.24M59.63,66.31c-.59.95-1.07,1.77-1.07,1.82s.14.07.32.05c.45-.05,4.73,2.73,4.74,3.09,0,.15.06.27.12.27.07,0,.63-.84,1.25-1.86l1.13-1.85-.42-.35c-.54-.45-.71-.45-.56,0,.07.2.11.54.1.77-.03.47-.63,1.57-.86,1.57-.17,0-2.19-1.41-2.19-1.53,0-.04.21-.39.47-.77.53-.77.56-.87.27-.87-.11,0-.38.32-.59.71s-.45.71-.52.71c-.21,0-2.01-1.26-2.01-1.41,0-.07.22-.43.48-.79.37-.51.55-.64.79-.57.55.17.69-.1.21-.42-.25-.16-.49-.3-.53-.29-.04,0-.56.78-1.15,1.73M137.83,66.87c-1.22.64-2.01,1.68-2.01,2.66,0,.84.54,1.89,1.37,2.66.82.75,1.14.72.42-.05-.92-.98-1.07-1.69-.52-2.58.65-1.06,2.79-2.02,3.87-1.75.56.14,1.19.78,1.19,1.22,0,.19-.19.59-.41.89-.23.3-.38.57-.35.6.11.11,1.4-.61,1.39-.78,0-.33-.59-1.44-1.02-1.96-.65-.77-1.49-1.14-2.57-1.14-.5,0-1.12.1-1.36.23M57.32,70.06c-1.39,2.14-.92,4.41,1.12,5.46.69.36,1.86.39,2.47.08.91-.47,1.65-1.57,2.02-2.99l.2-.76-1.02-.46c-.62-.28-1.02-.56-1.02-.71,0-.49-.24-.22-.68.73-.44.98-.46,1.27-.06.94.17-.14.42-.09,1.11.21,1.02.45,1.14.8.5,1.43-.56.56-1.61.53-2.86-.07-1.59-.76-2.35-1.78-2.05-2.75.19-.64.56-.91,1.2-.91.33,0,.61-.06.61-.14,0-.12-.94-.66-1.13-.65-.03,0-.22.26-.42.57M143.33,71.26c-.22.5-5.09,2.42-5.51,2.17-.25-.15-.28-.13-.18.17.06.19.25.66.42,1.05.26.6.34.67.5.47.14-.19,2.43-1.21,2.7-1.21.03,0,.18.44.33.98.15.54.31,1.06.34,1.16.09.23-2.08,1.08-2.48.98-.39-.1-.39-.08.04,1.1.31.86.37.94.51.65.1-.2.57-.47,1.19-.7.57-.21,1.69-.63,2.49-.94,1.21-.47,1.51-.53,1.71-.37.41.34.4.09-.05-1.08-.38-1-.45-1.09-.59-.8-.17.37-2.25,1.2-2.44.98-.23-.27-.67-1.99-.54-2.1.07-.06.59-.28,1.14-.47.81-.29,1.03-.32,1.14-.15.07.12.17.17.22.12.05-.05-.11-.6-.35-1.22-.4-1-.46-1.08-.6-.78M55.23,75.66c-.14.43-.19.79-.12.79s.13-.07.13-.15c0-.39.75-.31,2.38.23.96.32,1.74.63,1.74.69s-1.17.46-2.59.88l-2.59.77-.18.59c-.25.85-.23.89.34.83.33-.03,1.35.24,2.81.74,1.26.44,2.03.76,1.7.71-.66-.1-.77.09-.25.43.37.24.43.7.23,1.76-.09.46-.17.58-.36.51-.13-.05-.74-.18-1.35-.28l-1.11-.18.09-.49c.05-.27.13-.72.19-1,.09-.41.06-.51-.14-.51-.18,0-.28.22-.35.75-.14,1.06-.2,1.18-.51,1.09-.15-.04-.69-.16-1.2-.26l-.93-.18.11-.58c.16-.84.36-1.14.9-1.33.55-.19.44-.36-.34-.5l-.55-.1-.29,1.7c-.16.94-.33,1.91-.38,2.18-.08.42-.06.45.17.26.21-.17.45-.17,1.41.04.64.14,1.8.35,2.58.49.93.16,1.49.33,1.62.5.23.32.18.45.77-2.08.24-1.04.49-1.94.54-1.98.18-.14.47-1.11.32-1.11-.08,0-.17.09-.2.2-.08.24-1.12,0-2.84-.67-1.36-.53-1.52-.4,1.79-1.44,1.16-.37,2.16-.71,2.21-.76.05-.05.14-.28.19-.5.09-.39.04-.43-1.68-1.02-2.21-.76-3.76-1.44-3.76-1.66,0-.42-.26-.08-.49.63M99.33,78.21c-.96.63-3.84,2.01-5.22,2.51-2.48.88-3.86,1.13-6.89,1.22-4.15.13-7.27-.43-11.16-1.99-.87-.35-1.59-.62-1.61-.6-.16.16-.88,3.13-1.16,4.73-.67,4-.71,8.8-.08,13.23,1.31,9.32,6.07,19.37,12.59,26.55.78.86,1.26,1.23,2.12,1.63.61.29,1.34.7,1.62.91.47.36.49.41.33.94-.14.46-.13.59.08.75,1.71,1.33,3.51,2.64,4.87,3.55,1.92,1.28,4.8,2.9,5.16,2.9.84,0,8.44-4.88,9.68-6.2.32-.34.33-.44.17-.97-.22-.73-.19-.76,2.02-1.86,1.34-.67,1.74-.96,2.54-1.86,5.66-6.35,10.09-15.03,11.85-23.23.81-3.79.95-5.13.95-9.66,0-3.33-.06-4.67-.28-6.04-.27-1.67-.84-4.06-1.2-5l-.16-.43-1.15.49c-1.86.8-3.72,1.38-5.58,1.76-2.35.48-7.66.51-9.72.07-2.72-.59-6.04-1.9-8.27-3.27-.9-.55-.86-.55-1.48-.14M141.93,78.66c-.83.42-1.03.6-1.38,1.29-.35.69-.38,1.18-.12,2.1.63,2.21,3.04,2.99,5.05,1.64,1.29-.87,1.6-2.21.85-3.71-.33-.66-.55-.89-1.22-1.22-1.01-.5-2.28-.54-3.18-.09M142.7,80.09c-1.78.57-2.55,1.68-1.66,2.4.96.78,4.96-.2,5.31-1.3.4-1.25-1.44-1.8-3.64-1.1M143.6,84.55c-1.46.25-2.41,1.37-2.4,2.83,0,.78.42,1.82.89,2.24.87.77,2.76,1,3.94.46.35-.16.83-.52,1.07-.8.37-.44.43-.65.43-1.52,0-.55-.08-1.21-.17-1.45-.19-.5-.85-1.25-1.34-1.52-.47-.26-1.65-.38-2.42-.24M81.94,84.63c-.27.27-.05.51.53.61.36.06.7.23.79.39.08.15.2,3.33.26,7.05.11,6.48.1,6.78-.18,6.99-.16.12-.48.21-.71.21-.4,0-.79.25-.79.51,0,.07,1.57.13,3.48.13,2.97,0,3.48-.03,3.48-.23,0-.13-.2-.28-.44-.33-1.22-.26-1.15-.07-1.15-3.18,0-2.65.01-2.79.28-2.57,1.32,1.1,5.9,5.25,5.9,5.34,0,.06-.34.22-.75.34-.41.12-.75.3-.75.38,0,.17,6.14.32,6.54.16.33-.13-.04-.5-.6-.61-.36-.07-.97-.72-2.83-2.99-1.3-1.59-3.06-3.57-3.9-4.39-1.45-1.42-1.51-1.51-1.24-1.76.16-.15,1.34-1.17,2.62-2.27,2.23-1.91,3.46-2.81,4.44-3.23.59-.25.46-.59-.22-.58-.3,0-1.52.02-2.72.04-1.82.03-2.18.07-2.18.27,0,.14.15.24.36.24.2,0,.46.07.59.15.21.13.2.22-.05.69-.28.53-2.71,3.31-4.58,5.24l-.92.96.08-.63c.04-.35.13-1.77.18-3.17.06-1.39.17-2.65.25-2.8s.39-.32.69-.37c.4-.07.55-.19.55-.4,0-.28-.17-.3-3.46-.3-1.9,0-3.5.05-3.56.11M99.68,93.24l-.04,8.72-8.39-.02c-4.61-.01-8.62.03-8.9.09-1.46.3.44.38,8.52.38h8.86v8.71c0,5.7.05,8.71.16,8.71s.16-3.01.16-8.71v-8.71l8.71-.04c5.71-.03,8.69-.1,8.67-.2-.03-.1-3.08-.17-8.67-.19l-8.63-.03-.04-8.71c-.03-5.58-.1-8.71-.2-8.71s-.17,3.14-.2,8.72M105.63,84.73c-.12.19.07.33.71.51.44.12.6.27.7.63.07.26.15,3.46.17,7.11l.04,6.63-.4.12c-.22.07-.59.16-.83.22-.24.05-.44.2-.44.33,0,.2.54.23,3.72.23s3.72-.03,3.72-.23c0-.13-.18-.27-.4-.32-.22-.05-.58-.12-.81-.17l-.42-.09.11-7c.07-4.01.18-7.06.26-7.15.08-.09.41-.23.74-.32.34-.09.59-.26.59-.4,0-.2-.55-.23-3.7-.23-2.03,0-3.73.06-3.78.13M52.86,86.22c0,.15-.1,1.27-.22,2.49-.12,1.22-.18,2.28-.13,2.35.04.07.07.81.05,1.64-.02,1.02.03,1.47.14,1.4.09-.06.17-.21.17-.33,0-.19.45-.23,2.68-.23,1.48,0,2.72.07,2.77.15.09.14-2.64,3.36-2.94,3.47-.22.08-1.65-1.02-2.28-1.76l-.56-.65v.54c0,.81.16,1.25.4,1.15.21-.08,2.76,1.35,2.76,1.55,0,.06-.53.16-1.19.22-.86.08-1.25.06-1.42-.09-.2-.17-.23-.13-.16.26.04.25.12.8.17,1.21.09.73.11.74.36.46.37-.41,5.14-.95,5.53-.63.22.18.24.12.14-.57-.06-.43-.11-.94-.11-1.15s-.07-.37-.16-.37-.16.1-.16.22c0,.15-.31.25-.97.33-.53.06-1,.07-1.05.03-.04-.05.39-.6.98-1.24l1.06-1.15-.09-1.27c-.05-.7-.09-1.59-.1-1.98,0-.63-.03-.68-.22-.44-.19.24-.52.28-2.84.28-2.58,0-2.63,0-2.63-.34,0-.3.06-.33.63-.24.35.06.63.07.63.02s-.28-.27-.63-.5c-.56-.37-.63-.49-.63-1.03,0-.72-.28-.68,2.98-.43,2.19.17,2.44.22,2.6.52.18.33.18.32.29-.07.06-.22.12-.82.12-1.35,0-.72-.03-.88-.15-.67-.19.33-1.17.35-3.87.06l-1.74-.18.02-.52c.03-.55.43-1.14.79-1.14.12,0,.21-.07.21-.16s-.28-.16-.63-.16c-.5,0-.63.06-.64.28M143.86,86.13c-1.01.14-2.09.62-2.24,1.01-.23.6-.1,1.03.42,1.35.44.28.73.31,2.02.27,1.23-.04,1.65-.12,2.29-.44,1-.51,1.2-.81.87-1.39-.43-.76-1.59-1.04-3.35-.8M141.46,92.94c-.06,1.23-.08,2.26-.06,2.29.03.03.36.1.75.16l.7.11-.51-.46c-.41-.37-.53-.62-.59-1.25-.04-.44-.02-.88.05-.99.1-.15.76-.17,2.72-.09,2.17.09,2.64.15,2.87.38.27.27.28.23.33-.9.03-.65,0-1.18-.07-1.18-.07,0-.12.08-.12.18,0,.29-5.57.04-5.79-.26-.13-.17-.2.33-.28,2.01M141.3,96.59c-.29,2.39.23,3.44,1.69,3.44.65,0,.98-.27,2.13-1.72.59-.74,1.21-.88,1.67-.37.58.65.08,1.78-.88,2-.51.12-.51.12-.12.24.63.2,1.27.18,1.28-.04,0-.11.07-.54.14-.97.18-1.09-.07-2.07-.64-2.55-.94-.79-2.05-.37-2.91,1.09-.5.86-1.03,1.16-1.58.91-.93-.42-.82-1.8.17-2.34.53-.29.54-.3.19-.4-.91-.26-1.03-.19-1.13.7M57.07,103.03c-.51.54-.52.51.72,1.93l.92,1.05.62-.17c.51-.14.69-.12,1.03.1.8.53.4-.09-1.13-1.73-.85-.91-1.58-1.65-1.63-1.65s-.29.21-.53.46M140.9,104.32c-.89.95-1.52,1.73-1.38,1.73s.28-.07.34-.16c.12-.2.8-.21,1.17,0,.23.12.44-.02,1.14-.75,1.52-1.59,1.5-1.56,1.15-1.95-.65-.72-.71-.7-2.42,1.13M111.63,103.84c-1.69.24-3.54.78-4.92,1.45-2.24,1.08-4.05,3.25-4.61,5.54-.1.41-.16,1.47-.13,2.38.05,1.48.11,1.75.57,2.69.97,1.98,2.87,3.24,5.77,3.83,1.54.32,4.35.32,5.81.02,1.75-.37,3.65-1.05,3.82-1.36.25-.46-.06-.49-1.3-.14-.64.18-1.88.37-2.76.42-1.35.08-1.77.04-2.7-.24-2.65-.81-4.01-2.86-4.01-6.08,0-2.62.7-4.49,2.25-6.03,1.3-1.3,2.23-1.74,3.76-1.81.81-.04,1.27.01,1.46.16.15.12.76,1.03,1.36,2.03.79,1.32,1.18,1.83,1.43,1.87.42.06.42-.1.13-2.48-.13-1.07-.28-1.68-.43-1.78-.7-.44-3.82-.7-5.5-.47M88.8,104.24c-4.66,1.08-7.02,3.5-5.87,6.02.57,1.25,2.27,2.16,5.87,3.15,2.18.6,3.28,1.04,3.91,1.59.47.4.57.6.63,1.27.09,1.02-.31,1.67-1.33,2.18-1.1.55-2.15.76-3.73.76-2.42,0-3.09-.38-4.72-2.69-.62-.88-1.1-1.2-1.31-.86-.07.11.44,3.39.59,3.78.2.53,5.48.73,8.09.3,1.9-.31,2.95-.63,4.24-1.31,2.13-1.11,3.11-2.94,2.43-4.52-.55-1.27-2.05-2.19-5.56-3.39-3.62-1.24-4.67-1.99-4.67-3.33,0-.65.07-.8.69-1.39.93-.89,2.19-1.24,4.18-1.16,1.77.07,1.97.2,3.28,2.08.72,1.03,1.04,1.37,1.32,1.37.28,0,.35-.06.29-.27-.04-.15-.16-.99-.26-1.86s-.21-1.63-.25-1.69c-.16-.26-1.84-.45-3.91-.44-1.79,0-2.59.09-3.91.4M54.94,105l-.52.53.67.77c.37.43,1.07,1.22,1.57,1.76l.9.99-.02-.75c0-.41.04-.9.11-1.09.1-.28-.06-.55-.92-1.5-.57-.64-1.1-1.18-1.16-1.2-.06-.02-.35.2-.64.49M143.96,105.14c-.35.37-.86.93-1.15,1.24l-.52.57.28.49c.23.41.25.57.1.97-.33.87.12.54,1.65-1.22l1.46-1.68-.51-.52c-.28-.29-.55-.52-.6-.52s-.38.3-.72.67M58.54,106.81l-.64.6,1.32,1.5c3.66,4.17,11.61,13.02,11.99,13.36.26.23.39.26.53.12.28-.28.44-.23.44.14,0,.18-.07.28-.16.23-.17-.1-.79.81-.79,1.15,0,.11-.25.6-.56,1.09-.31.48-.54.91-.5.94.03.03.51-.15,1.05-.42.83-.4.97-.53.89-.79-.06-.17-.05-.55.01-.82l.11-.51.53.61c.47.55.58.6,1.05.5.29-.06.71-.19.94-.3l.42-.19-5.38-6.02c-2.96-3.31-6.52-7.32-7.92-8.9-1.4-1.59-2.57-2.89-2.6-2.89s-.35.27-.71.6M138.82,108.48c-1.89,2.15-9.86,11.04-15.41,17.2-1.45,1.61-2.63,2.97-2.63,3.04s.27.37.59.67l.59.56.38-.35c.52-.48,3.82-4.12,8.49-9.37,3.26-3.66,5.64-6.33,11.06-12.39l.32-.36-.46-.49c-.85-.89-.78-.93-2.92,1.49M77.18,123.96c-1.51.19-2.76.53-4.61,1.26-1.7.66-3.08,1.45-3.08,1.75,0,.1.4.92.89,1.82l.89,1.63.57-.25c1.78-.77,5.68-1.8,6.78-1.8.61,0,.82-.08,1.25-.49l.51-.49.54.34c.3.19.79.34,1.1.34,1.19,0,4.49.99,6.1,1.84.52.27.67.3.67.13,0-.12.21-.88.47-1.68.33-1.02.42-1.51.31-1.65-.09-.11-.74-.48-1.46-.83-3.42-1.69-7.31-2.36-10.94-1.9M118.4,123.88c-3.08.39-6.71,1.61-8.07,2.71l-.38.31.46,1.69c.25.93.5,1.66.54,1.64,1.3-.77,3.76-1.59,6.15-2.07,1.06-.21,2.04-.47,2.17-.58.19-.16.29-.15.48,0,.3.25.64-.06,2.38-2.09.94-1.1,1.12-1.39.91-1.47-.33-.13-3.91-.24-4.64-.15M128.14,124.89c-.16.17-.26.34-.22.38.23.21,1.73.87,1.73.76,0-.19-.96-1.46-1.1-1.46-.07,0-.25.14-.41.32M126,127.22c-.83.93-1.52,1.73-1.55,1.78s.37.19.87.31c.5.11,1.43.4,2.06.65l1.15.44.73-1.37c.4-.75.83-1.52.94-1.71.18-.29.17-.38-.09-.61-.35-.31-2.16-1.2-2.43-1.18-.1,0-.86.77-1.69,1.69M79.37,128.76c-.53.54-1.4,1.29-1.94,1.65-.54.36-.98.72-.98.78,0,.16,1.29,1.39,2.51,2.38,4.1,3.35,9.98,5.8,16.25,6.76,2.4.37,7.13.37,9.64,0,1.88-.27,5.25-1.08,6.9-1.65,4.05-1.41,8.04-3.73,10.99-6.4l.94-.85-1.19-.88c-1.29-.95-2.3-1.88-2.71-2.48l-.26-.38-.84.72c-3.68,3.13-9.38,5.62-14.61,6.38-2.54.37-7.4.25-9.66-.24-4.58-.99-10.01-3.56-13.19-6.24-.38-.32-.73-.57-.79-.56-.06,0-.54.46-1.07,1M81.68,128.33c0,.07.24.27.51.45.28.18.99.66,1.59,1.07,1.17.8,1.32.82,3.59.6l1.03-.1-.79-.41c-.92-.48-2.91-1.13-4.27-1.39-.52-.1-1.11-.22-1.31-.26-.2-.04-.35-.02-.35.05M115.79,128.68c-1.95.49-4.38,1.42-4.47,1.7-.04.13.47.2,1.73.25,1.74.06,1.81.05,2.66-.4.92-.49,2.44-1.57,2.61-1.85.17-.27-.68-.17-2.53.3M77.97,128.67c-.92.11-1.03.29-.5.79l.39.36.64-.52c.65-.52.81-.8.45-.76-.11.01-.55.07-.98.12M139.62,136.3c-6.63.76-12.16,1.81-20.74,3.95-5.82,1.45-7.99,2.08-8.39,2.44-.64.58-.88.59-1.43.06l-.5-.48-.54.52c-.48.46-.96.64-4.26,1.57l-3.72,1.05-2.25-.86c-1.24-.47-3.19-1.19-4.34-1.59l-2.09-.73-.34.43c-.2.25-.49.43-.71.43-.43,0-1.18-.58-1.49-1.16-.25-.46-.93-.7-5.08-1.76-6.46-1.66-15.65-3.41-18.21-3.46l-1.19-.03-5.54,2.34c-9.7,4.1-10.84,4.61-10.64,4.73.11.07.42.12.71.12.85,0,7.71.91,12.7,1.68,11.21,1.72,20.71,3.75,28.18,6.01,4.45,1.34,7.83,2.84,9.53,4.2l.59.47.75-.57c3.84-2.93,16.68-6.59,32.4-9.24,6.35-1.07,14-2.15,17.53-2.47.65-.06,1.27-.15,1.37-.21.22-.12-10.34-7.53-10.78-7.56-.18-.01-.85.04-1.51.11M61.95,139.71c.12.32-.32,3.3-.56,3.74-.18.33-.13.35,1.28.59.57.1,1.15.21,1.31.25.2.06.33-.05.44-.35.21-.55.08-.67-.32-.31-.23.21-.46.26-.89.19-.32-.05-.61-.12-.64-.16-.04-.04,0-.41.06-.84.12-.69.17-.78.58-.82.25-.03.53.02.62.12.26.26.42.2.42-.14,0-.2-.1-.31-.28-.29-.81.07-1.17-.03-1.09-.3.04-.15.12-.54.18-.87.09-.56.12-.58.61-.5.28.05.66.27.84.49l.33.39.08-.41c.1-.51.11-.5-1.15-.72-.56-.1-1.23-.22-1.49-.27-.4-.08-.44-.05-.35.2M139.04,140.31c-.34.29-.48.33-.6.18-.11-.14-.31-.16-.66-.06l-.5.14.22.65c.12.36.24,1.04.26,1.52l.03.86.63-.1c.76-.12.78-.14.59-.51-.28-.53-.4-1.94-.19-2.2.55-.66,1.16.06,1.37,1.61l.1.73.55-.09c.62-.1.81-.23.58-.39-.09-.06-.25-.57-.35-1.14-.28-1.54-1.09-2.02-2.04-1.2M130.47,140.59c-.28.28-.23.57.11.75.23.12.39.09.67-.13.31-.25.34-.33.15-.55-.25-.3-.67-.33-.93-.07M134.43,141.03c-.62.15-.94.4-1.24.97-.3.57-.29,1.02.04,1.56.85,1.44,3.38.73,3.38-.95,0-.58-.48-1.28-1.03-1.52-.3-.12-.56-.22-.58-.21-.02,0-.28.07-.56.14M134.22,141.53c-.36.68.22,2.51.8,2.51.39,0,.54-.49.41-1.35-.1-.66-.59-1.5-.88-1.5-.08,0-.22.15-.32.34M65.66,141.56c.09.11.31.53.48.94l.31.73-.78.55c-.6.42-.72.57-.53.65.44.17.86.11.77-.11-.04-.11.1-.37.31-.57l.39-.36.23.45c.13.25.2.54.16.65-.08.22.07.28.92.43l.57.09-.45-.9c-.25-.49-.45-.99-.45-1.11s.3-.41.66-.65l.66-.44-.46-.08c-.25-.05-.49-.01-.52.08-.03.09-.17.29-.31.44-.28.32-.5.12-.5-.46,0-.36-.37-.53-1.17-.53-.35,0-.42.04-.29.2M127.69,141.64c-.14.16-.26.44-.26.63s-.07.34-.16.34-.16.07-.16.16.1.16.23.16c.15,0,.27.25.34.75.13.92.34,1.5.59,1.66.28.18.99.15,1.45-.06.55-.25.51-.42-.11-.39-.45.02-.53-.04-.69-.53-.1-.3-.22-.82-.27-1.15-.09-.56-.07-.6.37-.69.66-.13.58-.37-.09-.26-.53.09-.55.07-.55-.41,0-.57-.28-.65-.69-.21M130.91,141.78c-.48.09-.81.36-.44.36.19,0,.31.25.43.91.1.5.21,1.05.24,1.22s-.02.41-.12.53c-.16.19-.08.21.52.11.87-.14,1-.22.81-.45-.11-.14-.66-2.4-.66-2.73,0-.07-.19-.06-.79.05M77.22,142.13c.18.12.15.43-.2,1.94-.23.99-.46,1.95-.51,2.13-.08.28,0,.35.41.44.8.16,1.01.13.81-.1-.12-.15-.05-.76.28-2.26.25-1.13.42-2.1.38-2.17-.04-.07-.37-.12-.74-.12-.44,0-.59.05-.44.14M70.38,142.34c-1.19.31-1.61,1.8-.75,2.66.39.39.59.46,1.26.46.94,0,1.24-.27.39-.35-.79-.07-1.13-.62-.91-1.48.26-1.03,1.4-1.52,1.53-.66.08.54.44.53.44-.02,0-.32-.09-.5-.28-.55-.72-.19-1.12-.21-1.68-.07M79.68,142.71c.12.32-.69,3.91-.91,4.06-.26.17-.1.24.77.37.68.1.77.09.6-.11-.15-.18-.1-.65.28-2.27.26-1.12.47-2.1.47-2.17s-.29-.13-.65-.13c-.52,0-.63.05-.56.25M73.49,143.08c-.28.17-.58.46-.67.63-.21.39-.22,1.37-.01,1.75.23.42,1.39.84,2.02.73.66-.12.68-.32.03-.34-.58-.02-1.07-.46-1.13-1.01-.05-.44.04-.46,1.34-.26l.75.12v-.48c0-1.1-1.34-1.76-2.32-1.14M73.99,143.49c-.31.48-.29.52.39.66.51.1.51.09.46-.43-.07-.68-.48-.79-.85-.23M123.83,143.28c-.19.09-.38.27-.43.39-.1.25.15.3.3.06.14-.22,1.08-.2,1.31.03.3.3.23.38-.43.58-.61.18-1.28.82-1.28,1.21,0,.11.13.36.29.56.39.48,1.19.48,1.66,0l.35-.36-.36.11c-.66.2-1.13-.66-.63-1.15.29-.29.76-.23.76.1,0,.16.08.52.17.79.15.43.25.5.7.5.54,0,.88-.27.59-.45-.09-.06-.25-.52-.35-1.03-.25-1.21-.58-1.53-1.55-1.52-.41,0-.91.09-1.1.18M121,143.95c-1.15.51-1.56,1.94-.79,2.71.52.52,1.06.63,1.86.37.9-.29.94-.55.07-.48-.58.05-.74,0-.95-.31-.29-.41-.34-1.43-.09-1.89.22-.41.6-.39,1.07.05l.38.36-.05-.47c-.04-.4-.13-.48-.53-.51-.26-.02-.69.06-.96.18M112.71,144.27c-.45.16-.5.22-.29.34.14.08.33.41.42.74l.16.59h-.55c-.85,0-1.48.71-1.48,1.66,0,.6.08.82.46,1.2.57.57,1.1.59,1.74.05.27-.23.49-.33.49-.24s.2.17.44.17c.53,0,.94-.23.69-.38-.19-.12-.29-.49-.81-2.82-.2-.9-.42-1.54-.53-1.53-.1,0-.43.1-.73.21M82.04,144.78c-.95.47-1.28,2-.56,2.64.38.34,1.41.59,1.95.49.58-.12.59-.35.01-.33-.66.02-1.1-.29-1.22-.84-.06-.27-.07-.53-.02-.58.05-.05.41,0,.8.09,1.12.28,1.36.24,1.36-.23,0-.57-.25-.98-.79-1.25-.58-.3-.9-.3-1.54.02M117.57,144.63c-.3.08-.37.29-.14.43.08.05.22.53.33,1.07.19.95.18,1-.16,1.28-.35.28-.37.28-.64,0-.16-.16-.38-.75-.49-1.31-.14-.68-.29-1.04-.45-1.07-.37-.07-1.19.28-.97.41.1.06.3.62.44,1.25.14.62.36,1.22.49,1.33.4.33,1.14.23,1.61-.22.37-.35.46-.38.59-.18.13.19.26.2.78.06.48-.14.57-.21.38-.31-.15-.08-.36-.66-.53-1.49-.3-1.42-.34-1.47-1.22-1.24M82.57,145.13c-.14.16-.26.36-.26.46,0,.16.49.36.91.36.25,0,.26-.67,0-.92-.25-.25-.35-.24-.66.1M85.54,145.44c.14.23-.39,2.3-.65,2.51-.28.23-.12.33.72.47.55.09.65.07.57-.13-.14-.37.39-2,.71-2.17.19-.1.37-.09.56.05.23.17.26.34.17,1-.06.44-.21.99-.32,1.21-.24.47-.22.5.58.64.5.09.57.07.51-.18-.04-.15.04-.59.17-.97.35-.98.31-1.49-.14-1.91-.39-.36-.86-.39-1.56-.09-.23.1-.28.06-.24-.18.04-.24-.06-.31-.56-.35-.36-.03-.57.01-.52.1M107.88,145.62c-.94.2-1.25.33-1.2.5.03.12.24,1.08.46,2.13.22,1.04.42,1.93.45,1.96.07.09,2.9-.48,2.96-.6.03-.05,0-.31-.05-.57l-.1-.47-.26.49c-.2.38-.4.52-.86.59-.68.11-.77.02-.91-.88-.13-.81-.04-.92.71-.92.41,0,.62-.07.62-.21,0-.31-.18-.44-.38-.28-.1.07-.4.18-.68.23-.5.09-.51.08-.68-.72-.14-.64-.13-.84.03-.94.34-.22,1.11-.15,1.42.13.26.23.29.23.29.01,0-.4-.18-.75-.37-.73-.1,0-.75.14-1.45.29M112.17,146.39c-.35.39-.33,1.1.05,1.73.33.54.79.67,1.1.29.14-.17.14-.41,0-.99-.33-1.36-.62-1.62-1.15-1.03M98.8,146.61c-.31.31-.22.59.22.7.55.14,1.01-.28.71-.64-.24-.29-.66-.32-.92-.06M90.62,146.73c-.53.22-1.04.88-1.13,1.47-.07.46-.01.64.37,1.07.38.43.61.53,1.28.6.52.05.82.02.82-.09,0-.09-.23-.19-.51-.22-.39-.04-.57-.16-.74-.52-.45-.94.49-2.39,1.28-1.97.16.08.29.29.29.46,0,.45.27.53.38.12.15-.56.13-.59-.45-.84-.61-.25-1.11-.28-1.59-.08M94.34,147.33c-.95.26-1.42.89-1.42,1.86s1.22,1.73,2.33,1.41l.44-.12-.47-.09c-.72-.14-1.02-.37-1.18-.93-.18-.63-.03-.73.74-.52.33.09.79.17,1.03.17.36,0,.44-.07.44-.39,0-.75-1.16-1.6-1.9-1.4M94.35,147.87c-.43.46-.35.68.29.74.49.05.51.03.46-.46-.06-.64-.32-.74-.75-.28M98.46,147.81c0,.07.08.2.18.3.19.19.12,2.13-.09,2.62-.11.24-.02.28.71.28s.8-.03.64-.23c-.12-.14-.18-.73-.15-1.62l.03-1.4-.66-.04c-.36-.02-.66.02-.66.09M102.48,147.92c-.36.27-.61.31-.47.08.06-.1-.18-.16-.62-.16-.4,0-.72.07-.72.16s.06.16.14.16c.21,0,.35,2.41.15,2.65-.13.16,0,.2.67.2s.8-.04.65-.19c-.29-.29-.25-2.11.06-2.41.61-.61.97-.12,1.05,1.48l.05.97h.69c.53,0,.66-.04.54-.2-.09-.11-.19-.68-.24-1.27-.05-.71-.18-1.18-.36-1.39-.33-.37-1.15-.41-1.59-.08"/>
</svg>