<?xml version="1.0" encoding="UTF-8"?>
<svg id="Layer_1" xmlns="http://www.w3.org/2000/svg" version="1.1" viewBox="0 0 200 200">
  <!-- Generator: Adobe Illustrator 30.1.0, SVG Export Plug-In . SVG Version: 2.1.1 Build 136)  -->
  <defs>
    <style>
      .st0 {
        fill: #dbc935;
      }

      .st0, .st1 {
        fill-rule: evenodd;
      }

      .st1 {
        fill: #838383;
      }
    </style>
  </defs>
  <path class="st1" d="M29.07,120.04v16.27h25.4v-7.67h-16.16l.08-2.71.08-2.71,5.76-.07,5.76-.07v-6.6l-5.76-.07-5.76-.07v-5.03l6.57.05c3.61.03,6.53-.03,6.48-.13-.15-.34-3.18-5.46-3.82-6.47l-.63-.99h-17.99v16.27M50.51,103.93c0,.23.92,1.83,6.4,11.16l4.71,8.02v13.2h9.81l-.02-6.75-.02-6.75,2.85-4.83c4.4-7.46,8.03-13.8,8.03-14.02,0-.11-2.31-.2-5.13-.2h-5.13l-2.7,5.29c-1.48,2.91-2.75,5.29-2.81,5.29s-1.31-2.38-2.76-5.29l-2.65-5.29h-5.29c-2.91,0-5.29.07-5.29.17M98.93,116.71c0,.13-.07.43-.16.66-.13.33.02.42.66.42.7,0,.82-.1.82-.66,0-.53-.13-.66-.66-.66-.36,0-.66.11-.66.24M102.44,116.74c-.58.23-.6.33-.6,4.35v4.11h1.32v-4.37c0-2.4-.03-4.36-.07-4.35-.04,0-.33.12-.66.26M108.79,116.74c-.49.2-.6.44-.6,1.44,0,1.33.01,1.31-.86.92-2-.91-3.59,2.23-2.48,4.89.44,1.06.79,1.19,3.13,1.17l1.79-.02v-4.34c0-2.39-.09-4.33-.2-4.32-.11,0-.47.12-.79.26M111.37,117.13c0,.53.13.66.66.66s.66-.13.66-.66-.13-.66-.66-.66-.66.13-.66.66M139.89,116.65c-.42.11-.46.54-.46,4.3v4.18l1.9.02c1.04,0,2.1-.09,2.35-.22,1.2-.64,1.41-4.25.31-5.35-.58-.58-1.91-.75-2.77-.36-.41.19-.46.05-.46-1.27,0-.82-.09-1.47-.2-1.45-.11.02-.41.09-.66.15M84.38,120.99v4.26l2.54-.09c2.4-.09,2.57-.13,3.18-.83.85-.99.86-2.41.02-3.16-.6-.54-.61-.57-.13-1.04.7-.7.62-1.97-.16-2.75-.59-.59-.85-.65-3.04-.65h-2.39v4.26M152.99,117.01c-.43.17-.6.46-.6,1.01,0,.44-.17.84-.4.93-.54.21-.5.88.07,1.2.38.21.46.63.46,2.28,0,2.29.33,2.78,1.9,2.78.75,0,.88-.09.88-.64,0-.47-.16-.67-.6-.73-.54-.08-.6-.25-.67-1.87-.08-1.77-.07-1.79.61-1.79.57,0,.68-.11.61-.6-.05-.38-.3-.63-.68-.68-.5-.07-.6-.25-.6-1.12,0-1.1-.05-1.14-.99-.77M157.35,116.92c-.33.09-.46.39-.46,1.04,0,.57-.15.97-.4,1.07-.22.08-.4.38-.4.65s.18.5.4.5c.32,0,.4.4.4,1.98,0,2.35.45,3.04,1.98,3.04.81,0,.93-.08.93-.66,0-.53-.13-.66-.66-.66-.77,0-1.01-.64-.88-2.4.08-1.06.15-1.18.83-1.25.59-.07.73-.2.66-.66-.06-.41-.3-.6-.81-.66-.66-.08-.73-.19-.73-1.12,0-.57-.09-1.03-.2-1.01-.11.02-.41.09-.66.15M85.88,117.97c-.1.1-.18.63-.18,1.19v1.01h1.13c1.1,0,2.31-.56,2.31-1.07,0-.61-1.1-1.31-2.07-1.31-.56,0-1.09.08-1.19.18M92.23,119.03c-.1.1-.18,1.21-.18,2.48,0,1.91.09,2.42.54,2.99.5.64.68.68,2.65.66l2.11-.03v-6h-1.59v2.24c0,1.87-.08,2.28-.46,2.48-.25.13-.64.18-.86.11-.81-.26-1.06-.96-1.06-3.03,0-1.83-.06-2.07-.49-2.07-.27,0-.56.08-.66.18M111.97,119.04c-.58.11-.6.21-.6,3.14v3.02h1.32v-3.18c0-1.75-.03-3.16-.07-3.14s-.33.09-.66.15M114.28,122.03v3.18h1.59v-2.2c0-2.25.22-2.83,1.09-2.83.97,0,1.29.73,1.29,2.93,0,2.06.01,2.1.66,2.1s.66-.01.66-2.45c0-1.77-.11-2.62-.4-3.03-.5-.72-1.97-1.03-2.8-.58-.45.24-.64.25-.71.02-.06-.17-.39-.3-.74-.3h-.64v3.18M121.67,119.62c-.67.67-.77.97-.77,2.26,0,2.59,1.15,3.79,2.97,3.11.7-.27.76-.24.68.29-.05.35-.42.74-.94.98-.83.39-1.14,1.13-.6,1.46.54.33,2.15-.45,2.66-1.29.43-.71.51-1.35.51-4.21v-3.37s-.64,0-.64,0c-.36,0-.72.12-.81.27-.11.18-.33.18-.66,0-.85-.45-1.6-.3-2.4.51M130.98,119.22c-.55.66.07,1.27.96.93.51-.19.84-.15,1.32.16.81.53.65,1.08-.28.96-1.11-.13-2.44.42-2.78,1.16-.42.93-.38,1.26.24,2.05.51.65.68.69,2.65.66l2.1-.03v-2.45c0-3.11-.31-3.59-2.41-3.77-1.11-.09-1.53-.02-1.8.31M147.03,119.14c-.75.44-1.26,1.71-1.26,3.16,0,1.15.12,1.48.77,2.13.62.62,1,.77,1.93.77.64,0,1.39-.17,1.67-.38.47-.35.48-.42.09-.81-.35-.35-.54-.37-1.11-.11-.57.26-.81.24-1.37-.12-1.28-.84-.87-1.22,1.31-1.22s2.17,0,1.71-1.64c-.47-1.69-2.37-2.59-3.76-1.78M161.6,119.61c-.79.7-.86.9-.86,2.4,0,1.52.05,1.69.85,2.41.67.6,1.12.77,2,.77.62,0,1.37-.17,1.65-.38.47-.35.48-.42.09-.81-.35-.35-.54-.37-1.11-.11-.57.26-.81.24-1.37-.12-1.26-.82-.87-1.22,1.18-1.22h1.85v-.81c0-2.57-2.44-3.79-4.29-2.13M167.21,122.03v3.18h.66c.65,0,.66-.04.66-2.1,0-2.32.39-3.09,1.44-2.83.72.18,1.48-.83.9-1.19-.48-.31-1.21-.29-1.83.04-.35.19-.51.19-.51,0,0-.15-.3-.27-.66-.27h-.66v3.18M98.93,122.16v3.04h1.32v-6.09h-1.32v3.04M162.78,120.2c-.35.13-.6.44-.6.76,0,.45.17.54,1.01.54,1.2,0,1.44-.17,1.1-.8-.33-.62-.8-.77-1.52-.5M106.55,120.45c-1.04.61-.79,3.2.33,3.56.9.28,1.45-.46,1.39-1.88-.07-1.73-.66-2.3-1.73-1.68M122.63,120.76c-.5.72-.54,2.05-.07,2.69.23.31.61.44,1.12.38.74-.08.78-.16.86-1.5.05-.81-.05-1.57-.23-1.79-.46-.55-1.22-.46-1.69.21M141.19,120.65c-.53.59-.59,2.14-.1,2.81.23.31.61.44,1.12.38.65-.07.82-.25,1.02-1.04.45-1.83-.97-3.33-2.03-2.15M147.37,120.68c-.41.77-.37.81.92.81.8,0,1.19-.11,1.19-.34,0-.98-1.64-1.34-2.11-.47M85.88,121.41c-.1.1-.18.69-.18,1.32v1.15h1.4c1.59,0,2.04-.31,2.04-1.38,0-.56-.17-.81-.68-1.01-.78-.3-2.32-.34-2.58-.08M132.01,122.48c-1.1.42-.7,1.66.53,1.66,1.04,0,1.63-.97.91-1.5-.51-.37-.79-.4-1.44-.16M104.43,127.87c-.41.24-.46.74-.46,4.36v4.09h.66c.55,0,.66-.13.66-.73,0-.8.7-2,1.05-1.79.12.07.47.67.78,1.33.48,1.03.67,1.19,1.35,1.19.44,0,.79-.06.79-.12s-.42-.88-.93-1.81-.93-1.85-.93-2.05.38-.76.85-1.24l.85-.87h-.82c-.65,0-1.01.23-1.68,1.08-1.08,1.36-1.3,1.08-1.3-1.67,0-2.1-.07-2.23-.86-1.77M110.58,128.38c0,.67.1.79.66.79s.66-.12.66-.79-.1-.79-.66-.79-.66.12-.66.79M149.82,127.79c-.22.14-.34,1.48-.4,4.3l-.08,4.09.73.08.73.08v-4.38c0-4.45-.07-4.75-.98-4.17M156.43,127.86c-.49.2-.6.44-.6,1.44,0,1.29-.04,1.34-.81.93-.67-.36-2.21.27-2.64,1.08-.19.35-.27,1.27-.21,2.31.15,2.33.6,2.69,3.27,2.68h1.97v-4.36c0-2.39-.09-4.34-.2-4.33-.11,0-.47.12-.79.26M94.51,130.15c-.32.06-.9.49-1.28.94-.62.74-.69,1-.58,2.4.09,1.31.24,1.68.84,2.2,1.06.91,2.87.87,3.75-.08.89-.96,1-3.27.22-4.47-.35-.53-1.72-1.25-2.19-1.14-.09.02-.42.09-.75.15M101.43,130.24c-.28.1-.9.13-1.37.05l-.86-.13v6.16h.66c.65,0,.66-.04.66-2.1,0-1.84.07-2.15.56-2.49.31-.22.74-.32.96-.24.37.14,1.12-.54,1.12-1.01,0-.28-1.17-.44-1.74-.23M115.74,130.21c-.29.12-.92.16-1.39.08l-.86-.13v6.16h.66c.65,0,.66-.04.66-2.1,0-1.55.11-2.21.42-2.51.49-.49.76-.51,1.45-.14.44.24.51.57.51,2.51v2.24h1.64l-.09-2.51c-.08-2.08-.18-2.6-.62-3.03-.64-.63-1.66-.87-2.38-.57M121.26,130.34c-1.02.45-1.54,1.81-1.35,3.51.23,2.01,1.81,3.04,3.39,2.19.42-.23.51-.19.51.22,0,.53-.63,1.19-1.41,1.46-.28.1-.44.37-.39.64.15.74,1.78.53,2.52-.32.56-.65.6-.94.6-4.26v-3.56l-.99.04c-.55.02-1.23-.03-1.52-.12-.29-.09-.9,0-1.36.21M139.43,130.43c-1.24.62-1.64,1.47-1.51,3.22.13,1.83.97,2.67,2.65,2.66,1.78-.01,2.57-.94,2.57-3.03,0-1.59-.57-2.65-1.62-3.02-1.06-.37-.99-.38-2.08.17M146.73,130.18c-.09.14-.64.2-1.22.12l-1.06-.14v6.16h.66c.65,0,.66-.04.66-2.08,0-2.28.41-3.03,1.58-2.89.55.06,1.35-.66,1.06-.95-.29-.29-1.53-.45-1.68-.21M83.96,130.96c.09.4.48,1.77.86,3.04.61,2.02.77,2.32,1.29,2.32s.66-.25,1.08-1.85c.26-1.02.54-1.85.63-1.85s.38.84.66,1.86c.47,1.71.56,1.86,1.16,1.79.59-.07.74-.37,1.52-2.99.48-1.6.87-2.95.88-2.99,0-.05-.31-.05-.71,0-.64.07-.76.26-1.13,1.72-.23.9-.48,1.7-.55,1.78-.08.08-.36-.69-.62-1.71-.43-1.64-.55-1.85-1.12-1.85-.35,0-.69.15-.74.33-.06.18-.31,1.05-.56,1.92-.51,1.76-.44,1.83-1.17-1.12-.24-.96-.38-1.12-.96-1.12s-.66.08-.51.73M110.58,133.27v3.04h1.32v-6.09h-1.32v3.04M130,133.21c.77,2.74.88,2.98,1.47,2.98s.71-.23,1.21-1.85l.57-1.85.58,1.92c.5,1.63.67,1.92,1.17,1.92.57,0,.88-.78,2.24-5.62.1-.35-.03-.46-.55-.46-.57,0-.73.17-.94.99-.14.55-.37,1.41-.5,1.92l-.24.93-.58-1.92c-.5-1.65-.67-1.92-1.18-1.92s-.66.25-1.1,1.92l-.5,1.92-.46-1.46c-.25-.8-.47-1.66-.48-1.92-.01-.33-.23-.46-.78-.46h-.76l.83,2.98M94.44,131.82c-1.37,1.37.03,4.08,1.56,3.01,1.1-.77.53-3.54-.72-3.54-.17,0-.55.24-.84.53M121.82,131.66c-.77.57-.7,2.44.12,3.1.95.77,1.72.17,1.82-1.42.12-1.75-.78-2.53-1.94-1.68M139.9,131.57c-.59.34-.85,1.77-.5,2.7.21.55.45.73,1.02.73.41,0,.89-.14,1.07-.32.5-.5.39-2.44-.17-2.95-.55-.5-.79-.53-1.42-.16M153.98,131.82c-.79.79-.73,2.5.11,3.06.5.33.77.36,1.19.13.45-.24.55-.55.55-1.69,0-1.97-.76-2.59-1.85-1.5"/>
  <path class="st0" d="M110.58,63.84c-8.64,3.25-44.39,16.47-66.16,24.46-11.31,4.15-14.53,5.38-14.13,5.4.16,0,1.89-.28,3.84-.64,1.95-.36,17.06-3.1,33.58-6.1,16.52-2.99,34.53-6.27,40.02-7.29,5.49-1.01,10.11-1.84,10.25-1.84.17,0,.27-2.89.27-8.34,0-6.5-.07-8.33-.33-8.32-.18.01-3.49,1.21-7.34,2.66M28.92,111.04c0,3.93.04,5.57.08,3.65.05-1.92.05-5.14,0-7.14-.04-2.01-.08-.44-.08,3.49M39.87,111.37c.77.05,1.96.05,2.65,0,.69-.05.06-.1-1.4-.1-1.46,0-2.02.05-1.25.1M38.43,113.95c0,1.31.04,1.88.1,1.26.06-.61.06-1.69,0-2.38-.05-.7-.1-.19-.1,1.12M49.98,119.83c-.07,1.92-.04,3.4.08,3.29.11-.11.17-1.69.13-3.49l-.08-3.29-.13,3.49M98.77,122.16c0,1.75.04,2.43.1,1.51.05-.92.05-2.34,0-3.18s-.09-.08-.09,1.66M112.8,122.16c0,1.75.04,2.43.1,1.51.05-.92.05-2.34,0-3.18s-.09-.08-.09,1.66M158.29,121.89c0,.87.05,1.2.11.72.06-.48.06-1.19,0-1.59-.06-.4-.11,0-.11.86M119.66,122.82c0,.95.05,1.33.11.86.06-.47.06-1.25,0-1.72-.06-.47-.11-.09-.11.86M28.92,128.51c0,3.78.04,5.3.08,3.36.05-1.94.04-5.03,0-6.88-.05-1.85-.08-.26-.08,3.52M38.45,123.43c-.07.19-.09,1.47-.05,2.84l.09,2.49.05-2.71.06-2.71,5.49-.08,5.49-.08-5.5-.06c-4.36-.05-5.53.01-5.63.29M105.38,129.83c0,1.16.05,1.61.1.99.06-.62.06-1.58,0-2.12-.06-.54-.1-.03-.1,1.13M149.31,130.23c0,1.24.05,1.74.1,1.12.06-.62.06-1.63,0-2.25-.06-.62-.1-.11-.1,1.12M54.58,132.61c0,2.11.04,2.97.09,1.92.05-1.06.05-2.78,0-3.84-.05-1.06-.09-.19-.09,1.92M110.41,133.27c0,1.75.04,2.43.1,1.51.05-.92.05-2.34,0-3.18s-.09-.08-.09,1.66M113.31,133.67c0,.95.05,1.33.11.86.06-.47.06-1.25,0-1.72-.06-.47-.11-.09-.11.86"/>
</svg>