<?xml version="1.0" encoding="UTF-8"?>
<svg id="Layer_1" xmlns="http://www.w3.org/2000/svg" version="1.1" viewBox="0 0 200 200">
  <!-- Generator: Adobe Illustrator 30.1.0, SVG Export Plug-In . SVG Version: 2.1.1 Build 136)  -->
  <defs>
    <style>
      .st0 {
        fill: #121213;
        fill-rule: evenodd;
      }
    </style>
  </defs>
  <path class="st0" d="M44.79,67.64c-4.2.99-7.28,4.25-8.07,8.55-.15.81-.23,5.25-.19,10.49l.07,9.09,2.01.08,2.01.08.07-3.46.07-3.46,5.07-.15c5.17-.15,6.53-.39,8.31-1.49,1.33-.82,2.94-2.56,3.65-3.96,2.86-5.63.71-12.31-4.82-14.97-1.62-.78-2.21-.92-4.31-1.02-1.51-.07-2.98,0-3.86.21M45.19,71.63c-.69.2-1.68.83-2.56,1.63-1.49,1.36-1.98,3.29-1.99,7.83,0,2.2.1,3.37.31,3.58.36.36,4.42.4,7.52.08,4.44-.47,6.68-2.9,6.42-6.98-.15-2.31-1.02-3.88-2.89-5.23-1.2-.86-1.37-.91-3.77-.98-1.38-.04-2.74,0-3.02.07M29.44,84.98c-2.38.13-3.62.32-4.63.72-6.01,2.38-8.36,9.65-5.02,15.5,1.05,1.83,2.53,3.15,4.67,4.17,1.66.79,1.85.82,5.1.81,3.29,0,3.43-.03,5.14-.87.97-.48,2.29-1.4,2.94-2.08,1.25-1.28,2.71-3.93,2.71-4.92,0-.56-.1-.59-1.96-.59s-1.97.01-2.41.82c-.76,1.41-1.78,2.42-3.07,3.07-1.7.85-5.17.89-6.75.07-2.47-1.27-3.92-3.87-3.69-6.64.21-2.66,1.41-4.38,3.8-5.46.99-.45,1.87-.57,4.79-.65l3.58-.11v-1.89c0-2.01-.16-2.26-1.39-2.17-.31.02-2.03.12-3.82.22M64.62,96.17c-1.69.35-2.81.98-3.95,2.21-1.74,1.89-1.86,2.69-1.78,11.97l.07,8.05h2.34l.07-3.67.07-3.67,3.96-.12c4.34-.13,5.13-.37,6.9-2.01,1.85-1.71,2.64-5.39,1.74-8.1-.62-1.86-2.37-3.73-3.98-4.25-1.59-.51-4.06-.7-5.43-.41M138.58,97.28c-.32.24-.43.6-.37,1.24.08.88.11.9,1.26.9s1.17-.02,1.26-.9c.09-.94-.41-1.57-1.26-1.57-.23,0-.63.15-.88.34M92.77,97.78c-.07.19-.1,4.91-.06,10.48l.07,10.14,1.11.08,1.11.08-.07-10.48-.07-10.48-.98-.08c-.63-.05-1.02.04-1.11.26M98.69,97.63c-.25.11-.33,2.46-.33,10.53v10.4l1.11-.08,1.11-.08v-20.81l-.78-.05c-.43-.03-.93.01-1.11.09M132.44,100.86c0,3.16-.04,3.41-.46,3.24-.25-.1-1.17-.36-2.04-.58-1.45-.36-1.76-.36-3.58.05-2.65.59-3.92,1.55-5.03,3.79-.74,1.48-.84,1.94-.83,3.77,0,3.48,1.14,5.62,3.59,6.82,1.28.63,1.75.72,3.8.7,1.59-.02,2.67-.17,3.38-.47.95-.41,1.06-.41,1.34-.02.2.28.6.39,1.18.34l.87-.08v-20.81l-1.11-.08-1.11-.08v3.42M65.04,98.56c-.9.19-1.49.55-2.34,1.41l-1.14,1.16-.09,3.63-.09,3.63h3.21c3.67,0,4.68-.22,5.75-1.23,1.14-1.08,1.49-1.96,1.47-3.63-.03-1.97-.21-2.52-1.11-3.47-1.39-1.47-3.35-1.99-5.66-1.5M80.94,103.56c-1.87.42-2.86.95-3.86,2.1-1.35,1.54-1.68,2.57-1.7,5.47-.02,2.3.06,2.77.66,4.06,1.22,2.59,3.93,3.86,7.47,3.5.93-.1,2.09-.36,2.57-.59.8-.38.89-.38,1.19.03.23.31.6.42,1.22.36l.9-.09.07-4.94c.09-6.44-.24-7.63-2.55-9.1-.88-.56-3.18-1.2-4.1-1.14-.24.01-1.09.17-1.87.35M109.29,103.56c-2.91.87-4.13,1.86-5.27,4.26-.46.96-.58,1.68-.58,3.43,0,2.84.85,4.77,2.69,6.12,2.06,1.5,5.87,1.85,8.19.74.9-.43.96-.43,1.28,0,.24.32.6.43,1.23.37l.9-.09.07-5.02c.08-5.88-.09-6.79-1.53-8.17-1.62-1.54-4.83-2.3-7-1.66M164.1,103.58c-1.77.49-2.96,1.48-3.37,2.8-.23.74-.33,2.86-.33,6.56v5.46h2.34l.13-5.52.13-5.52.7-.7c.54-.54,1.01-.72,2.08-.8,1.57-.11,2.37.22,3.18,1.31.5.67.56,1.17.68,5.98l.13,5.25h2.34l.13-4.94c.15-5.52.4-6.55,1.79-7.27,1.52-.79,3.67-.39,4.59.84.47.63.53,1.23.65,6.04l.13,5.33,1.01.08c.6.05,1.09-.05,1.21-.24.29-.47.03-10.88-.29-11.86-.63-1.9-3.72-3.44-6.19-3.07-1.61.24-2.64.69-3.41,1.5l-.64.66-.98-.84c-.58-.5-1.51-.96-2.31-1.14-1.61-.37-2.09-.36-3.7.08M138.28,103.78c-.07.18-.09,3.55-.06,7.48l.07,7.15,1.07.08,1.07.08.17-1.77c.3-3.23.2-12.69-.14-13.03-.41-.41-2.01-.4-2.17.02M144.15,109.24c0,5.24.03,5.58.59,6.56,1.19,2.1,3.83,3.21,6.92,2.89,2.97-.3,4.66-1.48,5.45-3.81.2-.6.31-2.76.31-6.06v-5.13l-1.24.08-1.24.08v4.94c0,4.37-.06,5.04-.5,5.76-1.27,2.11-4.96,2.44-6.99.62l-.84-.75-.08-5.35-.08-5.35h-2.31v5.53M80.66,106.19c-2.06.63-2.81,2.06-2.83,5.35-.01,2.39.54,3.43,2.32,4.33,1.49.75,2.91.74,4.98-.04l1.66-.62.07-3.47c.05-2.27-.04-3.73-.24-4.22-.63-1.51-3.38-2.12-5.97-1.33M109.27,106.04c-2.02.61-3.36,2.66-3.36,5.15,0,2.71,1.17,4.41,3.46,5.02,1.14.31,2.97.18,3.76-.27.25-.14.91-.44,1.46-.65l1-.39-.11-3.32c-.07-2.03-.24-3.59-.45-4.02-.68-1.38-3.64-2.16-5.76-1.52M126.23,106.09c-1.39.4-2.03.94-2.64,2.24-.79,1.67-.68,4.99.21,6.23,1.16,1.62,3.69,2.29,5.78,1.52.64-.24,1.55-.55,2.02-.69l.85-.26v-3.7c0-3.58-.02-3.72-.65-4.4-1.06-1.14-3.46-1.55-5.56-.95M58.92,125.45c-.19.5.06,6.84.28,7.06.37.37.55-.37.6-2.49.03-1.24.06-2.37.07-2.5.01-.44.61.34,1.42,1.87.44.82.97,1.53,1.19,1.57.26.05.74-.56,1.39-1.76.54-1.01,1.1-1.76,1.23-1.68.13.08.24,1.25.24,2.6,0,2.03.07,2.46.4,2.46s.39-.52.33-3.71c-.09-4.5-.29-4.65-2.1-1.63-.69,1.14-1.33,2.11-1.43,2.14-.1.03-.65-.78-1.22-1.8-1.43-2.55-2.02-3.08-2.39-2.14M71.88,125.49c-.13.25-.48,1.16-.77,2.02s-.84,2.24-1.21,3.07c-.63,1.42-.68,2-.15,2,.12,0,.46-.41.76-.91.52-.88.59-.91,2.12-.91s1.59.01,1.96.91c.4.95,1.15,1.25,1.16.46,0-.5-2.27-6.24-2.67-6.76-.36-.46-.91-.4-1.19.13M81.91,126.79l-1.75,1.75v-1.62c0-1.46-.05-1.62-.53-1.62-.51,0-.52.13-.46,3.58.06,2.97.14,3.58.46,3.58.28,0,.43-.39.52-1.43.17-1.88.61-1.87,2.19.07.73.89,1.42,1.5,1.72,1.5.28,0,.51-.06.51-.14s-.64-.94-1.43-1.91-1.43-1.87-1.43-1.99.6-.83,1.33-1.57c1.14-1.16,1.46-1.92.8-1.92-.1,0-.97.79-1.94,1.75M87.97,125.26c-.16.05-.27,1.47-.27,3.71v3.62h2.6c2.08,0,2.6-.07,2.6-.37,0-.44-.76-.72-1.76-.66-.39.03-1.1.03-1.57.02-.85-.03-.86-.04-.78-1.13l.08-1.11,1.77-.08c2.37-.1,2.25-.67-.17-.78l-1.73-.08v-2.32h2.1c1.86,0,2.09-.05,2.01-.46-.08-.39-.4-.46-2.35-.46-1.25,0-2.39.04-2.53.09M102.07,125.23c-.24.09-.33,1.08-.33,3.74,0,3.45.02,3.62.52,3.62s.52-.17.52-3.63c0-1.99-.09-3.68-.2-3.74-.11-.06-.34-.06-.52,0M107.78,125.23c-1.54.07-2.13.18-2.06.41.06.17.65.35,1.31.39l1.21.08.07,3.17c.06,2.78.13,3.18.53,3.26.41.08.46-.21.46-3.18v-3.27h1.19c.99,0,1.18-.08,1.1-.46-.1-.51-.43-.54-3.81-.4M119.35,125.21c-.1.1-.17,1.8-.17,3.79,0,2.78.08,3.59.33,3.51.18-.06.38-.62.46-1.26l.13-1.15,1.78-.13c1.38-.1,1.86-.25,2.16-.65,1.21-1.66.45-3.74-1.51-4.13-1.06-.21-2.94-.2-3.16.01M129.66,125.58c-2.05,1.01-2.67,3.59-1.32,5.51,1.58,2.25,5.27,1.91,6.5-.6.92-1.88.2-3.99-1.67-4.9-1.44-.7-2.13-.7-3.51-.02M139.11,125.58c-.53.41-.69.77-.69,1.53,0,1.17.25,1.41,2.25,2.19,1.19.46,1.54.72,1.61,1.21.17,1.18-1.35,1.67-2.81.92-.64-.33-.78-.33-1.05-.02-.43.52.92,1.18,2.42,1.18,1.7,0,2.57-.77,2.47-2.18-.08-1.15-.15-1.2-2.87-2.35-.75-.32-.98-.56-.98-1.06,0-.95.85-1.32,2.12-.94,1.48.44,2.15-.13.85-.72-1.05-.48-2.56-.37-3.33.24M147.63,125.41c-.85.37-1.14.84-1.14,1.85,0,.83.83,1.55,2.22,1.94,1.4.39,2.17,1.14,1.79,1.75-.5.8-1.06.98-2.11.68-.54-.15-1.16-.33-1.36-.38-.21-.06-.42.09-.47.32-.19.86,3.18,1.39,4.15.65.65-.49,1.01-1.62.75-2.32-.31-.81-.7-1.08-2.28-1.6-2.8-.91-1.77-2.79,1.16-2.1,1.15.27,1.17-.48.03-.88-1.06-.37-1.72-.35-2.72.09M155.07,128.94c0,3.06.06,3.64.39,3.64s.39-.58.39-3.64-.06-3.64-.39-3.64-.39.58-.39,3.64M159.75,128.94v3.64h1.83c1.92,0,3.18-.43,3.47-1.18.33-.85.16-1.88-.36-2.23-.46-.31-.49-.45-.22-1.16.41-1.08.11-2.15-.71-2.46-.36-.14-1.41-.25-2.33-.25h-1.67v3.64M168.65,128.87l.07,3.58,2.28.08c1.88.06,2.28,0,2.28-.31,0-.3-.41-.41-1.76-.47l-1.76-.08-.07-3.19c-.07-2.99-.11-3.19-.59-3.19s-.52.15-.45,3.58M176.4,128.94v3.64h2.6c2.05,0,2.6-.08,2.6-.36,0-.52-.59-.68-2.51-.68h-1.68l.08-1.11.08-1.11,1.76-.08c.97-.04,1.76-.18,1.76-.31s-.79-.27-1.76-.31l-1.76-.08-.08-1.24-.08-1.24h2.1c1.69,0,2.1-.08,2.1-.39s-.46-.39-2.6-.39h-2.6v3.64M130.41,126.22c-2.46,1.03-2.28,4.6.27,5.36.91.27,1.16.25,1.98-.19,1.06-.57,1.77-2.03,1.5-3.08-.42-1.68-2.27-2.71-3.75-2.09M119.96,127.64v1.56h1.41c1.61,0,2.23-.42,2.23-1.54s-.73-1.58-2.3-1.58h-1.34v1.56M160.79,127.23v1.18h1.18c1.01,0,1.22-.09,1.48-.67.46-1.01,0-1.52-1.45-1.62l-1.21-.08v1.18M72.18,127.31c-.09.25-.32.85-.52,1.34-.41,1.02-.42,1.01.43,1.09,1.71.16,1.81,0,1.13-1.77-.45-1.19-.79-1.4-1.05-.66M160.84,130.44l.08,1.24,1.21-.02c1.39-.02,2.04-.43,2.04-1.31,0-.78-.7-1.15-2.21-1.15h-1.2l.08,1.24"/>
</svg>