<?xml version="1.0" encoding="UTF-8"?>
<svg id="Layer_1" xmlns="http://www.w3.org/2000/svg" version="1.1" viewBox="0 0 200 200">
  <!-- Generator: Adobe Illustrator 30.1.0, SVG Export Plug-In . SVG Version: 2.1.1 Build 136)  -->
  <defs>
    <style>
      .st0 {
        fill: #2a99ce;
        fill-rule: evenodd;
      }
    </style>
  </defs>
  <path class="st0" d="M143.59,57.65c-1.71.18-4.66.83-6.57,1.46-6.43,2.1-12.42,6.71-16.26,12.49-.66.99-.83,1.39-.73,1.71.66,2.24,2.51,7.68,2.58,7.6.09-.09,1.29-3.96,2.11-6.78l.3-1.03h3.89l-1.06,3.01c-4.26,12.13-4.34,12.32-5.33,13.14-.79.65-1.71.93-3.06.93q-1.87,0-1.87-1.66v-1.44l.72.12c1.01.16,1.89-.24,2.27-1.03l.3-.62-1.51-3.97c-.83-2.18-1.56-3.97-1.62-3.97-.16,0-1.19,3.26-1.51,4.76-.78,3.73-.82,9.11-.1,12.67,1.08,5.35,3.68,10.53,7.35,14.68l1.46,1.65-4.69,4.46-4.69,4.46,16.33.05c16.41.05,18.91-.02,21.72-.59,3.85-.79,8.63-2.89,11.95-5.26,1.97-1.4,5.44-4.78,6.81-6.6l.94-1.26-.05-6.2c-.05-5.83-.07-6.24-.41-6.81-.81-1.38-2.26-1.8-3.68-1.06-.63.32-.92.63-1.3,1.39l-.49.98v11.62h-5.93v-18.34l2.83.05,2.83.05.05,1.05.05,1.05.81-.75c.45-.41,1.27-.96,1.83-1.23.9-.42,1.24-.48,2.91-.48s1.99.05,2.88.49c1.19.58,1.77,1.16,2.51,2.48l.56.99-.08-3.77c-.08-3.83-.19-4.64-1.04-7.73-.64-2.31-2.04-5.59-3.25-7.61-4.78-7.94-12.49-13.22-21.74-14.87-1.87-.33-6.9-.47-9.04-.25M164.7,76.41c0,8.91,0,9.07.36,9.18.2.06.52.06.72,0,.35-.11.36-.27.36-4.24,0-4.45.06-4.8,1.02-6.06.63-.83,1.7-1.28,3-1.29,1.33,0,1.98.36,2.5,1.43.37.76.41,1.12.49,5.49l.09,4.67h1.26l.05-4.58c.03-2.89-.02-4.88-.15-5.39-.46-1.91-1.83-2.95-3.85-2.94-1.43,0-2.57.56-3.61,1.74l-.8.92v-7.99h-1.44v9.07M158.19,70.89l-.05,1.93-1.22.05-1.22.05.06.58.06.58,1.21.05,1.21.05v4.85c.01,3.99.06,4.95.29,5.38.55,1.06,1.75,1.47,3.67,1.24,1.3-.15,1.46-.26,1.33-.91-.09-.46-.12-.47-1.14-.38-1.27.12-1.85-.02-2.33-.53-.35-.37-.36-.62-.36-5.03v-4.64h3.6v-1.26h-3.6v-3.95h-1.43l-.05,1.93M133.65,72.93c-1.94.34-3.42,1.4-4.2,3-.37.75-.42,1.12-.42,3.19-.01,2.89.22,3.75,1.28,4.94,1.15,1.28,2.29,1.69,4.73,1.7,1.79,0,1.96-.02,3.11-.59.9-.44,1.38-.82,1.83-1.44.86-1.19,1.07-2.11,1.06-4.61-.01-1.83-.08-2.3-.43-3.11-1.01-2.33-3.92-3.62-6.97-3.09M142.59,77.65c0,5.38.11,5.97,1.32,7.08,1.71,1.57,4.63,1.41,6.27-.35l.5-.53v.81c0,.97.1,1.03,1.89,1.03.73,0,1.45-.05,1.6-.11.25-.1.28-.82.28-6.29v-6.18h-1.93s-1.93,0-1.93,0v4c0,3.7-.03,4.05-.37,4.62-.5.85-1.45,1.21-2.42.92-1.19-.36-1.25-.64-1.25-5.4v-4.14h-3.95v4.55M133.56,76.32l-.59.52v2.53c0,2.49,0,2.53.47,3,.62.62,1.83.78,2.66.35.84-.44,1.09-1.2,1.09-3.33,0-2.76-.51-3.6-2.19-3.6-.69,0-.97.1-1.44.52M129.24,88.12c-3.2.77-5.44,2.93-6.04,5.79-.25,1.18-.25,5.96,0,7.03.65,2.84,2.9,4.96,6.03,5.7,1.53.36,4.91.26,6.3-.17,1.39-.44,3.05-1.63,3.76-2.7.63-.95,1.16-2.63,1.16-3.65v-.59h-5.53l-.12.93c-.1.74-.25,1.05-.74,1.51-1.52,1.43-4.38.76-4.95-1.16-.12-.41-.17-1.87-.14-3.84.07-3.47.12-3.66,1.3-4.54.72-.54,2.48-.52,3.37.04.71.44,1.23,1.45,1.23,2.39v.54l2.74-.05,2.74-.05-.03-.99c-.07-2.16-1.49-4.38-3.46-5.38-1.97-1.01-5.32-1.36-7.62-.81M147.28,88.2c-2.99.78-4.65,2.47-4.84,4.89l-.08,1.03h2.45c1.81,0,2.47-.06,2.51-.22.43-1.61.9-1.98,2.59-2.08,1.4-.08,2.36.23,2.81.92.16.24.34.96.4,1.6l.11,1.17-2.76.11c-3.85.15-5.52.67-7.16,2.2-1.21,1.14-1.7,2.39-1.59,4.13.1,1.54.55,2.49,1.63,3.44,1.07.94,2.22,1.34,4.17,1.45,1.35.08,1.81.03,2.79-.3,1.11-.37,2.95-1.58,3.11-2.04.04-.12.13.29.21.91l.13,1.12h2.79c2.59,0,2.78-.02,2.64-.31-.08-.17-.19-3.31-.25-6.97-.1-6.49-.11-6.67-.52-7.59-.51-1.13-1.86-2.44-3.03-2.94-2.16-.92-5.7-1.15-8.12-.51M55.07,93.32c-3.88.88-6.47,3.45-7.02,7-.55,3.48.98,6.36,4.16,7.9.81.39,2.65.98,4.55,1.47,3.59.92,4.45,1.28,4.96,2.11,1.05,1.72-.46,3.34-3.25,3.5-2.5.15-4.59-.59-6.51-2.3l-1.03-.92-1.92,1.67c-1.05.92-2,1.8-2.1,1.96-.39.62,1.74,2.57,3.92,3.6,2.12,1,3.65,1.29,6.92,1.3,2.58.01,3.16-.04,4.45-.41,4.45-1.26,6.96-4.64,6.64-8.92-.13-1.75-.7-3.13-1.75-4.28-1.42-1.56-2.92-2.2-8.24-3.53-3.42-.85-4.16-1.36-4.16-2.83,0-.63.11-.87.61-1.37,1.57-1.57,4.97-1.3,7.49.59l1.15.86,1.61-1.37c.88-.75,1.85-1.58,2.15-1.84l.54-.46-.79-.85c-.97-1.05-2.73-2.11-4.4-2.63-1.64-.52-6.19-.67-7.99-.26M21.62,106.89v13.52l6.79-.09c7.55-.1,8.07-.16,10.43-1.33,2.48-1.22,4.2-3.55,4.82-6.53.39-1.86.27-10.73-.16-12.2-.97-3.31-3.16-5.37-6.72-6.35-1.29-.35-1.95-.39-8.28-.46l-6.88-.08v13.52M70.15,93.51c0,.06,1.09,4.43,2.43,9.71,1.34,5.28,2.85,11.28,3.37,13.33l.94,3.72,3.09.05,3.09.05.26-.95c.15-.52.93-3.5,1.74-6.61,2.47-9.52,2.39-9.23,2.54-8.87.08.18,1.04,3.89,2.13,8.24,1.1,4.35,2.05,7.97,2.13,8.05.07.08,1.54.12,3.25.09l3.12-.05,3.29-13.11c1.81-7.21,3.34-13.26,3.4-13.44.1-.32-.05-.33-3.19-.28l-3.29.05-1.82,8.09-1.82,8.09-.28-.99c-.15-.54-1.02-4.02-1.93-7.73-.9-3.71-1.72-6.92-1.81-7.15-.16-.4-.2-.41-3.07-.36l-2.9.05-.85,3.24c-.47,1.78-1.4,5.42-2.08,8.08l-1.23,4.85-.22-.76c-.12-.42-.92-3.89-1.77-7.72-.85-3.83-1.6-7.15-1.65-7.37-.1-.4-.12-.4-3.49-.4-1.87,0-3.4.05-3.4.11M148.94,98.92c-.22.04-.64.31-.94.59-.45.42-.55.65-.55,1.3,0,.94.37,1.53,1.19,1.87,1.93.8,4.2-.28,4.48-2.14q.25-1.65-1.89-1.68c-1.04-.01-2.07.01-2.29.06M28.45,106.8v7.82h2.4c3.62,0,4.81-.49,5.67-2.32.47-1,.47-1.04.47-5.32,0-5-.1-5.54-1.23-6.67-1.05-1.05-2.1-1.33-5-1.33h-2.3v7.82M67.81,124.86c-.87.26-1.28.58-1.53,1.18-.54,1.29.23,2.41,1.91,2.77.5.11,1.07.28,1.26.38.39.21.46.89.13,1.21-.38.38-1.65.26-2.36-.22-.63-.43-.66-.43-1.06-.11l-.41.33.36.4c.83.91,2.57,1.25,3.81.74,1.01-.42,1.48-1.59,1.06-2.61-.31-.73-.65-.94-2.24-1.34-1-.25-1.2-.37-1.25-.71-.03-.23.04-.53.16-.67.29-.35,1.43-.33,1.95.03.35.25.48.26.85.06.24-.13.43-.28.43-.35,0-.29-.93-.94-1.56-1.09-.8-.19-.89-.19-1.51,0M79.12,124.89c-.51.19-.88.82-.88,1.51,0,.31-.1.44-.33.44-.26,0-.32.1-.25.45.05.25.2.45.33.45.2,0,.25.41.25,1.98v1.98h1.26v-3.95h.45c.36,0,.45-.09.45-.45s-.09-.45-.46-.45c-.4,0-.45-.07-.4-.49.04-.35.19-.52.51-.6.32-.08.43-.21.39-.46-.07-.41-.03-.37-.48-.49-.2-.05-.57-.02-.83.07M21.62,128.28v3.42h1.66c1.86,0,2.63-.27,3.27-1.14.32-.43.37-.77.37-2.28s-.06-1.85-.37-2.28c-.64-.87-1.41-1.14-3.27-1.14h-1.66s0,3.41,0,3.41M52.54,128.28v3.42h1.21l.09-1.7c.09-1.81.28-2.25.94-2.25.77,0,.99.51.99,2.31v1.65h1.26v-1.57c0-1.86-.23-2.81-.77-3.19-.51-.35-1.38-.35-1.89,0-.39.28-.4.27-.4-.49,0-1.32-.14-1.58-.83-1.58h-.61v3.42M75.54,125.4c0,.5.05.54.63.54s.63-.04.63-.54-.05-.54-.63-.54-.63.04-.63.54M39.46,125.34c-.13.05-.22.4-.22.8,0,.58-.06.7-.36.7-.26,0-.36.12-.36.45s.1.45.36.45c.33,0,.36.12.36,1.62,0,1.97.24,2.34,1.53,2.34.77,0,.81-.02.81-.53,0-.44-.08-.54-.49-.58-.49-.06-.5-.08-.55-1.45l-.05-1.39h.55c.46,0,.55-.07.55-.45s-.08-.45-.53-.45c-.49,0-.53-.05-.58-.76-.04-.61-.13-.77-.41-.8-.2-.02-.46,0-.58.06M72.43,125.34c-.07.07-.12.43-.12.81,0,.58-.06.69-.38.69-.27,0-.35.08-.27.28.06.16.11.36.11.45s.12.17.27.17c.22,0,.27.3.27,1.58,0,2.04.2,2.38,1.45,2.38.86,0,.89-.02.89-.53,0-.44-.08-.54-.49-.58-.49-.06-.5-.08-.55-1.45l-.05-1.39h.55c.46,0,.55-.07.55-.44,0-.34-.11-.45-.49-.49-.44-.05-.5-.14-.55-.82-.05-.7-.1-.76-.55-.76-.27,0-.55.05-.62.12M81.6,125.34c-.07.07-.13.44-.13.82,0,.57-.06.69-.36.69-.26,0-.36.12-.36.45s.1.45.36.45c.33,0,.36.12.36,1.58,0,2.05.2,2.38,1.46,2.38.88,0,.9-.01.84-.49-.03-.28-.17-.5-.33-.51-.15,0-.37-.03-.49-.04-.16-.02-.22-.45-.22-1.47,0-1.41,0-1.44.45-1.44.36,0,.45-.09.45-.45s-.09-.45-.44-.45c-.39,0-.45-.09-.49-.76-.05-.67-.11-.77-.51-.82-.25-.03-.51,0-.58.07M22.96,126.18c-.05.13-.07,1.16-.04,2.29.06,2.28.07,2.3,1.34,2.06,1.06-.2,1.32-.62,1.32-2.18,0-.75-.08-1.51-.18-1.69-.33-.61-2.25-1-2.44-.49M29.26,126.82c-1.1.49-1.62,2.09-1.14,3.51.33.96.98,1.4,2.06,1.42,1.5.02,2.58-.83,1.68-1.31-.28-.15-.46-.13-.76.08-.54.38-1.14.35-1.57-.08-.73-.73-.5-.9,1.28-.9h1.64l-.09-.91c-.12-1.24-.68-1.81-1.87-1.89-.48-.03-1.03,0-1.23.1M43.25,126.84c-.5.2-.96.87-.96,1.4,0,.59.74,1.25,1.55,1.4.89.16,1.32.39,1.32.69,0,.52-1.29.63-1.95.17-.38-.27-.44-.26-.76.03-.46.42-.45.48.2.87,1.13.67,3.15.36,3.56-.54.51-1.11-.08-1.89-1.66-2.22-1.05-.22-1.31-.55-.7-.88.35-.18,1.25-.07,1.4.17.13.2.8-.22.8-.51,0-.58-1.86-.97-2.81-.59M48.58,126.79c-.98.36-1.54,1.57-1.35,2.95.15,1.12.67,1.75,1.62,1.96,1.32.3,2.43-.24,2.7-1.31.12-.47.09-.49-.48-.49-.46,0-.65.1-.78.4-.22.5-1.01.62-1.41.22-.35-.35-.41-2.24-.08-2.57.34-.34,1.19-.26,1.44.14.15.24.42.36.81.36.78,0,.77-.39-.03-1.19-.52-.52-.73-.61-1.39-.6-.43,0-.9.06-1.05.11M59.2,126.89c-1.51.78-1.7,3.63-.29,4.55.96.63,3.33.22,3.33-.57,0-.42-.59-.61-1.08-.34-.86.47-1.63.23-1.88-.59-.12-.4-.1-.4,1.51-.4h1.63v-.83c0-.7-.09-.92-.61-1.44s-.74-.61-1.39-.61c-.43,0-.98.1-1.21.22M91.86,126.94c-.29.16-.49.19-.49.08s-.24-.19-.54-.19h-.54v4.85h1.04l.08-1.73c.06-1.43.13-1.77.42-1.98.39-.29.79-.31,1.17-.07.2.13.28.62.33,1.97l.06,1.8h1.22v-1.81c0-1.91-.23-2.69-.89-3.04-.48-.26-1.27-.22-1.85.1M96.63,126.84c-1.26.53-1.45,3.3-.31,4.29.5.43,1.3.47,2.11.12.28-.12.32-.07.27.37-.09.78-.84,1.09-1.68.69-.51-.24-.68-.26-.9-.08-.75.62.43,1.36,1.96,1.21.72-.07.99-.2,1.4-.65l.5-.57v-5.4h-.76c-.42.02-1.09-.02-1.48-.07s-.9-.02-1.11.08M33.48,128.74c0,1.04.09,2.06.19,2.26.11.2.47.48.8.62.52.22.71.22,1.33,0,.4-.14.72-.18.72-.09s.28.16.63.16h.63v-4.85h-1.26v1.62c0,1.38-.05,1.67-.36,1.98-.43.43-.78.46-1.16.08-.22-.22-.28-.68-.28-1.98v-1.69h-1.26v1.9M75.54,129.27v2.43h1.26v-4.85h-1.26v2.43M84.53,128.56c0,2.21.25,2.86,1.23,3.15.6.18.81.17,1.31-.08.41-.2.63-.23.71-.1.07.11.35.17.63.14l.51-.06v-2.38s.02-2.38.02-2.38h-1.13l-.06,1.72c-.05,1.45-.12,1.76-.41,1.98-.19.14-.44.25-.55.25s-.36-.11-.55-.25c-.29-.22-.36-.52-.41-1.98l-.06-1.72h-1.22v1.71M29.39,128.1c-.33.53-.31.54.77.54.69,0,.99-.07.99-.23,0-.7-1.36-.94-1.75-.31M59.46,128.15c-.27.39-.26.41.21.52,1.01.23,1.49.18,1.49-.17,0-.8-1.21-1.05-1.7-.35M97.04,128.14c-.63.9-.15,2.3.79,2.3.68,0,1-.44,1-1.35,0-.41-.11-.89-.25-1.05-.36-.43-1.2-.38-1.54.1M24.96,133.82c-.05.08-.33,1.06-.63,2.18-.29,1.11-.57,2.06-.62,2.11-.05.05-.31-.89-.6-2.08l-.51-2.17h-.67c-.37,0-.67.04-.67.09,0,.16,1.35,5.2,1.64,6.15.15.49.27.58.71.58.62,0,.66-.07,1.34-2.65.27-1.01.51-1.84.53-1.84s.31,1.01.64,2.25l.59,2.25h.6c.57,0,.61-.05.86-.94.54-1.93,1.53-5.78,1.49-5.81-.09-.07-1.21-.25-1.21-.19,0,.15-1.11,4.51-1.16,4.56-.03.03-.28-.86-.55-1.97-.27-1.12-.57-2.17-.66-2.34-.16-.32-.95-.44-1.12-.16M36.07,133.93c-.05.14-.07,1.56-.04,3.16.06,2.81.07,2.92.48,3.25.23.19.7.34,1.03.34.56,0,.61-.05.61-.54,0-.41-.08-.54-.34-.54-.48,0-.56-.45-.56-3.37v-2.56h-.55c-.3,0-.59.11-.64.25M43.01,137.18v3.51h.53c.29,0,.58-.08.64-.18.07-.12.22-.12.45,0,.44.23,1.55.23,1.99,0,.6-.32.89-1.15.89-2.52,0-1.18-.04-1.32-.53-1.81-.41-.41-.69-.53-1.27-.53-.41,0-.9.08-1.09.19-.33.18-.35.12-.35-.99v-1.17h-1.26v3.51M60.09,134.3c0,.58.04.63.54.63s.54-.05.54-.63-.04-.63-.54-.63-.54.05-.54.63M62.06,134.3c0,.58.04.63.54.63s.54-.05.54-.63-.04-.63-.54-.63-.54.05-.54.63M65.26,136.22c-.05,3.59-.03,3.78.42,4.15.57.47,1.66.35,1.74-.19.04-.3-.07-.45-.4-.58-.54-.2-.53-.14-.54-3.42v-2.43s-.6-.06-.6-.06l-.58-.06-.04,2.57M68.71,137.19v3.52l.58-.06c.55-.05.59-.1.64-.86.05-.75.28-1.26.55-1.26.06,0,.39.49.73,1.08.56.97.68,1.08,1.21,1.08.33,0,.59-.09.59-.2s-.37-.8-.81-1.54l-.81-1.34.83-.98.83-.98h-.72c-.65,0-.8.09-1.5.93-.75.89-.78.91-.9.49-.07-.24-.13-1.1-.14-1.92l-.02-1.48h-1.08v3.52M39.59,134.93c0,.6-.06.72-.36.72-.27,0-.36.12-.36.47,0,.31.12.5.36.56.33.09.36.25.36,1.78s.03,1.7.44,1.97c.26.17.71.26,1.12.23.59-.05.7-.12.74-.54.05-.41-.02-.49-.45-.54-.5-.06-.51-.07-.56-1.45-.05-1.39-.05-1.39.4-1.39.39,0,.46-.08.46-.54s-.07-.54-.45-.54c-.4,0-.45-.07-.45-.72,0-.7-.01-.72-.63-.72s-.63.02-.63.72M32.06,135.6c-1.15.21-1.81,1.18-1.81,2.66,0,1.56.84,2.42,2.37,2.42.75,0,1.94-.54,1.94-.87,0-.09-.12-.26-.27-.38-.21-.18-.41-.16-1,.07-.74.3-1.31.19-1.65-.32-.36-.55-.13-.65,1.48-.65h1.62v-.65c0-1.54-1.19-2.55-2.68-2.28M49.55,135.99c-1.29.79-1.3,3.56-.01,4.34.88.54,2.28.48,2.99-.12.56-.47.56-.47.18-.74-.33-.23-.45-.23-.98.02-.33.16-.7.29-.81.29-.26,0-1.09-.82-1.09-1.07,0-.12.61-.19,1.62-.19h1.62v-.73c0-1.41-.7-2.14-2.07-2.14-.57,0-1.1.12-1.46.34M54.26,136.83c1.48,3.93,1.39,3.76,1.99,3.82.47.05.59-.02.74-.45.1-.28.51-1.42.92-2.54l.74-2.03-.66.06-.66.06-.54,1.62-.54,1.62-.55-1.66-.55-1.66h-1.35l.44,1.18M59.98,136.26c-.58.58-.61.67-.61,1.91s.03,1.32.63,1.93.67.63,1.73.55c.96-.07,1.17-.15,1.61-.65.46-.52.51-.7.51-1.85,0-1.21-.03-1.3-.61-1.88-.55-.55-.71-.61-1.64-.61s-1.08.06-1.64.61M74.78,136c-.67.52-.91,1.29-.82,2.55.07.97.15,1.17.65,1.62.48.43.73.51,1.51.51.62,0,1.14-.12,1.53-.36.65-.4.71-.57.31-.91-.21-.18-.38-.18-.73-.02-.72.33-1.65.26-1.87-.14-.36-.67-.23-.73,1.45-.73h1.64l-.09-.93c-.07-.76-.2-1.03-.65-1.44-.47-.42-.73-.5-1.53-.5-.68,0-1.09.1-1.41.35M79.86,138.18v2.53l.58-.06.58-.06.02-1.58c.03-1.83.28-2.29,1.24-2.29.57,0,.8-.24.8-.82,0-.36-1.15-.33-1.71.04-.41.27-.44.27-.44,0,0-.2-.16-.29-.54-.29h-.54v2.53M84.17,137.73c0,1.96.02,2.1.44,2.52.52.52,1.59.6,2.21.16.36-.25.4-.25.4.01,0,.22.14.28.58.23l.58-.06.05-2.47.05-2.47h-1.27v1.69c0,1.88-.18,2.26-1.06,2.26-.69,0-.91-.59-.91-2.44v-1.52h-1.08v2.08M89.93,138.17v2.52h1.26v-1.63c0-1.97.15-2.32.99-2.32.56,0,.63.06.8.67.1.37.19,1.26.19,1.98v1.3h1.08v-2.04c0-1.79-.05-2.1-.37-2.52-.31-.39-.52-.47-1.22-.47-.47,0-.96.1-1.09.22-.19.18-.25.18-.32,0-.05-.12-.36-.22-.7-.22h-.61v2.52M96.27,136c-.84.79-.99,2.8-.28,3.76.49.66,1.54.91,2.22.52q.52-.3.52.2c0,.27-.1.59-.22.71-.27.27-1.13.28-1.62.02-.28-.15-.48-.14-.8.03l-.43.23.39.42c.77.82,2.53.76,3.42-.12l.51-.51v-5.6h-.52c-.29,0-.56.1-.61.22-.07.18-.13.18-.32,0-.38-.36-1.84-.28-2.27.13M31.86,136.91c-.57.57-.43.72.63.72s1.27-.24.71-.8c-.38-.38-.9-.35-1.34.08M44.67,136.83c-.32.23-.4.45-.4,1.18,0,1.22.23,1.6.96,1.6.82,0,1.02-.28,1.02-1.45,0-1.44-.65-1.98-1.58-1.33M50.2,136.91c-.57.57-.43.72.63.72.86,0,.99-.04.99-.35,0-.37-.48-.73-.98-.73-.15,0-.44.16-.64.36M75.47,136.95c-.43.61-.36.68.71.68s1.27-.24.71-.8c-.41-.41-1.09-.35-1.42.12M97.23,136.78c-.46.34-.59,1.63-.22,2.19.33.51,1.18.62,1.52.21.6-.72.35-2.33-.4-2.52-.53-.14-.55-.14-.91.12M60.84,136.94c-.12.12-.22.68-.22,1.25,0,.92.05,1.07.47,1.35.42.28.52.28.94.04.41-.23.48-.4.53-1.31.03-.61-.03-1.15-.16-1.3-.26-.31-1.27-.34-1.57-.04"/>
</svg>