<?xml version="1.0" encoding="UTF-8"?>
<svg id="Layer_1" xmlns="http://www.w3.org/2000/svg" version="1.1" viewBox="0 0 200 200">
  <!-- Generator: Adobe Illustrator 30.1.0, SVG Export Plug-In . SVG Version: 2.1.1 Build 136)  -->
  <defs>
    <style>
      .st0 {
        fill: #f8bd26;
      }

      .st0, .st1, .st2, .st3, .st4 {
        fill-rule: evenodd;
      }

      .st1 {
        fill: #c7223a;
      }

      .st2 {
        fill: #ede947;
      }

      .st3 {
        fill: #ef752c;
      }

      .st4 {
        fill: #25264a;
      }
    </style>
  </defs>
  <path class="st0" d="M119.85,80.86c.42.05,1.04.05,1.39,0,.35-.05,0-.1-.76-.09-.77,0-1.05.04-.63.1M28.85,101.57c0,3.13.03,4.4.07,2.84.04-1.56.04-4.12,0-5.68-.04-1.56-.07-.28-.07,2.84M167.22,97.08c-4.02.29-11.9.84-17.51,1.24-5.61.39-10.3.74-10.42.78-.23.07.98,1.46,8.56,9.88,2.81,3.12,5.99,6.66,7.08,7.87s2.34,2.61,2.78,3.1l.81.9,8.08-12.1c4.44-6.65,8.04-12.12,8-12.14-.04-.03-3.37.19-7.38.47M68.96,105.16c0,1.02.04,1.41.09.86.05-.55.05-1.38,0-1.86s-.09-.03-.09.99M55.83,123.08c.54.05,1.43.05,1.97,0,.54-.05.1-.09-.99-.09s-1.53.04-.99.09"/>
  <path class="st1" d="M114.25,99.96c-2.75.67-5.84,3.3-7.26,6.17-.71,1.43-.84,1.94-.85,3.29-.02,2.28,1.09,4.49,3.3,6.58,2.22,2.1,3.82,2.84,6.07,2.84,1.52,0,1.96-.1,3.36-.79,2.08-1.02,4.63-3.51,5.58-5.47.93-1.91.96-4.27.07-6.15-2.04-4.33-6.79-7.33-10.27-6.48M132.63,110.42c-1.52.88-2.2,2.85-1.58,4.53.32.87,7.79,8.38,8.74,8.79.41.18,1.08.32,1.49.32.98,0,2.52-.78,3.08-1.56.58-.8.77-3.01.33-3.84-.36-.69-7.95-8.07-8.71-8.48-.8-.43-2.41-.31-3.35.23"/>
  <path class="st3" d="M116.79,81.3c-1.69.41-4.51,1.74-5.12,2.42q-.45.5.56,2.39c4.26,7.94,9.93,13.9,17.25,18.14l2.26,1.31.47-.54c.78-.91,2.27-4.16,2.65-5.76.75-3.2.28-7.4-1.16-10.23-1.94-3.83-5.65-6.8-9.67-7.75-1.81-.43-5.42-.42-7.23.02M87.59,99.88c.44.08.52.27.6,1.36l.09,1.26-.02-1.33c-.02-1.26-.05-1.34-.6-1.36-.48-.02-.49,0-.07.07M38.7,103.96c.1.1,1.11.15,2.25.11l2.07-.07-2.25-.11c-1.24-.06-2.17-.03-2.07.07M66.18,106.79c0,1.79.04,2.49.08,1.56.04-.93.04-2.39,0-3.25-.04-.86-.08-.09-.08,1.69M68.95,108.41c0,.89.04,1.23.09.75.05-.48.05-1.21,0-1.62-.05-.41-.09-.02-.09.87M133.37,108.84c-3.52,1.25-4.78,1.8-4.91,2.13-.1.25-.45,2.43-.79,4.84l-.61,4.39,4.05,4.05,4.05,4.05,5.3-.96c2.92-.53,5.37-.96,5.46-.96.09,0,.22-.29.29-.64.21-.96,1.52-9.53,1.52-9.91,0-.27-9.02-8.5-9.48-8.64-.08-.03-2.28.71-4.89,1.63M132.63,110.42c-1.52.88-2.2,2.85-1.58,4.53.32.87,7.79,8.38,8.74,8.79.41.18,1.08.32,1.49.32.98,0,2.52-.78,3.08-1.56.58-.8.77-3.01.33-3.84-.36-.69-7.95-8.07-8.71-8.48-.8-.43-2.41-.31-3.35.23M49.72,125.69c0,1.85.04,2.61.08,1.68.04-.92.04-2.44,0-3.36-.04-.92-.08-.17-.08,1.68M101.17,123.08c.61.05,1.6.05,2.2,0s.11-.09-1.1-.09-1.71.04-1.1.09M78.93,126.04c0,1.02.04,1.41.09.86.05-.55.05-1.38,0-1.86s-.09-.03-.09.99M81.72,126.62c0,1.21.04,1.71.09,1.1.05-.61.05-1.6,0-2.2-.05-.61-.09-.11-.09,1.1"/>
  <path class="st2" d="M146.65,64.63c-4.94,5.34-8.32,8.99-12.81,13.8-.8.86-1.41,1.7-1.34,1.86.12.31,8.96,13.85,9.55,14.63.31.41.54.36,5.15-1.1,10.34-3.26,19.8-6.33,19.93-6.46.16-.16-1.74-3.94-7.44-14.78-2.25-4.27-4.78-9.15-5.64-10.84-.85-1.69-1.63-3.07-1.72-3.07s-2.65,2.69-5.69,5.97M130.57,123.95c.82.83,1.55,1.51,1.61,1.51s-.56-.68-1.38-1.51-1.55-1.51-1.61-1.51.56.68,1.38,1.51"/>
  <path class="st4" d="M96.94,97.85v3.01l-.82-.48c-1.24-.73-3.67-.55-4.86.36-2.2,1.68-2.47,5.87-.52,7.99,1.3,1.42,3.54,1.78,5.34.88,1.03-.52,1.08-.52,1.21-.12.11.34.37.43,1.28.43h1.14v-15.08h-2.78v3.01M25.97,102.96v6.96h8.81v-2.55h-6.03v-11.37h-2.78v6.96M39.77,99.92c-2.53.65-3.83,2.41-3.82,5.18,0,2.51,1.51,4.35,3.98,4.87,1.6.33,3.6-.04,4.54-.85l.62-.53-.55-.81-.55-.81-.94.43c-.52.24-1.4.43-1.95.43-.86,0-1.13-.12-1.86-.86l-.85-.87,3.54-.06,3.54-.06v-1.37c0-.75-.11-1.66-.25-2.02-.3-.78-1.27-1.86-2.08-2.27-.77-.4-2.49-.6-3.36-.37M64.3,99.94c-.41.1-1,.34-1.31.54-.53.34-.57.34-.68-.09-.1-.37-.32-.45-1.3-.45h-1.18v9.97h2.78v-3.26c0-3.15.02-3.28.57-3.83.69-.69,1.72-.74,2.48-.13.52.42.55.59.62,3.83l.08,3.38h2.52v-3.59c0-4.11-.26-5.16-1.47-5.89-.9-.54-2.11-.74-3.1-.5M74.39,99.96c-1.08.17-2.02.69-2.77,1.52-.36.41-.35.48.28,1.22l.66.79.72-.6c1.02-.86,2.2-1.04,2.99-.45.34.25.65.72.69,1.04.07.57.03.58-1.93.73-2.21.17-3.15.54-3.76,1.48-.51.78-.5,2.32.03,3.13.83,1.27,3.27,1.71,4.89.88,1.09-.55,1.04-.55,1.04-.12,0,.27.3.35,1.28.35h1.28v-3.31c-.02-3.43-.25-4.63-1.08-5.55-.91-1.01-2.43-1.4-4.31-1.1M50.2,100.38c-2.6,1.18-3.62,4.29-2.28,6.97,1.84,3.69,7.49,3.67,9.38-.02.56-1.11.64-3.23.15-4.4-.42-1.01-1.66-2.26-2.65-2.67-1.08-.45-3.48-.39-4.6.12M82.1,104.93v4.99h2.75l.08-3.15c.08-3.13.08-3.16.73-3.71.45-.39.93-.56,1.57-.56h.91v-2.55h-.9c-.57,0-1.2.21-1.74.57l-.84.57v-.57c0-.54-.07-.57-1.28-.57h-1.28v4.99M39.5,102.44c-.59.47-1.06,1.32-.85,1.53.08.08,1.07.15,2.2.15,1.91,0,2.05-.03,2.05-.47,0-.26-.26-.73-.57-1.04-.69-.69-2.08-.76-2.82-.16M51.6,102.48c-1.11.45-1.76,2.01-1.41,3.38.44,1.73,2.8,2.35,4.08,1.07,2.06-2.06-.02-5.54-2.67-4.45M93.51,102.6c-.78.35-1.44,1.48-1.44,2.46,0,.81.68,1.99,1.3,2.27,1.5.69,3.14,0,3.55-1.49.62-2.24-1.38-4.15-3.4-3.24M74.03,106.34c-1.04.73-.45,1.77,1,1.77.99,0,1.96-.79,1.96-1.59,0-.5-.1-.54-1.22-.54-.73,0-1.43.14-1.74.36M40.58,121.4v7.54h2.78v-3.2c0-2.86.05-3.26.46-3.69.63-.67,1.31-.85,2.08-.53.99.41,1.17,1.11,1.17,4.42v3h2.55v-3.65c0-4.12-.2-4.86-1.6-5.79-1.03-.69-2.84-.72-3.91-.07l-.75.46v-6.02h-2.78v7.54M72.59,121.4v7.54h2.78v-3.26c0-3.15.02-3.28.57-3.83.62-.62,1.62-.74,2.23-.27.76.58.91,1.29.91,4.33v3.03h2.55v-3.65c0-4.12-.2-4.86-1.6-5.79-.94-.63-2.79-.71-3.82-.18-.37.19-.7.35-.75.35s-.09-1.3-.09-2.9v-2.9h-2.78v7.54M84.65,114.32c-1.05,1.05-.26,2.78,1.26,2.78s2.18-1.67,1.12-2.84c-.5-.56-1.8-.52-2.38.06M30.49,114.64c-2.17.72-3.67,2.02-4.57,3.98-.43.94-.53,1.55-.52,3.25,0,1.79.1,2.25.62,3.25,1.29,2.46,3.44,3.84,6.24,4.01,2.44.15,3.84-.34,5.46-1.91.68-.66,1.24-1.3,1.24-1.43s-.47-.56-1.04-.96l-1.04-.73-.49.69c-.74,1.04-2.19,1.7-3.74,1.71-1.1,0-1.49-.11-2.32-.69-2.56-1.78-2.77-6.02-.38-7.83,1.93-1.47,4.12-1.32,5.95.4l1.05.99,1-.6c.55-.33,1-.73,1-.89.01-.56-1.67-2.14-2.93-2.75-1.52-.74-4.06-.96-5.53-.47M54.24,119.5c-1.52.8-2.53,2.58-2.52,4.44.01,3.23,2.09,5.23,5.45,5.23,1.15,0,3.36-.82,3.7-1.36.09-.14-.11-.61-.44-1.04l-.6-.79-.85.44c-.49.25-1.34.44-1.99.44-1.01,0-1.23-.1-1.98-.87l-.85-.87,3.53-.06,3.53-.06.15-.6c.22-.9-.33-3.01-1-3.81-1.39-1.65-4.11-2.13-6.12-1.07M64.75,119.43c-.93.56-1.53,1.87-1.34,2.89.19.99,1.1,1.81,2.97,2.65,1.11.5,1.57.82,1.57,1.13,0,1.15-1.33,1.29-2.81.3l-1.02-.69-.58.74c-.32.41-.58.84-.58.97s.43.53.95.89c1.93,1.36,5.38,1.03,6.38-.61.54-.88.57-2.02.08-2.97-.28-.53-.84-.93-2.32-1.61-1.45-.67-1.95-1.02-1.95-1.34,0-.83,1.29-.97,2.45-.25l.76.47.62-.81c.71-.93.65-1.13-.59-1.76-1.25-.64-3.54-.63-4.59,0M90.39,119.12c-.37.1-.41.53-.41,4.96v4.85h2.75l.08-3.15c.08-3.13.08-3.16.73-3.71.45-.39.93-.56,1.57-.56h.91v-2.55h-.87c-.48,0-1.21.21-1.63.46-.93.57-.9.57-1.05,0-.09-.35-.3-.46-.9-.44-.43.01-.96.07-1.18.13M100.43,119.22c-3.52,1.41-4.24,6.29-1.28,8.73,1.47,1.22,3.51,1.53,5.5.85.58-.2,1.24-.56,1.46-.81.38-.42.38-.48,0-1.04-.53-.81-.89-.91-1.72-.47-1.12.58-2.65.47-3.49-.24-1.34-1.13-1.07-1.26,2.62-1.26h3.34l.12-.75c.31-1.95-.78-4.1-2.48-4.9-.87-.41-3.16-.48-4.07-.12M84.42,124.07v4.87h2.78v-9.74h-2.78v4.87M55.89,121.21c-.61.22-1.39,1.06-1.39,1.5,0,.38.22.42,2.05.42,1.13,0,2.11-.06,2.19-.14.26-.26-.38-1.29-1.02-1.62-.66-.34-1.21-.39-1.82-.17M101.43,121.27c-.55.23-1.24,1.11-1.24,1.57,0,.22.55.3,2.09.3,1.89,0,2.09-.04,2.09-.44,0-1.11-1.71-1.95-2.93-1.43"/>
</svg>