<?xml version="1.0" encoding="UTF-8"?>
<svg id="Layer_1" xmlns="http://www.w3.org/2000/svg" version="1.1" viewBox="0 0 200 200">
  <!-- Generator: Adobe Illustrator 30.1.0, SVG Export Plug-In . SVG Version: 2.1.1 Build 136)  -->
  <defs>
    <style>
      .st0 {
        fill: #ad262d;
      }

      .st0, .st1 {
        fill-rule: evenodd;
      }

      .st1 {
        fill: #a6aaad;
      }
    </style>
  </defs>
  <path class="st1" d="M46.35,71.94l-.05,2.61h-2.04c-2,0-2.06.02-2.77.75-.68.71-.73.87-.8,2.76-.04,1.1,0,1.96.1,1.9s.17-.97.17-2.02c0-1.8.04-1.95.65-2.54.6-.58.79-.62,2.68-.62,1.46,0,2.06-.09,2.14-.31.06-.17.08-1.39.04-2.73l-.08-2.42-.05,2.61M50.98,72.05c.04,2.68.14,2.37.25-.81.03-.99-.02-1.8-.11-1.8-.1,0-.16,1.18-.14,2.61M122.04,69.67c-1.15.18-2.25.93-3.14,2.16-.63.87-.68,1.08-.68,3.07s.05,2.2.66,3.05c.6.83.88.98,3.07,1.64,1.33.4,3.07.91,3.88,1.13,1.57.43,2.07,1.01,1.76,2.04-.35,1.15-.72,1.3-3.11,1.3-2.66,0-3.02-.23-3.2-2.09l-.11-1.16h-3.19v1.64c0,.96.14,1.89.33,2.26.46.88,2.21,2.52,2.99,2.82.36.14,1.85.25,3.32.25,2.99,0,3.8-.26,5.11-1.66,1.17-1.24,1.48-2.07,1.48-3.97,0-1.48-.09-1.85-.66-2.74-.76-1.2-1.13-1.38-5.61-2.81l-3.13-1-.07-.78c-.13-1.35.39-1.66,2.79-1.66,1.88,0,2.11.05,2.63.57.42.42.57.82.57,1.51v.94h3.25v-1.48c0-1.3-.1-1.62-.77-2.59-.42-.61-1.13-1.4-1.57-1.75-.74-.59-.99-.65-3.24-.73-1.34-.05-2.86-.02-3.38.06M67.18,78.61v8.93h4.3c3.27,0,4.46-.08,4.94-.33.85-.44,2.54-2.29,2.71-2.97.07-.3.1-2.94.07-5.87l-.07-5.33-.76-1.1c-.42-.61-1.15-1.36-1.62-1.68-.84-.57-.94-.58-5.21-.58h-4.35v8.93M84.71,73.32c-.63,2.01-1.91,6-2.84,8.86-.93,2.86-1.65,5.26-1.6,5.34.05.08.9.09,1.88.03l1.8-.12.51-1.62.51-1.62h5.74l.44,1.51c.24.83.55,1.64.68,1.8.27.33,3.33.41,3.52.1.06-.1-1.16-4.15-2.72-8.99l-2.84-8.8-1.97-.06-1.97-.06-1.15,3.66M96.93,78.66l.06,9,1.65.07c1.55.06,1.66.04,1.79-.46.08-.29.15-2.52.16-4.94v-4.41s2.33,4.74,2.33,4.74c1.27,2.61,2.35,4.78,2.4,4.83.2.2,3.33.34,3.45.15.19-.31.43-16.09.26-17.09l-.15-.87h-3.42v4.91c0,2.7-.08,4.84-.17,4.74-.09-.09-1.18-2.28-2.41-4.85l-2.24-4.68-1.89-.07-1.89-.07.06,9M111.96,78.59v8.91l1.57.09c.86.05,1.64.05,1.74,0s.17-4.1.17-9v-8.92h-3.48v8.91M133.54,78.59v8.92l.99.15c.55.08,1.36.11,1.8.07l.81-.08.06-3.54.06-3.54h4.8l.16,1.63c.09.9.14,2.49.11,3.54l-.05,1.91h3.44l.06-8.99.06-8.99h-3.72v7.19h-4.87v-7.19h-3.71v8.92M70.66,78.61v5.45h2.07c1.57,0,2.16-.09,2.44-.36.31-.31.36-1.09.36-4.99,0-5.7.08-5.55-2.9-5.55h-1.97v5.45M35.49,78.96c0,2.11.04,2.97.08,1.91s.04-2.78,0-3.83-.08-.19-.08,1.91M86.92,78.01c-.39,1.26-.71,2.36-.71,2.44s.73.14,1.62.14,1.62-.06,1.62-.13c0-.39-1.52-4.74-1.66-4.74-.09,0-.48,1.03-.88,2.3M62.16,80.46c0,1.15.04,1.65.09,1.11.05-.54.05-1.48,0-2.09-.05-.61-.09-.17-.09.98M46.12,82.38c1.75.04,4.63.04,6.38,0,1.75-.04.32-.07-3.19-.07s-4.95.03-3.19.07M60.21,85.36c-.44.46-1.27,1.11-1.84,1.45l-1.04.62-8.35.12-8.35.12,8.13.05,8.13.05,1.15-.57c.95-.47,3.5-2.67,3.09-2.67-.07,0-.48.37-.92.83M60.62,89.53c-.61.32-1.1.63-1.1.69,0,.1,2.3-.98,2.53-1.2.29-.26-.47,0-1.43.51M42.41,90.96c.73.05,1.93.05,2.67,0,.73-.05.13-.08-1.33-.08s-2.07.04-1.33.08M129.3,90.96c.8.05,2.1.05,2.9,0,.8-.05.15-.08-1.45-.08s-2.25.04-1.45.08M47.39,91.41c.54.19,1.53.83,2.2,1.42l1.22,1.07-.92-.98c-.91-.96-2.51-1.91-3.15-1.88-.18,0,.11.17.65.37M67.05,99.96c0,4.98.03,6.98.07,4.45.04-2.53.04-6.6,0-9.05-.04-2.45-.07-.38-.07,4.6M93.4,92.71l.11,1.67.07-1.48c.04-.82-.01-1.57-.11-1.67-.1-.1-.14.57-.07,1.48M107.05,92.77l.08,1.72-3.67.06-3.67.06v3.48l3.52.12c1.93.06,3.47.04,3.41-.06-.06-.1-1.62-.17-3.46-.17h-3.35v-3.24l3.65-.06,3.65-.06.07-1.6c.04-.88-.01-1.68-.12-1.79-.1-.1-.15.59-.11,1.54M112.6,95.26c.11,7.92.19,8.66.24,2.2.03-3.54-.03-6.44-.13-6.44-.1,0-.15,1.91-.11,4.23M117.87,91.31c-.18.5-.24,13.59-.05,13.48.1-.06.17-3.12.17-6.8,0-5.14.07-6.72.29-6.81.23-.09.23-.12,0-.14-.16,0-.35.11-.4.27M119.33,91.19c.41.05,1.09.05,1.51,0,.41-.05.08-.09-.75-.09s-1.17.04-.75.09M126.51,91.62c-1.07.72-2.26,2.31-2.23,2.98.02.4.05.37.21-.14.31-1.02,1.16-2.05,2.29-2.76.58-.37.95-.67.83-.67s-.62.27-1.1.59M139.86,99.9l.06,8.88.06-8.69c.05-6.59.13-8.73.35-8.87.2-.13.17-.18-.12-.19-.38,0-.4.55-.35,8.87M145.78,91.2l4.93.07v3.24h-3.6c-3.28,0-3.59.04-3.58.41.01.24.07.29.14.12.09-.21,1.05-.29,3.69-.29h3.58v-3.71l-5.05.05-5.05.05,4.93.07M153.6,99.72c0,4.85.03,6.87.07,4.48.04-2.38.04-6.35,0-8.82-.04-2.47-.07-.51-.07,4.34M121.58,98.21c0,3.76.03,5.3.07,3.42.04-1.88.04-4.96,0-6.84-.04-1.88-.07-.34-.07,3.42M70.53,94.81c-.07.17-.09,1.08-.05,2.03l.07,1.72h2.09s2.09.03,2.09.03l-2.03-.08-2.03-.08v-3.68l2.15-.08,2.15-.08-2.15-.05c-1.62-.04-2.18.03-2.27.26M86.07,94.82c-.07.17-.09.98-.05,1.8l.07,1.48h3.42s3.42.02,3.42.02l-3.36-.07-3.36-.07v-3.22l3.65-.07,3.65-.07-3.66-.05c-2.9-.04-3.69.01-3.78.26M128.24,95.04c-.48.51-.5.74-.5,5s0,4.47.57,5.03c.51.51.77.57,2.4.57s1.86-.04,2.39-.64l.56-.64-.59.52c-.51.44-.86.52-2.38.52-2.75,0-2.71.09-2.71-5.44v-4.51l.61-.48c.34-.26.51-.48.39-.48s-.45.24-.73.54M130.98,94.68c1.78.08,2.54.43,2.58,1.2.01.26.05.28.14.06.07-.17-.12-.56-.41-.87-.48-.51-.69-.56-2.29-.52l-1.76.05,1.73.08M159.02,94.68c1.06.04,2.73.04,3.71,0,.98-.04.12-.08-1.93-.08s-2.85.04-1.79.08M137.02,95.65v.92l-1.68.08-1.68.08,1.8.05,1.8.05v-1.04c0-.57-.05-1.04-.12-1.04s-.12.41-.12.92M96.28,102.04c0,3.57.03,5,.07,3.18.04-1.83.04-4.75,0-6.5-.04-1.75-.07-.25-.07,3.32M35.47,98.21c0,1.21.04,1.71.09,1.1s.05-1.6,0-2.2-.09-.11-.09,1.1M43.51,96.3c2.8.11,2.79.1,2.79,3.9,0,2.24-.08,3.11-.29,3.19-.17.07-.13.12.12.14.37.02.41-.28.41-3.19,0-3.05-.03-3.23-.54-3.71-.47-.45-.77-.5-2.49-.46l-1.96.05,1.97.08M40.8,98.56c0,.89.04,1.23.09.75.05-.48.05-1.21,0-1.62-.05-.41-.09-.02-.09.88M54.3,98.86l-2.55,1.32-.07,1.68c-.04.93.01,1.68.12,1.68.1,0,.15-.73.11-1.61l-.08-1.61,2.74-1.39c1.51-.77,2.64-1.39,2.51-1.39-.13,0-1.38.59-2.78,1.32M143.52,98.04c0,.1,1.51.17,3.36.17h3.35l.08,1.8.08,1.8v-1.86s-.03-1.86-.03-1.86l-3.42-.12c-1.88-.06-3.42-.04-3.42.06M157.21,98.04c0,.1,1.54.15,3.42.13,3.44-.04,3.03-.13-1.16-.24-1.24-.03-2.26.02-2.26.11M133.53,98.39l3.47.07.07,3.59.07,3.59v-3.65s-.02-3.65-.02-3.65h-3.54s-3.54-.02-3.54-.02l3.47.07M164.01,99.96c0,.89.04,1.23.09.75.05-.48.05-1.21,0-1.62-.05-.41-.09-.02-.09.88M92.93,100.23c-.06.92-.03,1.59.07,1.48.1-.1.15-.86.11-1.67l-.07-1.48-.11,1.67M86.07,102.24c-.07.17-.09.93-.05,1.68l.07,1.37h3.54s3.54.02,3.54.02l-3.5-.07-3.5-.07.08-1.62c.08-1.64.05-1.88-.17-1.3M99.71,105.34l-.05,3.53-1.57.08-1.57.08,1.57.05c1.11.03,1.61-.04,1.69-.26.06-.17.08-1.81.04-3.65l-.07-3.35-.05,3.53M70.48,105.57l.05,3.44.07-3.31.07-3.31h.92c.78,0,.97.1,1.28.7.2.38.42.7.49.7s-.07-.34-.31-.75c-.38-.66-.58-.76-1.53-.82l-1.09-.07.05,3.44M35.55,103.71c-.21.21-.2,4.9.02,5.03.1.06.14-1.02.1-2.41l-.07-2.52,1.23-.09,1.23-.09-1.18-.04c-.65-.02-1.25.03-1.33.11M109.19,105.13c0,.29.13.82.31,1.17.4.77,2.32,2.59,2.74,2.59.16,0-.02-.19-.4-.43-.97-.59-2.17-2.01-2.34-2.77-.22-1.01-.29-1.14-.31-.56M113.21,105.12c.38.45.66.52,2.13.52.93,0,1.74-.08,1.8-.17s-.67-.14-1.63-.1c-1.42.06-1.83,0-2.24-.35l-.5-.43.44.52M147.1,105.35l3.59.07.08,1.68.08,1.68v-1.74s-.03-1.74-.03-1.74h-3.65s-3.65-.02-3.65-.02l3.59.07M159.02,105.35c1.06.04,2.73.04,3.71,0,.98-.04.12-.08-1.93-.08-2.04,0-2.85.04-1.79.08M164.48,107.15c0,.89.04,1.23.09.75.05-.48.05-1.21,0-1.62-.05-.41-.09-.02-.09.88M77.45,109.06c.61.05,1.55.05,2.09,0,.54-.05.04-.09-1.11-.09s-1.59.04-.98.09M85.79,109.06c1.36.04,3.66.04,5.1,0,1.44-.04.33-.07-2.48-.07-2.81,0-3.99.03-2.62.07M128.61,109.06c.55.05,1.38.05,1.86,0,.48-.05.03-.09-.99-.09-1.02,0-1.41.04-.86.09M69.31,112.85c-.54.39-.97.77-.97.84s.39-.18.87-.54c.68-.52,1.21-.7,2.38-.8l1.51-.14-1.4-.04c-1.23-.03-1.52.05-2.38.68M73.85,112.3c.42.05,1.04.05,1.39,0,.35-.05,0-.1-.76-.09-.77,0-1.05.04-.63.1M86.49,112.31c.86.04,2.32.04,3.25,0,.93-.04.23-.08-1.56-.08-1.79,0-2.55.04-1.69.08M96.98,112.43c-.06.16-.08,3.48-.05,7.37l.06,7.07.05-7.24.05-7.24,1.8-.08,1.8-.08-1.81-.05c-1.27-.03-1.84.04-1.92.25M107.36,112.31c1.74.08,1.79.1,1.88.71.09.57.1.56.13-.13l.03-.75-1.91.05-1.91.05,1.78.08M113.78,112.35c1.93.13,1.94.13,2.37.94.24.45.44.71.44.58s-.2-.57-.45-.99l-.46-.75-1.92.04-1.92.04,1.94.13M120.71,112.28c-.09.09-.17,2.26-.17,4.82v4.66s-.57-1.04-.57-1.04c-.31-.57-.56-.97-.57-.88-.02.32,1.01,2.27,1.2,2.27.1,0,.19-2.19.19-4.87v-4.87h3.48l.06,8.99.06,8.99v-9.05s0-9.05,0-9.05l-1.75-.07c-.96-.04-1.82,0-1.91.1M142,112.43c-.06.16-.08,4.31-.05,9.22l.06,8.93,1.62.02,1.62.02-1.57-.08-1.57-.08v-18.06l1.8-.08,1.8-.08-1.81-.05c-1.27-.03-1.84.04-1.92.24M148.5,112.43c-.06.16-.08,4.31-.05,9.22l.06,8.93h5.28s5.28.01,5.28.01l-5.22-.07-5.22-.07v-18.09h3.23l.08,2.03.08,2.03.05-2.15.05-2.15h-1.75c-1.19,0-1.78.09-1.86.29M40.61,112.73c-.38.19-.49.26-.23.16.26-.1,4.07-.23,8.47-.3l8.01-.12-7.77-.04c-6.43-.03-7.89.02-8.47.3M57.9,113.2c1.52.86,2.99,2.36,3.62,3.69.3.64.55,1.03.55.86,0-1.05-2.46-3.92-4.12-4.78-1.16-.6-1.2-.43-.06.22M112.07,121.71v8.88h3.72v-3.89s.02-3.89.02-3.89l-.07,3.83-.07,3.83h-3.46l-.06-8.82-.06-8.82v8.88M67.43,114.84c-.46.59-.48.85-.43,6.55l.05,5.94.12-6.07c.11-5.54.16-6.11.57-6.55.24-.27.38-.49.31-.49s-.35.28-.62.61M81.67,121.42c0,3.25.03,4.59.07,2.96s.04-4.29,0-5.92-.07-.3-.07,2.96M87.31,115.78c.41.05,1.09.05,1.51,0,.41-.05.08-.09-.75-.09s-1.17.04-.75.09M131.02,116.39c-.49.53-.51.68-.44,5.16l.07,4.62.05-4.63c.05-4.39.08-4.65.56-5.16.28-.3.45-.54.39-.54s-.35.24-.63.54M126.91,121.19c0,2.74.03,3.87.07,2.49s.04-3.62,0-4.99-.07-.25-.07,2.49M139.34,118.1c-.06.92-.03,1.59.07,1.48.1-.1.15-.86.11-1.67l-.07-1.48-.11,1.67M90.94,121.42c0,2.62.03,3.69.08,2.38s.04-3.45,0-4.76-.08-.24-.08,2.38M70.52,121.42c0,2.49.03,3.51.08,2.26.04-1.24.04-3.28,0-4.52-.04-1.24-.08-.23-.08,2.26M79.24,118.45c-.06.73-.03,1.24.08,1.13.1-.1.15-.7.11-1.32l-.08-1.13-.11,1.32M45.54,117.88c1.82.04,4.79.04,6.61,0,1.82-.04.33-.07-3.31-.07s-5.13.03-3.31.07M62.13,124.26l-.05,6.2-13.17.06-13.17.06,13.17.06c10.46.04,13.2,0,13.29-.24.06-.16.08-3.01.05-6.32l-.07-6.03-.05,6.2M56.74,122.1v2.77l-1.91.08-1.91.08,2.03.05,2.03.05v-2.9c0-1.6-.05-2.9-.12-2.9s-.12,1.25-.12,2.78M76.4,119.73c.41.05,1.14.05,1.62,0,.48-.05.14-.09-.75-.09-.89,0-1.29.04-.88.09M136.49,119.73c.41.05,1.14.05,1.62,0,.48-.05.14-.09-.75-.09-.89,0-1.29.04-.88.09M38.18,121.65l-2.67.14,2.73.05c1.69.03,2.73-.04,2.73-.19,0-.13-.03-.21-.06-.19-.03.03-1.26.11-2.73.19M116.39,121.77c0,.13.3.81.67,1.51s.67,1.17.67,1.04-.3-.81-.67-1.51-.67-1.17-.67-1.04M109.22,124.75c-.05,2.83-.31,3.49-1.86,4.81-.47.4-.63.61-.35.47.65-.33,2.15-2.08,2.3-2.69.06-.26.08-1.51.04-2.79l-.08-2.32-.05,2.52M76.64,122.98c.55.05,1.38.05,1.86,0,.48-.05.03-.09-.99-.09-1.02,0-1.41.04-.86.09M137.59,122.98l1.73.08.08,1.79.08,1.79v-1.86s-.03-1.86-.03-1.86l-1.8-.02-1.8-.02,1.73.08M100.62,125.75c-.04.64.99,1.47,1.8,1.44.55-.02.54-.04-.15-.2-.94-.22-1.4-.59-1.52-1.24l-.1-.51-.03.51M85.29,125.87c-.02.63,1.1,1.35,2.05,1.32l.84-.03-.93-.15c-1.14-.19-1.48-.39-1.74-1.03-.15-.37-.2-.4-.22-.11M152.1,126.81c0,.1,1.64.15,3.65.13,3.73-.04,3.3-.14-1.16-.24-1.37-.03-2.49.02-2.49.11M118.94,127.1c0,.13.38.96.86,1.86l.86,1.62,1.74.02,1.74.02-1.71-.14-1.71-.14-.89-1.74c-.49-.96-.89-1.64-.89-1.51M137.38,129.23c-.76.72-1.18,1.19-.93,1.05.44-.24,2.63-2.38,2.41-2.36-.06,0-.73.59-1.49,1.31M73.21,130.47l-2.9.14,2.83.05c1.69.03,2.89-.05,2.97-.18.08-.13.11-.21.07-.18-.04.03-1.38.11-2.97.18M86.49,130.64c.86.04,2.32.04,3.25,0,.93-.04.23-.08-1.56-.08-1.79,0-2.55.04-1.69.08M101.69,130.64c.8.05,2.1.05,2.9,0,.8-.05.15-.08-1.45-.08s-2.25.04-1.45.08M131.87,130.64c.8.05,2.06.05,2.78,0s.07-.08-1.46-.08c-1.53,0-2.13.04-1.33.08"/>
  <path class="st0" d="M40.89,69.78c-1.89.67-3.97,2.58-4.83,4.42-.37.79-.43,1.52-.44,4.81,0,2.46.08,3.89.23,3.89.13,0,1.28-.69,2.55-1.54l2.32-1.54v-1.89c0-1.83.02-1.91.77-2.63.74-.72.83-.74,2.78-.74h2.02v-5.1h-2.26c-1.29.02-2.64.16-3.14.34M51.34,69.58c-.1.1-.17,1.26-.17,2.57v2.4h2.18c2.09,0,2.21.03,2.9.67l.72.67v5.34l-.71.6-.71.6h-12.62l-2.51,1.67-2.51,1.67.54.43c.3.24.93.63,1.4.89.81.43,1.35.46,8.93.45,7.43,0,8.15-.04,9.04-.45,1.24-.56,2.96-2.14,3.69-3.39.53-.91.57-1.19.6-4.77.04-4.54-.09-4.95-2.13-6.95-2.1-2.06-2.87-2.38-5.92-2.49-1.4-.05-2.63-.01-2.73.09M56.48,91.85l-5.25,2.67-1.36-1.36c-1.89-1.89-2.92-2.21-6.65-2.09-3.13.1-3.82.33-5.65,1.91-1.51,1.3-1.93,2.42-1.93,5.08v2.25h5.1v-1.62c0-2.28.3-2.55,2.86-2.55,1.72,0,1.99.06,2.44.54.47.5.5.77.5,3.71v3.18h-3.68c-2.02,0-4.48.07-5.46.15l-1.78.15.07,2.46.07,2.46h26.22v-5.1l-5.17-.06-5.17-.06.07-1.68.07-1.68,5.1-2.55,5.1-2.55.06-2.96c.04-1.63-.02-2.95-.12-2.95-.1,0-2.54,1.21-5.43,2.68M67.18,100v8.89h3.25v-6.75l1.09.07c1.22.08,1.1-.07,3.64,4.65l1.09,2.03h4.19l-.45-.75c-.74-1.23-3.26-5.87-3.34-6.14-.04-.14.29-.5.72-.8,1.31-.9,1.87-2.25,1.87-4.54,0-2.1-.27-2.92-1.36-4.09-1.23-1.32-1.62-1.41-6.35-1.44l-4.35-.02v8.89M82.6,91.31c-.06.16-.09,4.16-.05,8.88l.06,8.58,5.39.06,5.39.06v-3.48l-3.65-.06-3.65-.06v-3.25l3.36-.12,3.36-.12.07-1.79.07-1.79-3.43-.06-3.43-.06v-3.48l3.66-.06,3.66-.06-.07-1.68-.07-1.68-5.28-.06c-4.11-.05-5.31,0-5.4.23M96.37,91.14c-.07.07-.08,4.07-.02,8.88l.11,8.75,1.6.07,1.6.07v-6.97l3.54-.06,3.54-.06-.04-1.74-.04-1.74-3.44-.12-3.44-.12v-3.48l3.66-.06,3.66-.06-.07-1.68-.07-1.68-5.24-.06c-2.88-.03-5.29,0-5.37.07M109.27,91.34c-.07.18-.1,3.45-.05,7.26.08,7.63.07,7.58,1.62,9.06,1.18,1.14,2.21,1.46,4.6,1.46s3.15-.25,4.36-1.27c1.63-1.38,1.67-1.61,1.67-9.49v-7.07l-1.51-.08c-.83-.04-1.62-.04-1.74,0-.14.05-.23,2.6-.23,6.75v6.67l-.54.5c-.45.42-.81.5-2.17.5-2.61,0-2.49.33-2.63-7.74l-.12-6.76-1.57-.07c-1.2-.05-1.6,0-1.7.27M126.75,91.71c-.59.38-1.37,1.13-1.73,1.67l-.65.98v5.35c0,2.94.08,5.64.18,6,.22.77,1.64,2.4,2.47,2.82.33.17,1.9.37,3.5.46l2.91.16,1.1-.73c.61-.4,1.41-1.18,1.79-1.73l.69-1v-7.23h-6.98l.07,1.8.07,1.8,1.68.07,1.68.07v1.23c0,1.82-.53,2.23-2.87,2.23-1.6,0-1.86-.06-2.36-.57-.57-.57-.57-.6-.57-5.06s.01-4.51.54-5c.46-.44.8-.5,2.51-.5s2.03.06,2.48.54c.28.3.5.77.5,1.04,0,.47.11.51,1.62.51h1.62v-1.1c0-.91-.15-1.3-.88-2.26-1.53-2.03-1.98-2.21-5.38-2.21-2.85,0-2.97.02-4.01.68M140.33,91.18c-.22.09-.29,2.09-.29,8.91v8.8h10.67v-3.48h-7.19v-3.48h6.73v-3.71h-6.73v-3.71h7.19v-3.25h-4.74c-2.61,0-4.88-.04-5.05-.1-.17-.05-.44-.05-.6.02M153.73,99.71c0,4.79-.03,8.79-.06,8.89s2.37.2,5.34.24l5.39.06v-3.49h-7.19v-3.47l3.31-.06,3.31-.06.07-1.8.07-1.8h-6.75v-3.71h7.21l-.07-1.68-.07-1.68-5.28-.07-5.28-.07v8.71M70.53,94.81c-.07.17-.09,1.08-.05,2.03l.07,1.72,2.03.07c2.78.09,2.96-.03,2.96-2.04,0-1.35-.07-1.65-.45-1.85-.69-.37-4.41-.31-4.56.07M71.59,112.37c-1.71.13-2.74.75-3.8,2.28l-.61.88v11.87l.75.91c.41.5,1.11,1.19,1.55,1.53.76.59.9.62,3.66.62h2.87l1.17-1.1c1.65-1.55,2.06-2.45,2.06-4.58v-1.75h-3.48v1.51c0,1.18-.1,1.6-.45,1.96-.97.97-3.48.91-4.36-.11-.5-.58-.52-.77-.52-4.98s.02-4.41.52-4.97c.56-.63.79-.69,2.67-.63,1.7.05,2.15.53,2.15,2.34v1.37l1.64.08c.9.04,1.69.03,1.74-.02.05-.05.1-.77.1-1.59,0-1.87-.43-2.82-1.99-4.38-1.15-1.16-1.23-1.2-2.68-1.28-.82-.04-2.17-.03-3,.04M130.17,112.58c-.51.24-1.25.78-1.65,1.21-1.54,1.67-1.49,1.41-1.49,7.52v5.59l.68,1.08c.38.59,1.12,1.4,1.66,1.79.96.69,1.02.71,3.82.71h2.85l1.31-1.19c1.75-1.6,1.98-2.11,1.98-4.36v-1.87h-3.48v1.59c0,2.27-.31,2.5-3.18,2.4-.91-.03-1.33-.17-1.68-.55-.44-.48-.47-.8-.47-5.06s.01-4.57.54-5.06c.76-.71,3.53-.74,4.28-.04.54.5.87,1.76.7,2.65-.1.54-.06.56,1.5.63.88.04,1.65.03,1.7-.02.05-.05.1-.84.1-1.76,0-1.47-.08-1.79-.72-2.75-.98-1.49-2.37-2.62-3.41-2.79-1.74-.29-4.08-.15-5.04.29M83.97,113.06c-.52.38-1.22,1.09-1.55,1.58l-.62.89v11.85l.69.95c.38.52,1.08,1.22,1.56,1.54.84.57,1.02.59,4.12.59s3.27-.02,4.12-.61c.48-.34,1.19-1.08,1.58-1.66l.7-1.05v-5.55c0-6.37-.03-6.49-1.91-8.18l-1.16-1.04h-3.29c-3.29,0-3.3,0-4.23.69M97.11,119.76v7.39l.64.94c.35.52,1.04,1.27,1.54,1.66.9.71.91.71,3.85.71s2.96,0,3.91-.69c.53-.38,1.22-1.09,1.53-1.57.56-.85.58-1,.73-7.02.09-3.38.09-6.75,0-7.48l-.17-1.33h-3.45v6.92c0,8.09.12,7.7-2.4,7.84-1.22.07-1.58,0-2.09-.4l-.61-.48v-13.89h-3.48v7.39M112.05,112.74c.08.2.14,4.27.14,9.05v8.68h3.47l.06-5.05.06-5.05,2.48,5.05,2.48,5.05h3.51v-18.1h-3.48v4.87c0,2.68-.08,4.87-.17,4.87-.1,0-1.24-2.19-2.54-4.87l-2.36-4.87h-1.9c-1.64,0-1.88.05-1.76.37M142.12,121.42v9.05h3.48v-18.1h-3.48v9.05M148.62,121.42v9.05h10.67v-3.48h-7.19v-4.35c0-2.39-.07-5.68-.15-7.31l-.15-2.96h-3.18v9.05M40.33,112.98c-1.22.43-3.13,2.13-3.93,3.48-.49.84-.63,1.42-.72,3.11l-.12,2.08,2.64-.07,2.64-.07.07-1.32c.06-1.15.16-1.4.77-1.91l.7-.59h13l.79.79.79.79v5.84l-10.62.06-10.62.06-.07,2.61-.07,2.61h26.47v-6.21c0-6.02-.02-6.24-.55-7.37-.61-1.31-2.39-3.08-3.82-3.81-.91-.47-1.28-.48-8.68-.47-6.23.01-7.91.09-8.7.37M86.44,115.77c-1.14.47-1.16.56-1.16,5.67v4.82l.6.47c1.14.89,4.65.5,5.06-.56.08-.21.14-2.39.14-4.86,0-5.53.02-5.48-2.57-5.6-.95-.04-1.88-.02-2.07.06"/>
</svg>